<svg xmlns="http://www.w3.org/2000/svg" width="83.065" height="85.449" viewBox="0 0 83.065 85.449">
  <g id="Grupo_155462" data-name="Grupo 155462" transform="translate(-195.061 -7964.689)">
    <ellipse id="Elipse_4691" data-name="Elipse 4691" cx="39.456" cy="40.715" rx="39.456" ry="40.715" transform="translate(199.323 7964.689) rotate(3)" fill="#fff"/>
    <g id="cBpRW6" transform="translate(-4743.512 7124.975)">
      <g id="Grupo_143032" data-name="Grupo 143032" transform="translate(4955.523 852.734)">
        <path id="Trazado_184068" data-name="Trazado 184068" d="M4963.807,864.447a12.37,12.37,0,0,1,3-7.544,12.087,12.087,0,0,1,18.885.778,1.368,1.368,0,0,0,1.259.643,10.506,10.506,0,0,1,9.633,5.593,1.726,1.726,0,0,0,.972.758,9.168,9.168,0,0,1,7.113,9.2,9.064,9.064,0,0,1-8.093,8.729c-.382.045-.763.1-1.273.169,0,.614-.025,1.218.006,1.819.042.808-.29,1.268-1.121,1.174-.733-.083-1.05.208-1.179.907a4.734,4.734,0,0,1-.488,1.258c-.442.866-.973,1.69.17,2.483.142.1.063.837-.148,1.065-1.071,1.167-2.216,2.265-3.34,3.383a.88.88,0,0,1-1.483-.112c-.443-.579-.854-.541-1.469-.214-.874.466-1.831.779-2.768,1.163-.238,1.852-.238,1.852-2.543,2.035v4.313c.048.033.1.1.148.1,2,.039,1.971-.128,1.959,2.094,0,.938-.021,1.877.006,2.814.022.735-.307,1.085-1.031,1.085-1.261,0-2.523-.006-3.785,0-.761.005-1.124-.322-1.1-1.114.029-1.2,0-2.394.01-3.591.007-1.139.125-1.244,1.308-1.262.252,0,.5-.021.808-.035v-4.39c-.693-.062-1.5.09-1.976-.243-.427-.3-.482-1.13-.749-1.851-.894-.392-1.966-.9-3.074-1.312-.22-.083-.635.12-.855.313-.846.743-1.053.764-1.848-.022-.92-.91-1.832-1.828-2.746-2.744-.976-.979-.975-1.077.009-2.1.109-.115.211-.239.279-.316-.435-1.126-.819-2.219-1.3-3.27a1.04,1.04,0,0,0-.828-.4c-.96.029-1.377-.359-1.3-1.327.044-.542.008-1.09.008-1.736a9.381,9.381,0,0,1-7.517-3.669,8.786,8.786,0,0,1-1.85-5.6C4955.582,869.577,4958.134,865.351,4963.807,864.447Zm31.5,16.652a15.878,15.878,0,0,0,1.865-.2,7.43,7.43,0,0,0,5.878-7.516,7.33,7.33,0,0,0-6.244-7.185,1.789,1.789,0,0,1-1.477-1.148,8.732,8.732,0,0,0-8.994-5.062,1.311,1.311,0,0,1-1.446-.656,10.5,10.5,0,0,0-19.452,5.4c-.031.925-.278,1.3-1.27,1.352a7.49,7.49,0,0,0-1.326,14.754,16.33,16.33,0,0,0,1.944.249c.211-1.628.214-1.618,1.816-2.033a.78.78,0,0,0,.434-.423c.439-1.064.848-2.14,1.28-3.251-.1-.11-.232-.252-.367-.39-.892-.916-.892-1.04.021-1.956.776-.779,1.561-1.55,2.332-2.334,1.271-1.293,1.332-1.5,2.743-.077.04.04.115.044.066.027,1-.413,1.908-.85,2.855-1.151.622-.2.927-.447.831-1.136-.084-.6.066-1.133.825-1.138,1.65-.014,3.3-.04,4.947.029.29.012.826.507.794.708-.186,1.173.5,1.454,1.413,1.721a19.3,19.3,0,0,1,2.316,1.006c.133-.122.276-.25.414-.383.924-.893,1.1-.89,2.04.045q1.166,1.166,2.333,2.332c1.287,1.287,1.287,1.286.051,2.655a.325.325,0,0,0-.053.127,26.9,26.9,0,0,1,1.154,2.8c.2.667.483.89,1.144.818.758-.083,1.16.283,1.134,1.07C4995.3,880.412,4995.306,880.665,4995.306,881.1Zm-25.946-7.023c.983,1.178.938,1.156.216,2.627a18.642,18.642,0,0,0-1.128,2.969c-.205.7-.508,1.079-1.269,1.01a2.922,2.922,0,0,0-.638.079v3.425c1.359-.322,1.8.4,2.049,1.55a10.242,10.242,0,0,0,.968,2.412c.742,1.456.77,1.442-.21,2.652l2.343,2.411c1.226-1.028,1.212-1,2.63-.269a10.864,10.864,0,0,0,2.314.962c1.133.282,2.115.567,1.667,2.105h3.467c.193-1.617.209-1.575.873-1.838,1.343-.532,2.652-1.151,4-1.649a1.975,1.975,0,0,1,1.193.142c.248.086.425.374.647.584l2.383-2.439c-1.006-1.2-.981-1.19-.228-2.667a11.017,11.017,0,0,0,.938-2.322c.274-1.116.609-2.018,2.06-1.637v-3.55c-1.492.4-1.766-.527-2.077-1.619a13.923,13.923,0,0,0-1.286-2.9,1.109,1.109,0,0,1,.208-1.611,2.561,2.561,0,0,0,.341-.413l-2.328-2.454c-.61.412-.971,1.239-1.987.694-1.236-.663-2.612-1.06-3.89-1.653a1.98,1.98,0,0,1-.751-.942,2.361,2.361,0,0,1-.021-.893h-3.576c.521,1.573-.48,1.839-1.622,2.11a7.275,7.275,0,0,0-2.22.929c-1.011.65-1.9,1.053-2.677-.307Zm9.449,29.677v2.7h2.578v-2.7Z" transform="translate(-4955.523 -852.734)" fill="#12263f"/>
        <path id="Trazado_184069" data-name="Trazado 184069" d="M5158.441,1059.937c-1.656,0-3.263-.009-4.87.005-.594.005-1.192-.053-1.187-.788s.59-.8,1.193-.8c1.777.014,3.556.028,5.333,0,.891-.016,1.2.381,1.187,1.233-.025,2.712-.009,5.425-.009,8.1.091.078.138.154.185.153,2.284-.047,1.953.241,1.969,2.178.007.905-.025,1.811.009,2.715.029.8-.358,1.11-1.11,1.105-1.229-.008-2.458-.017-3.686,0-.827.013-1.169-.376-1.157-1.182.02-1.131,0-2.263.005-3.394,0-1.234.149-1.375,1.39-1.393.226,0,.45-.02.748-.033Zm2.159,12.224v-2.681H5158v2.681Z" transform="translate(-5114.164 -1018.433)" fill="#12263f"/>
        <path id="Trazado_184070" data-name="Trazado 184070" d="M4968.505,1059.959c0,2.487,0,4.841,0,7.195,0,.22.02.439.029.643,2.136.3,2.136.3,2.136,2.5,0,.84-.018,1.681.006,2.52a.877.877,0,0,1-.977,1.035q-1.986.016-3.974,0c-.679,0-.981-.369-.975-1.044.013-1.2,0-2.391,0-3.586s.128-1.307,1.343-1.329c.25,0,.5-.028.841-.047v-7.781c0-1.681,0-1.681,1.669-1.681,1.648,0,3.3.009,4.943,0,.6,0,1.062.176,1.05.838-.011.624-.479.749-1.026.744C4971.935,1059.951,4970.292,1059.959,4968.505,1059.959Zm-2.072,9.547v2.671h2.581v-2.671Z" transform="translate(-4962.961 -1018.455)" fill="#12263f"/>
        <path id="Trazado_184071" data-name="Trazado 184071" d="M5026.6,872.632a10.649,10.649,0,0,1,5.072,1.433c.533.312.935.7.546,1.314-.366.577-.891.345-1.364.064a8,8,0,0,0-5.874-1.031c-3.055.636-4.761,2.793-5.188,6.416-.067.569-.079,1.2-.84,1.149-.789-.052-.808-.693-.765-1.312A8.243,8.243,0,0,1,5026.6,872.632Z" transform="translate(-5006.01 -868.769)" fill="#12263f"/>
        <path id="Trazado_184072" data-name="Trazado 184072" d="M5042.476,974.035a7.94,7.94,0,0,0,7.865-7.644c.031-.617.183-1.175.884-1.127.727.05.734.674.711,1.257a9.57,9.57,0,0,1-19.125-.772c.164-5.063,4.419-9.351,9.233-9.261a1.421,1.421,0,0,1,1.029.489c.338.507-.116.994-.916,1.052a7.9,7.9,0,0,0-6.959,4.523A7.984,7.984,0,0,0,5042.476,974.035Z" transform="translate(-5017.803 -936.343)" fill="#12263f"/>
        <path id="Trazado_184073" data-name="Trazado 184073" d="M5066.746,985.313a4.832,4.832,0,0,1-4.429,4.89c-.554.055-1.1.04-1.2-.642-.1-.745.438-.89,1.04-.96a3.248,3.248,0,0,0,3.019-3.21,3.3,3.3,0,0,0-6.583-.383c-.069.612-.155,1.149-.9,1.081-.789-.072-.7-.713-.67-1.264a4.874,4.874,0,0,1,9.723.487Z" transform="translate(-5037.301 -955.643)" fill="#12263f"/>
      </g>
    </g>
  </g>
</svg>
