<svg xmlns="http://www.w3.org/2000/svg" xmlns:xlink="http://www.w3.org/1999/xlink" width="420.019" height="288.154" viewBox="0 0 420.019 288.154">
  <defs>
    <linearGradient id="linear-gradient" x1="0.5" x2="0.5" y2="1" gradientUnits="objectBoundingBox">
      <stop offset="0" stop-color="#fff"/>
      <stop offset="1" stop-color="#d2e6ee"/>
    </linearGradient>
    <linearGradient id="linear-gradient-4" x1="0.5" x2="0.5" y2="1" gradientUnits="objectBoundingBox">
      <stop offset="0" stop-color="#4dd0e1"/>
      <stop offset="1" stop-color="#039be5"/>
    </linearGradient>
    <linearGradient id="linear-gradient-5" x1="0.5" x2="0.5" y2="1" gradientUnits="objectBoundingBox">
      <stop offset="0" stop-color="#039be5"/>
      <stop offset="1" stop-color="#027fbc"/>
    </linearGradient>
  </defs>
  <g id="Grupo_155459" data-name="Grupo 155459" transform="translate(-960.626 -12005.714)">
    <ellipse id="Elipse_5962" data-name="Elipse 5962" cx="138.222" cy="140.914" rx="138.222" ry="140.914" transform="translate(1100.231 12005.714)" fill="#e6e6e6"/>
    <ellipse id="Elipse_5963" data-name="Elipse 5963" cx="125.836" cy="125.836" rx="125.836" ry="125.836" transform="translate(975.076 12042.197)" fill="#e6e6e6"/>
    <g id="Grupo_154592" data-name="Grupo 154592" transform="translate(357.194 11055.201)">
      <path id="Trazado_196774" data-name="Trazado 196774" d="M603.5,1077.1H845.921a.066.066,0,0,1,.065.065v148.4a.066.066,0,0,1-.065.065H603.5a.065.065,0,0,1-.065-.065v-148.4a.065.065,0,0,1,.065-.065" transform="translate(0 -88.053)" fill-rule="evenodd" fill="url(#linear-gradient)"/>
      <path id="Trazado_196775" data-name="Trazado 196775" d="M1093.8,1751.97h70.665a1.45,1.45,0,0,0,1.446-1.446h0a1.45,1.45,0,0,0-1.446-1.445H1093.8a1.45,1.45,0,0,0-1.446,1.445h0a1.45,1.45,0,0,0,1.446,1.446" transform="translate(-390.74 -625.093)" fill="#2ec49f" fill-rule="evenodd"/>
      <path id="Trazado_196776" data-name="Trazado 196776" d="M1484.65,1751.97H1502a1.45,1.45,0,0,0,1.445-1.446h0a1.449,1.449,0,0,0-1.445-1.445H1484.65a1.45,1.45,0,0,0-1.446,1.445h0a1.45,1.45,0,0,0,1.446,1.446" transform="translate(-703.105 -625.093)" fill="#12263f" fill-rule="evenodd"/>
      <path id="Trazado_196777" data-name="Trazado 196777" d="M1055.688,1720.634h17.348a1.45,1.45,0,0,0,1.445-1.446h0a1.45,1.45,0,0,0-1.445-1.446h-17.348a1.45,1.45,0,0,0-1.446,1.446h0a1.45,1.45,0,0,0,1.446,1.446" transform="translate(-360.282 -600.049)" fill="#fff" fill-rule="evenodd"/>
      <path id="Trazado_196778" data-name="Trazado 196778" d="M1093.8,1689.3h26.021a1.45,1.45,0,0,0,1.446-1.446h0a1.45,1.45,0,0,0-1.446-1.446H1093.8a1.45,1.45,0,0,0-1.446,1.446h0a1.45,1.45,0,0,0,1.446,1.446" transform="translate(-390.74 -575.005)" fill="#12263f" fill-rule="evenodd"/>
      <path id="Trazado_196779" data-name="Trazado 196779" d="M1094.222,1657.962h21.344a1.45,1.45,0,0,0,1.446-1.446h0a1.45,1.45,0,0,0-1.446-1.445h-21.344a1.45,1.45,0,0,0-1.446,1.445h0a1.45,1.45,0,0,0,1.446,1.446" transform="translate(-391.079 -549.962)" fill="#12263f" fill-rule="evenodd"/>
      <path id="Trazado_196780" data-name="Trazado 196780" d="M1094.222,1626.625h64.8a1.45,1.45,0,0,0,1.446-1.446h0a1.45,1.45,0,0,0-1.446-1.446h-64.8a1.45,1.45,0,0,0-1.446,1.446h0a1.45,1.45,0,0,0,1.446,1.446" transform="translate(-391.078 -524.918)" fill="#12263f" fill-rule="evenodd"/>
      <path id="Trazado_196781" data-name="Trazado 196781" d="M1263.605,1689.3h17.007a1.45,1.45,0,0,0,1.445-1.446h0a1.449,1.449,0,0,0-1.445-1.446h-17.007a1.45,1.45,0,0,0-1.446,1.446h0a1.45,1.45,0,0,0,1.446,1.446" transform="translate(-526.448 -575.005)" fill="#12263f" fill-rule="evenodd"/>
      <path id="Trazado_196782" data-name="Trazado 196782" d="M1231.635,1657.962h50.554a1.45,1.45,0,0,0,1.446-1.446h0a1.45,1.45,0,0,0-1.446-1.445h-50.554a1.45,1.45,0,0,0-1.445,1.445h0a1.45,1.45,0,0,0,1.445,1.446" transform="translate(-500.898 -549.962)" fill="#2ec49f" fill-rule="evenodd"/>
      <path id="Trazado_196783" data-name="Trazado 196783" d="M1521.28,1657.962h13.563a1.45,1.45,0,0,0,1.446-1.446h0a1.45,1.45,0,0,0-1.446-1.445H1521.28a1.45,1.45,0,0,0-1.446,1.445h0a1.45,1.45,0,0,0,1.446,1.446" transform="translate(-732.379 -549.962)" fill="#6cd6ff" fill-rule="evenodd"/>
      <path id="Trazado_196784" data-name="Trazado 196784" d="M1624.182,1657.962h13.563a1.45,1.45,0,0,0,1.446-1.446h0a1.45,1.45,0,0,0-1.446-1.445h-13.563a1.45,1.45,0,0,0-1.446,1.445h0a1.45,1.45,0,0,0,1.446,1.446" transform="translate(-814.616 -549.962)" fill="#ffca05" fill-rule="evenodd"/>
      <path id="Trazado_196785" data-name="Trazado 196785" d="M1093.8,1319.654h26.021a1.45,1.45,0,0,0,1.446-1.446h0a1.45,1.45,0,0,0-1.446-1.445H1093.8a1.45,1.45,0,0,0-1.446,1.445h0a1.45,1.45,0,0,0,1.446,1.446" transform="translate(-390.74 -279.59)" fill="#12263f" fill-rule="evenodd"/>
      <path id="Trazado_196786" data-name="Trazado 196786" d="M1094.222,1288.318h21.344a1.45,1.45,0,0,0,1.446-1.445h0a1.45,1.45,0,0,0-1.446-1.445h-21.344a1.45,1.45,0,0,0-1.446,1.445h0a1.45,1.45,0,0,0,1.446,1.445" transform="translate(-391.079 -254.547)" fill="#12263f" fill-rule="evenodd"/>
      <path id="Trazado_196787" data-name="Trazado 196787" d="M1094.222,1256.981h64.8a1.45,1.45,0,0,0,1.446-1.446h0a1.45,1.45,0,0,0-1.446-1.446h-64.8a1.45,1.45,0,0,0-1.446,1.446h0a1.45,1.45,0,0,0,1.446,1.446" transform="translate(-391.078 -229.503)" fill="#5793ce" fill-rule="evenodd"/>
      <path id="Trazado_196788" data-name="Trazado 196788" d="M1263.605,1319.654h17.007a1.449,1.449,0,0,0,1.445-1.446h0a1.449,1.449,0,0,0-1.445-1.445h-17.007a1.45,1.45,0,0,0-1.446,1.445h0a1.45,1.45,0,0,0,1.446,1.446" transform="translate(-526.448 -279.59)" fill="#12263f" fill-rule="evenodd"/>
      <path id="Trazado_196789" data-name="Trazado 196789" d="M1231.635,1288.318h50.554a1.45,1.45,0,0,0,1.446-1.445h0a1.45,1.45,0,0,0-1.446-1.445h-50.554a1.45,1.45,0,0,0-1.445,1.445h0a1.45,1.45,0,0,0,1.445,1.445" transform="translate(-500.898 -254.547)" fill="#2ec49f" fill-rule="evenodd"/>
      <path id="Trazado_196790" data-name="Trazado 196790" d="M1521.28,1288.318h13.563a1.45,1.45,0,0,0,1.446-1.445h0a1.45,1.45,0,0,0-1.446-1.445H1521.28a1.45,1.45,0,0,0-1.446,1.445h0a1.45,1.45,0,0,0,1.446,1.445" transform="translate(-732.379 -254.547)" fill="#ffca05" fill-rule="evenodd"/>
      <path id="Trazado_196791" data-name="Trazado 196791" d="M1624.182,1288.318h13.563a1.45,1.45,0,0,0,1.446-1.445h0a1.45,1.45,0,0,0-1.446-1.445h-13.563a1.45,1.45,0,0,0-1.446,1.445h0a1.45,1.45,0,0,0,1.446,1.445" transform="translate(-814.616 -254.547)" fill="#12263f" fill-rule="evenodd"/>
      <path id="Trazado_196792" data-name="Trazado 196792" d="M1095.911,1553.207h17.347a1.45,1.45,0,0,0,1.445-1.445h0a1.45,1.45,0,0,0-1.445-1.446h-17.347a1.45,1.45,0,0,0-1.446,1.446h0a1.45,1.45,0,0,0,1.446,1.445" transform="translate(-392.429 -466.243)" fill="#12263f" fill-rule="evenodd"/>
      <path id="Trazado_196793" data-name="Trazado 196793" d="M1093.8,1521.871h26.021a1.45,1.45,0,0,0,1.446-1.446h0a1.45,1.45,0,0,0-1.446-1.446H1093.8a1.45,1.45,0,0,0-1.446,1.446h0a1.45,1.45,0,0,0,1.446,1.446" transform="translate(-390.74 -441.2)" fill="#12263f" fill-rule="evenodd"/>
      <path id="Trazado_196794" data-name="Trazado 196794" d="M1094.222,1490.535h21.344a1.45,1.45,0,0,0,1.446-1.445h0a1.45,1.45,0,0,0-1.446-1.445h-21.344a1.45,1.45,0,0,0-1.446,1.445h0a1.45,1.45,0,0,0,1.446,1.445" transform="translate(-391.079 -416.157)" fill="#12263f" fill-rule="evenodd"/>
      <path id="Trazado_196795" data-name="Trazado 196795" d="M1094.222,1459.2h28a1.449,1.449,0,0,0,1.445-1.445h0a1.45,1.45,0,0,0-1.445-1.446h-28a1.45,1.45,0,0,0-1.446,1.446h0a1.45,1.45,0,0,0,1.446,1.445" transform="translate(-391.078 -391.113)" fill="#ffca05" fill-rule="evenodd"/>
      <path id="Trazado_196796" data-name="Trazado 196796" d="M1263.605,1521.871h17.007a1.449,1.449,0,0,0,1.445-1.446h0a1.45,1.45,0,0,0-1.445-1.446h-17.007a1.45,1.45,0,0,0-1.446,1.446h0a1.45,1.45,0,0,0,1.446,1.446" transform="translate(-526.448 -441.2)" fill="#12263f" fill-rule="evenodd"/>
      <path id="Trazado_196797" data-name="Trazado 196797" d="M1231.635,1490.535h50.554a1.45,1.45,0,0,0,1.446-1.445h0a1.45,1.45,0,0,0-1.446-1.445h-50.554a1.45,1.45,0,0,0-1.445,1.445h0a1.45,1.45,0,0,0,1.445,1.445" transform="translate(-500.898 -416.157)" fill="#5793ce" fill-rule="evenodd"/>
      <path id="Trazado_196798" data-name="Trazado 196798" d="M1521.28,1490.535h13.563a1.45,1.45,0,0,0,1.446-1.445h0a1.45,1.45,0,0,0-1.446-1.445H1521.28a1.45,1.45,0,0,0-1.446,1.445h0a1.45,1.45,0,0,0,1.446,1.445" transform="translate(-732.379 -416.157)" fill="#12263f" fill-rule="evenodd"/>
      <path id="Trazado_196799" data-name="Trazado 196799" d="M1624.182,1490.535h13.563a1.45,1.45,0,0,0,1.446-1.445h0a1.45,1.45,0,0,0-1.446-1.445h-13.563a1.45,1.45,0,0,0-1.446,1.445h0a1.45,1.45,0,0,0,1.446,1.445" transform="translate(-814.616 -416.157)" fill="#12263f" fill-rule="evenodd"/>
      <path id="Trazado_196800" data-name="Trazado 196800" d="M1196.91,1224.56h50.554a1.45,1.45,0,0,0,1.446-1.446h0a1.45,1.45,0,0,0-1.446-1.446H1196.91a1.45,1.45,0,0,0-1.446,1.446h0a1.45,1.45,0,0,0,1.446,1.446" transform="translate(-473.146 -203.592)" fill="#12263f" fill-rule="evenodd"/>
      <path id="Trazado_196801" data-name="Trazado 196801" d="M1486.557,1224.56h13.563a1.45,1.45,0,0,0,1.445-1.446h0a1.45,1.45,0,0,0-1.445-1.446h-13.563a1.45,1.45,0,0,0-1.446,1.446h0a1.45,1.45,0,0,0,1.446,1.446" transform="translate(-704.628 -203.592)" fill="#12263f" fill-rule="evenodd"/>
      <path id="Trazado_196802" data-name="Trazado 196802" d="M1589.457,1224.56h13.563a1.45,1.45,0,0,0,1.446-1.446h0a1.45,1.45,0,0,0-1.446-1.446h-13.563a1.45,1.45,0,0,0-1.446,1.446h0a1.45,1.45,0,0,0,1.446,1.446" transform="translate(-786.865 -203.592)" fill="#12263f" fill-rule="evenodd"/>
      <path id="Trazado_196803" data-name="Trazado 196803" d="M1196.91,1194.917h22.108a1.45,1.45,0,0,0,1.446-1.446h0a1.45,1.45,0,0,0-1.446-1.445H1196.91a1.45,1.45,0,0,0-1.446,1.445h0a1.45,1.45,0,0,0,1.446,1.446" transform="translate(-473.146 -179.902)" fill="#2ec49f" fill-rule="evenodd"/>
      <path id="Trazado_196804" data-name="Trazado 196804" d="M1345.546,1194.917h34.693a1.45,1.45,0,0,0,1.446-1.446h0a1.45,1.45,0,0,0-1.446-1.445h-34.693a1.45,1.45,0,0,0-1.446,1.445h0a1.45,1.45,0,0,0,1.446,1.446" transform="translate(-591.934 -179.902)" fill="#5793ce" fill-rule="evenodd"/>
      <path id="Trazado_196805" data-name="Trazado 196805" d="M1562.457,1194.917h29.231a1.45,1.45,0,0,0,1.446-1.446h0a1.45,1.45,0,0,0-1.446-1.445h-29.231a1.45,1.45,0,0,0-1.446,1.445h0a1.45,1.45,0,0,0,1.446,1.446" transform="translate(-765.287 -179.902)" fill="#12263f" fill-rule="evenodd"/>
      <path id="Trazado_196806" data-name="Trazado 196806" d="M1196.91,1427.934h50.554a1.45,1.45,0,0,0,1.446-1.445h0a1.449,1.449,0,0,0-1.446-1.445H1196.91a1.45,1.45,0,0,0-1.446,1.445h0a1.45,1.45,0,0,0,1.446,1.445" transform="translate(-473.146 -366.127)" fill="#12263f" fill-rule="evenodd"/>
      <path id="Trazado_196807" data-name="Trazado 196807" d="M1486.557,1427.934h13.563a1.45,1.45,0,0,0,1.445-1.445h0a1.45,1.45,0,0,0-1.445-1.445h-13.563a1.45,1.45,0,0,0-1.446,1.445h0a1.45,1.45,0,0,0,1.446,1.445" transform="translate(-704.628 -366.127)" fill="#12263f" fill-rule="evenodd"/>
      <path id="Trazado_196808" data-name="Trazado 196808" d="M1589.457,1427.934h13.563a1.45,1.45,0,0,0,1.446-1.445h0a1.45,1.45,0,0,0-1.446-1.445h-13.563a1.45,1.45,0,0,0-1.446,1.445h0a1.45,1.45,0,0,0,1.446,1.445" transform="translate(-786.865 -366.127)" fill="#12263f" fill-rule="evenodd"/>
      <path id="Trazado_196809" data-name="Trazado 196809" d="M1196.91,1394.692h22.108a1.45,1.45,0,0,0,1.446-1.445h0a1.45,1.45,0,0,0-1.446-1.446H1196.91a1.45,1.45,0,0,0-1.446,1.446h0a1.45,1.45,0,0,0,1.446,1.445" transform="translate(-473.146 -339.56)" fill="#12263f" fill-rule="evenodd"/>
      <path id="Trazado_196810" data-name="Trazado 196810" d="M1345.546,1394.692h34.693a1.45,1.45,0,0,0,1.446-1.445h0a1.45,1.45,0,0,0-1.446-1.446h-34.693a1.45,1.45,0,0,0-1.446,1.446h0a1.45,1.45,0,0,0,1.446,1.445" transform="translate(-591.934 -339.56)" fill="#12263f" fill-rule="evenodd"/>
      <path id="Trazado_196811" data-name="Trazado 196811" d="M1562.457,1394.692h29.231a1.45,1.45,0,0,0,1.446-1.445h0a1.45,1.45,0,0,0-1.446-1.446h-29.231a1.45,1.45,0,0,0-1.446,1.446h0a1.45,1.45,0,0,0,1.446,1.445" transform="translate(-765.287 -339.56)" fill="#12263f" fill-rule="evenodd"/>
      <rect id="Rectángulo_46139" data-name="Rectángulo 46139" width="42.969" height="133.089" transform="translate(614.05 999.335)" fill="#031542"/>
      <path id="Trazado_196812" data-name="Trazado 196812" d="M1263.7,1459.2h15.073a1.449,1.449,0,0,0,1.446-1.445h0a1.45,1.45,0,0,0-1.446-1.446H1263.7a1.45,1.45,0,0,0-1.446,1.446h0a1.45,1.45,0,0,0,1.446,1.445" transform="translate(-526.522 -391.113)" fill="#5793ce" fill-rule="evenodd"/>
      <path id="Trazado_196813" data-name="Trazado 196813" d="M1365,1459.2h15.073a1.449,1.449,0,0,0,1.445-1.445h0a1.45,1.45,0,0,0-1.445-1.446H1365a1.45,1.45,0,0,0-1.445,1.446h0A1.449,1.449,0,0,0,1365,1459.2" transform="translate(-607.485 -391.113)" fill="#5793ce" fill-rule="evenodd"/>
      <path id="Trazado_196814" data-name="Trazado 196814" d="M1055.688,1359h22.335a1.45,1.45,0,0,0,1.446-1.445h0a1.45,1.45,0,0,0-1.446-1.446h-22.335a1.45,1.45,0,0,0-1.446,1.446h0a1.45,1.45,0,0,0,1.446,1.445" transform="translate(-360.282 -311.034)" fill="#12263f" fill-rule="evenodd"/>
      <path id="Trazado_196815" data-name="Trazado 196815" d="M1196.949,1359h15.072a1.45,1.45,0,0,0,1.446-1.445h0a1.45,1.45,0,0,0-1.446-1.446h-15.072a1.45,1.45,0,0,0-1.446,1.446h0a1.45,1.45,0,0,0,1.446,1.445" transform="translate(-473.176 -311.034)" fill="#12263f" fill-rule="evenodd"/>
      <path id="Trazado_196816" data-name="Trazado 196816" d="M1305.83,1359H1320.9a1.45,1.45,0,0,0,1.446-1.445h0a1.45,1.45,0,0,0-1.446-1.446H1305.83a1.45,1.45,0,0,0-1.446,1.446h0a1.45,1.45,0,0,0,1.446,1.445" transform="translate(-560.193 -311.034)" fill="#12263f" fill-rule="evenodd"/>
      <path id="Trazado_196817" data-name="Trazado 196817" d="M713.631,1584.432H723.2a1.4,1.4,0,0,0,1.4-1.4h0a1.4,1.4,0,0,0-1.4-1.4h-9.572a1.4,1.4,0,0,0-1.4,1.4h0a1.4,1.4,0,0,0,1.4,1.4" transform="translate(-86.954 -491.278)" fill="#e8f6fd" fill-rule="evenodd"/>
      <path id="Trazado_196818" data-name="Trazado 196818" d="M684.841,1550.016h25.31a1.4,1.4,0,0,0,1.4-1.4h0a1.4,1.4,0,0,0-1.4-1.4h-25.31a1.4,1.4,0,0,0-1.4,1.4h0a1.4,1.4,0,0,0,1.4,1.4" transform="translate(-63.946 -463.773)" fill="#e8f6fd" fill-rule="evenodd"/>
      <path id="Trazado_196819" data-name="Trazado 196819" d="M684.841,1513.584H704.13a1.4,1.4,0,0,0,1.4-1.4h0a1.4,1.4,0,0,0-1.4-1.4H684.841a1.4,1.4,0,0,0-1.4,1.4h0a1.4,1.4,0,0,0,1.4,1.4" transform="translate(-63.946 -434.657)" fill="#e8f6fd" fill-rule="evenodd"/>
      <path id="Trazado_196820" data-name="Trazado 196820" d="M713.631,1477.151h19.252a1.4,1.4,0,0,0,1.4-1.4h0a1.4,1.4,0,0,0-1.4-1.4H713.631a1.4,1.4,0,0,0-1.4,1.4h0a1.4,1.4,0,0,0,1.4,1.4" transform="translate(-86.955 -405.54)" fill="#e8f6fd" fill-rule="evenodd"/>
      <path id="Trazado_196821" data-name="Trazado 196821" d="M713.632,1440.72h6.131a1.4,1.4,0,0,0,1.4-1.4h0a1.4,1.4,0,0,0-1.4-1.4h-6.131a1.4,1.4,0,0,0-1.4,1.4h0a1.4,1.4,0,0,0,1.4,1.4" transform="translate(-86.956 -376.425)" fill="#e8f6fd" fill-rule="evenodd"/>
      <path id="Trazado_196822" data-name="Trazado 196822" d="M684.841,1404.288h18.3a1.4,1.4,0,0,0,1.4-1.4h0a1.4,1.4,0,0,0-1.4-1.4h-18.3a1.4,1.4,0,0,0-1.4,1.4h0a1.4,1.4,0,0,0,1.4,1.4" transform="translate(-63.946 -347.309)" fill="#e8f6fd" fill-rule="evenodd"/>
      <path id="Trazado_196823" data-name="Trazado 196823" d="M713.09,1367.855H718.1a1.4,1.4,0,0,0,1.4-1.4h0a1.4,1.4,0,0,0-1.4-1.4H713.09a1.4,1.4,0,0,0-1.4,1.4h0a1.4,1.4,0,0,0,1.4,1.4" transform="translate(-86.522 -318.192)" fill="#e8f6fd" fill-rule="evenodd"/>
      <path id="Trazado_196824" data-name="Trazado 196824" d="M709.763,1331.423h20.306a1.4,1.4,0,0,0,1.4-1.4h0a1.4,1.4,0,0,0-1.4-1.4H709.763a1.4,1.4,0,0,0-1.4,1.4h0a1.4,1.4,0,0,0,1.4,1.4" transform="translate(-83.864 -289.076)" fill="#e8f6fd" fill-rule="evenodd"/>
      <path id="Trazado_196825" data-name="Trazado 196825" d="M684.841,1294.991h16.153a1.4,1.4,0,0,0,1.4-1.4h0a1.4,1.4,0,0,0-1.4-1.4H684.841a1.4,1.4,0,0,0-1.4,1.4h0a1.4,1.4,0,0,0,1.4,1.4" transform="translate(-63.946 -259.96)" fill="#e8f6fd" fill-rule="evenodd"/>
      <path id="Trazado_196826" data-name="Trazado 196826" d="M709.763,1258.559h20.306a1.4,1.4,0,0,0,1.4-1.4h0a1.4,1.4,0,0,0-1.4-1.4H709.763a1.4,1.4,0,0,0-1.4,1.4h0a1.4,1.4,0,0,0,1.4,1.4" transform="translate(-83.864 -230.844)" fill="#e8f6fd" fill-rule="evenodd"/>
      <path id="Trazado_196827" data-name="Trazado 196827" d="M709.763,1222.127h12.378a1.4,1.4,0,0,0,1.4-1.4h0a1.4,1.4,0,0,0-1.4-1.4H709.763a1.4,1.4,0,0,0-1.4,1.4h0a1.4,1.4,0,0,0,1.4,1.4" transform="translate(-83.864 -201.728)" fill="#e8f6fd" fill-rule="evenodd"/>
      <path id="Trazado_196828" data-name="Trazado 196828" d="M684.841,1185.7h8.9a1.4,1.4,0,0,0,1.4-1.4h0a1.4,1.4,0,0,0-1.4-1.4h-8.9a1.4,1.4,0,0,0-1.4,1.4h0a1.4,1.4,0,0,0,1.4,1.4" transform="translate(-63.946 -172.612)" fill="#e8f6fd" fill-rule="evenodd"/>
      <path id="Trazado_196829" data-name="Trazado 196829" d="M713.631,1616.622H723.2a1.4,1.4,0,0,0,1.4-1.4h0a1.4,1.4,0,0,0-1.4-1.4h-9.572a1.4,1.4,0,0,0-1.4,1.4h0a1.4,1.4,0,0,0,1.4,1.4" transform="translate(-86.954 -517.004)" fill="#e8f6fd" fill-rule="evenodd"/>
      <path id="Trazado_196830" data-name="Trazado 196830" d="M684.841,1648.813H709.3a1.4,1.4,0,0,0,1.4-1.4h0a1.4,1.4,0,0,0-1.4-1.4H684.841a1.4,1.4,0,0,0-1.4,1.4h0a1.4,1.4,0,0,0,1.4,1.4" transform="translate(-63.946 -542.73)" fill="#e8f6fd" fill-rule="evenodd"/>
      <path id="Trazado_196831" data-name="Trazado 196831" d="M713.631,1681H723.2a1.4,1.4,0,0,0,1.4-1.4h0a1.4,1.4,0,0,0-1.4-1.4h-9.572a1.4,1.4,0,0,0-1.4,1.4h0a1.4,1.4,0,0,0,1.4,1.4" transform="translate(-86.954 -568.457)" fill="#e8f6fd" fill-rule="evenodd"/>
      <path id="Trazado_196832" data-name="Trazado 196832" d="M1094.222,1224.56h14.2a1.45,1.45,0,0,0,1.445-1.446h0a1.45,1.45,0,0,0-1.445-1.446h-14.2a1.45,1.45,0,0,0-1.446,1.446h0a1.45,1.45,0,0,0,1.446,1.446" transform="translate(-391.079 -203.592)" fill="#12263f" fill-rule="evenodd"/>
      <path id="Trazado_196833" data-name="Trazado 196833" d="M1022.362,1194.917h28.2a1.45,1.45,0,0,0,1.446-1.446h0a1.45,1.45,0,0,0-1.446-1.445h-28.2a1.45,1.45,0,0,0-1.445,1.445h0a1.45,1.45,0,0,0,1.445,1.446" transform="translate(-333.65 -179.902)" fill="#12263f" fill-rule="evenodd"/>
      <path id="Trazado_196834" data-name="Trazado 196834" d="M1022.362,1158.237H1059.5a1.45,1.45,0,0,0,1.446-1.446h0a1.45,1.45,0,0,0-1.446-1.445h-37.139a1.45,1.45,0,0,0-1.445,1.445h0a1.45,1.45,0,0,0,1.445,1.446" transform="translate(-333.65 -150.588)" fill="#12263f" fill-rule="evenodd"/>
      <path id="Trazado_196835" data-name="Trazado 196835" d="M945.963,1158.237h1.359a1.45,1.45,0,0,0,1.446-1.446h0a1.45,1.45,0,0,0-1.446-1.445h-1.359a1.45,1.45,0,0,0-1.445,1.445h0a1.45,1.45,0,0,0,1.445,1.446" transform="translate(-272.592 -150.588)" fill="#b1cbef" fill-rule="evenodd"/>
      <path id="Trazado_196836" data-name="Trazado 196836" d="M945.963,1194.917h1.359a1.45,1.45,0,0,0,1.446-1.446h0a1.45,1.45,0,0,0-1.446-1.445h-1.359a1.45,1.45,0,0,0-1.445,1.445h0a1.45,1.45,0,0,0,1.445,1.446" transform="translate(-272.592 -179.902)" fill="#b1cbef" fill-rule="evenodd"/>
      <path id="Trazado_196837" data-name="Trazado 196837" d="M944.677,1319.654h1.179a1.45,1.45,0,0,0,1.445-1.446h0a1.45,1.45,0,0,0-1.445-1.445h-1.179a1.45,1.45,0,0,0-1.446,1.445h0a1.45,1.45,0,0,0,1.446,1.446" transform="translate(-271.564 -279.59)" fill="#b1cbef" fill-rule="evenodd"/>
      <path id="Trazado_196838" data-name="Trazado 196838" d="M945.1,1288.318h1.094a1.45,1.45,0,0,0,1.446-1.445h0a1.45,1.45,0,0,0-1.446-1.445H945.1a1.45,1.45,0,0,0-1.445,1.445h0a1.45,1.45,0,0,0,1.445,1.445" transform="translate(-271.903 -254.547)" fill="#b1cbef" fill-rule="evenodd"/>
      <path id="Trazado_196839" data-name="Trazado 196839" d="M945.1,1256.981h1.094a1.45,1.45,0,0,0,1.446-1.446h0a1.45,1.45,0,0,0-1.446-1.446H945.1a1.45,1.45,0,0,0-1.445,1.446h0a1.45,1.45,0,0,0,1.445,1.446" transform="translate(-271.903 -229.503)" fill="#b1cbef" fill-rule="evenodd"/>
      <path id="Trazado_196840" data-name="Trazado 196840" d="M945.1,1224.56h1.094a1.45,1.45,0,0,0,1.446-1.446h0a1.45,1.45,0,0,0-1.446-1.446H945.1a1.45,1.45,0,0,0-1.445,1.446h0a1.45,1.45,0,0,0,1.445,1.446" transform="translate(-271.903 -203.592)" fill="#b1cbef" fill-rule="evenodd"/>
      <path id="Trazado_196841" data-name="Trazado 196841" d="M945.51,1427.934h1.012a1.45,1.45,0,0,0,1.445-1.445h0a1.449,1.449,0,0,0-1.445-1.445H945.51a1.45,1.45,0,0,0-1.446,1.445h0a1.45,1.45,0,0,0,1.446,1.445" transform="translate(-272.229 -366.127)" fill="#b1cbef" fill-rule="evenodd"/>
      <path id="Trazado_196842" data-name="Trazado 196842" d="M945.51,1394.692h1.012a1.45,1.45,0,0,0,1.445-1.445h0a1.45,1.45,0,0,0-1.445-1.446H945.51a1.45,1.45,0,0,0-1.446,1.446h0a1.45,1.45,0,0,0,1.446,1.445" transform="translate(-272.229 -339.56)" fill="#b1cbef" fill-rule="evenodd"/>
      <path id="Trazado_196843" data-name="Trazado 196843" d="M945.548,1359h1a1.45,1.45,0,0,0,1.445-1.445h0a1.45,1.45,0,0,0-1.445-1.446h-1a1.45,1.45,0,0,0-1.446,1.446h0a1.45,1.45,0,0,0,1.446,1.445" transform="translate(-272.26 -311.034)" fill="#b1cbef" fill-rule="evenodd"/>
      <path id="Trazado_196844" data-name="Trazado 196844" d="M947.688,1553.207h.575a1.45,1.45,0,0,0,1.445-1.445h0a1.45,1.45,0,0,0-1.445-1.446h-.575a1.45,1.45,0,0,0-1.445,1.446h0a1.45,1.45,0,0,0,1.445,1.445" transform="translate(-273.971 -466.243)" fill="#b1cbef" fill-rule="evenodd"/>
      <path id="Trazado_196845" data-name="Trazado 196845" d="M945.51,1521.871h1.012a1.45,1.45,0,0,0,1.445-1.446h0a1.45,1.45,0,0,0-1.445-1.446H945.51a1.45,1.45,0,0,0-1.446,1.446h0a1.45,1.45,0,0,0,1.446,1.446" transform="translate(-272.229 -441.2)" fill="#b1cbef" fill-rule="evenodd"/>
      <path id="Trazado_196846" data-name="Trazado 196846" d="M945.946,1490.535h.924a1.45,1.45,0,0,0,1.445-1.445h0a1.45,1.45,0,0,0-1.445-1.445h-.924a1.45,1.45,0,0,0-1.445,1.445h0a1.45,1.45,0,0,0,1.445,1.445" transform="translate(-272.579 -416.157)" fill="#b1cbef" fill-rule="evenodd"/>
      <path id="Trazado_196847" data-name="Trazado 196847" d="M945.945,1459.2h.924a1.449,1.449,0,0,0,1.445-1.445h0a1.45,1.45,0,0,0-1.445-1.446h-.924a1.45,1.45,0,0,0-1.446,1.446h0a1.45,1.45,0,0,0,1.446,1.445" transform="translate(-272.577 -391.113)" fill="#b1cbef" fill-rule="evenodd"/>
      <path id="Trazado_196848" data-name="Trazado 196848" d="M948.442,1720.634h.423a1.45,1.45,0,0,0,1.445-1.446h0a1.45,1.45,0,0,0-1.445-1.446h-.423a1.45,1.45,0,0,0-1.445,1.446h0a1.45,1.45,0,0,0,1.445,1.446" transform="translate(-274.574 -600.049)" fill="#b1cbef" fill-rule="evenodd"/>
      <path id="Trazado_196849" data-name="Trazado 196849" d="M948.441,1689.3h.423a1.45,1.45,0,0,0,1.445-1.446h0a1.45,1.45,0,0,0-1.445-1.446h-.423a1.45,1.45,0,0,0-1.445,1.446h0a1.45,1.45,0,0,0,1.445,1.446" transform="translate(-274.573 -575.005)" fill="#b1cbef" fill-rule="evenodd"/>
      <path id="Trazado_196850" data-name="Trazado 196850" d="M948.173,1657.962h.477a1.45,1.45,0,0,0,1.445-1.446h0a1.45,1.45,0,0,0-1.445-1.445h-.477a1.45,1.45,0,0,0-1.445,1.445h0a1.45,1.45,0,0,0,1.445,1.446" transform="translate(-274.358 -549.962)" fill="#b1cbef" fill-rule="evenodd"/>
      <path id="Trazado_196851" data-name="Trazado 196851" d="M947.688,1626.625h.575a1.45,1.45,0,0,0,1.445-1.446h0a1.45,1.45,0,0,0-1.445-1.446h-.575a1.45,1.45,0,0,0-1.445,1.446h0a1.45,1.45,0,0,0,1.445,1.446" transform="translate(-273.971 -524.918)" fill="#b1cbef" fill-rule="evenodd"/>
      <path id="Trazado_196852" data-name="Trazado 196852" d="M947.688,1595.079h.575a1.45,1.45,0,0,0,1.445-1.446h0a1.45,1.45,0,0,0-1.445-1.445h-.575a1.45,1.45,0,0,0-1.445,1.445h0a1.45,1.45,0,0,0,1.445,1.446" transform="translate(-273.971 -499.707)" fill="#b1cbef" fill-rule="evenodd"/>
      <rect id="Rectángulo_46140" data-name="Rectángulo 46140" width="242.554" height="8.368" transform="translate(603.432 980.707)" fill="#12263f"/>
      <rect id="Rectángulo_46141" data-name="Rectángulo 46141" width="2.545" height="2.545" transform="translate(828.82 983.072)" fill="#fff"/>
      <rect id="Rectángulo_46142" data-name="Rectángulo 46142" width="2.545" height="2.545" transform="translate(833.314 983.072)" fill="#fff"/>
      <rect id="Rectángulo_46143" data-name="Rectángulo 46143" width="2.545" height="2.545" transform="translate(837.808 983.072)" fill="#fff"/>
      <path id="Trazado_196853" data-name="Trazado 196853" d="M1752.55,966.92h111.609a18.754,18.754,0,0,1,18.6,18.8v233.4a18.755,18.755,0,0,1-18.6,18.8H1752.55a18.755,18.755,0,0,1-18.6-18.8v-233.4a18.754,18.754,0,0,1,18.6-18.8" transform="translate(-903.496)" fill="#12263f" fill-rule="evenodd"/>
      <path id="Trazado_196854" data-name="Trazado 196854" d="M1712.19,966.92H1823.8a18.754,18.754,0,0,1,18.6,18.8v233.4a18.755,18.755,0,0,1-18.6,18.8H1712.19a18.755,18.755,0,0,1-18.6-18.8v-233.4a18.754,18.754,0,0,1,18.6-18.8" transform="translate(-871.241)" fill="#f59d36" fill-rule="evenodd"/>
      <path id="Trazado_196855" data-name="Trazado 196855" d="M1742.514,1003.514c-5.418,0-9.884,4.712-9.884,10.428v231.825c0,5.717,4.466,10.429,9.884,10.429h113.364c5.419,0,9.884-4.712,9.884-10.429V1013.942c0-5.718-4.466-10.428-9.884-10.428H1742.514" transform="translate(-902.443 -29.245)" fill-rule="evenodd" fill="url(#linear-gradient)"/>
      <path id="Trazado_196907" data-name="Trazado 196907" d="M0,0H115.524V103.526H0Z" transform="translate(838.674 996.75)" fill="#f1f1f1"/>
      <path id="Trazado_196856" data-name="Trazado 196856" d="M2316.88,1037.213h-7.832a.619.619,0,0,0-.617.617h0a.619.619,0,0,0,.617.617h7.832a.619.619,0,0,0,.617-.617h0a.619.619,0,0,0-.617-.617" transform="translate(-1362.616 -56.177)" fill="#12263f" fill-rule="evenodd"/>
      <path id="Trazado_196857" data-name="Trazado 196857" d="M2316.88,1051.87h-7.832a.619.619,0,0,0-.617.617h0a.619.619,0,0,0,.617.617h7.832a.619.619,0,0,0,.617-.617h0a.619.619,0,0,0-.617-.617" transform="translate(-1362.616 -67.891)" fill="#12263f" fill-rule="evenodd"/>
      <path id="Trazado_196858" data-name="Trazado 196858" d="M2316.88,1065.516h-7.832a.619.619,0,0,0-.617.617h0a.619.619,0,0,0,.617.617h7.832a.619.619,0,0,0,.617-.617h0a.619.619,0,0,0-.617-.617" transform="translate(-1362.616 -78.797)" fill="#12263f" fill-rule="evenodd"/>
      <path id="Trazado_196859" data-name="Trazado 196859" d="M1909.388,1772.566h6.977a2.4,2.4,0,0,1,2.389,2.389h0a2.4,2.4,0,0,1-2.389,2.389h-6.977a2.4,2.4,0,0,1-2.39-2.389h0a2.4,2.4,0,0,1,2.39-2.389" transform="translate(-1041.796 -643.863)" fill="#12263f" fill-rule="evenodd"/>
      <path id="Trazado_196860" data-name="Trazado 196860" d="M1909.388,1825.653h15.558a2.4,2.4,0,0,1,2.389,2.389h0a2.4,2.4,0,0,1-2.389,2.389h-15.558a2.4,2.4,0,0,1-2.39-2.389h0a2.4,2.4,0,0,1,2.39-2.389" transform="translate(-1041.796 -686.289)" fill="#f59d36" fill-rule="evenodd"/>
      <path id="Trazado_196861" data-name="Trazado 196861" d="M1909.387,1878.74h30.334a2.4,2.4,0,0,1,2.389,2.389h0a2.4,2.4,0,0,1-2.389,2.39h-30.334a2.4,2.4,0,0,1-2.39-2.39h0a2.4,2.4,0,0,1,2.39-2.389" transform="translate(-1041.795 -728.716)" fill="#f59d36" fill-rule="evenodd"/>
      <path id="Trazado_196862" data-name="Trazado 196862" d="M1909.388,1986.9h15.768a2.4,2.4,0,0,1,2.389,2.39h0a2.4,2.4,0,0,1-2.389,2.389h-15.768a2.4,2.4,0,0,1-2.389-2.389h0a2.4,2.4,0,0,1,2.389-2.39" transform="translate(-1041.796 -815.159)" fill="#12263f" fill-rule="evenodd"/>
      <path id="Trazado_196863" data-name="Trazado 196863" d="M1909.388,2039.991h53.8a2.4,2.4,0,0,1,2.389,2.39h0a2.4,2.4,0,0,1-2.389,2.389h-53.8a2.4,2.4,0,0,1-2.389-2.389h0a2.4,2.4,0,0,1,2.389-2.39" transform="translate(-1041.796 -857.586)" fill="#5793ce" fill-rule="evenodd"/>
      <path id="Trazado_196864" data-name="Trazado 196864" d="M1909.387,2093.078h30.334a2.4,2.4,0,0,1,2.389,2.389h0a2.4,2.4,0,0,1-2.389,2.389h-30.334a2.4,2.4,0,0,1-2.39-2.389h0a2.4,2.4,0,0,1,2.39-2.389" transform="translate(-1041.795 -900.012)" fill="#2ec49f" fill-rule="evenodd"/>
      <path id="Trazado_196865" data-name="Trazado 196865" d="M1797.351,1772.566h7.92a2.4,2.4,0,0,1,2.389,2.389h0a2.4,2.4,0,0,1-2.389,2.389h-7.92a2.4,2.4,0,0,1-2.39-2.389h0a2.4,2.4,0,0,1,2.39-2.389" transform="translate(-952.257 -643.863)" fill="#12263f" fill-rule="evenodd"/>
      <path id="Trazado_196866" data-name="Trazado 196866" d="M1797.351,1825.653h7.92a2.4,2.4,0,0,1,2.389,2.389h0a2.4,2.4,0,0,1-2.389,2.389h-7.92a2.4,2.4,0,0,1-2.39-2.389h0a2.4,2.4,0,0,1,2.39-2.389" transform="translate(-952.257 -686.289)" fill="#6c8bc6" fill-rule="evenodd"/>
      <path id="Trazado_196867" data-name="Trazado 196867" d="M1797.351,1878.74h7.92a2.4,2.4,0,0,1,2.389,2.389h0a2.4,2.4,0,0,1-2.389,2.39h-7.92a2.4,2.4,0,0,1-2.39-2.39h0a2.4,2.4,0,0,1,2.39-2.389" transform="translate(-952.257 -728.716)" fill="#6c8bc6" fill-rule="evenodd"/>
      <path id="Trazado_196868" data-name="Trazado 196868" d="M1797.351,1986.9h7.92a2.4,2.4,0,0,1,2.389,2.39h0a2.4,2.4,0,0,1-2.389,2.389h-7.92a2.4,2.4,0,0,1-2.39-2.389h0a2.4,2.4,0,0,1,2.39-2.39" transform="translate(-952.257 -815.159)" fill="#6c8bc6" fill-rule="evenodd"/>
      <path id="Trazado_196869" data-name="Trazado 196869" d="M1797.351,2039.992h7.92a2.4,2.4,0,0,1,2.389,2.389h0a2.4,2.4,0,0,1-2.389,2.389h-7.92a2.4,2.4,0,0,1-2.39-2.389h0a2.4,2.4,0,0,1,2.39-2.389" transform="translate(-952.257 -857.587)" fill="#6c8bc6" fill-rule="evenodd"/>
      <path id="Trazado_196870" data-name="Trazado 196870" d="M1797.351,2093.078h7.92a2.4,2.4,0,0,1,2.389,2.389h0a2.4,2.4,0,0,1-2.389,2.389h-7.92a2.4,2.4,0,0,1-2.39-2.389h0a2.4,2.4,0,0,1,2.39-2.389" transform="translate(-952.257 -900.012)" fill="#f59d36" fill-rule="evenodd"/>
      <path id="Trazado_196871" data-name="Trazado 196871" d="M2037.577,1986.9h34.394a2.4,2.4,0,0,1,2.39,2.39h0a2.4,2.4,0,0,1-2.39,2.389h-34.394a2.4,2.4,0,0,1-2.389-2.389h0a2.4,2.4,0,0,1,2.389-2.39" transform="translate(-1144.243 -815.159)" fill="#12263f" fill-rule="evenodd"/>
      <path id="Trazado_196872" data-name="Trazado 196872" d="M2254.842,1986.9h6.042a2.4,2.4,0,0,1,2.389,2.39h0a2.4,2.4,0,0,1-2.389,2.389h-6.042a2.4,2.4,0,0,1-2.39-2.389h0a2.4,2.4,0,0,1,2.39-2.39" transform="translate(-1317.878 -815.159)" fill="#12263f" fill-rule="evenodd"/>
      <path id="Trazado_196873" data-name="Trazado 196873" d="M2030.889,1825.653h25.446a2.4,2.4,0,0,1,2.389,2.389h0a2.4,2.4,0,0,1-2.389,2.389h-25.446a2.4,2.4,0,0,1-2.389-2.389h0a2.4,2.4,0,0,1,2.389-2.389" transform="translate(-1138.898 -686.289)" fill="#f59d36" fill-rule="evenodd"/>
      <path id="Trazado_196874" data-name="Trazado 196874" d="M2197.639,1825.653h10.334a2.4,2.4,0,0,1,2.389,2.389h0a2.4,2.4,0,0,1-2.389,2.389h-10.334a2.4,2.4,0,0,1-2.389-2.389h0a2.4,2.4,0,0,1,2.389-2.389" transform="translate(-1272.163 -686.289)" fill="#12263f" fill-rule="evenodd"/>
      <path id="Trazado_196875" data-name="Trazado 196875" d="M2108.445,1878.74h30.334a2.4,2.4,0,0,1,2.389,2.389h0a2.4,2.4,0,0,1-2.389,2.39h-30.334a2.4,2.4,0,0,1-2.389-2.39h0a2.4,2.4,0,0,1,2.389-2.389" transform="translate(-1200.88 -728.716)" fill="#f59d36" fill-rule="evenodd"/>
      <path id="Trazado_196876" data-name="Trazado 196876" d="M1989.028,1772.566h15.052a2.4,2.4,0,0,1,2.389,2.389h0a2.4,2.4,0,0,1-2.389,2.389h-15.052a2.4,2.4,0,0,1-2.39-2.389h0a2.4,2.4,0,0,1,2.39-2.389" transform="translate(-1105.443 -643.863)" fill="#12263f" fill-rule="evenodd"/>
      <path id="Trazado_196877" data-name="Trazado 196877" d="M2104.393,1772.566h15.052a2.4,2.4,0,0,1,2.389,2.389h0a2.4,2.4,0,0,1-2.389,2.389h-15.052a2.4,2.4,0,0,1-2.389-2.389h0a2.4,2.4,0,0,1,2.389-2.389" transform="translate(-1197.642 -643.863)" fill="#2ec49f" fill-rule="evenodd"/>
      <path id="Trazado_196878" data-name="Trazado 196878" d="M2222.161,1772.566h10.094a2.4,2.4,0,0,1,2.389,2.389h0a2.4,2.4,0,0,1-2.389,2.389h-10.094a2.4,2.4,0,0,1-2.389-2.389h0a2.4,2.4,0,0,1,2.389-2.389" transform="translate(-1291.76 -643.863)" fill="#2ec49f" fill-rule="evenodd"/>
      <path id="Trazado_196879" data-name="Trazado 196879" d="M1874.41,1038.067h-88.951a3.53,3.53,0,0,0-3.52,3.52h0a3.53,3.53,0,0,0,3.52,3.52h88.951a3.53,3.53,0,0,0,3.52-3.52h0a3.53,3.53,0,0,0-3.52-3.52" transform="translate(-941.849 -56.86)" fill="#f3f9ff" fill-rule="evenodd"/>
      <rect id="Rectángulo_46145" data-name="Rectángulo 46145" width="64.789" height="51.897" transform="translate(806.292 1137.307)" fill="#12263f"/>
      <path id="Trazado_196880" data-name="Trazado 196880" d="M1718.726,1884.685l-1.052-1.065a1.394,1.394,0,0,1-.222-1.673,14.409,14.409,0,0,0,1.386-3.292,1.4,1.4,0,0,1,1.353-1.01l1.5.007a1.406,1.406,0,0,0,1.417-1.395l.017-2.867a1.407,1.407,0,0,0-1.4-1.414l-1.5-.01a1.4,1.4,0,0,1-1.341-1.027,14.386,14.386,0,0,0-1.346-3.309,1.389,1.389,0,0,1,.245-1.669l1.063-1.053a1.405,1.405,0,0,0,.013-1.988l-2.015-2.04a1.405,1.405,0,0,0-1.988-.013l-1.065,1.052a1.4,1.4,0,0,1-1.673.224,14.431,14.431,0,0,0-3.29-1.387,1.393,1.393,0,0,1-1.012-1.354l.009-1.5a1.4,1.4,0,0,0-1.4-1.413l-2.867-.019a1.406,1.406,0,0,0-1.414,1.4l-.01,1.5a1.391,1.391,0,0,1-1.028,1.339,14.577,14.577,0,0,0-3.309,1.346,1.391,1.391,0,0,1-1.669-.242l-1.051-1.065a1.406,1.406,0,0,0-1.988-.013l-2.039,2.015a1.406,1.406,0,0,0-.013,1.988l1.051,1.064a1.4,1.4,0,0,1,.223,1.674,14.336,14.336,0,0,0-1.386,3.289,1.4,1.4,0,0,1-1.353,1.013l-1.5-.011a1.406,1.406,0,0,0-1.414,1.4l-.019,2.865a1.409,1.409,0,0,0,1.4,1.416l1.5.008a1.4,1.4,0,0,1,1.341,1.03,14.391,14.391,0,0,0,1.346,3.306,1.393,1.393,0,0,1-.242,1.672l-1.064,1.052a1.4,1.4,0,0,0-.013,1.988l2.014,2.041a1.411,1.411,0,0,0,1.99.011l1.064-1.052a1.4,1.4,0,0,1,1.675-.222,14.427,14.427,0,0,0,3.288,1.386,1.4,1.4,0,0,1,1.011,1.353l-.01,1.5a1.407,1.407,0,0,0,1.4,1.416l2.867.017a1.4,1.4,0,0,0,1.415-1.4l.009-1.5a1.4,1.4,0,0,1,1.027-1.341,14.23,14.23,0,0,0,3.308-1.345,1.39,1.39,0,0,1,1.669.243l1.054,1.065a1.4,1.4,0,0,0,1.988.013l2.039-2.015a1.4,1.4,0,0,0,.012-1.987m-9.386-3.59a7.785,7.785,0,1,1,.078-12.713A7.775,7.775,0,0,1,1709.339,1881.095Z" transform="translate(-865.693 -710.921)" fill="#fff" fill-rule="evenodd"/>
      <path id="Trazado_196881" data-name="Trazado 196881" d="M1157.326,1845.693c-5.679,8.079,8.832,48.207,11.626,67.25,1.276,8.7,4.021,10.483,11.857,12.259,10.278,2.33,17.244,5.185,24.787,4.926,4.414-.152,7.972.021,9.7-1.277,6.02-4.515-3.329-9.734-3.329-9.734s-18.775-7.4-22.522-9.327c-3.224-1.9-5.067-67.855-26.136-72.527-2.76-.612-2.3,4.682-5.985,8.431" transform="translate(-441.622 -695.529)" fill="#18846a" fill-rule="evenodd"/>
      <path id="Trazado_196882" data-name="Trazado 196882" d="M990.212,2120.835c3.523-2.225,6.877-3.482,8.013,0Zm-59.981,0a140.364,140.364,0,0,1,3.8-21.661c9.1-.308,17.4-2.038,19.461-3.476.858-2.648,4.772-11.7,1.025-13.024-2.878-1.265-7.739-1.651-12.718-1.838,15.633-22.964,39.882-.075,38.512,40Z" transform="translate(-261.174 -882.925)" fill="#0b3870" fill-rule="evenodd"/>
      <path id="Trazado_196883" data-name="Trazado 196883" d="M1098.793,1618.6a40.874,40.874,0,0,0-.026,11.491c1.074,7.587,3.857,12.983,6.96,19.657a4.932,4.932,0,0,1,.2,2.6c-.314,1.25-1.152,2.04-1.176,2.762-.1,2.838,3.148,4.018,2.118,7.251-1.1,3.438-6.109,7.366-9.164,11.66,0,0-10.025-11.034-14.319-11.814s-4.865-14.278-4.865-14.971,3.821-27.6,3.821-27.6Z" transform="translate(-379.683 -520.813)" fill="#000446" fill-rule="evenodd"/>
      <path id="Trazado_196884" data-name="Trazado 196884" d="M915.794,1823.963c-8.938,0-16.6,2.74-22.013,8.333a4.165,4.165,0,0,0-.8,1.241c1.732,15.974,8.364,19.875,3.646,30.01.886,3.39,5.54,17.458,6.3,20.638a46.735,46.735,0,0,1,.426,20.267c-1.381,4.671-2.263,8.461-4.526,18.007h74.865c-2.673-15.165-5.737-27.115-5.925-29.216-1.208-13.552,1.153-58.579-11.679-65.884-10.154-5.781-27.893-3.4-40.3-3.4" transform="translate(-231.406 -684.549)" fill="#2ec49f" fill-rule="evenodd"/>
      <path id="Trazado_196885" data-name="Trazado 196885" d="M1035.684,1822.066c10.614,5.739,16.179,61.017,13.642,98.885h-24.742c.82-60.963-5.946-84.51-12.318-98.574,9.03-.6,12.208-1.262,23.418-.31" transform="translate(-326.736 -683.042)" fill="#fff" fill-rule="evenodd"/>
      <path id="Trazado_196886" data-name="Trazado 196886" d="M1042.1,1665.345l.212,4.737.326.418c2.313,5.29-3.66,8.87-5.273,9.693-1.648-.253-11.069-3.23-11.618-10.677l.042-.478.328-10.556a2.93,2.93,0,0,1-2.3-1.609,13.376,13.376,0,0,1-1.612-5.845c.26-2.023,3.108-.791,3.108-.791h0c-2.686-5.841-6.012-10.836.072-14.422s18.664-3.9,18.664-3.9l7.5-1.115c-3.351,5.9,7.466,29.521-9.452,34.548" transform="translate(-334.477 -530.563)" fill="#f7aaac" fill-rule="evenodd"/>
      <path id="Trazado_196887" data-name="Trazado 196887" d="M1065.507,1776.393c2.968,6.978,5.6,9.5,11.611,10.047l-.216-4.832a20.885,20.885,0,0,1-11.4-5.216" transform="translate(-369.285 -646.922)" fill="#f28085" fill-rule="evenodd"/>
      <path id="Trazado_196888" data-name="Trazado 196888" d="M925.565,1574.724c-10.052-7.1-25.161-5.391-32.558,5.929-6.367,9.743-6.449,26.47-16.172,26.943-3.183.155-6.857,1.739-7.364,8.688-2.3.74-7.55,3.526-3.694,10.917-3.8,2.728-4.217,7.222-.807,9.877a25.947,25.947,0,0,1,3.762-5.72h0a4.164,4.164,0,0,1,.807-1.252c5.411-5.592,13.074-8.333,22.013-8.333,2.119,0,4.867-.006,6.907-.161.27-3.332.743-9.6.757-11.663a6,6,0,0,1-2.368-5.146c.06-2.694.915-2.3,4.721-.483.5-6.767-.343-10.73,12.524-10.726a28.735,28.735,0,0,0,10.881-1.928c5.471-2.231,7.085-12.356.593-16.942" transform="translate(-207.163 -482.36)" fill="#000446" fill-rule="evenodd"/>
      <path id="Trazado_196889" data-name="Trazado 196889" d="M823.334,1871.827c-2.773-6.156,1.876-26.844-11.421-16.249a59.1,59.1,0,0,0-4.9,6.655c-6.01,10.075-18.777,48.275-16.107,66.474,1.269,8.649,8.7,10.371,16.493,12.138,10.22,2.317,25.618,5.156,33.119,4.9,4.389-.151,7.926.021,9.647-1.27,5.986-4.489-3.31-9.678-3.31-9.678s-32.96-12.97-36.686-14.882c-1.762-1.038,15.351-43.233,13.166-48.085" transform="translate(-149.537 -707.831)" fill="#2ec49f" fill-rule="evenodd"/>
      <path id="Trazado_196890" data-name="Trazado 196890" d="M1166.5,2297.225H1097.45v1.925a1.93,1.93,0,0,0,1.925,1.925h65.2a1.931,1.931,0,0,0,1.925-1.925Z" transform="translate(-394.814 -1063.164)" fill="#12263f" fill-rule="evenodd"/>
      <path id="Trazado_196891" data-name="Trazado 196891" d="M1314.707,2098.113h-51.534c-2.032,0-3.315,1.719-3.695,3.739l-7.333,39.058h58.411l7.333-39.577c.323-1.74-1.432-3.22-3.182-3.22" transform="translate(-518.444 -904.036)" fill="#12263f" fill-rule="evenodd"/>
      <path id="Trazado_196892" data-name="Trazado 196892" d="M1324.342,2098.113h-51.534c-2.033,0-3.314,1.719-3.695,3.739l-6.586,34.962h-.087l-.423,2.566a2.449,2.449,0,0,0,2.566,2.566h53.386a2.734,2.734,0,0,0,2.566-2.566l.316-2.107,6.673-35.94c.323-1.74-1.432-3.22-3.182-3.22" transform="translate(-526.314 -904.036)" fill-rule="evenodd" fill="url(#linear-gradient)"/>
      <path id="Trazado_196893" data-name="Trazado 196893" d="M1425.578,2195.887a2.726,2.726,0,1,0,1.6,3.149,2.514,2.514,0,0,0-1.6-3.149" transform="translate(-654.702 -982.133)" fill="#edf8fd" fill-rule="evenodd"/>
      <path id="Trazado_196894" data-name="Trazado 196894" d="M1057.031,2280.323c8.078-.041,17.1.065,19.494-.037-2.366-7.046-10.783-9.37-17.423-8.986-1.594,1.09-3.213,6.758-2.071,9.023" transform="translate(-362.205 -1042.413)" fill="#f8b9be" fill-rule="evenodd"/>
      <path id="Trazado_196895" data-name="Trazado 196895" d="M2192.124,2148.051h45.918c3.186,0,5.793,3.8,5.793,8.452h0c0,4.648-2.607,8.452-5.793,8.452h-45.918c-3.185,0-5.792-3.8-5.792-8.452h0c0-4.649,2.607-8.452,5.792-8.452" transform="translate(-1265.036 -943.946)" fill="#f7a12e" fill-rule="evenodd"/>
      <path id="Trazado_196896" data-name="Trazado 196896" d="M2258.55,2148.051h16.465c-3.187,0-5.793,3.8-5.793,8.452h0c0,4.649,2.607,8.452,5.793,8.452H2258.55c-3.186,0-5.793-3.8-5.793-8.451h0c0-4.649,2.607-8.452,5.793-8.452" transform="translate(-1318.122 -943.946)" fill="#f48120" fill-rule="evenodd"/>
      <path id="Trazado_196897" data-name="Trazado 196897" d="M2422.643,2172.631h43.438a11.429,11.429,0,0,1,0-11.753h-43.438c-1.454,0-2.647,2.648-2.647,5.876s1.193,5.876,2.647,5.876" transform="translate(-1451.777 -954.197)" fill="#e5e6e7" fill-rule="evenodd"/>
      <path id="Trazado_196898" data-name="Trazado 196898" d="M2464.458,2166.982a11.887,11.887,0,0,1,1.623-6.1h-43.438c-1.454,0-2.647,2.648-2.647,5.876,0,.076,0,.152,0,.228Z" transform="translate(-1451.777 -954.197)" fill="#d7d7d8" fill-rule="evenodd"/>
      <path id="Trazado_196899" data-name="Trazado 196899" d="M2460.249,2164.955h-44.941c-2.094,0-4.308-3.853-4.308-8.5s2.214-8.4,4.308-8.4h44.941l-.02,2.532-44.775.044c-1.454,0-2.647,2.648-2.647,5.877s1.193,5.876,2.647,5.876l44.775-.043Z" transform="translate(-1444.588 -943.946)" fill="#f48120" fill-rule="evenodd"/>
      <path id="Trazado_196900" data-name="Trazado 196900" d="M2449.7,2232.232h-48.011c-3.331,0-6.057,3.8-6.057,8.452h0c0,4.649,2.726,8.453,6.057,8.453H2449.7c3.331,0,6.057-3.8,6.057-8.453h0c0-4.649-2.725-8.452-6.057-8.452" transform="translate(-1432.303 -1011.223)" fill-rule="evenodd" fill="url(#linear-gradient-4)"/>
      <path id="Trazado_196901" data-name="Trazado 196901" d="M2526.907,2232.232h-17.216c3.332,0,6.057,3.8,6.057,8.452h0c0,4.649-2.725,8.452-6.057,8.452h17.216c3.331,0,6.057-3.8,6.057-8.452h0c0-4.649-2.726-8.452-6.057-8.452" transform="translate(-1523.46 -1011.223)" fill-rule="evenodd" fill="url(#linear-gradient-5)"/>
      <path id="Trazado_196902" data-name="Trazado 196902" d="M2256.185,2256.813h-45.418a11,11,0,0,0,0-11.753h45.418c1.52,0,2.768,2.648,2.768,5.876s-1.247,5.877-2.768,5.877" transform="translate(-1284.564 -1021.475)" fill="#e5e6e7" fill-rule="evenodd"/>
      <path id="Trazado_196903" data-name="Trazado 196903" d="M2212.463,2251.164a11.486,11.486,0,0,0-1.7-6.1h45.418c1.521,0,2.768,2.648,2.768,5.876,0,.076,0,.152,0,.228Z" transform="translate(-1284.563 -1021.475)" fill="#d7d7d8" fill-rule="evenodd"/>
      <path id="Trazado_196904" data-name="Trazado 196904" d="M2203.7,2249.136h46.989c2.189,0,4.5-3.854,4.5-8.5s-2.315-8.4-4.5-8.4H2203.7l.02,2.532,46.817.044c1.52,0,2.768,2.648,2.768,5.876s-1.247,5.877-2.768,5.877l-46.817-.044Z" transform="translate(-1278.918 -1011.223)" fill-rule="evenodd" fill="url(#linear-gradient-5)"/>
      <path id="Trazado_196905" data-name="Trazado 196905" d="M2389.729,2257.9h-5.2c-1.995,1.047-1.418,5.2-2.6,7.915l3.071-2.244,2.228,2.1c1.727-2.464.739-6.668,2.5-7.771" transform="translate(-1421.354 -1031.739)" fill="#71bdf8" fill-rule="evenodd"/>
      <path id="Trazado_196906" data-name="Trazado 196906" d="M2457.39,2174.595h5.2c2,1.046,1.419,5.2,2.6,7.914l-3.071-2.243-2.228,2.1c-1.727-2.464-.739-6.668-2.5-7.771" transform="translate(-1481.662 -965.16)" fill="#f48120" fill-rule="evenodd"/>
      <g id="Grupo_154593" data-name="Grupo 154593" transform="translate(881.259 1040.423)">
        <path id="Trazado_68962" data-name="Trazado 68962" d="M547.372,359.646V356.87l7.711-3.6V355.5l-6.022,2.757,6.022,2.757v2.232Z" transform="translate(-547.372 -348.334)" fill="#00223d"/>
        <path id="Trazado_68963" data-name="Trazado 68963" d="M561.2,349.6h2.588l-7.223,17.97H554Z" transform="translate(-545.093 -349.596)" fill="#00223d"/>
        <path id="Trazado_68964" data-name="Trazado 68964" d="M562.012,363.247v-2.232l6-2.757-6-2.757v-2.233l7.711,3.6v2.776Z" transform="translate(-542.34 -348.334)" fill="#00223d"/>
      </g>
    </g>
  </g>
</svg>
