<svg xmlns="http://www.w3.org/2000/svg" width="78.184" height="76.506" viewBox="0 0 78.184 76.506">
  <g id="Grupo_155437" data-name="Grupo 155437" transform="translate(-197.36 -7964.496)">
    <ellipse id="Elipse_4691" data-name="Elipse 4691" cx="39.092" cy="38.253" rx="39.092" ry="38.253" transform="translate(197.36 7964.496)" fill="#fff"/>
    <g id="YhmUKV.tif" transform="translate(212.387 7975.326)">
      <g id="Grupo_143142" data-name="Grupo 143142" transform="translate(0)">
        <path id="Trazado_184367" data-name="Trazado 184367" d="M3282.768-2523.8h-1.719c0-.939-.034-1.864.012-2.784.03-.592-.145-.78-.755-.774-2.816.032-5.632.026-8.448,0-.532,0-.736.128-.71.692.043.945.012,1.893.012,2.866h-1.728v-3.571h-.831q-6.616,0-13.232,0a3.5,3.5,0,0,1-3.773-3.7q-.019-12.77,0-25.539a3.5,3.5,0,0,1,2.652-3.6,6.978,6.978,0,0,1,.862-.106c0,.527.025.979-.017,1.424-.011.122-.2.277-.345.327a1.87,1.87,0,0,0-1.429,2c-.005,7.187,0,14.375-.016,21.562,0,.584.3.561.695.561q7.548-.007,15.1,0h28.016c.869,0,.87,0,.87-.873q0-10.564,0-21.128c0-1.505-.643-2.142-2.156-2.144a5.568,5.568,0,0,0-.745.005c-.53.071-.66-.156-.659-.661,0-1.309-.058-1.067,1.095-1.08a6.868,6.868,0,0,1,1.483.083,3.415,3.415,0,0,1,2.72,3.345q.01,13.08-.019,26.16a3.424,3.424,0,0,1-3.52,3.361c-4.183.011-8.366,0-12.548,0-.859,0-.859,0-.86.887C3282.768-2525.61,3282.768-2524.742,3282.768-2523.8Zm-7.131-5.288c6.542,0,13.084-.035,19.626.022,1.968.017,2.872-.561,2.724-2.739-.069-1.024.1-.912-.957-.912q-21.179,0-42.358,0c-1.364,0-1.364,0-1.358,1.368.006,1.6.664,2.263,2.263,2.263Z" transform="translate(-3251.588 2576.394)" fill="#12263f"/>
        <path id="Trazado_184368" data-name="Trazado 184368" d="M3296.307-2620.637h-1.719v-22.82q0-3.977,0-7.954c0-1.552.634-2.177,2.2-2.177h26.777c1.6,0,2.2.612,2.2,2.22v20.025h-1.721v-.774c0-6.318-.009-12.637.013-18.955,0-.612-.132-.808-.782-.806q-13.109.033-26.218,0c-.6,0-.784.163-.764.765.043,1.282.013,2.568.013,3.853,0,.818,0,.821.8.821h21.519c0,.508.024.958-.016,1.4-.01.116-.208.262-.348.306a1.909,1.909,0,0,1-.555.015c-6.875,0-13.751.009-20.627-.015-.638,0-.792.175-.79.8q.032,11.218.014,22.435Z" transform="translate(-3289.233 2658.043)" fill="#12263f"/>
        <path id="Trazado_184369" data-name="Trazado 184369" d="M3325.442-2557.456c.87.36,1.658.669,2.43,1.016.335.15.518.058.807-.158a1.323,1.323,0,0,0,.387-1.987,14.76,14.76,0,0,1-.733-1.754l5.1-2.118c.329.793.67,1.538.946,2.307.167.466.4.689.91.576a1.238,1.238,0,0,1,.494.01c.407.078.594-.113.732-.476.3-.789.643-1.563,1-2.415l5.107,2.116c-.335.817-.626,1.59-.969,2.339a.781.781,0,0,0,.177.96,1.265,1.265,0,0,0,1.888.341,15.632,15.632,0,0,1,1.789-.753l2.121,5.11c-.814.338-1.565.673-2.333.962-.4.15-.636.339-.554.807a5.705,5.705,0,0,0,.02.679,1,1,0,0,0,.386.579c.782.373,1.592.685,2.476,1.056l-2.109,5.106c-.813-.333-1.583-.627-2.333-.966a.711.711,0,0,0-.967.181c-.751.82-.774.8-.356,1.815.243.592.489,1.182.768,1.855l-5.1,2.12c-.342-.813-.688-1.582-.984-2.371-.146-.388-.341-.584-.771-.515a2.059,2.059,0,0,1-.62,0c-.408-.065-.589.131-.725.488-.3.79-.64,1.564-.985,2.4l-5.108-2.119c.348-.847.649-1.636,1-2.4.166-.364.043-.556-.173-.861-.582-.817-1.212-.778-2-.344a17.02,17.02,0,0,1-1.714.723c-.71-1.709-1.4-3.38-2.118-5.106.832-.348,1.6-.69,2.391-.992a.649.649,0,0,0,.5-.724c-.034-1.176-.016-1.176-1.094-1.621-.572-.235-1.143-.475-1.795-.748C3324.031-2554.042,3324.722-2555.712,3325.442-2557.456Zm.182,4.165c.756.313,1.416.606,2.091.859.361.135.407.326.387.7a26.3,26.3,0,0,0,0,2.9c.02.358-.049.522-.376.649-.69.266-1.367.567-2.1.877l.744,1.776a.884.884,0,0,0,.2,0q.691-.278,1.38-.563c.956-.4.945-.39,1.577.395a9.271,9.271,0,0,0,.975,1.04c.361.331.765.614,1.146.915-.347.867-.673,1.683-1.015,2.536l1.852.759c.294-.71.583-1.348.821-2,.143-.395.325-.5.77-.467a19.029,19.029,0,0,0,2.777.006c.426-.028.633.033.781.449.239.672.544,1.319.839,2.019l1.849-.776c-.3-.728-.559-1.4-.852-2.057a.572.572,0,0,1,.192-.785,24.133,24.133,0,0,0,2.048-2.055.561.561,0,0,1,.779-.188c.66.291,1.332.555,2.063.857l.771-1.854c-.713-.3-1.369-.6-2.044-.851-.387-.144-.448-.356-.426-.75a23.947,23.947,0,0,0,0-2.777c-.026-.427.054-.638.464-.786.672-.241,1.322-.541,2.01-.828l-.772-1.85c-.73.3-1.408.543-2.058.848-.382.179-.557.062-.819-.234a21.363,21.363,0,0,0-1.966-1.962c-.33-.287-.407-.493-.226-.882.3-.632.542-1.289.835-2l-1.856-.775c-.315.752-.576,1.449-.907,2.111a.794.794,0,0,1-.59.338c-.986.035-1.976-.01-2.962.027-.344.013-.536-.041-.66-.378-.207-.562-.438-1.119-.7-1.661-.07-.145-.316-.347-.411-.314-.539.179-1.057.422-1.615.658.307.749.567,1.424.862,2.083a.526.526,0,0,1-.173.727c-.733.661-1.431,1.363-2.1,2.093-.239.263-.4.332-.726.187-.673-.3-1.365-.563-2.1-.862Z" transform="translate(-3314.395 2578.258)" fill="#12263f"/>
        <path id="Trazado_184370" data-name="Trazado 184370" d="M3361.748-2669.823h-1.719v-17.762h-27.694v1.7h-1.712a18.83,18.83,0,0,1,.017-2.1,1.651,1.651,0,0,1,1.5-1.368,5.1,5.1,0,0,1,.62-.016h26.835c1.547,0,2.156.6,2.156,2.126q0,8.326,0,16.652Z" transform="translate(-3320.763 2689.368)" fill="#12263f"/>
        <path id="Trazado_184371" data-name="Trazado 184371" d="M3383.292-2257.148l-1.289,1.188c-.358-.357-.725-.772-1.146-1.121a1.4,1.4,0,0,0-.8-.342q-7.633-.03-15.266,0a1.444,1.444,0,0,0-.852.368,13.258,13.258,0,0,0-1.076,1.176l-1.27-1.357c.572-.555,1.166-1.157,1.794-1.722a.986.986,0,0,1,.614-.2q8.409-.016,16.818,0a.984.984,0,0,1,.616.193C3382.056-2258.389,3382.646-2257.782,3383.292-2257.148Z" transform="translate(-3347.895 2312.722)" fill="#12263f"/>
        <path id="Trazado_184372" data-name="Trazado 184372" d="M3354.05-2624.514v1.646h-1.672v-1.646Z" transform="translate(-3339.829 2632.588)" fill="#12263f"/>
        <path id="Trazado_184373" data-name="Trazado 184373" d="M3568.955-2486.619h-1.642v-1.661h1.642Z" transform="translate(-3528.004 2513.316)" fill="#12263f"/>
        <path id="Trazado_184374" data-name="Trazado 184374" d="M3325.279-2622.83h-1.647v-1.646h1.647Z" transform="translate(-3314.662 2632.555)" fill="#12263f"/>
        <path id="Trazado_184375" data-name="Trazado 184375" d="M3380.775-2624.522h1.667v1.638h-1.667Z" transform="translate(-3364.691 2632.595)" fill="#12263f"/>
        <path id="Trazado_184376" data-name="Trazado 184376" d="M3567.272-2515.643v-1.69a2.858,2.858,0,0,1,.39-.054c1.535.021,1.255-.233,1.294,1.313.008.321-.113.449-.435.435C3568.132-2515.656,3567.741-2515.643,3567.272-2515.643Z" transform="translate(-3527.969 2538.803)" fill="#12263f"/>
        <path id="Trazado_184377" data-name="Trazado 184377" d="M3531.562-2459.833h1.615v1.664h-1.615Z" transform="translate(-3496.704 2488.411)" fill="#12263f"/>
        <path id="Trazado_184378" data-name="Trazado 184378" d="M3388.723-2492.513a4.558,4.558,0,0,1-4.56-4.6,4.571,4.571,0,0,1,4.594-4.571,4.594,4.594,0,0,1,4.569,4.605A4.573,4.573,0,0,1,3388.723-2492.513Zm2.839-4.565a2.824,2.824,0,0,0-2.776-2.842,2.84,2.84,0,0,0-2.878,2.811,2.867,2.867,0,0,0,2.847,2.851A2.839,2.839,0,0,0,3391.562-2497.077Z" transform="translate(-3367.657 2525.049)" fill="#12263f"/>
      </g>
    </g>
  </g>
</svg>
