<svg xmlns="http://www.w3.org/2000/svg" width="48.346" height="65" viewBox="0 0 48.346 65">
  <g id="Design-elements" transform="translate(0)">
    <path id="dots-03" d="M41.461,61.564A3.442,3.442,0,1,1,44.9,65,3.441,3.441,0,0,1,41.461,61.564Zm-20.731,0A3.437,3.437,0,1,1,24.169,65,3.438,3.438,0,0,1,20.731,61.564ZM0,61.564A3.434,3.434,0,1,1,3.435,65,3.436,3.436,0,0,1,0,61.564ZM41.461,42.18A3.442,3.442,0,1,1,44.9,45.617,3.439,3.439,0,0,1,41.461,42.18Zm-20.731,0a3.437,3.437,0,1,1,3.438,3.437A3.436,3.436,0,0,1,20.731,42.18ZM0,42.18a3.434,3.434,0,1,1,3.435,3.437A3.435,3.435,0,0,1,0,42.18ZM41.461,22.816A3.442,3.442,0,1,1,44.9,26.254,3.44,3.44,0,0,1,41.461,22.816Zm-20.731,0a3.437,3.437,0,1,1,3.438,3.438A3.437,3.437,0,0,1,20.731,22.816ZM0,22.816a3.434,3.434,0,1,1,3.435,3.438A3.436,3.436,0,0,1,0,22.816ZM41.461,3.443A3.442,3.442,0,1,1,44.9,6.885,3.443,3.443,0,0,1,41.461,3.443Zm-20.731,0a3.437,3.437,0,1,1,3.438,3.441A3.44,3.44,0,0,1,20.731,3.443ZM0,3.443A3.434,3.434,0,1,1,3.435,6.885,3.439,3.439,0,0,1,0,3.443Z" transform="translate(0 0)" fill="#2ec49f"/>
  </g>
</svg>
