<svg id="Grupo_155255" data-name="Grupo 155255" xmlns="http://www.w3.org/2000/svg" xmlns:xlink="http://www.w3.org/1999/xlink" width="100.006" height="100.005" viewBox="0 0 100.006 100.005">
  <defs>
    <radialGradient id="radial-gradient" cx="0.076" cy="0.019" r="1.465" gradientTransform="translate(0.001)" gradientUnits="objectBoundingBox">
      <stop offset="0" stop-color="#f6f6f7"/>
      <stop offset="0.477" stop-color="#f9f9fa"/>
      <stop offset="0.715" stop-color="#fff"/>
    </radialGradient>
  </defs>
  <g id="Grupo_18423" data-name="Grupo 18423" transform="translate(0 0)">
    <g id="Grupo_18421" data-name="Grupo 18421">
      <g id="Grupo_18420" data-name="Grupo 18420">
        <g id="Grupo_18419" data-name="Grupo 18419">
          <path id="Trazado_40936" data-name="Trazado 40936" d="M294.629,2195.722a50,50,0,1,1-50-50A50,50,0,0,1,294.629,2195.722Z" transform="translate(-194.623 -2145.721)" fill="#fff"/>
        </g>
      </g>
    </g>
    <path id="Trazado_40937" data-name="Trazado 40937" d="M294.205,2195.261a50,50,0,1,0-50,50A49.8,49.8,0,0,0,294.205,2195.261Z" transform="translate(-194.2 -2145.26)" fill="url(#radial-gradient)"/>
    <path id="Trazado_40938" data-name="Trazado 40938" d="M278.648,2191.559a38.167,38.167,0,1,0-38.167,38.167A38.026,38.026,0,0,0,278.648,2191.559Z" transform="translate(-190.326 -2141.391)" fill="none" stroke="#f59d36" stroke-miterlimit="10" stroke-width="4"/>
    <g id="Grupo_18422" data-name="Grupo 18422" transform="translate(8.858 28.073)">
      <path id="Trazado_40939" data-name="Trazado 40939" d="M286.636,2164.489a50.009,50.009,0,0,1-86.091,49.8,49.85,49.85,0,0,0,86.091-49.8Z" transform="translate(-200.545 -2164.489)" fill="#eceef0"/>
    </g>
  </g>
  <g id="Lvq7BL.tif" transform="translate(-3953.896 -6356.468)">
    <g id="Grupo_155256" data-name="Grupo 155256" transform="translate(3983.397 6385.982)">
      <path id="Trazado_197092" data-name="Trazado 197092" d="M3983.4,6388.164c.044-.115.092-.229.132-.346a2.658,2.658,0,0,1,2.543-1.833q15.233,0,30.466,0a2.678,2.678,0,0,1,2.686,2.742c.012,1.72,0,3.441,0,5.162q0,5.161,0,10.323v.536h-1.823v-.468q0-7.658,0-15.317c0-.907-.269-1.183-1.169-1.183h-29.879c-.87,0-1.161.29-1.161,1.158q0,10.47,0,20.94c0,.886.289,1.166,1.2,1.166h11.314v1.776h-1.73v3.577h3.5v1.794h-7.1v-1.767h1.754v-3.583h-7.845a2.662,2.662,0,0,1-2.817-2.077.444.444,0,0,0-.068-.1Z" transform="translate(-3983.397 -6385.982)" fill="#12263f"/>
      <path id="Trazado_197093" data-name="Trazado 197093" d="M4198.144,6604.469c-.238-.211-.486-.412-.711-.636q-2.5-2.487-4.986-4.983c-.718-.719-.721-1.08-.006-1.79.109-.108.236-.2.328-.273l-1.9-1.894a9.656,9.656,0,0,1-8.976,1.756,9.364,9.364,0,0,1-5.328-3.977,9.739,9.739,0,1,1,15.7.829l1.916,1.9a5.684,5.684,0,0,1,.485-.566.865.865,0,0,1,1.309.006q2.786,2.762,5.551,5.545a.837.837,0,0,1,.1,1.242c-.857.9-1.751,1.768-2.634,2.645a2.108,2.108,0,0,1-.265.193Zm-21.374-17.153a7.924,7.924,0,1,0,7.981-7.908A7.915,7.915,0,0,0,4176.771,6587.315Zm17.413,10.607,4.28,4.295,1.123-1.111-4.291-4.289Z" transform="translate(-4158.86 -6561.492)" fill="#12263f"/>
      <path id="Trazado_197094" data-name="Trazado 197094" d="M4072.5,6437.178l-1.336-1.333c.27-.231.558-.451.814-.7.848-.833,1.68-1.683,2.529-2.516a.491.491,0,0,0,.159-.6,2.654,2.654,0,0,1,.97-3.016,2.716,2.716,0,0,1,3.141-.01,2.667,2.667,0,0,1,.977,3.05.441.441,0,0,0,.122.54q1.113,1.083,2.2,2.195a.432.432,0,0,0,.541.136,2.625,2.625,0,0,1,1.767-.012.548.548,0,0,0,.457-.1c.756-.727,1.484-1.484,2.239-2.211a.479.479,0,0,0,.123-.583,2.681,2.681,0,1,1,5.139-1.523,2.674,2.674,0,0,1-3.379,3.254.535.535,0,0,0-.649.154c-.7.725-1.413,1.436-2.135,2.137a.474.474,0,0,0-.15.575,2.644,2.644,0,0,1-.959,3.015,2.7,2.7,0,0,1-3.139.024,2.668,2.668,0,0,1-1-3.009.512.512,0,0,0-.146-.619c-.734-.709-1.454-1.435-2.167-2.165a.434.434,0,0,0-.544-.128,2.3,2.3,0,0,1-1.72-.005.433.433,0,0,0-.541.143C4074.709,6434.969,4073.609,6436.064,4072.5,6437.178Zm5.589-5.979a.876.876,0,1,0-1.751-.047.876.876,0,1,0,1.751.047Zm11.671.865a.9.9,0,0,0,.881-.879.929.929,0,0,0-.881-.891.9.9,0,0,0-.887.914A.861.861,0,0,0,4089.756,6432.063Zm-6.28,4.514a.9.9,0,0,0-.892.867.925.925,0,0,0,.911.9.9.9,0,0,0,.857-.9A.86.86,0,0,0,4083.476,6436.577Z" transform="translate(-4063.779 -6424.92)" fill="#12263f"/>
      <path id="Trazado_197095" data-name="Trazado 197095" d="M4030.573,6614.268c-.742,0-1.456.046-2.162-.011a2.555,2.555,0,0,1-2.224-2.135,20.418,20.418,0,0,1-.016-2.274h1.749v1.067c0,1.449.146,1.594,1.615,1.594h1.038Z" transform="translate(-4022.55 -6591.02)" fill="#12263f"/>
      <path id="Trazado_197096" data-name="Trazado 197096" d="M4028.1,6567.362v1.741h-1.741v-1.741Z" transform="translate(-4022.749 -6552.107)" fill="#12263f"/>
      <path id="Trazado_197097" data-name="Trazado 197097" d="M4292.138,6622.423v-1.682a6.107,6.107,0,0,1,6.239,6.168h-1.737A4.587,4.587,0,0,0,4292.138,6622.423Z" transform="translate(-4266.171 -6600.972)" fill="#12263f"/>
    </g>
  </g>
</svg>
