<svg xmlns="http://www.w3.org/2000/svg" xmlns:xlink="http://www.w3.org/1999/xlink" width="418.368" height="289.529" viewBox="0 0 418.368 289.529">
  <defs>
    <clipPath id="clip-path">
      <path id="Trazado_196698" data-name="Trazado 196698" d="M3172.019,966.345c11.01,0,19.935,9.361,19.935,20.908a22.015,22.015,0,0,1-.335,3.832,8.57,8.57,0,0,1-.544,17.075H3083.883c-10.365-.308-8.184-16.229,2.338-16.016-.542-12.437,9.874-26.86,28.484-22.32a31.722,31.722,0,0,1,3.7-11.668,27.941,27.941,0,0,1,24.3-14.592c13.372,0,24.568,9.769,27.455,22.872.612-.059,1.231-.091,1.857-.091" transform="translate(-3077.128 -943.564)" fill="#12263f" clip-rule="evenodd"/>
    </clipPath>
    <clipPath id="clip-path-2">
      <path id="Trazado_196699" data-name="Trazado 196699" d="M3125.156,966.345c11.01,0,19.935,9.361,19.935,20.908a21.991,21.991,0,0,1-.335,3.832,8.57,8.57,0,0,1-.545,17.075H3037.02c-10.365-.308-8.184-16.229,2.338-16.016-.542-12.437,9.874-26.86,28.484-22.32a31.709,31.709,0,0,1,3.7-11.668,27.94,27.94,0,0,1,24.3-14.592c13.371,0,24.568,9.769,27.454,22.872.612-.059,1.231-.091,1.857-.091" transform="translate(-3030.266 -943.564)" fill="none" clip-rule="evenodd"/>
    </clipPath>
    <linearGradient id="linear-gradient" x1="0.5" y1="0.893" x2="0.5" y2="-0.357" gradientUnits="objectBoundingBox">
      <stop offset="0" stop-color="#4dd0e1"/>
      <stop offset="1" stop-color="#039be5"/>
    </linearGradient>
    <linearGradient id="linear-gradient-2" x1="0.335" y1="0.421" x2="0.5" y2="1" gradientUnits="objectBoundingBox">
      <stop offset="0" stop-color="#dedede"/>
      <stop offset="0.517" stop-color="#fff"/>
      <stop offset="1" stop-color="#dedede"/>
    </linearGradient>
    <linearGradient id="linear-gradient-3" x1="0.5" x2="0.5" y2="1" gradientUnits="objectBoundingBox">
      <stop offset="0" stop-color="#fff"/>
      <stop offset="1" stop-color="#d2e6ee"/>
    </linearGradient>
    <linearGradient id="linear-gradient-5" x1="0.5" y1="0" xlink:href="#linear-gradient-2"/>
    <linearGradient id="linear-gradient-7" x1="0.5" x2="0.5" y2="1" gradientUnits="objectBoundingBox">
      <stop offset="0" stop-color="#f5f5f5"/>
      <stop offset="0.25" stop-color="#f5f5f5"/>
      <stop offset="1" stop-color="#afafaf"/>
    </linearGradient>
  </defs>
  <g id="Grupo_155456" data-name="Grupo 155456" transform="translate(-228.107 -10819.714)">
    <ellipse id="Elipse_5896" data-name="Elipse 5896" cx="138.222" cy="140.914" rx="138.222" ry="140.914" transform="translate(370.031 10819.714)" fill="#e6e6e6"/>
    <ellipse id="Elipse_5897" data-name="Elipse 5897" cx="125.836" cy="125.836" rx="125.836" ry="125.836" transform="translate(244.876 10856.197)" fill="#e6e6e6"/>
    <g id="Grupo_154589" data-name="Grupo 154589" transform="translate(-1488.589 9880.633)">
      <path id="Trazado_196696" data-name="Trazado 196696" d="M2817.13,1193.488v-14.6a14.5,14.5,0,0,1,14.429-14.429h33.635a1.477,1.477,0,1,1,0,2.954h-33.635a11.544,11.544,0,0,0-11.476,11.476v14.6Zm14.429-41.242h33.635a1.477,1.477,0,1,1,0,2.954h-33.635a23.759,23.759,0,0,0-23.686,23.685v14.6h-2.954v-14.6a26.713,26.713,0,0,1,26.639-26.639Z" transform="translate(-914.413 -170.893)" fill="#b0c0d2"/>
      <path id="Trazado_196697" data-name="Trazado 196697" d="M3701.015,1228.754v-49.869a14.5,14.5,0,0,0-14.429-14.429h-26.877a1.477,1.477,0,1,0,0,2.954h26.877a11.544,11.544,0,0,1,11.476,11.476v49.869Zm-14.429-76.508h-26.877a1.477,1.477,0,1,0,0,2.954h26.877a23.759,23.759,0,0,1,23.685,23.685v49.869h2.954v-49.869a26.713,26.713,0,0,0-26.639-26.639Z" transform="translate(-1613.204 -170.893)" fill="#b0c0d2"/>
      <g id="Grupo_154586" data-name="Grupo 154586" transform="translate(1939.799 943.564)">
        <g id="Grupo_154585" data-name="Grupo 154585" transform="translate(0 0)" clip-path="url(#clip-path)">
          <path id="Trazado_196773" data-name="Trazado 196773" d="M0,0H125.706V64.6H0Z" transform="translate(-3.611 0)" fill="#12263f"/>
        </g>
      </g>
      <g id="Grupo_154588" data-name="Grupo 154588" transform="translate(1931.313 943.564)">
        <g id="Grupo_154587" data-name="Grupo 154587" transform="translate(0 0)" clip-path="url(#clip-path-2)">
          <path id="Trazado_196772" data-name="Trazado 196772" d="M0,0H125.706V64.6H0Z" transform="translate(-3.611 0)" fill="url(#linear-gradient)"/>
        </g>
      </g>
      <path id="Trazado_196700" data-name="Trazado 196700" d="M2099.591,1380H1860.653a15.618,15.618,0,0,0-15.572,15.572V1534.84h0v1.983a15.618,15.618,0,0,0,15.572,15.572h238.938a15.618,15.618,0,0,0,15.572-15.572v-1.983h0V1395.571A15.618,15.618,0,0,0,2099.591,1380" transform="translate(-128.385 -357.404)" fill="#12263f" fill-rule="evenodd"/>
      <path id="Trazado_196701" data-name="Trazado 196701" d="M2140.5,1380H1901.567a15.618,15.618,0,0,0-15.573,15.572V1534.84h0v1.983a15.618,15.618,0,0,0,15.572,15.572H2140.5a15.618,15.618,0,0,0,15.573-15.572v-1.983h0V1395.571A15.618,15.618,0,0,0,2140.5,1380" transform="translate(-161.889 -357.404)" fill-rule="evenodd" fill="url(#linear-gradient-2)"/>
      <path id="Trazado_196702" data-name="Trazado 196702" d="M1919.819,1427.232h257.729a.06.06,0,0,1,.064.054v139.258a.06.06,0,0,1-.064.054H1919.819a.06.06,0,0,1-.063-.054V1427.286a.06.06,0,0,1,.063-.054" transform="translate(-189.537 -396.084)" fill-rule="evenodd" fill="url(#linear-gradient-3)"/>
      <rect id="Rectángulo_46127" data-name="Rectángulo 46127" width="84.769" height="127.564" transform="translate(1898.366 1036.967)" fill="#12263f"/>
      <path id="Trazado_196703" data-name="Trazado 196703" d="M2405.883,2310.774c-1.1,19.832-4,24.846-24.109,36.147h89.147c-20.11-11.3-23.012-16.316-24.109-36.147l-20.465-1.612Z" transform="translate(-567.892 -1118.311)" fill="#afafaf" fill-rule="evenodd"/>
      <path id="Trazado_196704" data-name="Trazado 196704" d="M2608.047,2227.21a5.238,5.238,0,1,1-5.238,5.238,5.237,5.237,0,0,1,5.238-5.238" transform="translate(-748.901 -1051.199)" fill="#b1cbef" fill-rule="evenodd"/>
      <rect id="Rectángulo_46128" data-name="Rectángulo 46128" width="42.411" height="5.641" transform="translate(1837.302 1194.991)" fill="#12263f"/>
      <path id="Trazado_196705" data-name="Trazado 196705" d="M3649.373,1574.747H3719.7a11.816,11.816,0,0,1,11.72,11.843v147.063a11.817,11.817,0,0,1-11.72,11.844h-70.323a11.817,11.817,0,0,1-11.72-11.844V1586.59a11.817,11.817,0,0,1,11.72-11.843" transform="translate(-1596.352 -516.886)" fill="#12263f" fill-rule="evenodd"/>
      <path id="Trazado_196706" data-name="Trazado 196706" d="M3621.171,1574.747h70.323a11.817,11.817,0,0,1,11.72,11.843v147.063a11.817,11.817,0,0,1-11.72,11.844h-70.323a11.817,11.817,0,0,1-11.72-11.844V1586.59a11.817,11.817,0,0,1,11.72-11.843" transform="translate(-1573.257 -516.886)" fill="#f59d36" fill-rule="evenodd"/>
      <path id="Trazado_196707" data-name="Trazado 196707" d="M3642.958,1600.316a6.261,6.261,0,0,0-6.227,6.227v147.6a6.26,6.26,0,0,0,6.227,6.228h71.429a6.26,6.26,0,0,0,6.228-6.228v-147.6a6.26,6.26,0,0,0-6.228-6.227h-13.2a3.687,3.687,0,0,1-3.677,3.676h-38.679a3.687,3.687,0,0,1-3.676-3.676Z" transform="translate(-1595.597 -537.825)" fill-rule="evenodd" fill="url(#linear-gradient-3)"/>
      <path id="Trazado_196708" data-name="Trazado 196708" d="M3642.958,1600.316a6.26,6.26,0,0,0-6.227,6.227v15.875l83.885.017v-15.893a6.26,6.26,0,0,0-6.228-6.227h-13.2a3.687,3.687,0,0,1-3.677,3.676h-38.679a3.687,3.687,0,0,1-3.676-3.676Z" transform="translate(-1595.597 -537.825)" fill-rule="evenodd" fill="url(#linear-gradient-5)"/>
      <path id="Trazado_196709" data-name="Trazado 196709" d="M3722.71,1645.251a3.437,3.437,0,1,0,3.437,3.437,3.437,3.437,0,0,0-3.437-3.437" transform="translate(-1663.192 -574.623)" fill="#12263f" fill-rule="evenodd"/>
      <path id="Trazado_196710" data-name="Trazado 196710" d="M3670.938,1645.251a3.437,3.437,0,1,0,3.438,3.437,3.437,3.437,0,0,0-3.437-3.437" transform="translate(-1620.795 -574.623)" fill="#12263f" fill-rule="evenodd"/>
      <path id="Trazado_196711" data-name="Trazado 196711" d="M4011.979,1636.346a5.05,5.05,0,1,0,5.05,5.05,5.05,5.05,0,0,0-5.05-5.05" transform="translate(-1898.758 -567.331)" fill="#12263f" fill-rule="evenodd"/>
      <path id="Trazado_196712" data-name="Trazado 196712" d="M2123.4,1525.46l-4.166-7.663h-41.546v84.551H2183.9V1525.46Z" transform="translate(-318.874 -470.249)" fill="#e09135" fill-rule="evenodd"/>
      <rect id="Rectángulo_46130" data-name="Rectángulo 46130" width="99.401" height="73.396" transform="translate(1762.221 1058.703)" fill="#c3dcfa"/>
      <path id="Trazado_196713" data-name="Trazado 196713" d="M2089.634,1600.081h101.981l-1.339,69.651h-99.4Z" transform="translate(-328.654 -537.633)" fill="#fff" fill-rule="evenodd"/>
      <path id="Trazado_196714" data-name="Trazado 196714" d="M2058.188,1622.65h112.819l-3.079,65.564H2061.72Z" transform="translate(-302.902 -556.115)" fill="#f59d36" fill-rule="evenodd"/>
      <path id="Trazado_196715" data-name="Trazado 196715" d="M2270.648,1731.456l1.24-.82a1.384,1.384,0,0,0,.557-1.581,14.335,14.335,0,0,1-.675-3.483,1.385,1.385,0,0,0-1.109-1.258l-1.457-.3a1.4,1.4,0,0,1-1.092-1.645l.569-2.791a1.4,1.4,0,0,1,1.648-1.089l1.457.3a1.385,1.385,0,0,0,1.513-.725,14.3,14.3,0,0,1,1.984-2.941,1.38,1.38,0,0,0,.1-1.672l-.819-1.241a1.4,1.4,0,0,1,.394-1.934l2.376-1.571a1.4,1.4,0,0,1,1.934.394l.82,1.239a1.385,1.385,0,0,0,1.58.559,14.329,14.329,0,0,1,3.481-.676,1.384,1.384,0,0,0,1.26-1.109l.3-1.457a1.393,1.393,0,0,1,1.646-1.088l2.791.567a1.4,1.4,0,0,1,1.089,1.648l-.3,1.457a1.383,1.383,0,0,0,.725,1.512,14.454,14.454,0,0,1,2.941,1.984,1.382,1.382,0,0,0,1.673.106l1.239-.82a1.4,1.4,0,0,1,1.935.394l1.571,2.375a1.4,1.4,0,0,1-.394,1.936l-1.239.82a1.387,1.387,0,0,0-.558,1.582,14.225,14.225,0,0,1,.676,3.48,1.387,1.387,0,0,0,1.108,1.261l1.458.3a1.4,1.4,0,0,1,1.089,1.648l-.567,2.789a1.4,1.4,0,0,1-1.649,1.09l-1.455-.3a1.385,1.385,0,0,0-1.514.727,14.294,14.294,0,0,1-1.984,2.939,1.384,1.384,0,0,0-.105,1.674l.82,1.239a1.394,1.394,0,0,1-.394,1.935l-2.374,1.572a1.4,1.4,0,0,1-1.937-.4l-.819-1.24a1.386,1.386,0,0,0-1.583-.558,14.325,14.325,0,0,1-3.479.675,1.385,1.385,0,0,0-1.26,1.109l-.3,1.457a1.4,1.4,0,0,1-1.648,1.091l-2.79-.57a1.4,1.4,0,0,1-1.089-1.647l.3-1.458a1.386,1.386,0,0,0-.724-1.513,14.124,14.124,0,0,1-2.941-1.983,1.381,1.381,0,0,0-1.672-.1l-1.241.82a1.394,1.394,0,0,1-1.935-.394l-1.571-2.375a1.393,1.393,0,0,1,.395-1.933m9.857-1.571a7.732,7.732,0,1,0,2.521-12.373A7.723,7.723,0,0,0,2280.505,1729.885Z" transform="translate(-474.79 -624.81)" fill="#fff" fill-rule="evenodd"/>
      <rect id="Rectángulo_46131" data-name="Rectángulo 46131" width="58.635" height="68.076" transform="translate(2054.061 1102.551)" fill="#e8e8e8"/>
      <path id="Trazado_196716" data-name="Trazado 196716" d="M3736.153,1858.715h14.534a1.1,1.1,0,0,1,0,2.2h-14.534a1.1,1.1,0,1,1,0-2.2" transform="translate(-1676.116 -749.432)" fill="#f59d36" fill-rule="evenodd"/>
      <path id="Trazado_196717" data-name="Trazado 196717" d="M3736.153,1884.4h43.152a1.1,1.1,0,0,1,0,2.2h-43.152a1.1,1.1,0,1,1,0-2.2" transform="translate(-1676.116 -770.464)" fill="#2ec49f" fill-rule="evenodd"/>
      <path id="Trazado_196718" data-name="Trazado 196718" d="M3736.153,1912.87h29.936a1.1,1.1,0,0,1,0,2.2h-29.936a1.1,1.1,0,1,1,0-2.2" transform="translate(-1676.116 -793.781)" fill="#2ec49f" fill-rule="evenodd"/>
      <path id="Trazado_196719" data-name="Trazado 196719" d="M3736.153,1967.551h14.534a1.1,1.1,0,0,1,0,2.2h-14.534a1.1,1.1,0,1,1,0-2.2" transform="translate(-1676.116 -838.56)" fill="#f59d36" fill-rule="evenodd"/>
      <path id="Trazado_196720" data-name="Trazado 196720" d="M3736.153,2076.387h14.534a1.1,1.1,0,1,1,0,2.2h-14.534a1.1,1.1,0,1,1,0-2.2" transform="translate(-1676.116 -927.688)" fill="#f59d36" fill-rule="evenodd"/>
      <path id="Trazado_196721" data-name="Trazado 196721" d="M3736.153,1993.233h43.152a1.1,1.1,0,0,1,0,2.2h-43.152a1.1,1.1,0,0,1,0-2.2" transform="translate(-1676.116 -859.591)" fill="#2ec49f" fill-rule="evenodd"/>
      <path id="Trazado_196722" data-name="Trazado 196722" d="M3736.153,2102.068h43.152a1.1,1.1,0,0,1,0,2.2h-43.152a1.1,1.1,0,1,1,0-2.2" transform="translate(-1676.116 -948.718)" fill="#2ec49f" fill-rule="evenodd"/>
      <path id="Trazado_196723" data-name="Trazado 196723" d="M3736.153,2021.706h29.936a1.1,1.1,0,1,1,0,2.2h-29.936a1.1,1.1,0,1,1,0-2.2" transform="translate(-1676.116 -882.908)" fill="#2ec49f" fill-rule="evenodd"/>
      <path id="Trazado_196724" data-name="Trazado 196724" d="M3736.153,2130.542h29.936a1.1,1.1,0,1,1,0,2.2h-29.936a1.1,1.1,0,1,1,0-2.2" transform="translate(-1676.116 -972.036)" fill="#2ec49f" fill-rule="evenodd"/>
      <rect id="Rectángulo_46132" data-name="Rectángulo 46132" width="58.635" height="5.732" transform="translate(2054.061 1096.82)" fill="#2b3990"/>
      <path id="Trazado_196725" data-name="Trazado 196725" d="M3969.39,1797.947a1.236,1.236,0,1,1-1.236,1.236,1.236,1.236,0,0,1,1.236-1.236" transform="translate(-1867.004 -699.668)" fill="#fff" fill-rule="evenodd"/>
      <path id="Trazado_196726" data-name="Trazado 196726" d="M3988.819,1797.947a1.236,1.236,0,1,1-1.236,1.236,1.236,1.236,0,0,1,1.236-1.236" transform="translate(-1882.915 -699.668)" fill="#fff" fill-rule="evenodd"/>
      <path id="Trazado_196727" data-name="Trazado 196727" d="M4008.246,1797.947a1.236,1.236,0,1,1-1.236,1.236,1.236,1.236,0,0,1,1.236-1.236" transform="translate(-1898.824 -699.668)" fill="#fff" fill-rule="evenodd"/>
      <path id="Trazado_196728" data-name="Trazado 196728" d="M3331.1,1110l.029-21.5h11.2l-15.335-20.577L3311.65,1088.5h11.2l-.029,21.5Z" transform="translate(-1329.383 -101.838)" fill="#fff" fill-rule="evenodd"/>
      <path id="Trazado_196729" data-name="Trazado 196729" d="M2174.955,2051.718h-59.122a4.162,4.162,0,0,0-2.464.76,2.307,2.307,0,0,0-1.026,1.827v4.9a2.306,2.306,0,0,0,1.026,1.827,4.161,4.161,0,0,0,2.464.761h59.122Z" transform="translate(-347.251 -907.486)" fill="#2ec49f" fill-rule="evenodd"/>
      <path id="Trazado_196730" data-name="Trazado 196730" d="M2458.1,2051.718V2061.8h24.721a4.161,4.161,0,0,0,2.464-.761,2.306,2.306,0,0,0,1.026-1.827v-4.9a2.307,2.307,0,0,0-1.026-1.827,4.163,4.163,0,0,0-2.464-.76Z" transform="translate(-630.4 -907.486)" fill="#fff" fill-rule="evenodd"/>
      <path id="Trazado_196731" data-name="Trazado 196731" d="M2939.175,1545.849l-.952-1.752h-9.5v19.328H2953v-17.576Z" transform="translate(-1015.799 -491.787)" fill="#e09135" fill-rule="evenodd"/>
      <rect id="Rectángulo_46133" data-name="Rectángulo 46133" width="22.722" height="16.777" transform="translate(1913.704 1054.861)" fill="#c3dcfa"/>
      <path id="Trazado_196732" data-name="Trazado 196732" d="M2931.455,1562.907h23.312l-.306,15.921h-22.722Z" transform="translate(-1018.034 -507.19)" fill="#fff" fill-rule="evenodd"/>
      <path id="Trazado_196733" data-name="Trazado 196733" d="M2924.267,1568.067h25.789l-.7,14.987h-24.278Z" transform="translate(-1012.148 -511.415)" fill="#f59d36" fill-rule="evenodd"/>
      <path id="Trazado_196734" data-name="Trazado 196734" d="M3133.232,1545.849l-.952-1.752h-9.5v19.328h24.278v-17.576Z" transform="translate(-1174.716 -491.787)" fill="#e09135" fill-rule="evenodd"/>
      <rect id="Rectángulo_46134" data-name="Rectángulo 46134" width="22.722" height="16.777" transform="translate(1948.845 1054.861)" fill="#c3dcfa"/>
      <path id="Trazado_196735" data-name="Trazado 196735" d="M3125.514,1562.907h23.312l-.306,15.921H3125.8Z" transform="translate(-1176.953 -507.19)" fill="#fff" fill-rule="evenodd"/>
      <path id="Trazado_196736" data-name="Trazado 196736" d="M3118.324,1568.067h25.789l-.7,14.987h-24.278Z" transform="translate(-1171.065 -511.415)" fill="#f59d36" fill-rule="evenodd"/>
      <path id="Trazado_196737" data-name="Trazado 196737" d="M2939.175,1715.067l-.952-1.752h-9.5v19.327H2953v-17.576Z" transform="translate(-1015.799 -630.362)" fill="#e09135" fill-rule="evenodd"/>
      <path id="Trazado_196738" data-name="Trazado 196738" d="M2939.175,1884.285l-.952-1.751h-9.5v19.327H2953v-17.576Z" transform="translate(-1015.799 -768.937)" fill="#e09135" fill-rule="evenodd"/>
      <rect id="Rectángulo_46135" data-name="Rectángulo 46135" width="22.722" height="16.777" transform="translate(1913.704 1085.503)" fill="#c3dcfa"/>
      <rect id="Rectángulo_46136" data-name="Rectángulo 46136" width="22.722" height="16.777" transform="translate(1913.704 1116.146)" fill="#c3dcfa"/>
      <path id="Trazado_196739" data-name="Trazado 196739" d="M2931.455,1732.125h23.312l-.306,15.921h-22.722Z" transform="translate(-1018.034 -645.766)" fill="#fff" fill-rule="evenodd"/>
      <path id="Trazado_196740" data-name="Trazado 196740" d="M2931.455,1901.343h23.312l-.306,15.921h-22.722Z" transform="translate(-1018.034 -784.341)" fill="#fff" fill-rule="evenodd"/>
      <path id="Trazado_196741" data-name="Trazado 196741" d="M2924.267,1737.284h25.789l-.7,14.987h-24.278Z" transform="translate(-1012.148 -649.991)" fill="#f59d36" fill-rule="evenodd"/>
      <path id="Trazado_196742" data-name="Trazado 196742" d="M2924.267,1906.5h25.789l-.7,14.987h-24.278Z" transform="translate(-1012.148 -788.566)" fill="#f59d36" fill-rule="evenodd"/>
      <path id="Trazado_196743" data-name="Trazado 196743" d="M3133.232,1715.067l-.952-1.752h-9.5v19.327h24.278v-17.576Z" transform="translate(-1174.716 -630.362)" fill="#e09135" fill-rule="evenodd"/>
      <path id="Trazado_196744" data-name="Trazado 196744" d="M3133.232,1884.285l-.952-1.751h-9.5v19.327h24.278v-17.576Z" transform="translate(-1174.716 -768.937)" fill="#e09135" fill-rule="evenodd"/>
      <rect id="Rectángulo_46137" data-name="Rectángulo 46137" width="22.722" height="16.777" transform="translate(1948.845 1085.503)" fill="#c3dcfa"/>
      <rect id="Rectángulo_46138" data-name="Rectángulo 46138" width="22.722" height="16.777" transform="translate(1948.845 1116.146)" fill="#c3dcfa"/>
      <path id="Trazado_196745" data-name="Trazado 196745" d="M3125.514,1732.125h23.312l-.306,15.921H3125.8Z" transform="translate(-1176.953 -645.766)" fill="#fff" fill-rule="evenodd"/>
      <path id="Trazado_196746" data-name="Trazado 196746" d="M3125.514,1901.343h23.312l-.306,15.921H3125.8Z" transform="translate(-1176.953 -784.341)" fill="#fff" fill-rule="evenodd"/>
      <path id="Trazado_196747" data-name="Trazado 196747" d="M3118.324,1737.284h25.789l-.7,14.987h-24.278Z" transform="translate(-1171.065 -649.991)" fill="#f59d36" fill-rule="evenodd"/>
      <path id="Trazado_196748" data-name="Trazado 196748" d="M3118.324,1906.5h25.789l-.7,14.987h-24.278Z" transform="translate(-1171.065 -788.566)" fill="#f59d36" fill-rule="evenodd"/>
      <path id="Trazado_196749" data-name="Trazado 196749" d="M3859.234,1389.432h10.148l-5.074,10.149Z" transform="translate(-1777.809 -365.128)" fill="#b0c0d2" fill-rule="evenodd"/>
      <path id="Trazado_196750" data-name="Trazado 196750" d="M3925.832,1399.58h10.148l-5.074-10.149Z" transform="translate(-1832.346 -365.128)" fill="#b0c0d2" fill-rule="evenodd"/>
      <path id="Trazado_196751" data-name="Trazado 196751" d="M2870.846,1242.9l-6.848-7.49,10.914-3.1Z" transform="translate(-962.793 -236.453)" fill="#b0c0d2" fill-rule="evenodd"/>
      <path id="Trazado_196752" data-name="Trazado 196752" d="M2834.511,1183.878l-8.91-4.858-.4,11.339Z" transform="translate(-931.018 -192.819)" fill="#b0c0d2" fill-rule="evenodd"/>
      <path id="Trazado_196753" data-name="Trazado 196753" d="M2740.316,1866.848a12.914,12.914,0,0,1-.766,4.177,12.055,12.055,0,0,0,.048,7.428c.723,2.46-1.408,6.725-1.929,6.9a61.128,61.128,0,0,1-8.625,1.273c-1.389-.116-7.814-7.641-7.814-7.641l.695-6.6Z" transform="translate(-845.877 -756.093)" fill="#12263f" fill-rule="evenodd"/>
      <path id="Trazado_196754" data-name="Trazado 196754" d="M2840.109,2126.988l13.048,9.174.576,40.861q.149.172.293.337c.075.087.15.171.225.254.18.2.356.391.532.568.079.08.158.158.24.233a7.21,7.21,0,0,0,4.156,1.625,2.871,2.871,0,0,1,2.529,1.474.669.669,0,0,1,.059.12.748.748,0,0,1-.658,1.011l-11.627.558a1.122,1.122,0,0,1-1.166-.91,1.087,1.087,0,0,1-.02-.235l.372-5.124a.193.193,0,0,1,0-.021c-1.066-9.862-4.452-24.169-3.536-35.86,0,0-14.332-16.8-14.329-17.325s9.3,3.26,9.3,3.26" transform="translate(-935.611 -966.414)" fill="#f5a7b9"/>
      <path id="Trazado_196755" data-name="Trazado 196755" d="M2824.832,2170.416c-.505,4.364,2.539,6.954,2.033,11.317-.007,10.927-7.663,23.516-10.252,34.548-.086.365.566,3.836.492,4.2-1.15,1.229-4.427,2.964-4.778-2.706,1.466-9.527,3.288-24.922,7.062-36.512l-2.383-11.555Z" transform="translate(-920.479 -1004.108)" fill="#f5a7b9"/>
      <path id="Trazado_196756" data-name="Trazado 196756" d="M2744.612,2071.424c2.516,8.354,25.169,4.843,20.174,32.366-8.553,1.436-19.779,1.81-26.607.177-3.586-12.633-23.76-3.257-13.111-32.241,2.18-5.095,18.738-3.562,19.543-.3" transform="translate(-846.506 -921.167)" fill="#1565c0" fill-rule="evenodd"/>
      <path id="Trazado_196757" data-name="Trazado 196757" d="M2826.24,1932.767c0,.006-3.813,13.256-1.277,19.271.323.766,1.552,1.067,2.63,2.135,2.308,2.284,5.272,5.459,6.642,5.776,4.981,1.156,7.241.209,6.732-3.062-.157-1.012-2.02-2-4.1-2.651-1.791-.556-4.214-4.84-5.264-7.289-3.041-7.1-2.7-17.9-8.068-21.462-.611-.393.917,4.592,2.7,7.28" transform="translate(-929.547 -804.095)" fill="#2ec49f" fill-rule="evenodd"/>
      <path id="Trazado_196758" data-name="Trazado 196758" d="M2704.919,1920.024c-2.222,9.068,6.491,8.6,4.475,26.91,6.667.926,15.2,1.245,20.933-.167-.917-6.736.03-12.008.3-15.686a18.548,18.548,0,0,0-3.134-12.219c-1.961-3.036-18.814-4.439-22.571,1.161" transform="translate(-832.221 -796.511)" fill="#2ec49f" fill-rule="evenodd"/>
      <path id="Trazado_196759" data-name="Trazado 196759" d="M2731.59,2057.4a28.177,28.177,0,0,1-.305,5.162,61.715,61.715,0,0,0,6.735.661c-.555-1.224-5.093-4.929-6.429-5.823" transform="translate(-854.112 -912.14)" fill="#18af8a" fill-rule="evenodd"/>
      <path id="Trazado_196760" data-name="Trazado 196760" d="M2767.052,1850.2l-.56,2.167.24.354c.863,1.658-1.22,3.991-2.6,3.519-3.586-.809-5.5-4.466-3.994-5.745l.6-.386.95-3.023c-.18-.061-1.3-1.186-1.66-1.417a2.128,2.128,0,0,1-.546-1.971c.185-.815,1.356-.209,1.356-.209-.933-2.48-2.17-4.637.557-5.878s8.108-.911,8.108-.911l3.352-.209a9.945,9.945,0,0,0-1,5.659c.246,3.433-1.829,7.451-4.811,8.051" transform="translate(-877.171 -731.228)" fill="#f5a7b9" fill-rule="evenodd"/>
      <path id="Trazado_196761" data-name="Trazado 196761" d="M2779.2,1899.55s.9,3.446,2.25,4.11.675.263,1.222.347l.559-2.167c-1.022-.115-1.958-.459-4.031-2.29" transform="translate(-893.35 -782.873)" fill="#e16180" fill-rule="evenodd"/>
      <path id="Trazado_196762" data-name="Trazado 196762" d="M2686.571,1928.931c-8.274,2.565-7.158,20.2-5.979,25.258,1,4.1,14.48,14.995,18.032,13.881,1.713-.537,2.847-2.538.515-4.378-.814-.957-11.47-10.667-11.586-11.674-.268-6.5,4.769-23.457-.981-23.087" transform="translate(-811.931 -806.929)" fill="#2ec49f" fill-rule="evenodd"/>
      <path id="Trazado_196763" data-name="Trazado 196763" d="M2809.111,2135.551l-21.615.324,7.5,6.437h23.76Z" transform="translate(-900.145 -976.138)" fill-rule="evenodd" fill="url(#linear-gradient-5)"/>
      <path id="Trazado_196764" data-name="Trazado 196764" d="M2859.425,2076.346h-27.059l-3.473,17.482h27.06l3.685-17.334Z" transform="translate(-934.045 -927.654)" fill-rule="evenodd" fill="url(#linear-gradient-7)"/>
      <path id="Trazado_196765" data-name="Trazado 196765" d="M2779.659,2127.058l.821.452,2.947.05c.345-.082,2.513-.167,1.83.411-.48.406-1.708.886-1.688.945.978.729,3.617,2.345,3.643,2.414.367.982-2.229-.348-2.643-.5-.108-.04,1.7,1.387,1.6,1.444a.878.878,0,0,1-.858.088c-.553-.218-1.647-1.077-1.777-1.017s1.632,1.445,1.5,1.494a.772.772,0,0,1-.647-.024c-.568-.241-1.564-1.112-1.72-1.082s1.031.916,1.058,1.064c.018.1-.185.205-.292.169-2.906-.968-2.128-1.836-5.487-2.855-1.868-.567,1-2.886,1.709-3.055" transform="translate(-891.818 -969.183)" fill="#f5a7b9" fill-rule="evenodd"/>
      <path id="Trazado_196766" data-name="Trazado 196766" d="M2687.191,1825.94s4.8,1.833,6.831.87c3.508-1.667,2.976-9.581-5.914-9.67-7.553.132-7.079,9.209-16.929,9.89-5.224.361-8.414,4.727-6.647,11.933.014.017.792-2.295,2.72-2.014-3.144,3.632.023,7.891.5,8.629,1.125-5.511,4.432-9.359,13.823-10.482,3.9-1.475.469-9.79,5.621-9.156" transform="translate(-799.045 -715.386)" fill="#12263f" fill-rule="evenodd"/>
      <path id="Trazado_196767" data-name="Trazado 196767" d="M2936.7,2430.981s4.128.8,4.045,2.057c-.167,2.543-14.161,1.984-14.242,1.9a5.589,5.589,0,0,1-.229-4.3c.442-.668,6.134,2.269,10.426.349" transform="translate(-1013.524 -1217.702)" fill="#2ec49f" fill-rule="evenodd"/>
      <path id="Trazado_196768" data-name="Trazado 196768" d="M2812.654,2438.92c-.088,1.62-5.937,1.155-6.818.669-1.309-.723.286-5.816.779-5.25,0,0,1.525,2.4,3.329,1.916s1.171-1.02,1.479-.413c.577,1.138,1.311,1.584,1.23,3.077" transform="translate(-914.75 -1220.785)" fill="#2ec49f" fill-rule="evenodd"/>
      <path id="Trazado_196769" data-name="Trazado 196769" d="M2907.941,2114.381a1.625,1.625,0,1,0,1.695,1.624,1.66,1.66,0,0,0-1.695-1.624" transform="translate(-997.391 -958.802)" fill="#fff" fill-rule="evenodd"/>
      <path id="Trazado_196770" data-name="Trazado 196770" d="M3800.344,2257.762a15.038,15.038,0,1,0,15.038,15.037,15.037,15.037,0,0,0-15.038-15.037" transform="translate(-1717.268 -1076.219)" fill="#2ec49f" fill-rule="evenodd"/>
      <path id="Trazado_196771" data-name="Trazado 196771" d="M3822.523,2312.36l9.072-8.42a2.284,2.284,0,0,1,3.11,3.345l-10.812,10.036-.034.027a2.291,2.291,0,0,1-3.22-.214l-4.473-5.1a2.282,2.282,0,1,1,3.434-3.008Z" transform="translate(-1742.08 -1113.535)" fill="#fff" fill-rule="evenodd"/>
    </g>
  </g>
</svg>
