<svg xmlns="http://www.w3.org/2000/svg" xmlns:xlink="http://www.w3.org/1999/xlink" width="112" height="112" viewBox="0 0 112 112">
  <defs>
    <linearGradient id="linear-gradient" x1="0.5" x2="0.5" y2="1" gradientUnits="objectBoundingBox">
      <stop offset="0" stop-color="#039be5"/>
      <stop offset="1" stop-color="#027fbc"/>
    </linearGradient>
  </defs>
  <g id="Grupo_155438" data-name="Grupo 155438" transform="translate(9182 10720)">
    <circle id="Elipse_5854" data-name="Elipse 5854" cx="56" cy="56" r="56" transform="translate(-9182 -10720)" fill="url(#linear-gradient)"/>
    <g id="Hi6H32.tif" transform="translate(-13396.673 -11206.833)">
      <g id="Grupo_143033" data-name="Grupo 143033" transform="translate(4236.086 503.735)">
        <path id="Trazado_184074" data-name="Trazado 184074" d="M4495.883,517.231c-.832.8-1.651,1.615-2.5,2.4a2.369,2.369,0,0,0-.069,3.084c.6.57,1.187,1.152,1.8,1.71a1.337,1.337,0,0,1,.36,1.677c-.523,1.179-1.053,2.356-1.571,3.537a1.255,1.255,0,0,1-1.349.819,13.628,13.628,0,0,1-1.776-.137,2.436,2.436,0,0,0-2.594.886,1.57,1.57,0,0,0-.491,1.214c.068.823.072,1.652.1,2.478a1.345,1.345,0,0,1-.95,1.431q-1.811.678-3.61,1.389a1.3,1.3,0,0,1-1.591-.428,19.188,19.188,0,0,1-1.3-1.54,2.147,2.147,0,0,0-2.023-.978,1.8,1.8,0,0,0-1.544.641c-.5.621-1.1,1.165-1.646,1.748a1.28,1.28,0,0,1-1.556.311c-1.208-.522-2.4-1.07-3.606-1.6a1.256,1.256,0,0,1-.8-1.362c.068-.928.148-1.855.193-2.783a2.566,2.566,0,0,0-2.022-2.046c-.826.021-1.652.049-2.479.09a1.44,1.44,0,0,1-1.6-1.044c-.418-1.165-.875-2.317-1.335-3.467a1.327,1.327,0,0,1,.428-1.657,11.037,11.037,0,0,1,1.305-1.093,2.391,2.391,0,0,0,1.171-2.62,1.648,1.648,0,0,0-.369-.861c-.6-.64-1.248-1.237-1.9-1.828a1.366,1.366,0,0,1-.369-1.739c.522-1.151,1.039-2.306,1.538-3.466a1.283,1.283,0,0,1,1.4-.852c.876.068,1.751.14,2.628.189a2.435,2.435,0,0,0,2.182-2.113c-.022-.8-.047-1.6-.088-2.4a1.439,1.439,0,0,1,1.058-1.59c1.255-.461,2.483-.99,3.724-1.49h.62c.816.85,1.644,1.691,2.445,2.555a2.449,2.449,0,0,0,2.977.078c.59-.615,1.188-1.221,1.761-1.852a1.363,1.363,0,0,1,1.742-.346c1.128.51,2.256,1.016,3.394,1.5a1.355,1.355,0,0,1,.9,1.528c-.078.822-.1,1.649-.193,2.469a1.621,1.621,0,0,0,.444,1.238,2.323,2.323,0,0,0,2.461,1,10.01,10.01,0,0,1,1.544-.069c1-.02,1.318.2,1.69,1.129q.729,1.824,1.461,3.648Zm-30.181-3.562c-.252.57-.457,1.1-.723,1.6-.219.409-.209.725.192.983a4.7,4.7,0,0,1,2.09,5.339c-.024.125.022.274-.026.384a4.28,4.28,0,0,1-.6,1.189,10.908,10.908,0,0,1-1.636,1.42.746.746,0,0,0-.256,1.11,1.92,1.92,0,0,1,.229.574c.148.864.656,1.011,1.476.977,2.97-.124,2.139-.329,4.21,1.669a3.572,3.572,0,0,1,1.2,3.287c-.217,1.786-.141,1.81,1.56,2.462a.9.9,0,0,0,.77-.146c.59-.538,1.1-1.17,1.686-1.709a1.826,1.826,0,0,1,1-.5c2.26-.153,4.481-.148,5.731,2.273a1.018,1.018,0,0,0,.252.292c.093.078.238.2.313.174a9.455,9.455,0,0,0,1.986-.824c.2-.129.147-.777.078-1.163a3.655,3.655,0,0,1,1.641-4.006c.317-.215.53-.6.858-.775a3.508,3.508,0,0,1,1.448-.518,26.442,26.442,0,0,1,2.765.161,8.217,8.217,0,0,1,.512-1.1c.5-.758.313-1.255-.349-1.876-2.15-2.02-1.745-1.154-1.774-4.245a3.417,3.417,0,0,1,1.466-3.016c1.5-1.153,1.473-1.216.642-2.929a.849.849,0,0,0-.618-.392c-.748-.026-1.508.113-2.242.025a2.993,2.993,0,0,1-1.485-.625,11.848,11.848,0,0,1-1.811-1.907,2.608,2.608,0,0,1-.5-1.376c-.041-.767.126-1.544.13-2.317a.9.9,0,0,0-.4-.677c-1.659-.846-1.665-.832-2.968.524a6.113,6.113,0,0,1-.54.555c-.315.254-.654.676-.988.68-2.059.023-4.314.551-5.611-1.822a3.1,3.1,0,0,0-.556-.644c-.1-.1-.276-.262-.362-.233a9.147,9.147,0,0,0-1.986.823c-.2.13-.138.77-.082,1.161a3.54,3.54,0,0,1-1.468,3.849c-.4.264-.678.729-1.085.986a2.765,2.765,0,0,1-1.315.472C4467.623,513.862,4466.7,513.738,4465.7,513.668Z" transform="translate(-4426.709 -503.735)" fill="#fff"/>
        <path id="Trazado_184075" data-name="Trazado 184075" d="M4255.146,622.629l2.63-6.151h-3.526q-5.815,0-11.632,0a6.21,6.21,0,0,1-6.528-6.523q-.006-18.922,0-37.844a6.2,6.2,0,0,1,6.462-6.509q13.144-.01,26.286,0h.714v2.482h-26.792c-2.7,0-4.188,1.479-4.188,4.156q0,15.471,0,30.943v.83h59.539v-14.79h2.5v.8q0,9.926,0,19.853a6.223,6.223,0,0,1-6.6,6.6q-7.055,0-14.111,0h-.97c.9,2.116,1.772,4.147,2.651,6.2,1.731,0,3.437,0,5.141,0a3.728,3.728,0,1,1,.012,7.443q-18.378.006-36.753,0a3.729,3.729,0,1,1,.008-7.443c1.654-.006,3.309-.005,4.962-.01A1.244,1.244,0,0,0,4255.146,622.629Zm-16.576-16.05c0,1.141,0,2.2,0,3.257,0,2.679,1.49,4.159,4.188,4.159q13.339,0,26.676,0,12.371,0,24.738,0a3.608,3.608,0,0,0,3.864-3.08,36.385,36.385,0,0,0,.034-4.334Zm19.279,16.051h21c-.852-1.993-1.662-3.914-2.508-5.819a.764.764,0,0,0-.589-.32q-7.4-.026-14.8,0a.762.762,0,0,0-.59.318C4259.511,618.715,4258.7,620.636,4257.849,622.63Zm10.422,5.016h18.067a4.306,4.306,0,0,0,.773-.021,1.231,1.231,0,0,0,0-2.441,3.891,3.891,0,0,0-.7-.019h-36.136a3.86,3.86,0,0,0-.7.019,1.231,1.231,0,0,0,0,2.441,4.343,4.343,0,0,0,.774.02Z" transform="translate(-4236.086 -555.98)" fill="#fff"/>
        <path id="Trazado_184076" data-name="Trazado 184076" d="M4308.172,783.794V781.4H4345.3v2.391Z" transform="translate(-4296.967 -738.241)" fill="#fff"/>
        <path id="Trazado_184077" data-name="Trazado 184077" d="M4339.254,749.558v2.391h-30.921v-2.391Z" transform="translate(-4297.102 -711.346)" fill="#fff"/>
        <path id="Trazado_184078" data-name="Trazado 184078" d="M4335.537,717.632v2.389h-27.2v-2.389Z" transform="translate(-4297.107 -684.383)" fill="#fff"/>
        <path id="Trazado_184079" data-name="Trazado 184079" d="M4331.727,685.591v2.4h-23.5v-2.4Z" transform="translate(-4297.017 -657.322)" fill="#fff"/>
        <path id="Trazado_184080" data-name="Trazado 184080" d="M4278.716,612.61l3,2.77-1.793,1.772c-1.255-1.242-2.518-2.457-3.736-3.718a1.124,1.124,0,0,1,.032-1.675c1.2-1.242,2.437-2.452,3.7-3.712l1.643,1.818Z" transform="translate(-4269.652 -591.832)" fill="#fff"/>
        <path id="Trazado_184081" data-name="Trazado 184081" d="M4368.841,613.449l-3-2.758,1.87-1.69c1.185,1.156,2.475,2.378,3.717,3.649a1.058,1.058,0,0,1,0,1.55c-1.242,1.271-2.531,2.493-3.825,3.757l-1.67-1.765C4366.85,615.325,4367.8,614.43,4368.841,613.449Z" transform="translate(-4345.673 -592.638)" fill="#fff"/>
        <path id="Trazado_184082" data-name="Trazado 184082" d="M4326.614,614.248l-2.4-.62c.831-3.321,1.647-6.579,2.479-9.9l2.406.6Z" transform="translate(-4310.516 -588.182)" fill="#fff"/>
        <path id="Trazado_184083" data-name="Trazado 184083" d="M4276.209,688.019v-2.38h2.413v2.38Z" transform="translate(-4269.972 -657.363)" fill="#fff"/>
        <path id="Trazado_184084" data-name="Trazado 184084" d="M4276.243,717.482h2.4v2.408h-2.4Z" transform="translate(-4270 -684.256)" fill="#fff"/>
        <path id="Trazado_184085" data-name="Trazado 184085" d="M4278.746,751.932h-2.385v-2.4h2.385Z" transform="translate(-4270.101 -711.325)" fill="#fff"/>
        <path id="Trazado_184086" data-name="Trazado 184086" d="M4526.188,751.97h-2.357v-2.413h2.357Z" transform="translate(-4479.102 -711.345)" fill="#fff"/>
        <path id="Trazado_184087" data-name="Trazado 184087" d="M4558.116,751.97h-2.356v-2.413h2.356Z" transform="translate(-4506.067 -711.345)" fill="#fff"/>
        <path id="Trazado_184088" data-name="Trazado 184088" d="M4278.669,783.807h-2.38v-2.413h2.38Z" transform="translate(-4270.039 -738.233)" fill="#fff"/>
        <path id="Trazado_184089" data-name="Trazado 184089" d="M4563.452,783.924v-2.373h2.413v2.373Z" transform="translate(-4512.564 -738.366)" fill="#fff"/>
        <path id="Trazado_184090" data-name="Trazado 184090" d="M4598.039,783.874h-2.38v-2.395h2.38Z" transform="translate(-4539.764 -738.305)" fill="#fff"/>
        <path id="Trazado_184091" data-name="Trazado 184091" d="M4532.189,565.569a8.833,8.833,0,1,1-8.8-8.868A8.853,8.853,0,0,1,4532.189,565.569Zm-2.483-.049a6.351,6.351,0,1,0-6.362,6.364A6.369,6.369,0,0,0,4529.706,565.52Z" transform="translate(-4471.242 -548.468)" fill="#fff"/>
        <path id="Trazado_184092" data-name="Trazado 184092" d="M4438.4,847.74h-2.381v-2.395h2.381Z" transform="translate(-4404.938 -792.243)" fill="#fff"/>
      </g>
    </g>
  </g>
</svg>
