<svg id="Grupo_154995" data-name="Grupo 154995" xmlns="http://www.w3.org/2000/svg" xmlns:xlink="http://www.w3.org/1999/xlink" width="87.339" height="87.338" viewBox="0 0 87.339 87.338">
  <defs>
    <radialGradient id="radial-gradient" cx="0.076" cy="0.019" r="1.465" gradientTransform="translate(0.001)" gradientUnits="objectBoundingBox">
      <stop offset="0" stop-color="#f6f6f7"/>
      <stop offset="0.477" stop-color="#f9f9fa"/>
      <stop offset="0.715" stop-color="#fff"/>
    </radialGradient>
  </defs>
  <g id="Grupo_18423" data-name="Grupo 18423" transform="translate(0 0)">
    <g id="Grupo_18421" data-name="Grupo 18421">
      <g id="Grupo_18420" data-name="Grupo 18420">
        <g id="Grupo_18419" data-name="Grupo 18419">
          <path id="Trazado_40936" data-name="Trazado 40936" d="M281.962,2189.389a43.669,43.669,0,1,1-43.669-43.668A43.669,43.669,0,0,1,281.962,2189.389Z" transform="translate(-194.623 -2145.721)" fill="#fff"/>
        </g>
      </g>
    </g>
    <path id="Trazado_40937" data-name="Trazado 40937" d="M281.7,2189.1a43.669,43.669,0,1,0-43.669,43.67A43.5,43.5,0,0,0,281.7,2189.1Z" transform="translate(-194.361 -2145.436)" fill="url(#radial-gradient)"/>
    <path id="Trazado_40938" data-name="Trazado 40938" d="M269.1,2186.859a33.332,33.332,0,1,0-33.333,33.333A33.209,33.209,0,0,0,269.1,2186.859Z" transform="translate(-191.968 -2143.046)" fill="none" stroke="#f59d36" stroke-miterlimit="10" stroke-width="4"/>
    <g id="Grupo_18422" data-name="Grupo 18422" transform="translate(7.736 24.517)">
      <path id="Trazado_40939" data-name="Trazado 40939" d="M275.732,2164.488a43.675,43.675,0,0,1-75.187,43.488,43.536,43.536,0,0,0,75.187-43.488Z" transform="translate(-200.545 -2164.488)" fill="#eceef0"/>
    </g>
  </g>
  <g id="PUSzgc.tif" transform="translate(-718.141 -315.893)">
    <g id="Grupo_151947" data-name="Grupo 151947" transform="translate(741.847 339.67)">
      <path id="Trazado_194443" data-name="Trazado 194443" d="M752.723,370.24l2.486,2.484c.461.461.915.928,1.386,1.378a.636.636,0,0,0,.386.18c1.4.013,2.8.008,4.2.008a6.537,6.537,0,0,1,.344-.715,2.554,2.554,0,0,1,2.653-1.259,2.624,2.624,0,0,1,2.2,1.907,1.2,1.2,0,0,0,.409.566c.966.673,1.948,1.322,2.936,1.962a1.2,1.2,0,0,0,.608.192c2.177.014,4.353,0,6.53.013a.485.485,0,0,0,.515-.292,1.95,1.95,0,0,1,2.213-.994,2,2,0,0,1,0,3.9,1.956,1.956,0,0,1-2.21-1,.484.484,0,0,0-.518-.288c-2.274.007-4.547.013-6.821-.007a1.688,1.688,0,0,1-.841-.257c-.982-.621-1.941-1.28-2.94-1.945a2.7,2.7,0,0,1-5.046-.445h-.726c-1.262,0-2.523-.012-3.785,0a1.082,1.082,0,0,1-.845-.348c-1.276-1.292-2.565-2.572-3.849-3.856-.106-.106-.217-.207-.341-.326-.306.219-.593.432-.888.634a14.328,14.328,0,0,1-8.069,2.557c-.638.009-.855-.207-.856-.834q0-2.829,0-5.657c0-.562.142-.726.7-.83a.664.664,0,0,0-.008-1.326c-.549-.1-.694-.27-.694-.835q0-9.484,0-18.968c0-.609.219-.833.819-.828a14.452,14.452,0,0,1,8.62,2.917c.111.082.221.166.364.275.111-.1.221-.2.326-.306,1.285-1.284,2.573-2.564,3.849-3.856a1.127,1.127,0,0,1,.879-.368c1.5.016,2.993.007,4.483.007a2.71,2.71,0,0,1,5.074-.452c.967-.645,1.921-1.3,2.9-1.919a1.853,1.853,0,0,1,.917-.278c2.259-.023,4.519-.016,6.779-.007a.486.486,0,0,0,.513-.3,1.995,1.995,0,1,1,.012,1.934.518.518,0,0,0-.539-.322c-2.176.012-4.353,0-6.53.013a1.043,1.043,0,0,0-.536.154q-1.55,1.008-3.077,2.051a.7.7,0,0,0-.3.365,2.674,2.674,0,0,1-5.153.23c-.016-.038-.035-.075-.066-.144-1.413,0-2.839,0-4.265,0a.4.4,0,0,0-.254.1c-1.328,1.316-2.652,2.638-3.962,3.944.592.72,1.163,1.409,1.727,2.1a2.282,2.282,0,0,1,.373.548c.222.55.617.645,1.172.632,1.718-.039,3.438-.021,5.157-.012a.827.827,0,0,0,.653-.265c1.335-1.352,2.686-2.687,4.021-4.038a1.119,1.119,0,0,1,.879-.368c1.053.019,2.106.007,3.167.007a2.659,2.659,0,0,1,2.127-1.953,2.66,2.66,0,1,1,.569,5.276,2.559,2.559,0,0,1-2.574-1.726.347.347,0,0,0-.386-.27c-.859.01-1.719-.008-2.578.015a.806.806,0,0,0-.487.232q-2.043,2.016-4.061,4.056a1.131,1.131,0,0,1-.88.366c-1.733-.015-3.466-.007-5.2-.007h-.483l.724,2h2.855c2.773,0,5.545,0,8.318.006a.827.827,0,0,0,.651-.27c1.1-1.116,2.219-2.212,3.313-3.333a1.229,1.229,0,0,1,.99-.4c.928.024,1.858,0,2.786.011a.454.454,0,0,0,.488-.267,1.994,1.994,0,1,1,0,1.86.456.456,0,0,0-.487-.269c-.8.008-1.608.011-2.412-.005a.811.811,0,0,0-.653.266c-1.118,1.136-2.255,2.255-3.374,3.39a1.092,1.092,0,0,1-.845.349q-5.428-.012-10.855,0h-.463l.232,2c.422,0,.836.012,1.247-.009a.412.412,0,0,0,.26-.2,2.006,2.006,0,0,1,3.6-.028.607.607,0,0,0,.45.225c2.121.016,4.242.013,6.363.013,2.343,0,4.686,0,7.029.005a.475.475,0,0,0,.544-.347,2.655,2.655,0,1,1,3.081,3.586,2.6,2.6,0,0,1-3.026-1.464.656.656,0,0,0-.732-.456q-6.592.02-13.184,0a.592.592,0,0,0-.612.342,1.961,1.961,0,0,1-3.439-.026.5.5,0,0,0-.543-.316c-.342.024-.687.006-1.024.006l-.369,2.665h.5c3.826,0,7.653.007,11.479-.009a1.383,1.383,0,0,1,1.092.461c.866.9,1.752,1.777,2.648,2.646a.868.868,0,0,0,.534.22c.831.023,1.664,0,2.5.015a.456.456,0,0,0,.479-.283,2,2,0,1,1,.024,1.934.542.542,0,0,0-.577-.331c-.929.011-1.858-.011-2.786.01a1.148,1.148,0,0,1-.913-.386q-1.337-1.368-2.709-2.7a.9.9,0,0,0-.567-.237c-3.909-.012-7.819,0-11.728-.013a.441.441,0,0,0-.509.342c-.189.545-.432,1.072-.675,1.66h.627c1.788,0,3.577.011,5.365-.008a1.093,1.093,0,0,1,.924.439q1.691,2,3.416,3.976a.788.788,0,0,0,.517.241c1.053.022,2.107,0,3.161.018a.428.428,0,0,0,.438-.279,2,2,0,1,1,0,1.863.429.429,0,0,0-.446-.267c-1.178.011-2.357-.011-3.535.013a1.128,1.128,0,0,1-.963-.45q-1.676-1.986-3.387-3.943a.831.831,0,0,0-.549-.259c-2.01-.02-4.02-.009-6.03-.021a.6.6,0,0,0-.543.276C753.987,368.68,753.364,369.439,752.723,370.24Zm.383-2.568a13.055,13.055,0,0,0,2.662-7.34h-5.23c-.1,1.011-.152,2-.3,2.986s-.386,1.948-.564,2.925a.377.377,0,0,0,.195.3C750.922,366.927,751.98,367.285,753.106,367.673Zm-.028-16.089c-.685.268-1.319.542-1.971.761-.385.129-.705.257-.769.722a.766.766,0,0,1-.236.429c-.261.235-.213.492-.161.787.147.829.287,1.66.391,2.494.09.722.127,1.451.186,2.168h5.248A13.124,13.124,0,0,0,753.078,351.583Zm-3.86,8.758h-6.04c0,1.3,0,2.576.009,3.849,0,.1.115.217.2.306.314.338.632.672.959,1a.7.7,0,0,0,.341.221c1.081.147,2.166.269,3.247.414.26.035.372-.03.423-.3.1-.528.28-1.043.358-1.574C748.9,362.964,749.051,361.665,749.219,360.341Zm-.558-6.006a1.955,1.955,0,0,1-1.619-.673.684.684,0,0,0-.718-.25c-.577.066-1.155.116-1.733.165-.464.039-.928.067-1.383.1v5.277h6Zm-5.459-2c.907-.072,1.786-.162,2.666-.2.457-.021.753-.156.83-.644a.57.57,0,0,1,.212-.349c.572-.388.372-.807.086-1.248-.18-.278-.331-.576-.515-.852a6.314,6.314,0,0,0-2.4-2.3c-.273-.135-.571-.222-.874-.338Zm-.021,20.518c1.8-.313,4.222-3.159,4.6-5.418-.947-.116-1.893-.227-2.837-.351-.344-.046-.644-.077-.8.347a.773.773,0,0,1-.386.418c-.627.244-.622.734-.59,1.274.028.469.009.941.009,1.412C743.181,371.3,743.181,372.073,743.181,372.85Zm3.48-.642a11.751,11.751,0,0,0,5.445-3.474l-2.891-1A13.487,13.487,0,0,1,746.661,372.207Zm5.514-21.688a12.88,12.88,0,0,0-5.471-3.439,14.329,14.329,0,0,1,1.937,3.091.341.341,0,0,0,.2.174,2.3,2.3,0,0,1,1.367.91Zm20.3-.862a1.327,1.327,0,0,0-.026-2.654,1.327,1.327,0,1,0,.026,2.654Zm-7.336-5.321a1.327,1.327,0,1,0-1.324,1.33A1.351,1.351,0,0,0,765.135,344.336Zm15.308,15.321a1.329,1.329,0,1,0-1.338,1.319A1.362,1.362,0,0,0,780.443,359.657Zm-15.308,15.289a1.357,1.357,0,0,0-1.335-1.319,1.327,1.327,0,1,0,.017,2.655A1.358,1.358,0,0,0,765.135,374.946Zm14.637-33.267a.66.66,0,1,0-.674.656A.694.694,0,0,0,779.772,341.679Zm-30.608,10.635a.662.662,0,1,0-.651.674A.693.693,0,0,0,749.165,352.314Zm28.621-.647a.66.66,0,1,0,.66.67A.691.691,0,0,0,777.785,351.667Zm-16.644,7.954a.662.662,0,1,0-.652.685A.7.7,0,0,0,761.141,359.621Zm17.3,7.336a.66.66,0,1,0-.659.673A.695.695,0,0,0,778.445,366.957Zm-5.993,4.672a.66.66,0,1,0-.674.656A.7.7,0,0,0,772.452,371.629Zm6.651,5.325a.663.663,0,1,0,.673.651A.693.693,0,0,0,779.1,376.954Z" transform="translate(-741.847 -339.67)" fill="#12263f"/>
    </g>
  </g>
</svg>
