<svg xmlns="http://www.w3.org/2000/svg" width="442" height="272" viewBox="0 0 442 272">
  <g id="Grupo_154986" data-name="Grupo 154986" transform="translate(-357.676 -4080)">
    <g id="Rectángulo_46189" data-name="Rectángulo 46189" transform="translate(357.676 4080)" fill="#d2e1f1" stroke="#12263f" stroke-width="3">
      <rect width="217" height="44" stroke="none"/>
      <rect x="1.5" y="1.5" width="214" height="41" fill="none"/>
    </g>
    <g id="Rectángulo_46190" data-name="Rectángulo 46190" transform="translate(357.676 4121)" fill="#fefebd" stroke="#12263f" stroke-width="3">
      <rect width="217" height="112" stroke="none"/>
      <rect x="1.5" y="1.5" width="214" height="109" fill="none"/>
    </g>
    <g id="Rectángulo_46191" data-name="Rectángulo 46191" transform="translate(357.676 4230)" fill="#fdf1d7" stroke="#12263f" stroke-width="3">
      <rect width="217" height="28" stroke="none"/>
      <rect x="1.5" y="1.5" width="214" height="25" fill="none"/>
    </g>
    <g id="Rectángulo_46193" data-name="Rectángulo 46193" transform="translate(727.676 4124)" fill="#fedfb3" stroke="#12263f" stroke-width="3">
      <rect width="72" height="134" stroke="none"/>
      <rect x="1.5" y="1.5" width="69" height="131" fill="none"/>
    </g>
    <g id="Rectángulo_46192" data-name="Rectángulo 46192" transform="translate(357.676 4255)" fill="#cdebb9" stroke="#12263f" stroke-width="3">
      <rect width="442" height="50" stroke="none"/>
      <rect x="1.5" y="1.5" width="439" height="47" fill="none"/>
    </g>
    <g id="Rectángulo_46194" data-name="Rectángulo 46194" transform="translate(357.676 4302)" fill="#caecf2" stroke="#12263f" stroke-width="3">
      <rect width="442" height="50" stroke="none"/>
      <rect x="1.5" y="1.5" width="439" height="47" fill="none"/>
    </g>
    <path id="Trazado_197354" data-name="Trazado 197354" d="M9.3-2.93H4.16L3.184,0H.068L5.361-14.219H8.076L13.4,0H10.283ZM4.951-5.3H8.506L6.719-10.625Zm19.1.117a6.337,6.337,0,0,1-1.108,3.911A3.554,3.554,0,0,1,19.951.2,3.292,3.292,0,0,1,17.363-.918v4.98H14.541V-10.566h2.617l.1,1.035a3.317,3.317,0,0,1,2.676-1.23,3.578,3.578,0,0,1,3.037,1.445,6.509,6.509,0,0,1,1.084,3.984ZM21.23-5.391a4.159,4.159,0,0,0-.522-2.275,1.7,1.7,0,0,0-1.519-.8,1.848,1.848,0,0,0-1.826,1.016v4.326A1.879,1.879,0,0,0,19.209-2.08Q21.23-2.08,21.23-5.391Zm14.082.205A6.337,6.337,0,0,1,34.2-1.274,3.554,3.554,0,0,1,31.211.2,3.292,3.292,0,0,1,28.623-.918v4.98H25.8V-10.566h2.617l.1,1.035a3.317,3.317,0,0,1,2.676-1.23,3.578,3.578,0,0,1,3.037,1.445,6.509,6.509,0,0,1,1.084,3.984ZM32.49-5.391a4.159,4.159,0,0,0-.522-2.275,1.7,1.7,0,0,0-1.519-.8,1.848,1.848,0,0,0-1.826,1.016v4.326A1.879,1.879,0,0,0,30.469-2.08Q32.49-2.08,32.49-5.391ZM42.783-2.92a.909.909,0,0,0-.513-.815,5.824,5.824,0,0,0-1.646-.532q-3.77-.791-3.77-3.2a2.9,2.9,0,0,1,1.167-2.349,4.708,4.708,0,0,1,3.052-.942,5.067,5.067,0,0,1,3.218.947A2.985,2.985,0,0,1,45.5-7.354H42.676a1.366,1.366,0,0,0-.391-1,1.653,1.653,0,0,0-1.221-.4,1.689,1.689,0,0,0-1.1.322,1.017,1.017,0,0,0-.391.82.87.87,0,0,0,.444.757,4.571,4.571,0,0,0,1.5.5,12.244,12.244,0,0,1,1.777.474,2.92,2.92,0,0,1,2.236,2.842A2.756,2.756,0,0,1,44.287-.7a5.35,5.35,0,0,1-3.2.894,5.588,5.588,0,0,1-2.358-.474,3.957,3.957,0,0,1-1.616-1.3,3.018,3.018,0,0,1-.586-1.782H39.2a1.473,1.473,0,0,0,.557,1.152,2.208,2.208,0,0,0,1.387.4,2.044,2.044,0,0,0,1.226-.308A.957.957,0,0,0,42.783-2.92Z" transform="translate(387.676 4108)" fill="#12263f"/>
    <path id="Trazado_197358" data-name="Trazado 197358" d="M12.842,0H9.912V-6.094H4.2V0H1.27V-14.219H4.2v5.762H9.912v-5.762h2.93ZM19.16-3.994l1.953-6.572h3.027L19.893,1.641l-.234.557a3.221,3.221,0,0,1-3.125,2.07,4.441,4.441,0,0,1-1.25-.186V1.943l.43.01a2.322,2.322,0,0,0,1.2-.244A1.6,1.6,0,0,0,17.529.9l.332-.869-3.7-10.6H17.2ZM34.766-5.186a6.337,6.337,0,0,1-1.108,3.911A3.554,3.554,0,0,1,30.664.2,3.292,3.292,0,0,1,28.076-.918v4.98H25.254V-10.566h2.617l.1,1.035a3.317,3.317,0,0,1,2.676-1.23,3.578,3.578,0,0,1,3.037,1.445,6.509,6.509,0,0,1,1.084,3.984Zm-2.822-.205a4.159,4.159,0,0,0-.522-2.275,1.7,1.7,0,0,0-1.519-.8,1.848,1.848,0,0,0-1.826,1.016v4.326A1.879,1.879,0,0,0,29.922-2.08Q31.943-2.08,31.943-5.391ZM41.377.2A5.187,5.187,0,0,1,37.593-1.23a5.068,5.068,0,0,1-1.46-3.8V-5.3a6.383,6.383,0,0,1,.615-2.847,4.515,4.515,0,0,1,1.743-1.934,4.893,4.893,0,0,1,2.573-.679,4.385,4.385,0,0,1,3.413,1.367,5.555,5.555,0,0,1,1.245,3.877v1.152H38.994a2.622,2.622,0,0,0,.825,1.66,2.5,2.5,0,0,0,1.743.625,3.046,3.046,0,0,0,2.549-1.182L45.5-1.709a4.237,4.237,0,0,1-1.719,1.4A5.639,5.639,0,0,1,41.377.2Zm-.322-8.682a1.764,1.764,0,0,0-1.362.569,2.946,2.946,0,0,0-.669,1.628h3.926v-.226a2.1,2.1,0,0,0-.508-1.457A1.819,1.819,0,0,0,41.055-8.486Zm12.207.566A7.667,7.667,0,0,0,52.246-8a2.067,2.067,0,0,0-2.1,1.084V0H47.324V-10.566H49.99l.078,1.26a2.615,2.615,0,0,1,2.354-1.455,2.957,2.957,0,0,1,.879.127ZM58.75-3.447l1.963-7.119h2.949L60.1,0H57.4L53.838-10.566h2.949ZM67.881,0H65.049V-10.566h2.832Zm-3-13.3a1.39,1.39,0,0,1,.425-1.045,1.6,1.6,0,0,1,1.157-.41,1.6,1.6,0,0,1,1.152.41,1.382,1.382,0,0,1,.43,1.045,1.386,1.386,0,0,1-.435,1.055,1.6,1.6,0,0,1-1.147.41,1.6,1.6,0,0,1-1.147-.41A1.386,1.386,0,0,1,64.883-13.3ZM75.928-2.92a.909.909,0,0,0-.513-.815,5.824,5.824,0,0,0-1.646-.532Q70-5.059,70-7.471a2.9,2.9,0,0,1,1.167-2.349,4.708,4.708,0,0,1,3.052-.942,5.067,5.067,0,0,1,3.218.947,2.985,2.985,0,0,1,1.206,2.461H75.82a1.366,1.366,0,0,0-.391-1,1.653,1.653,0,0,0-1.221-.4,1.689,1.689,0,0,0-1.1.322,1.017,1.017,0,0,0-.391.82.87.87,0,0,0,.444.757,4.571,4.571,0,0,0,1.5.5,12.244,12.244,0,0,1,1.777.474,2.92,2.92,0,0,1,2.236,2.842A2.756,2.756,0,0,1,77.432-.7a5.35,5.35,0,0,1-3.2.894A5.588,5.588,0,0,1,71.87-.278a3.957,3.957,0,0,1-1.616-1.3,3.018,3.018,0,0,1-.586-1.782h2.676A1.473,1.473,0,0,0,72.9-2.207a2.208,2.208,0,0,0,1.387.4,2.044,2.044,0,0,0,1.226-.308A.957.957,0,0,0,75.928-2.92Zm4.121-2.461a6.266,6.266,0,0,1,.605-2.8,4.432,4.432,0,0,1,1.743-1.9,5.086,5.086,0,0,1,2.642-.674A4.812,4.812,0,0,1,88.53-9.453,5.252,5.252,0,0,1,90.039-5.9l.02.723a5.523,5.523,0,0,1-1.357,3.9A4.718,4.718,0,0,1,85.059.2,4.742,4.742,0,0,1,81.411-1.27a5.62,5.62,0,0,1-1.362-3.984Zm2.822.2a3.95,3.95,0,0,0,.566,2.3,1.868,1.868,0,0,0,1.621.8,1.873,1.873,0,0,0,1.6-.787,4.322,4.322,0,0,0,.576-2.518,3.91,3.91,0,0,0-.576-2.289,1.873,1.873,0,0,0-1.621-.812,1.842,1.842,0,0,0-1.6.807A4.395,4.395,0,0,0,82.871-5.181ZM97.734-7.92A7.667,7.667,0,0,0,96.719-8a2.067,2.067,0,0,0-2.1,1.084V0H91.8V-10.566h2.666l.078,1.26a2.615,2.615,0,0,1,2.354-1.455,2.957,2.957,0,0,1,.879.127ZM104.2-5.781a14.987,14.987,0,0,1,.6-4.258,11.236,11.236,0,0,1,1.758-3.579,6.564,6.564,0,0,1,2.52-2.163l.547,1.523A6.8,6.8,0,0,0,107.393-11a15.1,15.1,0,0,0-.8,5.156v.3a15.391,15.391,0,0,0,.791,5.176,6.93,6.93,0,0,0,2.236,3.311l-.547,1.494a6.566,6.566,0,0,1-2.476-2.1,11.048,11.048,0,0,1-1.753-3.481,14.9,14.9,0,0,1-.645-4.121Zm10.908-8.437L118.76-3.906l3.633-10.312h3.848V0H123.3V-3.887l.293-6.709L119.756,0h-2.012l-3.828-10.586.293,6.7V0h-2.93V-14.219Zm17.52,0,3.652,10.313,3.633-10.312h3.848V0H140.82V-3.887l.293-6.709L137.275,0h-2.012l-3.828-10.586.293,6.7V0H128.8V-14.219Zm17.52,0L153.8-3.906l3.633-10.312h3.848V0H158.34V-3.887l.293-6.709L154.795,0h-2.012l-3.828-10.586.293,6.7V0h-2.93V-14.219Zm18.369,8.662a14.221,14.221,0,0,1-.635,4.248,11.531,11.531,0,0,1-1.826,3.6,6.579,6.579,0,0,1-2.549,2.148l-.547-1.494a6.867,6.867,0,0,0,2.188-3.223,14.923,14.923,0,0,0,.83-5.01V-5.8a15.261,15.261,0,0,0-.8-5.146,7.158,7.158,0,0,0-2.222-3.34l.547-1.494a6.581,6.581,0,0,1,2.5,2.09,11.383,11.383,0,0,1,1.826,3.525A14.12,14.12,0,0,1,168.516-6Z" transform="translate(494.676 4291)" fill="#12263f"/>
    <text id="_" data-name="…" transform="translate(649.676 4200)" fill="#12263f" font-size="20" font-family="Roboto-Bold, Roboto" font-weight="700"><tspan x="0" y="0">…</tspan></text>
    <path id="Trazado_197360" data-name="Trazado 197360" d="M12.842,0H9.912V-6.094H4.2V0H1.27V-14.219H4.2v5.762H9.912v-5.762h2.93Zm8.5,0a3.134,3.134,0,0,1-.283-.947A3.415,3.415,0,0,1,18.389.2a3.752,3.752,0,0,1-2.573-.9,2.89,2.89,0,0,1-1.021-2.266A2.986,2.986,0,0,1,16.04-5.547a6.144,6.144,0,0,1,3.6-.908h1.3v-.605a1.741,1.741,0,0,0-.376-1.172,1.479,1.479,0,0,0-1.187-.439,1.682,1.682,0,0,0-1.118.342,1.161,1.161,0,0,0-.405.938H15.029a2.835,2.835,0,0,1,.566-1.7,3.744,3.744,0,0,1,1.6-1.226,5.837,5.837,0,0,1,2.324-.444,4.611,4.611,0,0,1,3.1.981A3.433,3.433,0,0,1,23.77-7.021v4.58a5.052,5.052,0,0,0,.42,2.275V0ZM19-1.963a2.431,2.431,0,0,0,1.152-.278,1.828,1.828,0,0,0,.781-.747V-4.8H19.883q-2.119,0-2.256,1.465l-.01.166a1.13,1.13,0,0,0,.371.869A1.441,1.441,0,0,0,19-1.963ZM31.875-7.92A7.667,7.667,0,0,0,30.859-8a2.067,2.067,0,0,0-2.1,1.084V0H25.938V-10.566H28.6l.078,1.26a2.615,2.615,0,0,1,2.354-1.455,2.957,2.957,0,0,1,.879.127Zm.918,2.559A6.368,6.368,0,0,1,33.9-9.3a3.6,3.6,0,0,1,3.032-1.465,3.236,3.236,0,0,1,2.549,1.152V-15h2.832V0H39.766l-.137-1.123A3.321,3.321,0,0,1,36.914.2a3.587,3.587,0,0,1-2.993-1.47A6.573,6.573,0,0,1,32.793-5.361Zm2.822.21a4.171,4.171,0,0,0,.518,2.279,1.686,1.686,0,0,0,1.5.792,1.888,1.888,0,0,0,1.846-1.105V-7.362a1.861,1.861,0,0,0-1.826-1.105Q35.615-8.467,35.615-5.151ZM53.691-3.838l1.387-6.729H57.8L55.107,0H52.744l-2-6.65L48.74,0H46.387l-2.7-10.566h2.725l1.377,6.719,1.934-6.719h2.041ZM65.322,0a3.134,3.134,0,0,1-.283-.947A3.415,3.415,0,0,1,62.373.2,3.752,3.752,0,0,1,59.8-.7a2.89,2.89,0,0,1-1.021-2.266,2.986,2.986,0,0,1,1.245-2.578,6.144,6.144,0,0,1,3.6-.908h1.3v-.605a1.741,1.741,0,0,0-.376-1.172,1.479,1.479,0,0,0-1.187-.439,1.682,1.682,0,0,0-1.118.342,1.161,1.161,0,0,0-.405.938H59.014a2.835,2.835,0,0,1,.566-1.7,3.744,3.744,0,0,1,1.6-1.226,5.837,5.837,0,0,1,2.324-.444,4.611,4.611,0,0,1,3.1.981,3.433,3.433,0,0,1,1.147,2.759v4.58a5.052,5.052,0,0,0,.42,2.275V0ZM62.988-1.963a2.431,2.431,0,0,0,1.152-.278,1.828,1.828,0,0,0,.781-.747V-4.8H63.867q-2.119,0-2.256,1.465l-.01.166a1.13,1.13,0,0,0,.371.869A1.441,1.441,0,0,0,62.988-1.963ZM75.859-7.92A7.667,7.667,0,0,0,74.844-8a2.067,2.067,0,0,0-2.1,1.084V0H69.922V-10.566h2.666l.078,1.26a2.615,2.615,0,0,1,2.354-1.455,2.957,2.957,0,0,1,.879.127ZM82.08.2A5.187,5.187,0,0,1,78.3-1.23a5.068,5.068,0,0,1-1.46-3.8V-5.3a6.383,6.383,0,0,1,.615-2.847,4.515,4.515,0,0,1,1.743-1.934,4.893,4.893,0,0,1,2.573-.679,4.385,4.385,0,0,1,3.413,1.367,5.555,5.555,0,0,1,1.245,3.877v1.152H79.7a2.622,2.622,0,0,0,.825,1.66,2.5,2.5,0,0,0,1.743.625,3.046,3.046,0,0,0,2.549-1.182L86.2-1.709a4.237,4.237,0,0,1-1.719,1.4A5.639,5.639,0,0,1,82.08.2Zm-.322-8.682a1.764,1.764,0,0,0-1.362.569,2.946,2.946,0,0,0-.669,1.628h3.926v-.226a2.1,2.1,0,0,0-.508-1.457A1.819,1.819,0,0,0,81.758-8.486Z" transform="translate(535.676 4339)" fill="#12263f"/>
    <path id="Trazado_197355" data-name="Trazado 197355" d="M9.3-2.93H4.16L3.184,0H.068L5.361-14.219H8.076L13.4,0H10.283ZM4.951-5.3H8.506L6.719-10.625Zm19.1.117a6.337,6.337,0,0,1-1.108,3.911A3.554,3.554,0,0,1,19.951.2,3.292,3.292,0,0,1,17.363-.918v4.98H14.541V-10.566h2.617l.1,1.035a3.317,3.317,0,0,1,2.676-1.23,3.578,3.578,0,0,1,3.037,1.445,6.509,6.509,0,0,1,1.084,3.984ZM21.23-5.391a4.159,4.159,0,0,0-.522-2.275,1.7,1.7,0,0,0-1.519-.8,1.848,1.848,0,0,0-1.826,1.016v4.326A1.879,1.879,0,0,0,19.209-2.08Q21.23-2.08,21.23-5.391Zm14.082.205A6.337,6.337,0,0,1,34.2-1.274,3.554,3.554,0,0,1,31.211.2,3.292,3.292,0,0,1,28.623-.918v4.98H25.8V-10.566h2.617l.1,1.035a3.317,3.317,0,0,1,2.676-1.23,3.578,3.578,0,0,1,3.037,1.445,6.509,6.509,0,0,1,1.084,3.984ZM32.49-5.391a4.159,4.159,0,0,0-.522-2.275,1.7,1.7,0,0,0-1.519-.8,1.848,1.848,0,0,0-1.826,1.016v4.326A1.879,1.879,0,0,0,30.469-2.08Q32.49-2.08,32.49-5.391ZM42.783-2.92a.909.909,0,0,0-.513-.815,5.824,5.824,0,0,0-1.646-.532q-3.77-.791-3.77-3.2a2.9,2.9,0,0,1,1.167-2.349,4.708,4.708,0,0,1,3.052-.942,5.067,5.067,0,0,1,3.218.947A2.985,2.985,0,0,1,45.5-7.354H42.676a1.366,1.366,0,0,0-.391-1,1.653,1.653,0,0,0-1.221-.4,1.689,1.689,0,0,0-1.1.322,1.017,1.017,0,0,0-.391.82.87.87,0,0,0,.444.757,4.571,4.571,0,0,0,1.5.5,12.244,12.244,0,0,1,1.777.474,2.92,2.92,0,0,1,2.236,2.842A2.756,2.756,0,0,1,44.287-.7a5.35,5.35,0,0,1-3.2.894,5.588,5.588,0,0,1-2.358-.474,3.957,3.957,0,0,1-1.616-1.3,3.018,3.018,0,0,1-.586-1.782H39.2a1.473,1.473,0,0,0,.557,1.152,2.208,2.208,0,0,0,1.387.4,2.044,2.044,0,0,0,1.226-.308A.957.957,0,0,0,42.783-2.92Z" transform="translate(491.676 4108)" fill="#12263f"/>
    <path id="Trazado_197359" data-name="Trazado 197359" d="M5.1-14.219,8.75-3.906l3.633-10.312H16.23V0H13.291V-3.887l.293-6.709L9.746,0H7.734L3.906-10.586l.293,6.7V0H1.27V-14.219Zm13.1,8.857a6.193,6.193,0,0,1,1.157-3.916,3.75,3.75,0,0,1,3.12-1.484A3.289,3.289,0,0,1,25.176-9.57l.117-1h2.559V-.352a4.516,4.516,0,0,1-.63,2.412,4.045,4.045,0,0,1-1.772,1.563,6.231,6.231,0,0,1-2.676.537A5.794,5.794,0,0,1,20.508,3.7a4.021,4.021,0,0,1-1.67-1.2L20.088.781a3.306,3.306,0,0,0,2.559,1.182,2.42,2.42,0,0,0,1.748-.6,2.253,2.253,0,0,0,.625-1.7V-.908A3.264,3.264,0,0,1,22.451.2,3.74,3.74,0,0,1,19.37-1.294a6.191,6.191,0,0,1-1.177-3.95Zm2.822.21A3.856,3.856,0,0,0,21.592-2.9a1.833,1.833,0,0,0,1.582.817,1.96,1.96,0,0,0,1.846-.968V-7.5a1.955,1.955,0,0,0-1.826-.968,1.844,1.844,0,0,0-1.6.831A4.346,4.346,0,0,0,21.016-5.151Zm11.65-5.415.088,1.182a3.713,3.713,0,0,1,3.037-1.377,2.818,2.818,0,0,1,2.8,1.611,3.628,3.628,0,0,1,3.174-1.611,3.152,3.152,0,0,1,2.559,1,4.6,4.6,0,0,1,.84,3.013V0H42.334V-6.738a2.012,2.012,0,0,0-.352-1.313,1.558,1.558,0,0,0-1.24-.415,1.761,1.761,0,0,0-1.758,1.211L38.994,0H36.172V-6.729a1.988,1.988,0,0,0-.361-1.328,1.573,1.573,0,0,0-1.23-.41,1.829,1.829,0,0,0-1.738,1V0H30.02V-10.566Zm18.047-2.6v2.6H52.52V-8.5H50.713v5.273a1.259,1.259,0,0,0,.225.84,1.128,1.128,0,0,0,.859.254,4.5,4.5,0,0,0,.83-.068V-.059A5.81,5.81,0,0,1,50.918.2q-2.969,0-3.027-3V-8.5H46.348v-2.07h1.543v-2.6Z" transform="translate(737.676 4203)" fill="#12263f"/>
    <path id="Trazado_197357" data-name="Trazado 197357" d="M-34.727-14.219l3.652,10.313,3.633-10.312h3.848V0h-2.939V-3.887l.293-6.709L-30.078,0H-32.09l-3.828-10.586.293,6.7V0h-2.93V-14.219ZM-21.66-5.381a6.266,6.266,0,0,1,.605-2.8,4.432,4.432,0,0,1,1.743-1.9,5.086,5.086,0,0,1,2.642-.674,4.812,4.812,0,0,1,3.491,1.309A5.252,5.252,0,0,1-11.67-5.9l.02.723a5.523,5.523,0,0,1-1.357,3.9A4.718,4.718,0,0,1-16.65.2,4.742,4.742,0,0,1-20.3-1.27,5.62,5.62,0,0,1-21.66-5.254Zm2.822.2a3.95,3.95,0,0,0,.566,2.3,1.868,1.868,0,0,0,1.621.8,1.873,1.873,0,0,0,1.6-.787,4.322,4.322,0,0,0,.576-2.518,3.91,3.91,0,0,0-.576-2.289,1.873,1.873,0,0,0-1.621-.812,1.842,1.842,0,0,0-1.6.807A4.395,4.395,0,0,0-18.838-5.181Zm8.486-.181A6.368,6.368,0,0,1-9.243-9.3a3.6,3.6,0,0,1,3.032-1.465A3.236,3.236,0,0,1-3.662-9.609V-15H-.83V0H-3.379l-.137-1.123A3.321,3.321,0,0,1-6.23.2a3.587,3.587,0,0,1-2.993-1.47A6.573,6.573,0,0,1-10.352-5.361Zm2.822.21a4.171,4.171,0,0,0,.518,2.279,1.686,1.686,0,0,0,1.5.792A1.888,1.888,0,0,0-3.662-3.185V-7.362A1.861,1.861,0,0,0-5.488-8.467Q-7.529-8.467-7.529-5.151ZM4.336,0H1.5V-10.566H4.336Zm-3-13.3a1.39,1.39,0,0,1,.425-1.045,1.6,1.6,0,0,1,1.157-.41,1.6,1.6,0,0,1,1.152.41A1.382,1.382,0,0,1,4.5-13.3a1.386,1.386,0,0,1-.435,1.055,1.6,1.6,0,0,1-1.147.41,1.6,1.6,0,0,1-1.147-.41A1.386,1.386,0,0,1,1.338-13.3ZM7.344,0V-8.5H5.771v-2.07H7.344v-.488a3.963,3.963,0,0,1,1.226-3.071,4.931,4.931,0,0,1,3.4-1.079,11.289,11.289,0,0,1,3.2.576l-.41,2.334a12.5,12.5,0,0,0-1.484-.366,7.293,7.293,0,0,0-1.133-.083q-1.973,0-1.973,1.748v.43h2.08V-8.5h-2.08V0Zm9.15,0H13.662V-10.566h2.832Zm7.2.2A5.187,5.187,0,0,1,19.907-1.23a5.068,5.068,0,0,1-1.46-3.8V-5.3a6.383,6.383,0,0,1,.615-2.847,4.515,4.515,0,0,1,1.743-1.934,4.893,4.893,0,0,1,2.573-.679,4.385,4.385,0,0,1,3.413,1.367,5.555,5.555,0,0,1,1.245,3.877v1.152H21.309a2.622,2.622,0,0,0,.825,1.66,2.5,2.5,0,0,0,1.743.625,3.046,3.046,0,0,0,2.549-1.182l1.387,1.553a4.237,4.237,0,0,1-1.719,1.4A5.639,5.639,0,0,1,23.691.2Zm-.322-8.682a1.764,1.764,0,0,0-1.362.569,2.946,2.946,0,0,0-.669,1.628h3.926v-.226a2.1,2.1,0,0,0-.508-1.457A1.819,1.819,0,0,0,23.369-8.486ZM29.2-5.361A6.368,6.368,0,0,1,30.308-9.3a3.6,3.6,0,0,1,3.032-1.465,3.236,3.236,0,0,1,2.549,1.152V-15h2.832V0H36.172l-.137-1.123A3.321,3.321,0,0,1,33.32.2a3.587,3.587,0,0,1-2.993-1.47A6.573,6.573,0,0,1,29.2-5.361Zm2.822.21a4.171,4.171,0,0,0,.518,2.279,1.686,1.686,0,0,0,1.5.792,1.888,1.888,0,0,0,1.846-1.105V-7.362a1.861,1.861,0,0,0-1.826-1.105Q32.021-8.467,32.021-5.151ZM-29.355,20.2a5.085,5.085,0,0,1-2.236,1.47,9.365,9.365,0,0,1-3.2.522,6.345,6.345,0,0,1-3.237-.806,5.374,5.374,0,0,1-2.148-2.339,8.232,8.232,0,0,1-.776-3.6V14.48a8.742,8.742,0,0,1,.718-3.687,5.31,5.31,0,0,1,2.07-2.383A5.964,5.964,0,0,1-35,7.586a5.939,5.939,0,0,1,3.955,1.206A5.154,5.154,0,0,1-29.355,12.3h-2.852a2.835,2.835,0,0,0-.864-1.787,2.76,2.76,0,0,0-1.841-.566,2.6,2.6,0,0,0-2.275,1.123,5.905,5.905,0,0,0-.791,3.34v.908a5.622,5.622,0,0,0,.85,3.379,2.909,2.909,0,0,0,2.49,1.143,3.25,3.25,0,0,0,2.354-.7V16.688h-2.666V14.529h5.6Zm8.516.723A3.539,3.539,0,0,1-23.73,22.2a3.338,3.338,0,0,1-2.593-.977,4.169,4.169,0,0,1-.913-2.861V11.434h2.822v6.834q0,1.652,1.5,1.652a2.038,2.038,0,0,0,1.973-1V11.434h2.832V22h-2.656Zm9.727,1.27A5.187,5.187,0,0,1-14.9,20.77a5.068,5.068,0,0,1-1.46-3.8V16.7a6.383,6.383,0,0,1,.615-2.847A4.515,4.515,0,0,1-14,11.917a4.893,4.893,0,0,1,2.573-.679,4.385,4.385,0,0,1,3.413,1.367,5.555,5.555,0,0,1,1.245,3.877v1.152H-13.5a2.622,2.622,0,0,0,.825,1.66,2.5,2.5,0,0,0,1.743.625,3.046,3.046,0,0,0,2.549-1.182l1.387,1.553a4.237,4.237,0,0,1-1.719,1.4A5.639,5.639,0,0,1-11.113,22.2Zm-.322-8.682a1.764,1.764,0,0,0-1.362.569,2.946,2.946,0,0,0-.669,1.628h3.926v-.226a2.1,2.1,0,0,0-.508-1.457A1.819,1.819,0,0,0-11.436,13.514ZM.557,19.08a.909.909,0,0,0-.513-.815A5.824,5.824,0,0,0-1.6,17.732q-3.77-.791-3.77-3.2A2.9,2.9,0,0,1-4.2,12.181a4.708,4.708,0,0,1,3.052-.942,5.067,5.067,0,0,1,3.218.947,2.985,2.985,0,0,1,1.206,2.461H.449a1.366,1.366,0,0,0-.391-1,1.653,1.653,0,0,0-1.221-.4,1.689,1.689,0,0,0-1.1.322,1.017,1.017,0,0,0-.391.82.87.87,0,0,0,.444.757,4.571,4.571,0,0,0,1.5.5,12.244,12.244,0,0,1,1.777.474A2.92,2.92,0,0,1,3.3,18.963,2.756,2.756,0,0,1,2.061,21.3a5.35,5.35,0,0,1-3.2.894A5.588,5.588,0,0,1-3.5,21.722a3.957,3.957,0,0,1-1.616-1.3A3.018,3.018,0,0,1-5.7,18.641h2.676a1.473,1.473,0,0,0,.557,1.152,2.208,2.208,0,0,0,1.387.4,2.044,2.044,0,0,0,1.226-.308A.957.957,0,0,0,.557,19.08ZM8.5,8.836v2.6H10.3V13.5H8.5v5.273a1.259,1.259,0,0,0,.225.84,1.128,1.128,0,0,0,.859.254,4.5,4.5,0,0,0,.83-.068v2.139A5.81,5.81,0,0,1,8.7,22.2q-2.969,0-3.027-3V13.5H4.131v-2.07H5.674v-2.6Zm20.225,6.377a8.584,8.584,0,0,1-.742,3.682,5.589,5.589,0,0,1-2.124,2.441,6.276,6.276,0,0,1-6.323.01,5.644,5.644,0,0,1-2.148-2.427,8.338,8.338,0,0,1-.771-3.628v-.7a8.538,8.538,0,0,1,.757-3.7A5.635,5.635,0,0,1,19.507,8.44a6.267,6.267,0,0,1,6.318,0,5.635,5.635,0,0,1,2.139,2.451,8.514,8.514,0,0,1,.757,3.687Zm-2.969-.645a5.984,5.984,0,0,0-.8-3.4,2.829,2.829,0,0,0-4.561-.015,5.915,5.915,0,0,0-.811,3.364v.693a6.058,6.058,0,0,0,.8,3.379,2.8,2.8,0,0,0,4.57.044,6.023,6.023,0,0,0,.8-3.374Zm12.471,3.7A1.5,1.5,0,0,0,37.637,17a7.685,7.685,0,0,0-2.109-.937,14.953,14.953,0,0,1-2.412-.972,3.941,3.941,0,0,1-2.422-3.525A3.434,3.434,0,0,1,31.343,9.5a4.236,4.236,0,0,1,1.865-1.411,7.021,7.021,0,0,1,2.729-.508,6.39,6.39,0,0,1,2.715.552A4.323,4.323,0,0,1,40.5,9.7a4.076,4.076,0,0,1,.659,2.285h-2.93a1.917,1.917,0,0,0-.615-1.519,2.529,2.529,0,0,0-1.729-.542,2.7,2.7,0,0,0-1.67.454,1.432,1.432,0,0,0-.6,1.2,1.372,1.372,0,0,0,.7,1.162,7.889,7.889,0,0,0,2.056.879,8.882,8.882,0,0,1,3.643,1.865,3.715,3.715,0,0,1,1.143,2.773,3.422,3.422,0,0,1-1.4,2.9,6.113,6.113,0,0,1-3.76,1.05,7.26,7.26,0,0,1-2.988-.6,4.729,4.729,0,0,1-2.056-1.646,4.214,4.214,0,0,1-.708-2.422h2.939q0,2.354,2.813,2.354a2.736,2.736,0,0,0,1.631-.425A1.382,1.382,0,0,0,38.223,18.27Z" transform="translate(515.676 4173)" fill="#12263f"/>
    <path id="Trazado_197356" data-name="Trazado 197356" d="M-34.727-14.219l3.652,10.313,3.633-10.312h3.848V0h-2.939V-3.887l.293-6.709L-30.078,0H-32.09l-3.828-10.586.293,6.7V0h-2.93V-14.219ZM-21.66-5.381a6.266,6.266,0,0,1,.605-2.8,4.432,4.432,0,0,1,1.743-1.9,5.086,5.086,0,0,1,2.642-.674,4.812,4.812,0,0,1,3.491,1.309A5.252,5.252,0,0,1-11.67-5.9l.02.723a5.523,5.523,0,0,1-1.357,3.9A4.718,4.718,0,0,1-16.65.2,4.742,4.742,0,0,1-20.3-1.27,5.62,5.62,0,0,1-21.66-5.254Zm2.822.2a3.95,3.95,0,0,0,.566,2.3,1.868,1.868,0,0,0,1.621.8,1.873,1.873,0,0,0,1.6-.787,4.322,4.322,0,0,0,.576-2.518,3.91,3.91,0,0,0-.576-2.289,1.873,1.873,0,0,0-1.621-.812,1.842,1.842,0,0,0-1.6.807A4.395,4.395,0,0,0-18.838-5.181Zm8.486-.181A6.368,6.368,0,0,1-9.243-9.3a3.6,3.6,0,0,1,3.032-1.465A3.236,3.236,0,0,1-3.662-9.609V-15H-.83V0H-3.379l-.137-1.123A3.321,3.321,0,0,1-6.23.2a3.587,3.587,0,0,1-2.993-1.47A6.573,6.573,0,0,1-10.352-5.361Zm2.822.21a4.171,4.171,0,0,0,.518,2.279,1.686,1.686,0,0,0,1.5.792A1.888,1.888,0,0,0-3.662-3.185V-7.362A1.861,1.861,0,0,0-5.488-8.467Q-7.529-8.467-7.529-5.151ZM4.336,0H1.5V-10.566H4.336Zm-3-13.3a1.39,1.39,0,0,1,.425-1.045,1.6,1.6,0,0,1,1.157-.41,1.6,1.6,0,0,1,1.152.41A1.382,1.382,0,0,1,4.5-13.3a1.386,1.386,0,0,1-.435,1.055,1.6,1.6,0,0,1-1.147.41,1.6,1.6,0,0,1-1.147-.41A1.386,1.386,0,0,1,1.338-13.3ZM7.344,0V-8.5H5.771v-2.07H7.344v-.488a3.963,3.963,0,0,1,1.226-3.071,4.931,4.931,0,0,1,3.4-1.079,11.289,11.289,0,0,1,3.2.576l-.41,2.334a12.5,12.5,0,0,0-1.484-.366,7.293,7.293,0,0,0-1.133-.083q-1.973,0-1.973,1.748v.43h2.08V-8.5h-2.08V0Zm9.15,0H13.662V-10.566h2.832Zm7.2.2A5.187,5.187,0,0,1,19.907-1.23a5.068,5.068,0,0,1-1.46-3.8V-5.3a6.383,6.383,0,0,1,.615-2.847,4.515,4.515,0,0,1,1.743-1.934,4.893,4.893,0,0,1,2.573-.679,4.385,4.385,0,0,1,3.413,1.367,5.555,5.555,0,0,1,1.245,3.877v1.152H21.309a2.622,2.622,0,0,0,.825,1.66,2.5,2.5,0,0,0,1.743.625,3.046,3.046,0,0,0,2.549-1.182l1.387,1.553a4.237,4.237,0,0,1-1.719,1.4A5.639,5.639,0,0,1,23.691.2Zm-.322-8.682a1.764,1.764,0,0,0-1.362.569,2.946,2.946,0,0,0-.669,1.628h3.926v-.226a2.1,2.1,0,0,0-.508-1.457A1.819,1.819,0,0,0,23.369-8.486ZM29.2-5.361A6.368,6.368,0,0,1,30.308-9.3a3.6,3.6,0,0,1,3.032-1.465,3.236,3.236,0,0,1,2.549,1.152V-15h2.832V0H36.172l-.137-1.123A3.321,3.321,0,0,1,33.32.2a3.587,3.587,0,0,1-2.993-1.47A6.573,6.573,0,0,1,29.2-5.361Zm2.822.21a4.171,4.171,0,0,0,.518,2.279,1.686,1.686,0,0,0,1.5.792,1.888,1.888,0,0,0,1.846-1.105V-7.362a1.861,1.861,0,0,0-1.826-1.105Q32.021-8.467,32.021-5.151ZM-29.355,20.2a5.085,5.085,0,0,1-2.236,1.47,9.365,9.365,0,0,1-3.2.522,6.345,6.345,0,0,1-3.237-.806,5.374,5.374,0,0,1-2.148-2.339,8.232,8.232,0,0,1-.776-3.6V14.48a8.742,8.742,0,0,1,.718-3.687,5.31,5.31,0,0,1,2.07-2.383A5.964,5.964,0,0,1-35,7.586a5.939,5.939,0,0,1,3.955,1.206A5.154,5.154,0,0,1-29.355,12.3h-2.852a2.835,2.835,0,0,0-.864-1.787,2.76,2.76,0,0,0-1.841-.566,2.6,2.6,0,0,0-2.275,1.123,5.905,5.905,0,0,0-.791,3.34v.908a5.622,5.622,0,0,0,.85,3.379,2.909,2.909,0,0,0,2.49,1.143,3.25,3.25,0,0,0,2.354-.7V16.688h-2.666V14.529h5.6Zm8.516.723A3.539,3.539,0,0,1-23.73,22.2a3.338,3.338,0,0,1-2.593-.977,4.169,4.169,0,0,1-.913-2.861V11.434h2.822v6.834q0,1.652,1.5,1.652a2.038,2.038,0,0,0,1.973-1V11.434h2.832V22h-2.656Zm9.727,1.27A5.187,5.187,0,0,1-14.9,20.77a5.068,5.068,0,0,1-1.46-3.8V16.7a6.383,6.383,0,0,1,.615-2.847A4.515,4.515,0,0,1-14,11.917a4.893,4.893,0,0,1,2.573-.679,4.385,4.385,0,0,1,3.413,1.367,5.555,5.555,0,0,1,1.245,3.877v1.152H-13.5a2.622,2.622,0,0,0,.825,1.66,2.5,2.5,0,0,0,1.743.625,3.046,3.046,0,0,0,2.549-1.182l1.387,1.553a4.237,4.237,0,0,1-1.719,1.4A5.639,5.639,0,0,1-11.113,22.2Zm-.322-8.682a1.764,1.764,0,0,0-1.362.569,2.946,2.946,0,0,0-.669,1.628h3.926v-.226a2.1,2.1,0,0,0-.508-1.457A1.819,1.819,0,0,0-11.436,13.514ZM.557,19.08a.909.909,0,0,0-.513-.815A5.824,5.824,0,0,0-1.6,17.732q-3.77-.791-3.77-3.2A2.9,2.9,0,0,1-4.2,12.181a4.708,4.708,0,0,1,3.052-.942,5.067,5.067,0,0,1,3.218.947,2.985,2.985,0,0,1,1.206,2.461H.449a1.366,1.366,0,0,0-.391-1,1.653,1.653,0,0,0-1.221-.4,1.689,1.689,0,0,0-1.1.322,1.017,1.017,0,0,0-.391.82.87.87,0,0,0,.444.757,4.571,4.571,0,0,0,1.5.5,12.244,12.244,0,0,1,1.777.474A2.92,2.92,0,0,1,3.3,18.963,2.756,2.756,0,0,1,2.061,21.3a5.35,5.35,0,0,1-3.2.894A5.588,5.588,0,0,1-3.5,21.722a3.957,3.957,0,0,1-1.616-1.3A3.018,3.018,0,0,1-5.7,18.641h2.676a1.473,1.473,0,0,0,.557,1.152,2.208,2.208,0,0,0,1.387.4,2.044,2.044,0,0,0,1.226-.308A.957.957,0,0,0,.557,19.08ZM8.5,8.836v2.6H10.3V13.5H8.5v5.273a1.259,1.259,0,0,0,.225.84,1.128,1.128,0,0,0,.859.254,4.5,4.5,0,0,0,.83-.068v2.139A5.81,5.81,0,0,1,8.7,22.2q-2.969,0-3.027-3V13.5H4.131v-2.07H5.674v-2.6Zm20.225,6.377a8.584,8.584,0,0,1-.742,3.682,5.589,5.589,0,0,1-2.124,2.441,6.276,6.276,0,0,1-6.323.01,5.644,5.644,0,0,1-2.148-2.427,8.338,8.338,0,0,1-.771-3.628v-.7a8.538,8.538,0,0,1,.757-3.7A5.635,5.635,0,0,1,19.507,8.44a6.267,6.267,0,0,1,6.318,0,5.635,5.635,0,0,1,2.139,2.451,8.514,8.514,0,0,1,.757,3.687Zm-2.969-.645a5.984,5.984,0,0,0-.8-3.4,2.829,2.829,0,0,0-4.561-.015,5.915,5.915,0,0,0-.811,3.364v.693a6.058,6.058,0,0,0,.8,3.379,2.8,2.8,0,0,0,4.57.044,6.023,6.023,0,0,0,.8-3.374Zm12.471,3.7A1.5,1.5,0,0,0,37.637,17a7.685,7.685,0,0,0-2.109-.937,14.953,14.953,0,0,1-2.412-.972,3.941,3.941,0,0,1-2.422-3.525A3.434,3.434,0,0,1,31.343,9.5a4.236,4.236,0,0,1,1.865-1.411,7.021,7.021,0,0,1,2.729-.508,6.39,6.39,0,0,1,2.715.552A4.323,4.323,0,0,1,40.5,9.7a4.076,4.076,0,0,1,.659,2.285h-2.93a1.917,1.917,0,0,0-.615-1.519,2.529,2.529,0,0,0-1.729-.542,2.7,2.7,0,0,0-1.67.454,1.432,1.432,0,0,0-.6,1.2,1.372,1.372,0,0,0,.7,1.162,7.889,7.889,0,0,0,2.056.879,8.882,8.882,0,0,1,3.643,1.865,3.715,3.715,0,0,1,1.143,2.773,3.422,3.422,0,0,1-1.4,2.9,6.113,6.113,0,0,1-3.76,1.05,7.26,7.26,0,0,1-2.988-.6,4.729,4.729,0,0,1-2.056-1.646,4.214,4.214,0,0,1-.708-2.422h2.939q0,2.354,2.813,2.354a2.736,2.736,0,0,0,1.631-.425A1.382,1.382,0,0,0,38.223,18.27Z" transform="translate(410.676 4173)" fill="#12263f"/>
    <path id="Trazado_196996" data-name="Trazado 196996" d="M-3164.5-7429v175" transform="translate(3630.676 11509)" fill="none" stroke="#12263f" stroke-width="3"/>
  </g>
</svg>
