<svg xmlns="http://www.w3.org/2000/svg" width="71.604" height="71.596" viewBox="0 0 71.604 71.596">
  <g id="KA0koK.tif" transform="translate(-2697.729 777.751)">
    <g id="Grupo_155225" data-name="Grupo 155225" transform="translate(2697.729 -777.751)">
      <path id="Trazado_197012" data-name="Trazado 197012" d="M2952.427-706.867a2,2,0,0,1-1.762.712c-5.263-.028-10.527-.015-15.791-.016-1.142,0-1.561-.409-1.564-1.548-.007-1.98,0-3.959,0-5.939v-.858h-.874c-4.378,0-8.757.008-13.135,0a4.75,4.75,0,0,1-4.958-3.833,6.767,6.767,0,0,1-.084-1.389q-.008-9.5,0-19v-.832c-.806,0-1.544.009-2.282,0a1.221,1.221,0,0,1-1.32-1.22,1.226,1.226,0,0,1,1.319-1.153c.738-.01,1.477,0,2.283,0v-.894q0-9.677.006-19.354a4.672,4.672,0,0,1,3.716-4.689,6.9,6.9,0,0,1,1.525-.114q6.428-.013,12.856,0h.907c.017-.289.042-.534.043-.778,0-2.772.015-5.543-.008-8.314a1.734,1.734,0,0,1,.813-1.647h7.969a6.976,6.976,0,0,1,.865,1.049c.579,1.059,1.114,2.143,1.626,3.236a.741.741,0,0,0,.8.484c1.814-.019,3.628.017,5.441-.021a1.588,1.588,0,0,1,1.616.844v15.1a1.728,1.728,0,0,1-1.642.822c-5.264-.018-10.528-.009-15.792-.011-1.27,0-1.683-.409-1.685-1.668,0-1.98,0-3.96,0-5.939,0-.244-.021-.488-.033-.762H2919.5c-1.969,0-2.865.89-2.866,2.848q0,9.5,0,19.006v.768h16.675v-.783q0-4.158,0-8.315c0-1.219.415-1.621,1.647-1.622,2.119,0,4.239.022,6.358-.012a1.577,1.577,0,0,1,1.633,1.029c.483,1.056,1.054,2.072,1.541,3.127a.921.921,0,0,0,.994.633c1.769-.039,3.54.009,5.31-.026a1.682,1.682,0,0,1,1.635.83v15.1a1.654,1.654,0,0,1-1.626.84c-5.289-.022-10.578-.011-15.868-.012-1.215,0-1.622-.412-1.625-1.647,0-1.98,0-3.961,0-5.942,0-.246-.021-.492-.033-.733h-16.608c-.014.14-.031.231-.031.321q0,9.891,0,19.782a2.382,2.382,0,0,0,2.577,2.5q6.71.006,13.421,0c.2,0,.406-.023.672-.04v-.792q0-4.159,0-8.318c0-1.164.441-1.595,1.615-1.6,2.167,0,4.334.006,6.5-.005a1.451,1.451,0,0,1,1.448.882c.546,1.13,1.137,2.239,1.67,3.376a.792.792,0,0,0,.847.529c1.794-.023,3.589.006,5.383-.018a1.735,1.735,0,0,1,1.655.8Zm-2.412-13.588h-1.743q-4.228,0-8.457,0a3.618,3.618,0,0,1-.7-.036,1.194,1.194,0,0,1-1.009-1.237,1.181,1.181,0,0,1,1.182-1.148c.9-.043,1.8-.011,2.815-.011-.381-.774-.7-1.44-1.041-2.091a.522.522,0,0,0-.38-.235c-1.622-.016-3.244-.01-4.889-.01V-708.6h14.216ZM2950-758.724v-11.87h-.794q-4.786,0-9.574,0c-.992,0-1.543-.452-1.525-1.22.018-.748.557-1.17,1.508-1.174.8,0,1.6,0,2.491,0a4.443,4.443,0,0,1-.275-.592,2.241,2.241,0,0,0-2.853-1.816,21.555,21.555,0,0,1-3.171.03v16.645Zm-7.9,10.773a9.57,9.57,0,0,1-.564-1.179,1.571,1.571,0,0,0-1.91-1.2c-1.264.11-2.544.026-3.833.026v16.651H2950v-11.86h-.88c-3.188,0-6.377.007-9.565-.005-.918,0-1.465-.506-1.44-1.252.024-.721.564-1.167,1.447-1.176C2940.369-747.958,2941.182-747.951,2942.1-747.951Z" transform="translate(-2880.823 777.751)" fill="#12263f"/>
      <path id="Trazado_197013" data-name="Trazado 197013" d="M2697.752-662.162c0-5.451.023-10.9-.016-16.353a3.524,3.524,0,0,1,1.533-3.036,12.214,12.214,0,0,1,5.066-2.045,29.579,29.579,0,0,1,15.76.8,10.816,10.816,0,0,1,2.653,1.5,3.115,3.115,0,0,1,1.285,2.659q-.016,16.318,0,32.635a3.745,3.745,0,0,1-1.723,3.3,14.49,14.49,0,0,1-6.193,2.185,30.015,30.015,0,0,1-12.873-.549,16.946,16.946,0,0,1-3.635-1.546,3.552,3.552,0,0,1-1.88-3.4C2697.787-651.4,2697.752-656.781,2697.752-662.162Zm23.838,11.757a29.773,29.773,0,0,1-21.458-.01c0,1.439.034,2.906-.015,4.37a1.458,1.458,0,0,0,.824,1.481,13.662,13.662,0,0,0,2.288,1,27.65,27.65,0,0,0,13.453.457,22.342,22.342,0,0,0,4.1-1.47,1.415,1.415,0,0,0,.77-.973C2721.635-647.17,2721.59-648.8,2721.59-650.406Zm-.044-16.818a23.681,23.681,0,0,1-10.726,2.075,23.691,23.691,0,0,1-10.689-2.1c0,1.437.076,2.764-.023,4.078a2.032,2.032,0,0,0,1.333,2.184,18.974,18.974,0,0,0,6.568,1.63,28.934,28.934,0,0,0,7.782-.274,13.105,13.105,0,0,0,4.915-1.608c.344-.215.784-.619.8-.956C2721.592-663.838,2721.546-665.484,2721.546-667.224Zm-21.415-8.376c0,1.587.015,3.092-.007,4.6a1.292,1.292,0,0,0,.689,1.271,12.824,12.824,0,0,0,2.13,1,27.342,27.342,0,0,0,14.155.457,20.085,20.085,0,0,0,3.628-1.335,1.434,1.434,0,0,0,.785-.961c.082-1.64.037-3.286.037-4.993A24.1,24.1,0,0,1,2710.9-673.5,24.147,24.147,0,0,1,2700.131-675.6Zm0,16.827c0,1.24.1,2.525-.027,3.788a2.25,2.25,0,0,0,1.629,2.5,17.8,17.8,0,0,0,6.746,1.489,61.614,61.614,0,0,0,7.026-.266,12.788,12.788,0,0,0,5.15-1.563,1.662,1.662,0,0,0,.952-1.633c-.034-1.3-.007-2.609-.013-3.913a1.683,1.683,0,0,0-.06-.351A29.933,29.933,0,0,1,2700.131-658.773Zm10.69-17.2.021.171c2.021-.248,4.051-.435,6.058-.766a9.46,9.46,0,0,0,4.173-1.618c.637-.472.67-.963.027-1.4a7.818,7.818,0,0,0-1.966-1.018,27.1,27.1,0,0,0-16.058-.157,9.482,9.482,0,0,0-2.262,1.048c-.876.533-.861,1.062.006,1.63a8.376,8.376,0,0,0,1.67.837A23.148,23.148,0,0,0,2710.821-675.971Z" transform="translate(-2697.729 697.383)" fill="#12263f"/>
      <path id="Trazado_197014" data-name="Trazado 197014" d="M3118.656-349.626c-.72,0-1.44.011-2.16,0a1.244,1.244,0,0,1-1.365-1.183,1.188,1.188,0,0,1,1.309-1.223q2.264-.037,4.529,0a1.181,1.181,0,0,1,1.322,1.205,1.211,1.211,0,0,1-1.335,1.2C3120.189-349.614,3119.423-349.626,3118.656-349.626Z" transform="translate(-3056.66 411.687)" fill="#12263f"/>
      <path id="Trazado_197015" data-name="Trazado 197015" d="M3118.74-315.475c-.766,0-1.533.011-2.3,0a1.215,1.215,0,0,1-1.307-1.23,1.176,1.176,0,0,1,1.3-1.155q2.264-.025,4.528,0a1.178,1.178,0,0,1,1.333,1.184,1.2,1.2,0,0,1-1.323,1.206h-2.229Z" transform="translate(-3056.662 382.297)" fill="#12263f"/>
      <path id="Trazado_197016" data-name="Trazado 197016" d="M3118.759-675.788c.72,0,1.441-.013,2.16,0,.866.019,1.385.5,1.373,1.239a1.207,1.207,0,0,1-1.348,1.193q-2.229.033-4.46,0a1.223,1.223,0,0,1-1.348-1.2,1.251,1.251,0,0,1,1.393-1.23C3117.271-675.8,3118.015-675.788,3118.759-675.788Z" transform="translate(-3056.664 690.075)" fill="#12263f"/>
      <path id="Trazado_197017" data-name="Trazado 197017" d="M3118.719-709.8c.743,0,1.487-.011,2.229,0a1.211,1.211,0,0,1,1.343,1.194,1.179,1.179,0,0,1-1.313,1.214q-2.264.034-4.529,0a1.191,1.191,0,0,1-1.317-1.216,1.24,1.24,0,0,1,1.357-1.19C3117.233-709.813,3117.976-709.8,3118.719-709.8Z" transform="translate(-3056.661 719.324)" fill="#12263f"/>
      <path id="Trazado_197018" data-name="Trazado 197018" d="M3118.8-531.018c.72,0,1.441-.018,2.16,0a1.216,1.216,0,0,1,1.331,1.212,1.2,1.2,0,0,1-1.321,1.221c-1.51.023-3.021.025-4.53,0a1.215,1.215,0,0,1-1.306-1.244,1.223,1.223,0,0,1,1.3-1.184C3117.218-531.04,3118.009-531.018,3118.8-531.018Z" transform="translate(-3056.661 565.588)" fill="#12263f"/>
      <path id="Trazado_197019" data-name="Trazado 197019" d="M3118.666-494.482c-.72,0-1.44.011-2.16,0a1.25,1.25,0,0,1-1.375-1.176c-.026-.725.5-1.234,1.366-1.248q2.23-.034,4.46,0a1.193,1.193,0,0,1,1.332,1.2c0,.736-.522,1.2-1.392,1.219C3120.153-494.472,3119.409-494.482,3118.666-494.482Z" transform="translate(-3056.658 536.265)" fill="#12263f"/>
    </g>
  </g>
</svg>
