<svg xmlns="http://www.w3.org/2000/svg" width="71.602" height="71.596" viewBox="0 0 71.602 71.596">
  <g id="_4jaiZq" data-name="4jaiZq" transform="translate(-2158.786 -2122.453)">
    <g id="Grupo_155226" data-name="Grupo 155226" transform="translate(2158.786 2122.453)">
      <path id="Trazado_197020" data-name="Trazado 197020" d="M2177.246,2194.049v-4.6h-2.232v-1.469l-1.057.938-1.067-1.426-.231.132v1.774h-6.938v-1.756l-.161-.072-1.016,1.333-5.023-5.1,1.226-1.285h-1.9v-6.928h1.922l-1.262-1.349,4.861-4.873,1.327,1.27v-1.991h6.932v1.791l.151.084,1.113-1.4,1.036.924v-26.784h-16.137v-20.812h24.194c.014.278.042.556.042.834q0,5.658-.008,11.315,0,.827,0,1.653h24.33v-4.609h2.175v-2.273h-2.206v-6.92h23.075v6.927H2228.1v2.268h2.231v6.979h-2.218v2.245h2.22v7H2214.19v4.583q0,6.569,0,13.139a7.771,7.771,0,0,1-.085.82l.016-.013c-.231-.015-.462-.043-.693-.044q-17.715,0-35.43,0h-.746c0,1.992-.008,3.919.013,5.845a.889.889,0,0,0,.3.513c.459.461.941.9,1.567,1.489l-1.5,1.135.129.211h1.808v6.924h-1.816l-.1.213,1.59,1.175c-.672.6-1.117,1.045-1.607,1.431-.606.476-.3,1.106-.385,1.776h35.774v2.346h-1.082v4.631h-9.23v-4.572h-16.222v4.572Zm34.657-36.873h-34.6v6.773h16.183v-4.52h2.251v4.51h2.357v-4.526h2.255v4.544h2.358v-4.535h2.275v4.529h6.925Zm-13.8-2.447v-4.542h2.256v4.534h2.359V2150.2h2.252v4.515h6.911v-6.768h-34.6v6.771h16.213v-4.536h2.227v4.551Zm-36.95-13.867H2180.7v-11.406H2161.15Zm46.16.018h2.207v-2.175h-26.532v4.575h-5.7v2.2h16.2v-4.523h2.252v4.538h2.36v-4.529h2.26v4.515h2.359v-4.525h2.258v4.536h2.337Zm-33.288,44.677,1.778-1.751-.882-.647,1.219-2.966h1.057v-2.359h-1.064l-1.208-2.906.7-.74-1.638-1.656-.636.788-3-1.25v-1.064h-2.318v1.068l-2.933,1.212-.692-.661-1.7,1.617c.909.439.733,1.057.279,1.741a2.248,2.248,0,0,0-.34.83c-.139.8-.5,1.255-1.382,1.057-.028-.006-.069.051-.1.075v2.3c1.048-.331,1.326.308,1.51,1.086a2.386,2.386,0,0,0,.287.7c.442.707.705,1.374-.238,1.832l1.6,1.722c.5-1.034,1.168-.757,1.873-.321a2.066,2.066,0,0,0,.767.313c.822.114,1.236.508,1.085,1.374-.005.03.052.07.064.085h2.2c.094-1.114.1-1.1,1.138-1.488a8.078,8.078,0,0,0,1.257-.569c.409-.237.721-.237.994.176A4.91,4.91,0,0,0,2174.023,2185.557Zm6.686-60.739h-19.548v2.218h19.548Zm28.9,2.2H2228v-2.2h-18.391Zm0,9.234H2228v-2.193h-18.4Zm0,9.228H2228v-2.156h-18.386Zm2.338-13.845h13.779v-2.18h-13.779Zm.033,7.036v2.2h13.737v-2.2Zm-2.453,53.012v-2.211h-4.536v2.211Zm-29.9-.014h4.548v-2.2h-4.548Z" transform="translate(-2158.786 -2122.453)" fill="#12263f"/>
      <path id="Trazado_197021" data-name="Trazado 197021" d="M2526.722,2436.725h2.427v2.156h2.275v-2.175h2.345v2.178h2.274V2436.7h2.345v2.216h2.283v2.35h2.3v2.236h-2.239v2.35h2.219v2.3h-2.217v2.366h2.237v2.248h-2.231v2.355H2538.4v2.259h-2.3v-2.2h-2.288v2.195h-2.34v-2.2H2529.2v2.2h-2.342v-2.213h-2.29v-2.376h-2.334v-2.248h2.27v-2.367h-2.27v-2.25h2.27v-2.369h-2.27V2441.3h2.306v-2.386h2.206c0-.784,0-1.5,0-2.206Zm11.626,16.033v-11.43h-11.494v11.43Z" transform="translate(-2471.407 -2392.76)" fill="#12263f"/>
      <path id="Trazado_197022" data-name="Trazado 197022" d="M2373.746,2458.541a5.743,5.743,0,1,1,5.747,5.825A5.683,5.683,0,0,1,2373.746,2458.541Zm5.726,3.493a3.329,3.329,0,0,0,3.47-3.418,3.37,3.37,0,0,0-3.441-3.454,3.491,3.491,0,0,0-3.494,3.429A3.446,3.446,0,0,0,2379.472,2462.034Z" transform="translate(-2343.686 -2406.643)" fill="#12263f"/>
      <path id="Trazado_197023" data-name="Trazado 197023" d="M2191.957,2191.067v-2.255h3.433v2.255Z" transform="translate(-2187.318 -2179.532)" fill="#12263f"/>
      <path id="Trazado_197024" data-name="Trazado 197024" d="M2236.669,2188.838v2.254h-3.4v-2.254Z" transform="translate(-2222.856 -2179.555)" fill="#12263f"/>
      <path id="Trazado_197025" data-name="Trazado 197025" d="M2191.944,2224.074v-2.249h3.428v2.249Z" transform="translate(-2187.307 -2207.929)" fill="#12263f"/>
      <path id="Trazado_197026" data-name="Trazado 197026" d="M2233.2,2221.719h3.4V2224h-3.4Z" transform="translate(-2222.79 -2207.838)" fill="#12263f"/>
      <path id="Trazado_197027" data-name="Trazado 197027" d="M2278.325,2188.86v2.248h-3.345v-2.248Z" transform="translate(-2258.732 -2179.574)" fill="#12263f"/>
      <path id="Trazado_197028" data-name="Trazado 197028" d="M2274.86,2224.072v-2.316h3.33v2.316h-3.33Z" transform="translate(-2258.629 -2207.87)" fill="#12263f"/>
      <path id="Trazado_197029" data-name="Trazado 197029" d="M2209.383,2498.8a4.591,4.591,0,0,1-9.182.038,4.591,4.591,0,1,1,9.182-.038Zm-4.628,2.291a2.318,2.318,0,0,0,2.376-2.234,2.427,2.427,0,0,0-2.279-2.377,2.312,2.312,0,0,0-2.333,2.277A2.243,2.243,0,0,0,2204.754,2501.088Z" transform="translate(-2194.409 -2442.214)" fill="#12263f"/>
      <path id="Trazado_197030" data-name="Trazado 197030" d="M2563.675,2482.2a4.578,4.578,0,0,1,4.573-4.618,4.606,4.606,0,1,1-.065,9.212A4.6,4.6,0,0,1,2563.675,2482.2Zm6.875.011a2.232,2.232,0,0,0-2.273-2.288,2.288,2.288,0,0,0-2.343,2.255,2.432,2.432,0,0,0,2.311,2.342A2.349,2.349,0,0,0,2570.551,2482.216Z" transform="translate(-2507.057 -2427.925)" fill="#12263f"/>
      <path id="Trazado_197031" data-name="Trazado 197031" d="M2407.061,2485.833h2.179v2.276h-2.179Z" transform="translate(-2372.343 -2435.019)" fill="#12263f"/>
    </g>
  </g>
</svg>
