<svg xmlns="http://www.w3.org/2000/svg" xmlns:xlink="http://www.w3.org/1999/xlink" width="112" height="112" viewBox="0 0 112 112">
  <defs>
    <linearGradient id="linear-gradient" x1="0.5" x2="0.5" y2="1" gradientUnits="objectBoundingBox">
      <stop offset="0" stop-color="#039be5"/>
      <stop offset="1" stop-color="#027fbc"/>
    </linearGradient>
  </defs>
  <g id="Grupo_155450" data-name="Grupo 155450" transform="translate(3840 5749.028)">
    <circle id="Elipse_5968" data-name="Elipse 5968" cx="56" cy="56" r="56" transform="translate(-3840 -5749.028)" fill="url(#linear-gradient)"/>
    <g id="Oso95T" transform="translate(-4502.133 -5321.968)">
      <g id="Grupo_155223" data-name="Grupo 155223" transform="translate(682.998 -400.189)">
        <path id="Trazado_197000" data-name="Trazado 197000" d="M706.385-283.859h26.681a12.73,12.73,0,0,0-.014-1.536.977.977,0,0,0-1.052-.77c-1.159,0-2.317,0-3.476,0a2.611,2.611,0,0,1-2.667-2.632q-.014-.78,0-1.56a.983.983,0,0,1,1.019-1.053c.193-.01.386,0,.579,0H750.14c1.525,0,2.2-.665,2.2-2.19q0-20.432,0-40.865a1.837,1.837,0,0,0-1.414-1.906,1.023,1.023,0,0,1-.768-1.255,1.031,1.031,0,0,1,1.344-.678,3.763,3.763,0,0,1,2.81,3.717q0,18.071,0,36.141c0,1.708-.048,3.418.012,5.124a3.848,3.848,0,0,1-3.937,3.94q-10.984.007-21.969,0H727.9c-.194.9.065,1.229.937,1.231,1.07,0,2.139,0,3.209,0a2.93,2.93,0,0,1,3.022,2.813c.047.785.028,1.574.018,2.361s-.372,1.122-1.164,1.123q-4.077.005-8.155,0h-7.977q-6.1,0-12.2-.007c-.87,0-1.2-.339-1.19-1.224a17.487,17.487,0,0,1,.107-2.748,2.808,2.808,0,0,1,2.861-2.316c1.01-.012,2.02,0,3.03,0,.953,0,1.145-.2,1.1-1.239h-1.486q-11.475,0-22.949,0a3.857,3.857,0,0,1-4.059-4.05q0-17.268,0-34.535,0-3.273,0-6.547a3.814,3.814,0,0,1,3.069-3.835,3.506,3.506,0,0,1,.8-.057.924.924,0,0,1,.953.907.956.956,0,0,1-.908,1.056,1.733,1.733,0,0,0-1.6.874,2.731,2.731,0,0,0-.28,1.182c-.022,3.62-.015,7.241-.015,10.861q0,6.639,0,13.277c0,1.6-.045,3.207-.043,4.81.005,4.009.039,8.018.031,12.028a1.922,1.922,0,0,0,2.026,2.014c8.125-.026,16.25-.014,24.376-.014.341,0,.683-.008,1.024,0a.982.982,0,0,1,1.045,1.067,12.607,12.607,0,0,1-.1,2.17,2.517,2.517,0,0,1-2.5,2c-1.114.009-2.228,0-3.342,0a1.028,1.028,0,0,0-1.151,1.069C706.368-284.7,706.385-284.3,706.385-283.859Z" transform="translate(-682.998 343.917)" fill="#fff"/>
        <path id="Trazado_197001" data-name="Trazado 197001" d="M747.872-265.738q-13.522,0-27.044,0c-1.216,0-2.437.027-3.645-.082a2.616,2.616,0,0,1-2.3-2.638c0-3,.017-6,.016-9q0-8.823-.019-17.645,0-2.984,0-5.968a2.687,2.687,0,0,1,2.874-2.712.937.937,0,0,1,.885.926,1,1,0,0,1-.854,1.031c-.77.128-.927.312-.927,1.11q0,10.494,0,20.988,0,5.456,0,10.911c0,.811.244,1.051,1.066,1.051h43.758q8.11,0,16.22.006c.716,0,.987-.268.987-.992q0-16.042,0-32.084c0-.658-.224-.912-.863-.988a1,1,0,0,1-.919-1.059.985.985,0,0,1,.992-.943,2.73,2.73,0,0,1,2.742,2.405c.061.842.043,1.691.043,2.537q0,12.81,0,25.62c0,1.515.009,3.03,0,4.544a2.792,2.792,0,0,1-2.982,2.977q-5.525,0-11.05,0H747.872Z" transform="translate(-712.037 312.418)" fill="#fff"/>
        <path id="Trazado_197002" data-name="Trazado 197002" d="M975.171-191.237c-.042,1.691-.1,3.383-.12,5.075a1.192,1.192,0,0,1-.632,1.125q-5.091,3.008-10.168,6.038a1.175,1.175,0,0,1-1.3-.03q-2.76-1.621-5.526-3.233c-1.589-.922-3.181-1.84-4.782-2.741a1.265,1.265,0,0,1-.706-1.223q.018-4.989,0-9.979a1.284,1.284,0,0,1,.74-1.247q5.139-2.828,10.261-5.689a1.3,1.3,0,0,1,1.38,0q5.065,2.825,10.148,5.617a1.415,1.415,0,0,1,.839,1.485c-.067,1.6-.021,3.2-.021,4.807Zm-20.126-5.225c.083.057.126.093.174.12q4.082,2.265,8.171,4.519a.616.616,0,0,0,.506,0q3.452-1.885,6.887-3.8c.469-.26.934-.529,1.437-.814-.1-.075-.146-.114-.2-.141q-4.08-2.263-8.167-4.513a.634.634,0,0,0-.512.042c-1.575.855-3.141,1.726-4.708,2.595C957.447-197.8,956.26-197.137,955.045-196.462Zm7.6,14.919c0-2.781,0-5.466-.012-8.151a.561.561,0,0,0-.274-.379c-1.806-1.019-3.62-2.025-5.433-3.032-.966-.537-1.933-1.07-2.955-1.636v.462c0,2.433.008,4.867-.006,7.3a.648.648,0,0,0,.393.649c2.006,1.145,4,2.309,6,3.466C961.09-182.435,961.83-182.01,962.64-181.543ZM973.2-194.651a1.886,1.886,0,0,0-.2.082q-4.042,2.24-8.086,4.476a.545.545,0,0,0-.3.57c.007,2.508,0,5.017.005,7.525,0,.125.013.25.022.41.109-.052.176-.079.237-.115,2.611-1.552,5.219-3.11,7.836-4.651a.638.638,0,0,0,.359-.627c.029-2.018.082-4.036.122-6.055C973.212-193.566,973.2-194.1,973.2-194.651Z" transform="translate(-927.968 220.889)" fill="#fff"/>
        <path id="Trazado_197003" data-name="Trazado 197003" d="M784.6-382a12.726,12.726,0,0,0-2.217-.081,1.947,1.947,0,0,0-1.21.726A17.66,17.66,0,0,0,780-379.16a1.129,1.129,0,0,1-1.115.655q-1.448-.025-2.9,0a1.209,1.209,0,0,1-1.258-.781,11.237,11.237,0,0,0-1.1-2.118,1.946,1.946,0,0,0-1.261-.664,17.4,17.4,0,0,0-2.487.083,1.092,1.092,0,0,1-1.088-.618c-.479-.853-.957-1.708-1.469-2.541a1.189,1.189,0,0,1,.052-1.479c.116-.153.212-.321.317-.483a3.411,3.411,0,0,0,.809-2.953.874.874,0,0,0-.132-.406c-.351-.567-.715-1.126-1.077-1.686a1.091,1.091,0,0,1-.036-1.215c.5-.873,1.02-1.735,1.5-2.617a1.182,1.182,0,0,1,1.272-.678,13.962,13.962,0,0,0,1.511.057,1.161,1.161,0,0,0,.526-.164c.555-.31,1.1-.636,1.643-.969a.969.969,0,0,0,.335-.322c.247-.438.486-.883.7-1.34a1.177,1.177,0,0,1,1.151-.75c1.025,0,2.05-.009,3.074,0a1.063,1.063,0,0,1,1.046.689,4.432,4.432,0,0,0,2.08,2.327,3.608,3.608,0,0,0,2.382.493,1.427,1.427,0,0,1,1.694.865c.391.8.86,1.557,1.328,2.313a1.138,1.138,0,0,1-.044,1.4c-.1.143-.2.3-.291.447a3.833,3.833,0,0,0-.911,2.957.889.889,0,0,0,.152.447c.358.58.722,1.158,1.1,1.723a1.048,1.048,0,0,1,.047,1.206c-.535.924-1.063,1.851-1.6,2.773C785.687-382.06,785.414-381.962,784.6-382Zm-.8-1.957c.264-.088.648-.1.811-.295a8.434,8.434,0,0,0,.818-1.371.386.386,0,0,0,.041-.312,7.3,7.3,0,0,0-.87-1.28,1.322,1.322,0,0,1-.412-1.107c.05-.738.04-1.48.089-2.217a1.853,1.853,0,0,1,.223-.742,4.359,4.359,0,0,1,.577-.781,1.159,1.159,0,0,0,.077-1.52c-.432-.832-.911-1.24-1.875-1a1.852,1.852,0,0,1-1.672-.5,7.278,7.278,0,0,0-1.648-.95,1.566,1.566,0,0,1-.819-.757c-.226-.447-.371-1.054-.741-1.274s-.984-.027-1.484-.075a.7.7,0,0,0-.835.519,3.565,3.565,0,0,1-.474.9,2.724,2.724,0,0,1-.695.639q-.985.635-2.012,1.2a2.242,2.242,0,0,1-.891.3c-.47.032-.948-.052-1.422-.053a.524.524,0,0,0-.386.192c-.3.461-.567.939-.826,1.422a.429.429,0,0,0,0,.357,6.581,6.581,0,0,0,.778,1.187,1.543,1.543,0,0,1,.388,1.259,9.353,9.353,0,0,0,.069,1.769,1.339,1.339,0,0,1-.372,1.2,3.676,3.676,0,0,0-.88,1.361c-.079.282.3.7.478,1.048a5.48,5.48,0,0,0,.335.577c.06.089.169.214.248.208a11.477,11.477,0,0,0,1.708-.181,1.37,1.37,0,0,1,1.136.125,13.84,13.84,0,0,0,1.626.906,1.375,1.375,0,0,1,.762,1.054,8.436,8.436,0,0,0,.675,1.525c.033.067.208.087.319.089q.757.013,1.515,0c.11,0,.288-.018.32-.084a9.151,9.151,0,0,0,.7-1.607,1.269,1.269,0,0,1,.646-.932c.591-.3,1.149-.676,1.753-.948a2.141,2.141,0,0,1,1.005-.145A7.942,7.942,0,0,1,783.8-383.954Z" transform="translate(-759.591 400.158)" fill="#fff"/>
        <path id="Trazado_197004" data-name="Trazado 197004" d="M1178.9-378.541c-.52,0-1.039,0-1.559,0a1.042,1.042,0,0,1-1.009-.6c-.384-.751-.771-1.5-1.152-2.254a2.277,2.277,0,0,0-1.362-.737c-.874.047-1.75.113-2.623.085a1.131,1.131,0,0,1-.783-.465c-.6-.934-1.142-1.905-1.688-2.873a1.017,1.017,0,0,1,.052-1.1c.342-.538.71-1.061,1.018-1.617a2.253,2.253,0,0,0,.234-.861,6.23,6.23,0,0,0-.016-1.107,1.164,1.164,0,0,0-.172-.489c-.34-.557-.7-1.1-1.049-1.652a1.078,1.078,0,0,1-.018-1.213q.769-1.327,1.531-2.658a1.146,1.146,0,0,1,1.218-.62c.545.054,1.1.064,1.645.066a.846.846,0,0,0,.393-.161,10.933,10.933,0,0,1,1.289-.782,1.7,1.7,0,0,0,.958-.97c.138-.326.334-.628.48-.951a1.112,1.112,0,0,1,1.094-.691c1.039-.007,2.078-.016,3.117,0a1.032,1.032,0,0,1,1.017.664,4.612,4.612,0,0,0,2.143,2.383,3.636,3.636,0,0,0,2.436.449,1.356,1.356,0,0,1,1.547.817c.4.789.865,1.55,1.33,2.306a1.193,1.193,0,0,1-.021,1.48c-.125.165-.227.348-.339.522a3.455,3.455,0,0,0-.829,2.88.944.944,0,0,0,.15.446c.34.556.687,1.109,1.051,1.649a1.144,1.144,0,0,1,.043,1.33c-.519.881-1.028,1.768-1.535,2.656a1.032,1.032,0,0,1-1.016.579,16.9,16.9,0,0,0-2.528-.09,1.989,1.989,0,0,0-1.277.71,14.466,14.466,0,0,0-1.124,2.159,1.132,1.132,0,0,1-1.13.7C1179.912-378.553,1179.406-378.541,1178.9-378.541Zm8.182-7.371c-.4-.534-.827-1.047-1.184-1.6a1.616,1.616,0,0,1-.19-.821c-.008-.708,0-1.418.065-2.123a2.35,2.35,0,0,1,.306-.929c.263-.461.594-.882.891-1.324a.241.241,0,0,0,.041-.2,8.679,8.679,0,0,0-1.009-1.66c-.173-.189-.722-.037-1.1-.036a4.136,4.136,0,0,0-.445.018,1.623,1.623,0,0,1-1.179-.395,12.668,12.668,0,0,0-1.829-1.082,1.521,1.521,0,0,1-.812-.766c-.1-.231-.258-.439-.336-.675-.173-.528-.517-.615-1.051-.681a1.655,1.655,0,0,0-2.061,1.3,1.448,1.448,0,0,1-.856.839c-.646.32-1.235.753-1.87,1.1a2.738,2.738,0,0,1-1.009.345,12.087,12.087,0,0,1-1.377-.055.443.443,0,0,0-.337.126,5.085,5.085,0,0,0-.9,1.66c-.059.377.455.847.722,1.269.07.111.206.188.255.3a2.4,2.4,0,0,1,.225.738c.048.752.025,1.509.087,2.259a1.25,1.25,0,0,1-.322.967,7.518,7.518,0,0,0-.891,1.262c-.3.582.371.879.505,1.346a1.73,1.73,0,0,0,.261.463c.053.079.145.195.212.191a10.231,10.231,0,0,0,1.708-.171,1.417,1.417,0,0,1,1.178.121c.552.34,1.148.611,1.694.961.243.156.561.419.58.655a4.875,4.875,0,0,0,.689,1.714.5.5,0,0,0,.363.229c.533.027,1.068.02,1.6.01.1,0,.27-.041.3-.111a12.357,12.357,0,0,0,.673-1.619,1.309,1.309,0,0,1,.688-.912c.594-.3,1.148-.675,1.75-.948a2.108,2.108,0,0,1,.962-.121c.6.036,1.194.143,1.793.191.089.007.221-.124.28-.223C1186.461-384.8,1186.748-385.323,1187.084-385.911Z" transform="translate(-1125.305 400.189)" fill="#fff"/>
        <path id="Trazado_197005" data-name="Trazado 197005" d="M823.806-346.5a5.743,5.743,0,0,1,5.759,5.769,5.761,5.761,0,0,1-5.831,5.748,5.767,5.767,0,0,1-5.715-5.821A5.743,5.743,0,0,1,823.806-346.5Zm-3.776,5.739a3.8,3.8,0,0,0,3.781,3.8,3.806,3.806,0,0,0,3.744-3.7,3.771,3.771,0,0,0-3.756-3.86A3.783,3.783,0,0,0,820.03-340.757Z" transform="translate(-805.984 351.282)" fill="#fff"/>
        <path id="Trazado_197006" data-name="Trazado 197006" d="M1219.824-340.781a5.721,5.721,0,0,1,5.741-5.776,5.766,5.766,0,0,1,5.777,5.613,5.769,5.769,0,0,1-5.706,5.911A5.726,5.726,0,0,1,1219.824-340.781Zm9.532-.073a3.81,3.81,0,0,0-3.992-3.717,3.822,3.822,0,0,0-3.559,3.972,3.812,3.812,0,0,0,3.995,3.585A3.8,3.8,0,0,0,1229.356-340.854Z" transform="translate(-1171.974 351.338)" fill="#fff"/>
      </g>
    </g>
  </g>
</svg>
