<svg xmlns="http://www.w3.org/2000/svg" xmlns:xlink="http://www.w3.org/1999/xlink" width="112" height="112" viewBox="0 0 112 112">
  <defs>
    <linearGradient id="linear-gradient" x1="0.5" x2="0.5" y2="1" gradientUnits="objectBoundingBox">
      <stop offset="0" stop-color="#039be5"/>
      <stop offset="1" stop-color="#027fbc"/>
    </linearGradient>
  </defs>
  <g id="Grupo_155449" data-name="Grupo 155449" transform="translate(4179 5749.028)">
    <g id="Grupo_155448" data-name="Grupo 155448">
      <circle id="Elipse_5969" data-name="Elipse 5969" cx="56" cy="56" r="56" transform="translate(-4179 -5749.028)" fill="url(#linear-gradient)"/>
    </g>
    <g id="jY6ESc.tif" transform="translate(-6110.246 -5279.856)">
      <g id="Grupo_155224" data-name="Grupo 155224" transform="translate(1950.348 -447.223)">
        <path id="Trazado_197007" data-name="Trazado 197007" d="M1996.021-379.236a3.546,3.546,0,0,1-.676-.949c-.193-.664.383-1.26,1.2-1.221.626.03.874-.194,1.027-.782.375-1.434.823-2.849,1.238-4.272.052-.177.082-.361.149-.658h-.829c-2.519,0-5.041-.062-7.558.017a4.184,4.184,0,0,1-4.465-4.495c.064-2.564.014-5.13.014-7.735a14.165,14.165,0,0,1-12.239-9.885h-12.637c-.192,0-.385.009-.576,0a1.108,1.108,0,0,1-1.146-1.128,1,1,0,0,1,1.127-1.032c.719.045.975-.227,1.147-.9.406-1.592.918-3.158,1.415-4.825h-.931c-2.327,0-4.659-.084-6.981.023-2.477.114-4.164-.807-4.953-3.208v-14.55c.416-.417.862-.794,1.5-.526s.666.85.663,1.453c-.012,3.048-.006,6.1-.006,9.143v.851h.919c7.753,0,15.505-.015,23.257.018a4.41,4.41,0,0,0,2.847-.846,13.1,13.1,0,0,1,6.509-2.349.7.7,0,0,0,.065-.176c0-5.351.018-10.7-.021-16.053a1.676,1.676,0,0,0-.608-1.218,3.187,3.187,0,0,0-1.667-.479c-7.248-.03-14.5-.02-21.745-.02-2.472,0-4.944-.01-7.417,0a1.9,1.9,0,0,0-2.138,2.13c-.008,1.032-.016,2.064,0,3.1.012.612-.051,1.162-.718,1.414s-1.079-.144-1.445-.621v-5.042c.076-.169.162-.335.228-.507a3.987,3.987,0,0,1,3.757-2.646q14.982-.014,29.963,0a4.024,4.024,0,0,1,4.045,4.31c.012,4.969,0,9.938,0,14.907v.741c1.418.393,2.758.725,4.071,1.143a1.1,1.1,0,0,1,.85,1.489c-.225.615-.86.83-1.623.548-.135-.05-.267-.107-.4-.154A11.448,11.448,0,0,0,1980.785-423a11.652,11.652,0,0,0-5.024,12.141,11.686,11.686,0,0,0,9.719,9.185A11.693,11.693,0,0,0,1998.928-413a11.515,11.515,0,0,0-3.116-8.187c-.065-.071-.133-.139-.192-.215a1.09,1.09,0,0,1,.022-1.552,1.063,1.063,0,0,1,1.6.1,12.922,12.922,0,0,1,3.05,4.908c.2.606.5.718,1.068.716,6.122-.017,12.245.033,18.366-.031a4.225,4.225,0,0,1,4.418,4.4c-.1,3.478-.024,6.961-.029,10.441,0,.84-.487,1.353-1.186,1.283-.609-.061-.965-.523-.966-1.287q-.005-5.077,0-10.154c0-1.869-.587-2.461-2.446-2.461h-18.359c.154,8.846-4.1,14.053-12.766,15.806v5.25h33.571c0-1.02.006-2.065,0-3.109a1.046,1.046,0,0,1,.81-1.127,1.04,1.04,0,0,1,1.338,1.013c.019,2.184.065,4.371-.02,6.552a3.785,3.785,0,0,1-3.6,3.5c-2.759.076-5.521.037-8.282.047h-.945c.556,1.874,1.063,3.663,1.649,5.426.057.173.618.144.911.281.366.17.842.341,1,.65.143.278-.037.758-.16,1.12-.058.17-.316.272-.483.4Zm-7.634-12.507c-.13,1.7.52,2.437,2.1,2.437q14.686,0,29.372,0a1.871,1.871,0,0,0,2.015-2.437ZM1976.131-421.7h-23.592c-.091,1.517.58,2.41,1.849,2.412q9.941.019,19.882,0a.736.736,0,0,0,.546-.219C1975.27-420.2,1975.677-420.927,1976.131-421.7Zm34.516,40.239c-.548-1.854-1.052-3.6-1.594-5.326a.674.674,0,0,0-.525-.321c-2.256-.022-4.512-.025-6.768.006a.787.787,0,0,0-.573.44c-.363,1.064-.669,2.147-.987,3.225-.192.649-.369,1.3-.559,1.976Zm-37.357-29.992c.088-1.454.242-2.86.22-4.262-.008-.479.077-1.358-.76-1.377-2.4-.055-4.8-.02-7.254-.02l-1.67,5.659Z" transform="translate(-1950.348 447.223)" fill="#fff"/>
        <path id="Trazado_197008" data-name="Trazado 197008" d="M2242.429-420.339h.875c2.738,0,5.475-.012,8.213,0a3.305,3.305,0,0,1,3.535,3.372q.094,5.436,0,10.875a3.312,3.312,0,0,1-3.54,3.363,3.376,3.376,0,0,1-3.273-3.563c0-2.375,0-4.751,0-7.182h-5.611a10.737,10.737,0,0,1,.115,2.344,3.324,3.324,0,0,1-5.46,1.962c-1.971-1.788-3.831-3.707-5.654-5.649a3.142,3.142,0,0,1,.028-4.281c1.809-1.922,3.681-3.788,5.6-5.6a3.288,3.288,0,0,1,4.073-.238,3.437,3.437,0,0,1,1.367,3.86C2242.631-420.871,2242.55-420.674,2242.429-420.339Zm2.142,4.645h4.248c1.286,0,1.577.285,1.578,1.547,0,2.591,0,5.183,0,7.774a1.319,1.319,0,0,0,1.081,1.474c.8.113,1.383-.478,1.384-1.428q.009-5.111,0-10.222c0-1.24-.381-1.611-1.64-1.612q-5.543,0-11.087,0a1.178,1.178,0,0,1-1.234-.68,1.147,1.147,0,0,1,.37-1.359c.349-.328.694-.664,1.014-1.021a1.253,1.253,0,0,0-.006-1.749,1.178,1.178,0,0,0-1.739.032q-2.592,2.549-5.14,5.141a1.178,1.178,0,0,0-.025,1.69q2.594,2.647,5.245,5.239a1.164,1.164,0,0,0,1.684-.066,1.241,1.241,0,0,0,0-1.692c-.334-.376-.7-.725-1.061-1.076-.4-.391-.628-.909-.306-1.349a1.729,1.729,0,0,1,1.167-.618C2241.593-415.738,2243.083-415.694,2244.571-415.694Z" transform="translate(-2190.313 428.659)" fill="#fff"/>
        <path id="Trazado_197009" data-name="Trazado 197009" d="M2198.685-264.145c.85.82,1.625,1.565,2.4,2.315a4.44,4.44,0,0,1,.487.527.987.987,0,0,1-.118,1.422.968.968,0,0,1-1.426.048q-1.846-1.762-3.613-3.606a.992.992,0,0,1,.049-1.484q1.707-1.75,3.458-3.457a1.062,1.062,0,0,1,1.545-.039,1.045,1.045,0,0,1-.036,1.593C2200.559-265.939,2199.655-265.088,2198.685-264.145Z" transform="translate(-2160.623 294.5)" fill="#fff"/>
        <path id="Trazado_197010" data-name="Trazado 197010" d="M2179.144-213.774c-.9-.879-1.729-1.675-2.544-2.485-.661-.658-.73-1.236-.235-1.748s1.11-.45,1.753.187q1.557,1.544,3.1,3.1a1.148,1.148,0,0,1,0,1.913q-1.564,1.589-3.156,3.15a1.125,1.125,0,0,1-1.7.141c-.482-.5-.429-1.088.179-1.7C2177.373-212.045,2178.217-212.862,2179.144-213.774Z" transform="translate(-2143.46 251.39)" fill="#fff"/>
        <path id="Trazado_197011" data-name="Trazado 197011" d="M2019.485-145.229h5.61a11.039,11.039,0,0,1-.113-2.4,3.321,3.321,0,0,1,5.412-1.977c1.995,1.794,3.867,3.732,5.706,5.69a3.136,3.136,0,0,1-.037,4.278c-1.807,1.922-3.68,3.785-5.594,5.6a3.269,3.269,0,0,1-4.067.234,3.414,3.414,0,0,1-1.375-3.851c.067-.221.147-.438.25-.74h-.849c-2.712,0-5.423.008-8.135,0a3.372,3.372,0,0,1-3.639-3.57q-.046-5.254,0-10.509a3.408,3.408,0,0,1,2.948-3.516,3.393,3.393,0,0,1,3.806,2.653,4.2,4.2,0,0,1,.073.928c.006,2.111,0,4.223,0,6.334Zm2.394,4.661c1.9,0,3.792.008,5.688,0a1.187,1.187,0,0,1,1.244.667,1.18,1.18,0,0,1-.4,1.414c-.335.309-.659.631-.965.969a1.259,1.259,0,0,0-.014,1.75,1.177,1.177,0,0,0,1.74-.011q2.595-2.546,5.142-5.14a1.178,1.178,0,0,0,.043-1.69q-2.592-2.65-5.243-5.243a1.165,1.165,0,0,0-1.686.047,1.254,1.254,0,0,0,.025,1.747c.307.336.632.658.965.969a1.181,1.181,0,0,1,.393,1.418,1.188,1.188,0,0,1-1.251.648c-2.952-.014-5.9,0-8.855-.008-1.02,0-1.373-.358-1.374-1.389,0-2.639,0-5.279,0-7.918,0-.941-.512-1.515-1.283-1.494-.755.02-1.181.547-1.182,1.492q-.005,5.147,0,10.294c0,1.059.425,1.479,1.479,1.482C2018.183-140.565,2020.031-140.568,2021.879-140.568Z" transform="translate(-2003.64 198.049)" fill="#fff"/>
      </g>
    </g>
  </g>
</svg>
