<svg xmlns="http://www.w3.org/2000/svg" width="109.805" height="87.674" viewBox="0 0 109.805 87.674">
  <g id="Grupo_155443" data-name="Grupo 155443" transform="translate(-866.676 -2269.23)">
    <path id="Polígono_50" data-name="Polígono 50" d="M12.5,0,25,19H0Z" transform="translate(885.676 2306.264) rotate(90)" fill="#f59d36"/>
    <g id="UyrgcM.tif" transform="translate(-1044.938 2295.89)">
      <g id="Grupo_151394" data-name="Grupo 151394" transform="translate(1933.769 -26.659)">
        <path id="Trazado_193789" data-name="Trazado 193789" d="M1995.035,48.26c.813.43,1.61.888,2.439,1.284a7.717,7.717,0,0,1,3.583,9.585c-.667,1.508-1.952,1.891-3.507,1.887-9.493-.025-18.986-.013-28.479-.012-3.8,0-7.594.01-11.392,0-2.708-.01-3.717-1.1-3.883-3.734-.247-3.944,1.053-6.844,4.987-8.219a10.69,10.69,0,0,0,1.673-1.038c-.786-.072-1.2-.142-1.621-.142-5.992-.011-11.985,0-17.977-.019-4.421-.011-7.074-2.645-7.078-7.1q-.023-26.7,0-53.4c0-4.245,2.632-6.9,6.834-6.995a9.5,9.5,0,0,1,1.423.007,5.745,5.745,0,0,0,5.609-2.154c1.429-1.717,3.125-1.818,5.121-.71,1.283.712,1.955.35,2.33-1.006.61-2.2,1.81-3.1,4.122-3.133,1.246-.019,2.493-.031,3.738,0a3.7,3.7,0,0,1,3.872,3.016c.369,1.521,1.09,1.752,2.383,1.054,1.926-1.04,3.656-.89,5.123.838a6.1,6.1,0,0,0,5.269,2.132c11.509-.1,23.02-.05,34.53-.048,4.666,0,7.276,2.591,7.278,7.268q.012,26.521,0,53.043c0,4.515-2.671,7.173-7.2,7.18q-9.519.015-19.038,0ZM2017.9,33.339c0-.691,0-1.219,0-1.747q0-21.715,0-43.43c0-3.458-.873-4.328-4.3-4.329-10.976,0-21.952.043-32.927-.031-1.6-.011-2.571.218-3.185,1.9-.51,1.4-.448,2.034,1.067,2.42a3.655,3.655,0,0,1,3.013,3.859c.037,1.186.019,2.373.007,3.56-.024,2.575-.773,3.613-3.26,4.385-1.153.358-1.544.953-.954,2.08,1.315,2.513,1.135,3.644-.889,5.677-.837.841-1.652,1.709-2.541,2.492a3.768,3.768,0,0,1-4.466.533c-1.748-.862-2.07-.74-2.663,1.123a3.692,3.692,0,0,1-3.885,2.773c-2.745-.149-6.013,1.132-7.669-2.465a1.521,1.521,0,0,1-.053-.169c-.688-2.052-.944-2.167-2.784-1.261a3.62,3.62,0,0,1-4.56-.655c-.963-.967-1.958-1.9-2.893-2.9a3.715,3.715,0,0,1-.653-4.723c.821-1.634.645-2.044-1.125-2.614a3.687,3.687,0,0,1-2.839-4.008c.105-2.7-1.06-5.889,2.438-7.508.213-.1.5-.089.666-.232.482-.416,1.382-1.049,1.292-1.3-.368-1.034-.856-2.578-1.64-2.816-3.787-1.15-5.8.516-5.8,4.453q0,21.537,0,43.073v1.857Zm0,3.692H1937.29c0,1.151,0,2.2,0,3.257.013,3.108.921,4.032,4.012,4.033q24.65.009,49.3.006,11.835,0,23.671-.006c2.531-.005,3.578-1.054,3.621-3.538C2017.914,39.6,2017.9,38.421,2017.9,37.031Zm-54.69-25.912c1.251-4.382,4.062-5.548,8.2-3.528l3.237-3.175c-2.489-3.507-.6-7.175,3.3-8.24V-8.349c-4.018-.8-5.4-4.194-3.34-8.152l-3.158-3.21a5.162,5.162,0,0,1-8.276-3.283h-4.515c-.381,3.762-4.959,5.571-8.562,3.109a14.1,14.1,0,0,1-1.677,2.154,1.883,1.883,0,0,0-.466,2.7,4.587,4.587,0,0,1,.132,3.038c-.574,2.047-1.8,3.608-4.137,3.586v4.749c3.481.2,5.751,4.478,3.533,8.019l3.03,3.326c.523-.3.961-.591,1.436-.806,2-.9,5.536.188,6.042,2.26.527,2.155,1.771,2.092,3.345,1.98C1961.918,11.084,1962.51,11.119,1963.207,11.119Zm34.426,46.262c.5-3.088.088-3.657-2.388-5.036a18.026,18.026,0,0,1-4.278-3.36,3.094,3.094,0,0,0-2.543-1.147c-7.056.038-14.114.057-21.169-.009a3.717,3.717,0,0,0-3.293,1.459,13.5,13.5,0,0,1-3.89,3.006c-2.648,1.442-3.068,2.059-2.509,5.087Z" transform="translate(-1933.769 26.659)" fill="#fff"/>
        <path id="Trazado_193790" data-name="Trazado 193790" d="M2085.921,63.171c-2.035-1.548-3.263-.462-4.249,1.84-.255.594-1.484.972-2.312,1.073a20.452,20.452,0,0,1-4.432.046A3.194,3.194,0,0,1,2072,63.637c-.31-1.211-.736-1.6-1.97-.928a3.528,3.528,0,0,1-4.532-.753c-.623-.635-1.268-1.248-1.89-1.883-1.8-1.833-1.954-2.532-.9-4.884.445-1,.281-1.454-.806-1.807-2.106-.685-2.77-1.724-2.8-3.976-.014-.949-.018-1.9,0-2.847.044-2.15.718-3.144,2.758-3.811,1.04-.34,1.305-.732.767-1.785-1.011-1.976-.751-3.192.81-4.8.744-.765,1.5-1.525,2.28-2.248a3.275,3.275,0,0,1,4.091-.632c1.4.827,1.9.4,2.164-.987a2.046,2.046,0,0,1,.468-.944c2.041-2.265,4.736-1.414,7.2-1.368a3.148,3.148,0,0,1,2.922,2.7c.28,1.072.72,1.306,1.766.767,1.962-1.012,3.19-.751,4.8.811q1.086,1.052,2.135,2.142a3.435,3.435,0,0,1,.642,4.39c-.664,1.17-.432,1.748.892,1.95a2.1,2.1,0,0,1,.97.408c2.334,1.894,1.6,4.538,1.574,6.955a3.209,3.209,0,0,1-2.621,3.2c-1.413.342-1.405.948-.738,2a3.209,3.209,0,0,1,.463,1.5C2092.563,59.061,2088.584,63.129,2085.921,63.171Zm-20.268-6.083,2.366,2.437c3.635-1.5,5.178-.917,7.278,2.6a1.388,1.388,0,0,0,.974.513c.92.07,1.849.024,2.71.024,1.161-3.675,3.827-4.774,7.362-3.125l2.412-2.444c-1.708-2.646-.81-6.054,3.015-7.475V46.35c-3.263-.831-4.785-4.01-3.1-7.511l-2.314-2.365c-3,1.942-6.41.419-7.522-3.051a18.206,18.206,0,0,0-2.252.025,1.873,1.873,0,0,0-1.275.575c-1.986,3.418-3.382,3.943-7.283,2.555l-2.327,2.314c1.58,3.346.768,5.7-2.341,7.178a1.476,1.476,0,0,0-.679,1.015,22.815,22.815,0,0,0-.031,2.591C2066.326,51.184,2067.479,53.99,2065.653,57.089Z" transform="translate(-2014.283 -9.608)" fill="#fff"/>
        <path id="Trazado_193791" data-name="Trazado 193791" d="M2054.411,157.193a2.41,2.41,0,1,1-2.418-2.349A2.47,2.47,0,0,1,2054.411,157.193Z" transform="translate(-2008.182 -89.952)" fill="#fff"/>
        <path id="Trazado_193792" data-name="Trazado 193792" d="M1994.912,24.523a8.265,8.265,0,1,1,8.3-8.215A8.27,8.27,0,0,1,1994.912,24.523Zm.094-13.039a4.76,4.76,0,1,0,4.7,4.807A4.814,4.814,0,0,0,1995.006,11.484Z" transform="translate(-1967.734 4.396)" fill="#fff"/>
        <path id="Trazado_193793" data-name="Trazado 193793" d="M2089.1,67.492a7.421,7.421,0,0,1,14.842-.11,7.422,7.422,0,1,1-14.842.11Zm3.528-.07A3.88,3.88,0,0,0,2096.5,71.4a3.976,3.976,0,0,0,3.946-3.944,3.9,3.9,0,0,0-3.823-3.857A3.814,3.814,0,0,0,2092.633,67.423Z" transform="translate(-2033.569 -29.059)" fill="#fff"/>
      </g>
    </g>
  </g>
</svg>
