<svg xmlns="http://www.w3.org/2000/svg" xmlns:xlink="http://www.w3.org/1999/xlink" width="200" height="179.945" viewBox="0 0 200 179.945">
  <defs>
    <clipPath id="clip-path">
      <rect id="Rectángulo_1" data-name="Rectángulo 1" width="79.892" height="79.892" fill="#404040" stroke="#404040" stroke-width="1"/>
    </clipPath>
  </defs>
  <g id="Grupo_31" data-name="Grupo 31" transform="translate(-8 -14.877)">
    <path id="blob_4_" data-name="blob(4)" d="M125.272-2.6c7.63,28.028-16.506,61.663-49.828,86.888S-.545,126.639-30.909,108.732C-61.429,90.825-79.647,38.194-65.944,1.757c13.7-36.593,59.483-56.68,101.992-55.745C78.558-52.9,117.8-30.476,125.272-2.6Z" transform="translate(78.572 73.499)" fill="#fff0e5"/>
    <g id="Grupo_25" data-name="Grupo 25" transform="translate(24.438 14)">
      <text id="_" data-name="+" transform="matrix(-1, 0, 0, 1, 86.521, 119.027)" fill="#ff6b00" font-size="26" font-family="Montserrat-Bold, Montserrat" font-weight="700"><tspan x="-7.787" y="0">+</tspan></text>
      <text id="_2" data-name="+" transform="matrix(-1, 0, 0, 1, 168.712, 140.945)" fill="#ff6b00" font-size="26" font-family="Montserrat-Bold, Montserrat" font-weight="700"><tspan x="-7.787" y="0">+</tspan></text>
      <text id="_3" data-name="+" transform="matrix(-1, 0, 0, 1, 59.123, 25.877)" fill="#ff6b00" font-size="26" font-family="Montserrat-Bold, Montserrat" font-weight="700"><tspan x="-7.787" y="0">+</tspan></text>
      <circle id="Elipse_1" data-name="Elipse 1" cx="5.479" cy="5.479" r="5.479" transform="translate(171.233 30.137)" fill="#ff6b00"/>
      <circle id="Elipse_2" data-name="Elipse 2" cx="5.479" cy="5.479" r="5.479" transform="translate(134.247 157.534)" fill="#ff6b00"/>
      <circle id="Elipse_5" data-name="Elipse 5" cx="5.479" cy="5.479" r="5.479" transform="translate(30.137 152.055)" fill="#ff6b00"/>
      <circle id="Elipse_6" data-name="Elipse 6" cx="13.699" cy="13.699" r="13.699" transform="translate(100 13.699)" fill="#ff6b00" opacity="0.1"/>
      <circle id="Elipse_7" data-name="Elipse 7" cx="13.699" cy="13.699" r="13.699" transform="translate(13.699 104.11)" fill="#ff6b00" opacity="0.1"/>
      <circle id="Elipse_11" data-name="Elipse 11" cx="9.589" cy="9.589" r="9.589" transform="translate(0 2.74)" fill="#ff6b00" opacity="0.1"/>
      <circle id="Elipse_12" data-name="Elipse 12" cx="9.589" cy="9.589" r="9.589" transform="translate(164.384 161.644)" fill="#ff6b00" opacity="0.1"/>
      <circle id="Elipse_8" data-name="Elipse 8" cx="13.699" cy="13.699" r="13.699" transform="translate(104.11 143.836)" fill="#ff6b00" opacity="0.1"/>
      <g id="Elipse_3" data-name="Elipse 3" transform="translate(35.616 98.63)" fill="none" stroke="#ff6b00" stroke-width="2">
        <circle cx="5.479" cy="5.479" r="5.479" stroke="none"/>
        <circle cx="5.479" cy="5.479" r="4.479" fill="none"/>
      </g>
      <g id="Elipse_4" data-name="Elipse 4" transform="translate(163.014 71.233)" fill="none" stroke="#ff6b00" stroke-width="2">
        <circle cx="5.479" cy="5.479" r="5.479" stroke="none"/>
        <circle cx="5.479" cy="5.479" r="4.479" fill="none"/>
      </g>
    </g>
    <g id="Grupo_21" data-name="Grupo 21" transform="translate(49.096 42.767)">
      <g id="Rectángulo_2" data-name="Rectángulo 2" transform="translate(0 0)" fill="#fff" stroke="#404040" stroke-linecap="round" stroke-linejoin="round" stroke-width="3">
        <rect width="36.986" height="36.986" stroke="none"/>
        <rect x="1.5" y="1.5" width="33.986" height="33.986" fill="none"/>
      </g>
      <g id="Rectángulo_5" data-name="Rectángulo 5" transform="translate(0 65.753)" fill="#fff" stroke="#404040" stroke-linecap="round" stroke-linejoin="round" stroke-width="3">
        <rect width="36.986" height="35.616" stroke="none"/>
        <rect x="1.5" y="1.5" width="33.986" height="32.616" fill="none"/>
      </g>
      <g id="Rectángulo_6" data-name="Rectángulo 6" transform="translate(32.877 32.877)" fill="#fff" stroke="#404040" stroke-linecap="round" stroke-linejoin="round" stroke-width="3">
        <rect width="36.986" height="36.986" stroke="none"/>
        <rect x="1.5" y="1.5" width="33.986" height="33.986" fill="none"/>
      </g>
      <g id="Rectángulo_7" data-name="Rectángulo 7" transform="translate(65.753 32.877)" fill="#fff" stroke="#404040" stroke-linecap="round" stroke-linejoin="round" stroke-width="3">
        <rect width="35.616" height="36.986" stroke="none"/>
        <rect x="1.5" y="1.5" width="32.616" height="33.986" fill="none"/>
      </g>
      <g id="Rectángulo_3" data-name="Rectángulo 3" transform="translate(0 32.877)" fill="#fff" stroke="#404040" stroke-linecap="round" stroke-linejoin="round" stroke-width="3">
        <rect width="36.986" height="36.986" stroke="none"/>
        <rect x="1.5" y="1.5" width="33.986" height="33.986" fill="none"/>
      </g>
      <g id="Rectángulo_4" data-name="Rectángulo 4" transform="translate(0 97.26)" fill="#fff" stroke="#404040" stroke-linecap="round" stroke-linejoin="round" stroke-width="3">
        <rect width="36.986" height="36.986" stroke="none"/>
        <rect x="1.5" y="1.5" width="33.986" height="33.986" fill="none"/>
      </g>
      <path id="Trazado_45" data-name="Trazado 45" d="M8.027-4.581a5.108,5.108,0,0,1,2.447,1.7,4.473,4.473,0,0,1,.885,2.8,4.2,4.2,0,0,1-1.926,3.7,9.936,9.936,0,0,1-5.57,1.3H-5.976V-13.3H3.342a9.155,9.155,0,0,1,5.31,1.288,4.044,4.044,0,0,1,1.822,3.475,4.328,4.328,0,0,1-.638,2.329A4.459,4.459,0,0,1,8.027-4.581Zm-8.9-5v3.514h3.54q2.6,0,2.6-1.77,0-1.744-2.6-1.744ZM3.446,1.2q2.707,0,2.707-1.848T3.446-2.5H-.874V1.2Z" transform="translate(15.565 120.149)" fill="#404040"/>
      <path id="Trazado_46" data-name="Trazado 46" d="M6.66,1.379h-7.7l-1.432,3.54H-7.733L.309-13.3H5.385L13.453,4.919H8.092Zm-1.51-3.8L2.808-8.251.466-2.421Z" transform="translate(15.952 55.766)" fill="#404040"/>
      <path id="Trazado_47" data-name="Trazado 47" d="M6.66,1.379h-7.7l-1.432,3.54H-7.733L.309-13.3H5.385L13.453,4.919H8.092Zm-1.51-3.8L2.808-8.251.466-2.421Z" transform="translate(16.318 55.355)" fill="#404040"/>
    </g>
    <g id="Grupo_22" data-name="Grupo 22" transform="translate(103.89 87.753)">
      <path id="Trazado_40" data-name="Trazado 40" d="M905.655,114.669l5.184-16.331s57.506-60.457,59.32-60.657a56.861,56.861,0,0,1,6,0l6.48,6.48v6.48l-60.657,59.1Z" transform="translate(-903.388 -36.428)" fill="#fff"/>
      <g id="Grupo_14" data-name="Grupo 14" transform="translate(0 0)">
        <g id="Grupo_8" data-name="Grupo 8" transform="translate(0 0)" clip-path="url(#clip-path)">
          <path id="Trazado_35" data-name="Trazado 35" d="M15.861,70.513a1.517,1.517,0,0,1-1.069-.442L3.615,58.894a1.516,1.516,0,0,1,0-2.141L53.741,6.627a1.555,1.555,0,0,1,2.139,0L67.057,17.8a1.511,1.511,0,0,1,0,2.139L16.931,70.071a1.518,1.518,0,0,1-1.07.442M6.825,57.823l9.036,9.038L63.848,18.872,54.81,9.835Z" transform="translate(2.101 4.105)" fill="#404040" stroke="#404040" stroke-width="1"/>
          <path id="Trazado_36" data-name="Trazado 36" d="M47.385,23.635a1.5,1.5,0,0,1-1.069-.444L33.183,10.06a1.516,1.516,0,0,1,0-2.141L37.907,3.2a1.558,1.558,0,0,1,2.139,0L53.178,16.33a1.511,1.511,0,0,1,0,2.139l-4.722,4.722a1.509,1.509,0,0,1-1.07.444M36.393,8.989,47.385,19.983,49.97,17.4,38.976,6.406Z" transform="translate(21.682 1.834)" fill="#404040" stroke="#404040" stroke-width="1"/>
          <path id="Trazado_37" data-name="Trazado 37" d="M48.859,19.769a1.514,1.514,0,0,1-1.069-.442L36.612,8.15a1.517,1.517,0,0,1,0-2.141l4.367-4.365a5.612,5.612,0,0,1,7.937,0l5.379,5.379a5.612,5.612,0,0,1,0,7.937L49.93,19.327a1.515,1.515,0,0,1-1.07.442M39.824,7.079l9.036,9.038,3.3-3.3a2.586,2.586,0,0,0,0-3.659L46.777,3.783a2.651,2.651,0,0,0-3.659,0Z" transform="translate(23.953 -0.001)" fill="#404040" stroke="#404040" stroke-width="1"/>
          <path id="Trazado_38" data-name="Trazado 38" d="M1.513,55.823A1.513,1.513,0,0,1,.072,53.848L5.344,37.4a1.513,1.513,0,0,1,2.51-.608L19.033,47.967a1.514,1.514,0,0,1-.608,2.512L1.975,55.75a1.483,1.483,0,0,1-.462.073m5.956-15.14L3.85,51.972l11.288-3.619Z" transform="translate(0 24.069)" fill="#404040" stroke="#404040" stroke-width="1"/>
          <path id="Trazado_39" data-name="Trazado 39" d="M8.047,62.706a1.513,1.513,0,0,1-1.07-2.583L57.106,10a1.512,1.512,0,0,1,2.138,2.139L9.116,62.262a1.5,1.5,0,0,1-1.069.444" transform="translate(4.327 6.325)" fill="#404040" stroke="#404040" stroke-width="1"/>
        </g>
      </g>
    </g>
    <path id="Trazado_48" data-name="Trazado 48" d="M-10.859,1.556h-8.11l-1.507,3.726H-26.01L-17.544-13.9H-12.2L-3.709,5.282H-9.352Zm-1.589-4-2.466-6.137L-17.38-2.444ZM16.4-4.718a5.377,5.377,0,0,1,2.575,1.795A4.709,4.709,0,0,1,19.908.021a4.421,4.421,0,0,1-2.027,3.89,10.459,10.459,0,0,1-5.863,1.37H1.661V-13.9h9.808a9.636,9.636,0,0,1,5.589,1.356,4.257,4.257,0,0,1,1.918,3.658,4.556,4.556,0,0,1-.671,2.452A4.694,4.694,0,0,1,16.4-4.718Zm-9.37-5.26v3.7h3.726q2.74,0,2.74-1.863,0-1.836-2.74-1.836ZM11.579,1.364q2.849,0,2.849-1.945T11.579-2.527H7.031v3.89Zm24.548,4.3a11.35,11.35,0,0,1-5.411-1.274A9.527,9.527,0,0,1,26.949.843a9.785,9.785,0,0,1-1.37-5.151,9.785,9.785,0,0,1,1.37-5.151,9.527,9.527,0,0,1,3.767-3.548,11.35,11.35,0,0,1,5.411-1.274,11.614,11.614,0,0,1,4.74.932,9.119,9.119,0,0,1,3.507,2.685L40.922-7.54A5.678,5.678,0,0,0,36.4-9.787,5.579,5.579,0,0,0,33.62-9.1,4.754,4.754,0,0,0,31.73-7.17a5.944,5.944,0,0,0-.671,2.863,5.944,5.944,0,0,0,.671,2.863A4.754,4.754,0,0,0,33.62.487a5.579,5.579,0,0,0,2.781.685,5.678,5.678,0,0,0,4.521-2.247l3.452,3.123a9.119,9.119,0,0,1-3.507,2.685A11.614,11.614,0,0,1,36.127,5.665Z" transform="translate(117.558 63.513)" fill="#404040"/>
  </g>
</svg>
