<svg xmlns="http://www.w3.org/2000/svg" width="64.091" height="64.068" viewBox="0 0 64.091 64.068">
  <g id="Grupo_155351" data-name="Grupo 155351" transform="translate(0)">
    <path id="Trazado_132028" data-name="Trazado 132028" d="M1477.741,1488.274l2.573,8.556h3.412v2.1h-25.543v-2.077h3.4l2.576-8.576h-4.41q-8.711,0-17.423,0a3.173,3.173,0,0,1-3.42-3.4q0-23.268,0-46.534a3.2,3.2,0,0,1,3.49-3.478l57.209,0a3.162,3.162,0,0,1,3.391,3.364q0,23.333,0,46.667a3.168,3.168,0,0,1-3.381,3.378q-10.513,0-21.027,0Zm-36.7-8.588h59.824v-.572q0-20.2,0-40.391c0-1.459-.283-1.729-1.773-1.729h-56.406c-1.328,0-1.643.318-1.643,1.657v41.034Zm59.815,2.224h-59.809v2.508c0,1.443.277,1.724,1.7,1.724h53.2c1.224,0,2.448.006,3.672-.01a1.09,1.09,0,0,0,1.228-1.115C1500.879,1484,1500.856,1482.976,1500.856,1481.911Zm-25.37,6.364c-2.942,0-5.831-.007-8.719.018a.682.682,0,0,0-.464.407c-.287.838-.523,1.693-.776,2.543-.55,1.842-1.1,3.684-1.655,5.548h14.165Z" transform="translate(-1438.906 -1434.859)" fill="#12263f"/>
    <path id="Trazado_132029" data-name="Trazado 132029" d="M1617.891,1567.537q-7.91,0-15.82,0a3.168,3.168,0,0,1-3.419-3.4q0-11.049,0-22.1a3.163,3.163,0,0,1,3.353-3.337c3.916-.006,7.832,0,11.748-.005a3.2,3.2,0,0,1,2.384,1.006c.892.9,1.806,1.782,2.684,2.7a1.814,1.814,0,0,0,1.42.582c4.517-.015,9.034-.009,13.551-.008a3.157,3.157,0,0,1,3.307,3.312q.009,9.012.005,18.026a3.164,3.164,0,0,1-3.259,3.232q-7.978.005-15.955,0Zm-.012-2.132h15.549c1.2,0,1.541-.343,1.541-1.551q0-8.577,0-17.154c0-1.284-.315-1.592-1.629-1.592-4.449,0-8.9-.008-13.347,0a3.413,3.413,0,0,1-2.566-1.064c-.873-.888-1.728-1.8-2.658-2.625a2.26,2.26,0,0,0-1.338-.564c-3.714-.044-7.429-.027-11.145-.024-1.157,0-1.5.346-1.5,1.522q-.006,10.679-.006,21.358c0,1.385.295,1.686,1.68,1.687Q1610.171,1565.409,1617.879,1565.4Z" transform="translate(-1577.283 -1524.804)" fill="#12263f"/>
    <path id="Trazado_132030" data-name="Trazado 132030" d="M1504.737,1473.427l-1.577,1.631c-.579-.621-1.151-1.207-1.688-1.822a.6.6,0,0,0-.8-.167c-1.062.451-2.132.885-3.214,1.285a1.275,1.275,0,0,1-.808-.006c-.792-.287-1.546-.689-2.349-.937a2.3,2.3,0,0,1-1.578-1.607c-.348-.98-.81-1.92-1.232-2.9-.858,0-1.7-.023-2.545.02-.169.008-.393.237-.475.417-.479,1.051-.9,2.125-1.393,3.171a1.38,1.38,0,0,1-.625.614c-.947.436-1.909.844-2.888,1.2a1.58,1.58,0,0,1-.994-.011c-1.023-.366-2.034-.774-3.027-1.216a.712.712,0,0,0-.967.216c-.41.467-.9.866-1.3,1.339a.8.8,0,0,0-.131.67c.392,1.062.863,2.094,1.241,3.16a1.649,1.649,0,0,1-.016,1.054c-.416,1.1-.661,2.412-1.431,3.185a9.08,9.08,0,0,1-3.217,1.512.981.981,0,0,0-.758,1.16c.062.661-.2,1.482.11,1.955a3.093,3.093,0,0,0,1.752.845,4.409,4.409,0,0,1,3.171,3.18,3.505,3.505,0,0,1-.008,3.189c-.358.632-.544,1.358-.841,2.028a.6.6,0,0,0,.152.808,17.4,17.4,0,0,1,1.369,1.369.6.6,0,0,0,.809.149c1.021-.436,2.046-.865,3.089-1.241a1.585,1.585,0,0,1,.994-.015c.874.314,1.719.708,2.644,1.1l-.807,1.974c-.642-.258-1.24-.536-1.864-.731a1.553,1.553,0,0,0-.932,0c-1.228.454-2.439.952-3.648,1.455a.623.623,0,0,1-.808-.157c-1.113-1.152-2.269-2.263-3.377-3.42a.845.845,0,0,1-.149-.723c.443-1.208.968-2.386,1.4-3.6a2.221,2.221,0,0,0,0-1.125,2.9,2.9,0,0,0-2.231-2.334,16.433,16.433,0,0,1-2.509-1.071.85.85,0,0,1-.422-.6q-.051-2.436,0-4.873a.847.847,0,0,1,.432-.6c1.126-.524,2.266-1.027,3.424-1.476a1.833,1.833,0,0,0,.956-1.006,2.827,2.827,0,0,0,.036-2.935c-.448-.836-.716-1.767-1.086-2.646a.615.615,0,0,1,.133-.812q1.729-1.67,3.4-3.4a.622.622,0,0,1,.813-.135c1.147.476,2.309.919,3.452,1.406a1.722,1.722,0,0,0,1.267.02,3.119,3.119,0,0,0,2.269-2.243c.263-.866.716-1.672,1.046-2.52a.614.614,0,0,1,.688-.45c1.58.021,3.159.024,4.739,0a.66.66,0,0,1,.72.5c.477,1.172.963,2.343,1.5,3.486a2.084,2.084,0,0,0,.749.75,3.053,3.053,0,0,0,3.359.051,20.066,20.066,0,0,1,2.531-1.018.665.665,0,0,1,.569.07C1502.835,1471.528,1503.789,1472.49,1504.737,1473.427Z" transform="translate(-1466.559 -1462.489)" fill="#12263f"/>
    <path id="Trazado_132031" data-name="Trazado 132031" d="M1540.641,1539.4c.3.6.6,1.206.907,1.81a8.676,8.676,0,0,0,.006,15.423l-.9,1.819a10.578,10.578,0,0,1-.009-19.051Z" transform="translate(-1521.859 -1525.413)" fill="#12263f"/>
    <path id="Trazado_132032" data-name="Trazado 132032" d="M1652.353,1624.471l-1.542,1.483-5.894-5.968,5.988-5.988,1.318,1.4-4.5,4.468Z" transform="translate(-1617.363 -1590.038)" fill="#12263f"/>
    <path id="Trazado_132033" data-name="Trazado 132033" d="M1791.622,1619.557l-6,6-1.438-1.376,4.526-4.509-4.644-4.556,1.595-1.543Z" transform="translate(-1737.903 -1589.669)" fill="#12263f"/>
    <path id="Trazado_132034" data-name="Trazado 132034" d="M1721.321,1633.431l-1.882-1.057,5.347-9.622,1.889,1.044Z" transform="translate(-1681.917 -1597.62)" fill="#12263f"/>
  </g>
</svg>
