<svg xmlns="http://www.w3.org/2000/svg" width="352.702" height="300.29" viewBox="0 0 352.702 300.29">
  <g id="Grupo_155453" data-name="Grupo 155453" transform="translate(-2099.973 9364.253)">
    <g id="Grupo_155299" data-name="Grupo 155299" transform="translate(-5431.205 -14226.133)">
      <path id="Trazado_197174" data-name="Trazado 197174" d="M7640.108,4999.661q.018,54.355.007,108.71c-.01,20.714-7.206,28.067-27.551,28.116-18.789.045-37.579.134-56.367-.024-16.271-.138-24.922-8.621-24.945-24.87q-.157-112.233.007-224.465c.022-16.182,8.877-25.047,24.754-25.153q29.691-.2,59.386,0c16.5.1,24.6,8.2,24.657,24.951C7640.187,4924.5,7640.1,4962.083,7640.108,4999.661Zm-12.035.393q0-55.854-.024-111.708c-.02-11.319-3.041-14.365-14.274-14.427q-27.673-.155-55.35-.01c-11.707.046-15.152,3.275-15.162,14.8q-.094,110.7.025,221.4c.013,11.043,3.4,14.251,14.532,14.313q27.675.155,55.35.008c12.371-.054,14.85-2.468,14.872-14.686Q7628.139,5054.9,7628.073,5000.054Z" fill="#12263f"/>
      <path id="Trazado_197176" data-name="Trazado 197176" d="M7587.19,5095.7c7.7,0,15.431-.44,23.065.245,2.5.225,4.736,3.367,7.092,5.175-2.373,2.151-4.687,6.082-7.131,6.165-16.377.555-32.788.521-49.168.029-2.263-.068-4.417-3.718-6.622-5.709,2.222-1.967,4.324-5.443,6.687-5.63C7569.758,5095.292,7578.491,5095.705,7587.19,5095.7Z" fill="#12263f"/>
      <path id="Trazado_197177" data-name="Trazado 197177" d="M7585.223,5071.506c8.368,0,16.769-.411,25.085.247,2.47.2,4.7,3.384,7.047,5.2-2.39,2.145-4.72,6.065-7.179,6.148-16.383.553-32.8.516-49.187.017-2.243-.068-4.376-3.762-6.561-5.778,2.232-1.944,4.334-5.352,6.719-5.564C7569.117,5071.071,7577.19,5071.51,7585.223,5071.506Z" fill="#12263f"/>
      <path id="Trazado_197178" data-name="Trazado 197178" d="M7585.453,5035.035c-7.7-.007-15.448.5-23.069-.27-2.8-.281-5.293-3.561-7.926-5.474,2.44-2.056,4.823-5.809,7.329-5.893q24.072-.8,48.18.011c2.519.084,4.918,3.775,7.372,5.8-2.6,1.946-5.057,5.306-7.812,5.569C7601.565,5035.532,7593.486,5035.043,7585.453,5035.035Z" fill="#12263f"/>
      <path id="Trazado_197179" data-name="Trazado 197179" d="M7586.685,5047.3c7.7,0,15.444-.509,23.061.267,2.7.275,5.074,3.674,7.6,5.646-2.538,2-5.022,5.64-7.624,5.727q-24.065.8-48.165-.025c-2.443-.086-4.749-4.056-7.119-6.23,2.384-1.793,4.662-4.936,7.172-5.134C7569.922,5046.9,7578.319,5047.306,7586.685,5047.3Z" fill="#12263f"/>
      <circle id="Elipse_5971" data-name="Elipse 5971" cx="18" cy="18" r="18" transform="translate(7554.969 4886.975)" fill="#12263f"/>
      <circle id="Elipse_5972" data-name="Elipse 5972" cx="10" cy="10" r="10" transform="translate(7562.969 4894.975)" fill="#f6f6f6"/>
    </g>
    <g id="Grupo_155300" data-name="Grupo 155300" transform="translate(1490.088 -11857.951)">
      <path id="Trazado_197171" data-name="Trazado 197171" d="M7474.738,4854.9v-6.811c-5.2,0-10.148-.1-15.092.034-3.436.093-4.7-1.338-4.677-4.767q.163-23.747.01-47.494c-.021-3.407,1.283-4.845,4.686-4.837q32.246.073,64.492,0c3.436-.006,4.727,1.673,4.718,4.948q-.066,23.747,0,47.5c.012,3.442-1.543,4.753-4.891,4.66-4.8-.133-9.611-.034-14.789-.034v6.8c4.9,0,9.856.093,14.8-.033,3.366-.086,4.942,1.285,4.867,4.7-.088,4,0,8-.026,12-.015,2.851-1.394,4.211-4.335,4.206q-32.747-.06-65.493-.006c-3.071,0-4.081-1.519-4.016-4.362.091-4,.138-8-.014-12-.136-3.583,1.609-4.64,4.9-4.54C7464.682,4855.01,7469.488,4854.9,7474.738,4854.9Zm-13.5-13.181h61.629c0-14.176-.025-27.968.017-41.759.01-3.481-2.442-2.937-4.537-2.939q-24.485-.03-48.97-.012h-8.139Zm61.263,19.431h-61.107v8.274H7522.5Zm-41.352-6.622h22.915c-1.548-2.767-2.441-6.048-3.59-6.14-6.362-.51-12.785-.244-19.325-.244Z" transform="translate(-6652.293 -2131.975)" fill="#12263f"/>
      <path id="Trazado_197172" data-name="Trazado 197172" d="M7494.778,4808.5a33.262,33.262,0,0,1-2.54,3.35c-5.6,5.664-11.136,11.4-16.988,16.8-1.159,1.069-3.6.752-5.441,1.075.394-1.724.233-3.968,1.277-5.085,5.55-5.936,11.337-11.658,17.213-17.274a7.034,7.034,0,0,1,4.324-1.442C7493.252,4805.9,7493.943,4807.449,7494.778,4808.5Z" transform="translate(-6652.293 -2131.975)" fill="#12263f"/>
      <path id="Trazado_197173" data-name="Trazado 197173" d="M7480.434,4801.705c.64.443,1.918.863,2.077,1.543.261,1.121.244,2.825-.437,3.56-3.715,4.01-7.576,7.9-11.623,11.575-.774.7-2.829.685-3.867.158-.677-.343-1.209-2.784-.736-3.3,4.148-4.5,8.527-8.778,12.879-13.082C7479.027,4801.865,7479.656,4801.9,7480.434,4801.705Z" transform="translate(-6652.293 -2131.975)" fill="#12263f"/>
    </g>
    <g id="Grupo_155303" data-name="Grupo 155303" transform="translate(1490.088 -11982.4)">
      <path id="Trazado_197171-2" data-name="Trazado 197171" d="M7474.738,4854.9v-6.811c-5.2,0-10.148-.1-15.092.034-3.436.093-4.7-1.338-4.677-4.767q.163-23.747.01-47.494c-.021-3.407,1.283-4.845,4.686-4.837q32.246.073,64.492,0c3.436-.006,4.727,1.673,4.718,4.948q-.066,23.747,0,47.5c.012,3.442-1.543,4.753-4.891,4.66-4.8-.133-9.611-.034-14.789-.034v6.8c4.9,0,9.856.093,14.8-.033,3.366-.086,4.942,1.285,4.867,4.7-.088,4,0,8-.026,12-.015,2.851-1.394,4.211-4.335,4.206q-32.747-.06-65.493-.006c-3.071,0-4.081-1.519-4.016-4.362.091-4,.138-8-.014-12-.136-3.583,1.609-4.64,4.9-4.54C7464.682,4855.01,7469.488,4854.9,7474.738,4854.9Zm-13.5-13.181h61.629c0-14.176-.025-27.968.017-41.759.01-3.481-2.442-2.937-4.537-2.939q-24.485-.03-48.97-.012h-8.139Zm61.263,19.431h-61.107v8.274H7522.5Zm-41.352-6.622h22.915c-1.548-2.767-2.441-6.048-3.59-6.14-6.362-.51-12.785-.244-19.325-.244Z" transform="translate(-6652.293 -2131.975)" fill="#12263f"/>
      <path id="Trazado_197172-2" data-name="Trazado 197172" d="M7494.778,4808.5a33.262,33.262,0,0,1-2.54,3.35c-5.6,5.664-11.136,11.4-16.988,16.8-1.159,1.069-3.6.752-5.441,1.075.394-1.724.233-3.968,1.277-5.085,5.55-5.936,11.337-11.658,17.213-17.274a7.034,7.034,0,0,1,4.324-1.442C7493.252,4805.9,7493.943,4807.449,7494.778,4808.5Z" transform="translate(-6652.293 -2131.975)" fill="#12263f"/>
      <path id="Trazado_197173-2" data-name="Trazado 197173" d="M7480.434,4801.705c.64.443,1.918.863,2.077,1.543.261,1.121.244,2.825-.437,3.56-3.715,4.01-7.576,7.9-11.623,11.575-.774.7-2.829.685-3.867.158-.677-.343-1.209-2.784-.736-3.3,4.148-4.5,8.527-8.778,12.879-13.082C7479.027,4801.865,7479.656,4801.9,7480.434,4801.705Z" transform="translate(-6652.293 -2131.975)" fill="#12263f"/>
    </g>
    <g id="Grupo_155301" data-name="Grupo 155301" transform="translate(1576.088 -11857.951)">
      <path id="Trazado_197171-3" data-name="Trazado 197171" d="M7474.738,4854.9v-6.811c-5.2,0-10.148-.1-15.092.034-3.436.093-4.7-1.338-4.677-4.767q.163-23.747.01-47.494c-.021-3.407,1.283-4.845,4.686-4.837q32.246.073,64.492,0c3.436-.006,4.727,1.673,4.718,4.948q-.066,23.747,0,47.5c.012,3.442-1.543,4.753-4.891,4.66-4.8-.133-9.611-.034-14.789-.034v6.8c4.9,0,9.856.093,14.8-.033,3.366-.086,4.942,1.285,4.867,4.7-.088,4,0,8-.026,12-.015,2.851-1.394,4.211-4.335,4.206q-32.747-.06-65.493-.006c-3.071,0-4.081-1.519-4.016-4.362.091-4,.138-8-.014-12-.136-3.583,1.609-4.64,4.9-4.54C7464.682,4855.01,7469.488,4854.9,7474.738,4854.9Zm-13.5-13.181h61.629c0-14.176-.025-27.968.017-41.759.01-3.481-2.442-2.937-4.537-2.939q-24.485-.03-48.97-.012h-8.139Zm61.263,19.431h-61.107v8.274H7522.5Zm-41.352-6.622h22.915c-1.548-2.767-2.441-6.048-3.59-6.14-6.362-.51-12.785-.244-19.325-.244Z" transform="translate(-6652.293 -2131.975)" fill="#12263f"/>
      <path id="Trazado_197172-3" data-name="Trazado 197172" d="M7494.778,4808.5a33.262,33.262,0,0,1-2.54,3.35c-5.6,5.664-11.136,11.4-16.988,16.8-1.159,1.069-3.6.752-5.441,1.075.394-1.724.233-3.968,1.277-5.085,5.55-5.936,11.337-11.658,17.213-17.274a7.034,7.034,0,0,1,4.324-1.442C7493.252,4805.9,7493.943,4807.449,7494.778,4808.5Z" transform="translate(-6652.293 -2131.975)" fill="#12263f"/>
      <path id="Trazado_197173-3" data-name="Trazado 197173" d="M7480.434,4801.705c.64.443,1.918.863,2.077,1.543.261,1.121.244,2.825-.437,3.56-3.715,4.01-7.576,7.9-11.623,11.575-.774.7-2.829.685-3.867.158-.677-.343-1.209-2.784-.736-3.3,4.148-4.5,8.527-8.778,12.879-13.082C7479.027,4801.865,7479.656,4801.9,7480.434,4801.705Z" transform="translate(-6652.293 -2131.975)" fill="#12263f"/>
    </g>
    <g id="Grupo_155302" data-name="Grupo 155302" transform="translate(1576.088 -11982.4)">
      <path id="Trazado_197171-4" data-name="Trazado 197171" d="M7474.738,4854.9v-6.811c-5.2,0-10.148-.1-15.092.034-3.436.093-4.7-1.338-4.677-4.767q.163-23.747.01-47.494c-.021-3.407,1.283-4.845,4.686-4.837q32.246.073,64.492,0c3.436-.006,4.727,1.673,4.718,4.948q-.066,23.747,0,47.5c.012,3.442-1.543,4.753-4.891,4.66-4.8-.133-9.611-.034-14.789-.034v6.8c4.9,0,9.856.093,14.8-.033,3.366-.086,4.942,1.285,4.867,4.7-.088,4,0,8-.026,12-.015,2.851-1.394,4.211-4.335,4.206q-32.747-.06-65.493-.006c-3.071,0-4.081-1.519-4.016-4.362.091-4,.138-8-.014-12-.136-3.583,1.609-4.64,4.9-4.54C7464.682,4855.01,7469.488,4854.9,7474.738,4854.9Zm-13.5-13.181h61.629c0-14.176-.025-27.968.017-41.759.01-3.481-2.442-2.937-4.537-2.939q-24.485-.03-48.97-.012h-8.139Zm61.263,19.431h-61.107v8.274H7522.5Zm-41.352-6.622h22.915c-1.548-2.767-2.441-6.048-3.59-6.14-6.362-.51-12.785-.244-19.325-.244Z" transform="translate(-6652.293 -2131.975)" fill="#12263f"/>
      <path id="Trazado_197172-4" data-name="Trazado 197172" d="M7494.778,4808.5a33.262,33.262,0,0,1-2.54,3.35c-5.6,5.664-11.136,11.4-16.988,16.8-1.159,1.069-3.6.752-5.441,1.075.394-1.724.233-3.968,1.277-5.085,5.55-5.936,11.337-11.658,17.213-17.274a7.034,7.034,0,0,1,4.324-1.442C7493.252,4805.9,7493.943,4807.449,7494.778,4808.5Z" transform="translate(-6652.293 -2131.975)" fill="#12263f"/>
      <path id="Trazado_197173-4" data-name="Trazado 197173" d="M7480.434,4801.705c.64.443,1.918.863,2.077,1.543.261,1.121.244,2.825-.437,3.56-3.715,4.01-7.576,7.9-11.623,11.575-.774.7-2.829.685-3.867.158-.677-.343-1.209-2.784-.736-3.3,4.148-4.5,8.527-8.778,12.879-13.082C7479.027,4801.865,7479.656,4801.9,7480.434,4801.705Z" transform="translate(-6652.293 -2131.975)" fill="#12263f"/>
    </g>
    <path id="Trazado_197364" data-name="Trazado 197364" d="M12.832,0H9.9L4.2-9.355V0H1.27V-14.219H4.2L9.912-4.844v-9.375h2.92Zm8.5,0a3.134,3.134,0,0,1-.283-.947A3.415,3.415,0,0,1,18.379.2a3.752,3.752,0,0,1-2.573-.9,2.89,2.89,0,0,1-1.021-2.266A2.986,2.986,0,0,1,16.03-5.547a6.144,6.144,0,0,1,3.6-.908h1.3v-.605a1.741,1.741,0,0,0-.376-1.172,1.479,1.479,0,0,0-1.187-.439,1.682,1.682,0,0,0-1.118.342,1.161,1.161,0,0,0-.405.938H15.02a2.835,2.835,0,0,1,.566-1.7,3.744,3.744,0,0,1,1.6-1.226,5.837,5.837,0,0,1,2.324-.444,4.611,4.611,0,0,1,3.1.981A3.433,3.433,0,0,1,23.76-7.021v4.58a5.052,5.052,0,0,0,.42,2.275V0ZM18.994-1.963a2.431,2.431,0,0,0,1.152-.278,1.828,1.828,0,0,0,.781-.747V-4.8H19.873q-2.119,0-2.256,1.465l-.01.166a1.13,1.13,0,0,0,.371.869A1.441,1.441,0,0,0,18.994-1.963ZM31.65-2.92a.909.909,0,0,0-.513-.815,5.824,5.824,0,0,0-1.646-.532q-3.77-.791-3.77-3.2A2.9,2.9,0,0,1,26.89-9.819a4.708,4.708,0,0,1,3.052-.942,5.067,5.067,0,0,1,3.218.947,2.985,2.985,0,0,1,1.206,2.461H31.543a1.366,1.366,0,0,0-.391-1,1.653,1.653,0,0,0-1.221-.4,1.689,1.689,0,0,0-1.1.322,1.017,1.017,0,0,0-.391.82.87.87,0,0,0,.444.757,4.571,4.571,0,0,0,1.5.5,12.244,12.244,0,0,1,1.777.474,2.92,2.92,0,0,1,2.236,2.842A2.756,2.756,0,0,1,33.154-.7a5.35,5.35,0,0,1-3.2.894,5.588,5.588,0,0,1-2.358-.474,3.957,3.957,0,0,1-1.616-1.3,3.018,3.018,0,0,1-.586-1.782h2.676a1.473,1.473,0,0,0,.557,1.152,2.208,2.208,0,0,0,1.387.4,2.044,2.044,0,0,0,1.226-.308A.957.957,0,0,0,31.65-2.92Zm17.1-.811A1.5,1.5,0,0,0,48.164-5a7.685,7.685,0,0,0-2.109-.937,14.953,14.953,0,0,1-2.412-.972,3.941,3.941,0,0,1-2.422-3.525A3.434,3.434,0,0,1,41.87-12.5a4.236,4.236,0,0,1,1.865-1.411,7.021,7.021,0,0,1,2.729-.508,6.39,6.39,0,0,1,2.715.552A4.323,4.323,0,0,1,51.03-12.3a4.076,4.076,0,0,1,.659,2.285H48.76a1.917,1.917,0,0,0-.615-1.519,2.529,2.529,0,0,0-1.729-.542,2.7,2.7,0,0,0-1.67.454,1.432,1.432,0,0,0-.6,1.2,1.372,1.372,0,0,0,.7,1.162,7.889,7.889,0,0,0,2.056.879,8.882,8.882,0,0,1,3.643,1.865A3.715,3.715,0,0,1,51.689-3.75a3.422,3.422,0,0,1-1.4,2.9A6.113,6.113,0,0,1,46.533.2a7.26,7.26,0,0,1-2.988-.6,4.729,4.729,0,0,1-2.056-1.646,4.214,4.214,0,0,1-.708-2.422h2.939q0,2.354,2.813,2.354a2.736,2.736,0,0,0,1.631-.425A1.382,1.382,0,0,0,48.75-3.73ZM58.35.2A5.187,5.187,0,0,1,54.565-1.23a5.068,5.068,0,0,1-1.46-3.8V-5.3a6.383,6.383,0,0,1,.615-2.847,4.515,4.515,0,0,1,1.743-1.934,4.893,4.893,0,0,1,2.573-.679A4.385,4.385,0,0,1,61.45-9.395,5.555,5.555,0,0,1,62.7-5.518v1.152H55.967a2.622,2.622,0,0,0,.825,1.66,2.5,2.5,0,0,0,1.743.625,3.046,3.046,0,0,0,2.549-1.182l1.387,1.553a4.237,4.237,0,0,1-1.719,1.4A5.639,5.639,0,0,1,58.35.2Zm-.322-8.682a1.764,1.764,0,0,0-1.362.569A2.946,2.946,0,0,0,56-6.289h3.926v-.226a2.1,2.1,0,0,0-.508-1.457A1.819,1.819,0,0,0,58.027-8.486Zm12.207.566A7.667,7.667,0,0,0,69.219-8a2.067,2.067,0,0,0-2.1,1.084V0H64.3V-10.566h2.666l.078,1.26a2.615,2.615,0,0,1,2.354-1.455,2.957,2.957,0,0,1,.879.127Zm5.488,4.473,1.963-7.119h2.949L77.07,0h-2.7L70.811-10.566H73.76ZM86.738.2A5.187,5.187,0,0,1,82.954-1.23a5.068,5.068,0,0,1-1.46-3.8V-5.3a6.383,6.383,0,0,1,.615-2.847,4.515,4.515,0,0,1,1.743-1.934,4.893,4.893,0,0,1,2.573-.679,4.385,4.385,0,0,1,3.413,1.367,5.555,5.555,0,0,1,1.245,3.877v1.152H84.355a2.622,2.622,0,0,0,.825,1.66,2.5,2.5,0,0,0,1.743.625,3.046,3.046,0,0,0,2.549-1.182l1.387,1.553a4.237,4.237,0,0,1-1.719,1.4A5.639,5.639,0,0,1,86.738.2Zm-.322-8.682a1.764,1.764,0,0,0-1.362.569,2.946,2.946,0,0,0-.669,1.628h3.926v-.226A2.1,2.1,0,0,0,87.8-7.971,1.819,1.819,0,0,0,86.416-8.486Zm12.207.566A7.667,7.667,0,0,0,97.607-8a2.067,2.067,0,0,0-2.1,1.084V0H92.686V-10.566h2.666l.078,1.26a2.615,2.615,0,0,1,2.354-1.455,2.957,2.957,0,0,1,.879.127Z" transform="translate(2105.764 -9064.158)" fill="#12263f"/>
    <path id="Trazado_197365" data-name="Trazado 197365" d="M7.859-4.93h-4.5v3.047H8.641V0H1.016V-11.375H8.625v1.9H3.359v2.711h4.5Zm4.711-5.6v2.078h1.445V-6.8H12.57v4.219a1.007,1.007,0,0,0,.18.672.9.9,0,0,0,.688.2,3.6,3.6,0,0,0,.664-.055V-.047a4.648,4.648,0,0,1-1.367.2,2.156,2.156,0,0,1-2.422-2.4V-6.8H9.078V-8.453h1.234v-2.078Zm4.906,3a2.818,2.818,0,0,1,2.258-1.078q2.75,0,2.789,3.2V0H20.266V-5.352a1.57,1.57,0,0,0-.312-1.074,1.34,1.34,0,0,0-1.039-.348,1.537,1.537,0,0,0-1.437.766V0H15.219V-12h2.258ZM28.117.156A4.15,4.15,0,0,1,25.09-.984a4.054,4.054,0,0,1-1.168-3.039v-.219a5.106,5.106,0,0,1,.492-2.277,3.612,3.612,0,0,1,1.395-1.547,3.914,3.914,0,0,1,2.059-.543A3.508,3.508,0,0,1,30.6-7.516a4.444,4.444,0,0,1,1,3.1v.922H26.211a2.1,2.1,0,0,0,.66,1.328,2,2,0,0,0,1.395.5A2.437,2.437,0,0,0,30.3-2.609l1.109,1.242A3.389,3.389,0,0,1,30.039-.246,4.511,4.511,0,0,1,28.117.156Zm-.258-6.945a1.411,1.411,0,0,0-1.09.455,2.357,2.357,0,0,0-.535,1.3h3.141v-.181a1.681,1.681,0,0,0-.406-1.165A1.456,1.456,0,0,0,27.859-6.789Zm9.766.453a6.134,6.134,0,0,0-.812-.062,1.654,1.654,0,0,0-1.68.867V0H32.875V-8.453h2.133l.063,1.008a2.092,2.092,0,0,1,1.883-1.164,2.366,2.366,0,0,1,.7.1Zm3.164-2.117.07.977a2.951,2.951,0,0,1,2.43-1.133,2.453,2.453,0,0,1,2,.789,3.682,3.682,0,0,1,.672,2.359V0H43.7V-5.406a1.465,1.465,0,0,0-.312-1.043,1.4,1.4,0,0,0-1.039-.324,1.553,1.553,0,0,0-1.43.813V0H38.664V-8.453ZM51.563.156A4.15,4.15,0,0,1,48.535-.984a4.054,4.054,0,0,1-1.168-3.039v-.219a5.106,5.106,0,0,1,.492-2.277,3.612,3.612,0,0,1,1.395-1.547,3.914,3.914,0,0,1,2.059-.543,3.508,3.508,0,0,1,2.73,1.094,4.444,4.444,0,0,1,1,3.1v.922H49.656a2.1,2.1,0,0,0,.66,1.328,2,2,0,0,0,1.395.5,2.437,2.437,0,0,0,2.039-.945l1.109,1.242A3.389,3.389,0,0,1,53.484-.246,4.511,4.511,0,0,1,51.563.156ZM51.3-6.789a1.411,1.411,0,0,0-1.09.455,2.357,2.357,0,0,0-.535,1.3H52.82v-.181a1.681,1.681,0,0,0-.406-1.165A1.456,1.456,0,0,0,51.3-6.789Zm7.719-3.742v2.078h1.445V-6.8H59.023v4.219a1.007,1.007,0,0,0,.18.672.9.9,0,0,0,.688.2,3.6,3.6,0,0,0,.664-.055V-.047a4.648,4.648,0,0,1-1.367.2,2.156,2.156,0,0,1-2.422-2.4V-6.8H55.531V-8.453h1.234v-2.078Z" transform="translate(2220.764 -9178.158)" fill="#12263f"/>
    <path id="Trazado_197369" data-name="Trazado 197369" d="M12.432-4.736a5.031,5.031,0,0,1-1.694,3.613A5.951,5.951,0,0,1,6.709.2a5.351,5.351,0,0,1-4.3-1.841A7.548,7.548,0,0,1,.84-6.7v-.869a8.523,8.523,0,0,1,.723-3.613,5.416,5.416,0,0,1,2.065-2.4,5.786,5.786,0,0,1,3.12-.835A5.8,5.8,0,0,1,10.713-13.1a5.407,5.407,0,0,1,1.738,3.7H9.521a2.97,2.97,0,0,0-.767-2,2.839,2.839,0,0,0-2.007-.62,2.489,2.489,0,0,0-2.192,1.05,5.883,5.883,0,0,0-.747,3.257v1.074a6.3,6.3,0,0,0,.7,3.369A2.443,2.443,0,0,0,6.709-2.2a2.892,2.892,0,0,0,2.026-.62A2.8,2.8,0,0,0,9.5-4.736ZM17.148,0H14.316V-15h2.832Zm5.3,0H19.619V-10.566h2.832Zm-3-13.3a1.39,1.39,0,0,1,.425-1.045,1.6,1.6,0,0,1,1.157-.41,1.6,1.6,0,0,1,1.152.41,1.382,1.382,0,0,1,.43,1.045,1.386,1.386,0,0,1-.435,1.055,1.6,1.6,0,0,1-1.147.41,1.6,1.6,0,0,1-1.147-.41A1.386,1.386,0,0,1,19.453-13.3ZM29.639.2A5.187,5.187,0,0,1,25.854-1.23a5.068,5.068,0,0,1-1.46-3.8V-5.3a6.383,6.383,0,0,1,.615-2.847,4.515,4.515,0,0,1,1.743-1.934,4.893,4.893,0,0,1,2.573-.679,4.385,4.385,0,0,1,3.413,1.367,5.555,5.555,0,0,1,1.245,3.877v1.152H27.256a2.622,2.622,0,0,0,.825,1.66,2.5,2.5,0,0,0,1.743.625,3.046,3.046,0,0,0,2.549-1.182L33.76-1.709a4.237,4.237,0,0,1-1.719,1.4A5.639,5.639,0,0,1,29.639.2Zm-.322-8.682a1.764,1.764,0,0,0-1.362.569,2.946,2.946,0,0,0-.669,1.628h3.926v-.226A2.1,2.1,0,0,0,30.7-7.971,1.819,1.819,0,0,0,29.316-8.486Zm8.867-2.08.088,1.221a3.689,3.689,0,0,1,3.037-1.416,3.066,3.066,0,0,1,2.5.986,4.6,4.6,0,0,1,.84,2.949V0H41.826V-6.758a1.831,1.831,0,0,0-.391-1.3,1.749,1.749,0,0,0-1.3-.405A1.942,1.942,0,0,0,38.35-7.451V0H35.527V-10.566Zm11.982-2.6v2.6h1.807V-8.5H50.166v5.273a1.259,1.259,0,0,0,.225.84,1.128,1.128,0,0,0,.859.254,4.5,4.5,0,0,0,.83-.068V-.059A5.81,5.81,0,0,1,50.371.2q-2.969,0-3.027-3V-8.5H45.8v-2.07h1.543v-2.6Z" transform="translate(2303.764 -9088.158)" fill="#12263f"/>
    <path id="Trazado_197366" data-name="Trazado 197366" d="M12.432-4.736a5.031,5.031,0,0,1-1.694,3.613A5.951,5.951,0,0,1,6.709.2a5.351,5.351,0,0,1-4.3-1.841A7.548,7.548,0,0,1,.84-6.7v-.869a8.523,8.523,0,0,1,.723-3.613,5.416,5.416,0,0,1,2.065-2.4,5.786,5.786,0,0,1,3.12-.835A5.8,5.8,0,0,1,10.713-13.1a5.407,5.407,0,0,1,1.738,3.7H9.521a2.97,2.97,0,0,0-.767-2,2.839,2.839,0,0,0-2.007-.62,2.489,2.489,0,0,0-2.192,1.05,5.883,5.883,0,0,0-.747,3.257v1.074a6.3,6.3,0,0,0,.7,3.369A2.443,2.443,0,0,0,6.709-2.2a2.892,2.892,0,0,0,2.026-.62A2.8,2.8,0,0,0,9.5-4.736ZM17.148,0H14.316V-15h2.832Zm5.3,0H19.619V-10.566h2.832Zm-3-13.3a1.39,1.39,0,0,1,.425-1.045,1.6,1.6,0,0,1,1.157-.41,1.6,1.6,0,0,1,1.152.41,1.382,1.382,0,0,1,.43,1.045,1.386,1.386,0,0,1-.435,1.055,1.6,1.6,0,0,1-1.147.41,1.6,1.6,0,0,1-1.147-.41A1.386,1.386,0,0,1,19.453-13.3ZM29.639.2A5.187,5.187,0,0,1,25.854-1.23a5.068,5.068,0,0,1-1.46-3.8V-5.3a6.383,6.383,0,0,1,.615-2.847,4.515,4.515,0,0,1,1.743-1.934,4.893,4.893,0,0,1,2.573-.679,4.385,4.385,0,0,1,3.413,1.367,5.555,5.555,0,0,1,1.245,3.877v1.152H27.256a2.622,2.622,0,0,0,.825,1.66,2.5,2.5,0,0,0,1.743.625,3.046,3.046,0,0,0,2.549-1.182L33.76-1.709a4.237,4.237,0,0,1-1.719,1.4A5.639,5.639,0,0,1,29.639.2Zm-.322-8.682a1.764,1.764,0,0,0-1.362.569,2.946,2.946,0,0,0-.669,1.628h3.926v-.226A2.1,2.1,0,0,0,30.7-7.971,1.819,1.819,0,0,0,29.316-8.486Zm8.867-2.08.088,1.221a3.689,3.689,0,0,1,3.037-1.416,3.066,3.066,0,0,1,2.5.986,4.6,4.6,0,0,1,.84,2.949V0H41.826V-6.758a1.831,1.831,0,0,0-.391-1.3,1.749,1.749,0,0,0-1.3-.405A1.942,1.942,0,0,0,38.35-7.451V0H35.527V-10.566Zm11.982-2.6v2.6h1.807V-8.5H50.166v5.273a1.259,1.259,0,0,0,.225.84,1.128,1.128,0,0,0,.859.254,4.5,4.5,0,0,0,.83-.068V-.059A5.81,5.81,0,0,1,50.371.2q-2.969,0-3.027-3V-8.5H45.8v-2.07h1.543v-2.6Z" transform="translate(2303.764 -9216.158)" fill="#12263f"/>
    <path id="Trazado_197368" data-name="Trazado 197368" d="M12.432-4.736a5.031,5.031,0,0,1-1.694,3.613A5.951,5.951,0,0,1,6.709.2a5.351,5.351,0,0,1-4.3-1.841A7.548,7.548,0,0,1,.84-6.7v-.869a8.523,8.523,0,0,1,.723-3.613,5.416,5.416,0,0,1,2.065-2.4,5.786,5.786,0,0,1,3.12-.835A5.8,5.8,0,0,1,10.713-13.1a5.407,5.407,0,0,1,1.738,3.7H9.521a2.97,2.97,0,0,0-.767-2,2.839,2.839,0,0,0-2.007-.62,2.489,2.489,0,0,0-2.192,1.05,5.883,5.883,0,0,0-.747,3.257v1.074a6.3,6.3,0,0,0,.7,3.369A2.443,2.443,0,0,0,6.709-2.2a2.892,2.892,0,0,0,2.026-.62A2.8,2.8,0,0,0,9.5-4.736ZM17.148,0H14.316V-15h2.832Zm5.3,0H19.619V-10.566h2.832Zm-3-13.3a1.39,1.39,0,0,1,.425-1.045,1.6,1.6,0,0,1,1.157-.41,1.6,1.6,0,0,1,1.152.41,1.382,1.382,0,0,1,.43,1.045,1.386,1.386,0,0,1-.435,1.055,1.6,1.6,0,0,1-1.147.41,1.6,1.6,0,0,1-1.147-.41A1.386,1.386,0,0,1,19.453-13.3ZM29.639.2A5.187,5.187,0,0,1,25.854-1.23a5.068,5.068,0,0,1-1.46-3.8V-5.3a6.383,6.383,0,0,1,.615-2.847,4.515,4.515,0,0,1,1.743-1.934,4.893,4.893,0,0,1,2.573-.679,4.385,4.385,0,0,1,3.413,1.367,5.555,5.555,0,0,1,1.245,3.877v1.152H27.256a2.622,2.622,0,0,0,.825,1.66,2.5,2.5,0,0,0,1.743.625,3.046,3.046,0,0,0,2.549-1.182L33.76-1.709a4.237,4.237,0,0,1-1.719,1.4A5.639,5.639,0,0,1,29.639.2Zm-.322-8.682a1.764,1.764,0,0,0-1.362.569,2.946,2.946,0,0,0-.669,1.628h3.926v-.226A2.1,2.1,0,0,0,30.7-7.971,1.819,1.819,0,0,0,29.316-8.486Zm8.867-2.08.088,1.221a3.689,3.689,0,0,1,3.037-1.416,3.066,3.066,0,0,1,2.5.986,4.6,4.6,0,0,1,.84,2.949V0H41.826V-6.758a1.831,1.831,0,0,0-.391-1.3,1.749,1.749,0,0,0-1.3-.405A1.942,1.942,0,0,0,38.35-7.451V0H35.527V-10.566Zm11.982-2.6v2.6h1.807V-8.5H50.166v5.273a1.259,1.259,0,0,0,.225.84,1.128,1.128,0,0,0,.859.254,4.5,4.5,0,0,0,.83-.068V-.059A5.81,5.81,0,0,1,50.371.2q-2.969,0-3.027-3V-8.5H45.8v-2.07h1.543v-2.6Z" transform="translate(2389.764 -9088.158)" fill="#12263f"/>
    <path id="Trazado_197367" data-name="Trazado 197367" d="M12.432-4.736a5.031,5.031,0,0,1-1.694,3.613A5.951,5.951,0,0,1,6.709.2a5.351,5.351,0,0,1-4.3-1.841A7.548,7.548,0,0,1,.84-6.7v-.869a8.523,8.523,0,0,1,.723-3.613,5.416,5.416,0,0,1,2.065-2.4,5.786,5.786,0,0,1,3.12-.835A5.8,5.8,0,0,1,10.713-13.1a5.407,5.407,0,0,1,1.738,3.7H9.521a2.97,2.97,0,0,0-.767-2,2.839,2.839,0,0,0-2.007-.62,2.489,2.489,0,0,0-2.192,1.05,5.883,5.883,0,0,0-.747,3.257v1.074a6.3,6.3,0,0,0,.7,3.369A2.443,2.443,0,0,0,6.709-2.2a2.892,2.892,0,0,0,2.026-.62A2.8,2.8,0,0,0,9.5-4.736ZM17.148,0H14.316V-15h2.832Zm5.3,0H19.619V-10.566h2.832Zm-3-13.3a1.39,1.39,0,0,1,.425-1.045,1.6,1.6,0,0,1,1.157-.41,1.6,1.6,0,0,1,1.152.41,1.382,1.382,0,0,1,.43,1.045,1.386,1.386,0,0,1-.435,1.055,1.6,1.6,0,0,1-1.147.41,1.6,1.6,0,0,1-1.147-.41A1.386,1.386,0,0,1,19.453-13.3ZM29.639.2A5.187,5.187,0,0,1,25.854-1.23a5.068,5.068,0,0,1-1.46-3.8V-5.3a6.383,6.383,0,0,1,.615-2.847,4.515,4.515,0,0,1,1.743-1.934,4.893,4.893,0,0,1,2.573-.679,4.385,4.385,0,0,1,3.413,1.367,5.555,5.555,0,0,1,1.245,3.877v1.152H27.256a2.622,2.622,0,0,0,.825,1.66,2.5,2.5,0,0,0,1.743.625,3.046,3.046,0,0,0,2.549-1.182L33.76-1.709a4.237,4.237,0,0,1-1.719,1.4A5.639,5.639,0,0,1,29.639.2Zm-.322-8.682a1.764,1.764,0,0,0-1.362.569,2.946,2.946,0,0,0-.669,1.628h3.926v-.226A2.1,2.1,0,0,0,30.7-7.971,1.819,1.819,0,0,0,29.316-8.486Zm8.867-2.08.088,1.221a3.689,3.689,0,0,1,3.037-1.416,3.066,3.066,0,0,1,2.5.986,4.6,4.6,0,0,1,.84,2.949V0H41.826V-6.758a1.831,1.831,0,0,0-.391-1.3,1.749,1.749,0,0,0-1.3-.405A1.942,1.942,0,0,0,38.35-7.451V0H35.527V-10.566Zm11.982-2.6v2.6h1.807V-8.5H50.166v5.273a1.259,1.259,0,0,0,.225.84,1.128,1.128,0,0,0,.859.254,4.5,4.5,0,0,0,.83-.068V-.059A5.81,5.81,0,0,1,50.371.2q-2.969,0-3.027-3V-8.5H45.8v-2.07h1.543v-2.6Z" transform="translate(2389.764 -9216.158)" fill="#12263f"/>
    <path id="Trazado_197180" data-name="Trazado 197180" d="M7150.517,4884.792l-7.388-12.831c-2.024,1.127-3.83,2.186-5.684,3.154-3.313,1.73-5.363.581-5.218-3.04.378-9.466.993-18.926,1.691-28.376.226-3.061,2.156-3.983,4.928-2.6,8.324,4.148,16.663,8.271,24.917,12.557,3.232,1.679,3.336,3.951.294,6.073-1.624,1.132-3.386,2.067-5.557,3.374l7.212,12.676a23.636,23.636,0,0,1,2.518-1.1c2.407-.707,4.833-1.347,7.252-2.013.375,2.356,1.142,4.729,1.052,7.067-.3,7.806-.942,15.6-1.391,23.4-.247,4.311-2.234,5.147-5.914,3.272-7.842-3.995-15.758-7.847-23.567-11.9-4.034-2.1-3.96-4.249.012-6.772C7147.068,4886.841,7148.5,4886.012,7150.517,4884.792Zm-12.052-17.12c5.722-4.484,8.359-2.285,10.518,2.239,1.712,3.588,3.941,6.928,5.929,10.385,3.627,6.308,3.624,6.31-2.3,11.006l17.142,8.611V4881.5c-6.5,2.048-6.5,2.047-10.283-4.5-1.662-2.878-3.341-5.746-5-8.626-3.869-6.713-3.866-6.714,1.684-11.855l-16.544-8.32C7139.217,4854.851,7138.879,4860.613,7138.465,4867.672Z" transform="translate(-5546.193 -5460.8) rotate(-60)" fill="#12263f"/>
  </g>
</svg>
