<svg id="Grupo_155315" data-name="Grupo 155315" xmlns="http://www.w3.org/2000/svg" xmlns:xlink="http://www.w3.org/1999/xlink" width="67.321" height="67.321" viewBox="0 0 67.321 67.321">
  <defs>
    <radialGradient id="radial-gradient" cx="0.076" cy="0.019" r="1.465" gradientTransform="translate(0.001)" gradientUnits="objectBoundingBox">
      <stop offset="0" stop-color="#f6f6f7"/>
      <stop offset="0.477" stop-color="#f9f9fa"/>
      <stop offset="0.715" stop-color="#fff"/>
    </radialGradient>
  </defs>
  <g id="Grupo_18423" data-name="Grupo 18423" transform="translate(0 0)">
    <g id="Grupo_18421" data-name="Grupo 18421">
      <g id="Grupo_18420" data-name="Grupo 18420">
        <g id="Grupo_18419" data-name="Grupo 18419">
          <path id="Trazado_40936" data-name="Trazado 40936" d="M261.944,2179.381a33.661,33.661,0,1,1-33.66-33.659A33.66,33.66,0,0,1,261.944,2179.381Z" transform="translate(-194.623 -2145.721)" fill="#fff"/>
        </g>
      </g>
    </g>
    <path id="Trazado_40937" data-name="Trazado 40937" d="M261.938,2179.375a33.66,33.66,0,1,0-33.66,33.661A33.528,33.528,0,0,0,261.938,2179.375Z" transform="translate(-194.617 -2145.715)" fill="url(#radial-gradient)"/>
    <path id="Trazado_40938" data-name="Trazado 40938" d="M254.018,2179.432a25.693,25.693,0,1,0-25.693,25.693A25.6,25.6,0,0,0,254.018,2179.432Z" transform="translate(-194.563 -2145.66)" fill="none" stroke="#2ec49f" stroke-miterlimit="10" stroke-width="4"/>
    <g id="Grupo_18422" data-name="Grupo 18422" transform="translate(5.963 18.898)">
      <path id="Trazado_40939" data-name="Trazado 40939" d="M258.5,2164.488a33.665,33.665,0,0,1-57.954,33.521,33.558,33.558,0,0,0,57.954-33.521Z" transform="translate(-200.545 -2164.488)" fill="#eceef0"/>
    </g>
  </g>
  <g id="_83oj6T" data-name="83oj6T" transform="translate(21.014 20.37)">
    <g id="Grupo_143141" data-name="Grupo 143141">
      <path id="Trazado_184357" data-name="Trazado 184357" d="M2875.464-2072.143c.74-1.825,1.4-2.265,3.4-2.265,1.295,0,2.589,0,3.884,0,.4,0,.778.057.777.564s-.365.586-.769.587c-1.459,0-2.918,0-4.377,0a1.63,1.63,0,0,0-1.774,1.759q-.012,8.6,0,17.2a1.737,1.737,0,0,0,1.8,1.857c5.281.015,10.562.007,15.843,0a2.859,2.859,0,0,0,.322-.046v-.657c0-1.336-.011-2.671,0-4.007a2.82,2.82,0,0,1,2.782-2.8c.554-.01,1.11.009,1.664-.006.411-.01.724.138.711.569s-.326.575-.733.567q-.771-.015-1.541,0a1.7,1.7,0,0,0-1.753,1.753c-.013,1.21,0,2.421,0,3.718a4.219,4.219,0,0,0,.368-.285c1.891-1.887,3.787-3.769,5.656-5.677a1.34,1.34,0,0,0,.343-.85c.023-3.7.008-7.4.03-11.1a.963.963,0,0,1,.334-.75c.185-.088.519.139.788.227v12.583l-7.9,7.895H2877.93a3.136,3.136,0,0,1-2.467-2.467Z" transform="translate(-2875.464 2079.052)" fill="#12263f"/>
      <path id="Trazado_184358" data-name="Trazado 184358" d="M2958.79-2112.042a1.434,1.434,0,0,1,.87,1.532c-.035.962,0,1.927-.011,2.891a1.211,1.211,0,0,1-1.361,1.368q-3.261.014-6.521,0a1.212,1.212,0,0,1-1.36-1.369c-.008-.964.026-1.929-.011-2.891a1.432,1.432,0,0,1,.87-1.531Zm-7.225,4.6h6.9v-3.429h-6.9Z" transform="translate(-2941.15 2112.042)" fill="#12263f"/>
      <path id="Trazado_184359" data-name="Trazado 184359" d="M2955.073-2049.991c-1.088,0-2.176,0-3.264,0-.926-.006-1.345-.429-1.352-1.363-.007-1.027-.009-2.053,0-3.079a1.174,1.174,0,0,1,1.332-1.322q3.294-.012,6.589,0a1.174,1.174,0,0,1,1.32,1.334c.009,1.047.011,2.094,0,3.141a1.16,1.16,0,0,1-1.3,1.288C2957.29-2049.984,2956.182-2049.992,2955.073-2049.991Zm3.467-1.168v-3.418h-6.921v3.418Z" transform="translate(-2941.201 2062.706)" fill="#12263f"/>
      <path id="Trazado_184360" data-name="Trazado 184360" d="M2955.03-1993.6c-1.108,0-2.216.008-3.325,0a1.131,1.131,0,0,1-1.258-1.257q-.02-1.6,0-3.2a1.119,1.119,0,0,1,1.24-1.268q3.386-.014,6.772,0a1.109,1.109,0,0,1,1.227,1.219q.023,1.631,0,3.262a1.134,1.134,0,0,1-1.271,1.245C2957.287-1993.6,2956.158-1993.6,2955.03-1993.6Zm-3.418-4.571v3.389h6.9v-3.389Z" transform="translate(-2941.189 2013.242)" fill="#12263f"/>
      <path id="Trazado_184361" data-name="Trazado 184361" d="M3036.888-2084.943a6.575,6.575,0,0,1,.687.486c.282.256.364.623.034.839a.85.85,0,0,1-.8-.04,21.82,21.82,0,0,1-1.667-1.64.572.572,0,0,1,.017-.875c.549-.555,1.078-1.134,1.672-1.636.165-.139.529-.044.8-.056a2.051,2.051,0,0,1-.029.815c-.115.235-.414.38-.633.564l.077.172c.682,0,1.368.037,2.044-.025a.722.722,0,0,0,.456-.531c.038-1.539.028-3.08.02-4.62,0-.478-.311-.617-.742-.614-1.047.008-2.095,0-3.142,0-.434,0-.776-.154-.692-.624a.778.778,0,0,1,.568-.481c1.21-.043,2.424-.046,3.634-.007a1.552,1.552,0,0,1,1.492,1.523q.044,2.494,0,4.99a1.567,1.567,0,0,1-1.56,1.518c-.677.021-1.354.016-2.031.025-.012,0-.022.031-.034.047Z" transform="translate(-3015.274 2095.558)" fill="#12263f"/>
      <path id="Trazado_184362" data-name="Trazado 184362" d="M2897.987-2028.967c-.587,0-1.173,0-1.76,0a1.669,1.669,0,0,1-1.9-1.878c-.005-1.458-.008-2.916,0-4.374a1.668,1.668,0,0,1,1.794-1.816c1.047-.012,2.095,0,3.142,0,.4,0,.783.068.793.557.011.542-.393.58-.819.575-.985-.011-1.972.007-2.957-.008-.556-.008-.84.2-.833.792q.025,2.125,0,4.251c-.007.55.22.792.771.774.573-.019,1.147,0,1.878,0-.277-.288-.469-.482-.654-.68-.258-.276-.362-.629-.034-.848a.85.85,0,0,1,.8.031,21.676,21.676,0,0,1,1.669,1.637.6.6,0,0,1-.042.927c-.518.527-1.039,1.052-1.566,1.569-.285.279-.62.373-.917.049a.556.556,0,0,1,.115-.862c.2-.174.43-.314.647-.469Z" transform="translate(-2891.994 2046.293)" fill="#12263f"/>
      <path id="Trazado_184363" data-name="Trazado 184363" d="M2903.628-1938.51c1.087,0,2.174-.009,3.26,0,.952.01,1.321.4,1.329,1.356.015,1.95-.117,2.082-2.084,2.082-1.887,0-3.773,0-5.66,0-1.1,0-1.458-.369-1.466-1.483,0-.185,0-.369,0-.554.013-1.021.387-1.4,1.421-1.4C2901.5-1938.516,2902.561-1938.51,2903.628-1938.51Zm-3.437,2.243h6.859v-1.067h-6.859Z" transform="translate(-2896.102 1959.919)" fill="#12263f"/>
      <path id="Trazado_184364" data-name="Trazado 184364" d="M2985.434-1937.345c-.431,0-.862,0-1.292,0-.369,0-.662-.146-.676-.554s.266-.575.642-.578q1.354-.01,2.708,0c.378,0,.648.157.637.577s-.293.554-.665.557C2986.337-1937.342,2985.885-1937.345,2985.434-1937.345Z" transform="translate(-2970.143 1959.893)" fill="#12263f"/>
      <path id="Trazado_184365" data-name="Trazado 184365" d="M2984.425-1918.8c-.478,0-.913-.016-.916-.558,0-.521.407-.591.829-.6s.835.069.848.58C2985.2-1918.837,2984.773-1918.791,2984.425-1918.8Z" transform="translate(-2970.18 1943.65)" fill="#12263f"/>
      <path id="Trazado_184366" data-name="Trazado 184366" d="M3003.15-1918.782c-.414,0-.826-.041-.8-.592s.442-.56.848-.561.82.071.805.6C3003.985-1918.78,3003.551-1918.786,3003.15-1918.782Z" transform="translate(-2986.693 1943.633)" fill="#12263f"/>
    </g>
  </g>
</svg>
