<svg xmlns="http://www.w3.org/2000/svg" width="866.012" height="331.456" viewBox="0 0 866.012 331.456">
  <g id="Grupo_155379" data-name="Grupo 155379" transform="translate(-305.581 -959.253)">
    <g id="Grupo_155365" data-name="Grupo 155365" transform="translate(982.01 1029.446)">
      <g id="Grupo_155296" data-name="Grupo 155296" transform="translate(36.411 196.07)">
        <text id="Database" transform="translate(0 21)" fill="#12263f" font-size="23" font-family="Roboto-Bold, Roboto" font-weight="700"><tspan x="0" y="0">Database</tspan></text>
      </g>
      <g id="_14590S.tif" data-name="14590S.tif" transform="translate(0 0)">
        <g id="Grupo_155297" data-name="Grupo 155297" transform="translate(0 0)">
          <path id="Trazado_197168" data-name="Trazado 197168" d="M6108.29,7690.441c2.627.254,5.255.5,7.882.761,15.4,1.554,30.415,4.6,44.254,11.912,5.778,3.055,10.975,6.867,14.622,12.451a19.27,19.27,0,0,1,3.24,10.8c-.027,11.347-.016,22.692-.04,34.039a8.251,8.251,0,0,1-.28,2.541,3.9,3.9,0,0,1-7.561-1.394c-.054-5.734-.026-11.469-.031-17.2v-1.95c-3.356,2.182-6.421,4.449-9.731,6.275-10.193,5.625-21.294,8.564-32.675,10.534a167.082,167.082,0,0,1-35.173,2.2c-17.2-.682-34.1-3.183-49.926-10.373-5.043-2.291-9.686-5.464-14.523-8.241,0,3.521.305,7.462-.066,11.338-.674,7.028,2.743,11.745,7.994,15.61,7.625,5.611,16.372,8.663,25.41,10.987a155.464,155.464,0,0,0,37.324,4.435,3.951,3.951,0,0,1,4.044,2.6,3.649,3.649,0,0,1-1.319,4.435,5.327,5.327,0,0,1-2.742.852c-17.407-.085-34.5-2.181-50.946-8.235-7.531-2.771-12.38-5.5-19.567-11.071-.052.64-.126,1.143-.127,1.646-.009,5.117.219,10.249-.065,15.351-.309,5.548,2.112,9.595,6.085,13.009,4.88,4.194,10.573,6.957,16.547,9.171a125.916,125.916,0,0,0,34.03,7.1c.921.073,1.839.189,2.758.293a3.96,3.96,0,0,1,3.764,4.2,3.848,3.848,0,0,1-4.3,3.632c-4.9-.434-9.817-.86-14.681-1.592-10.622-1.6-21.026-4.143-30.713-8.9-4.612-2.266-8.913-5.164-13.35-7.774a8.713,8.713,0,0,0-.079,1.045c-.008,5.551.071,11.1-.034,16.65a12.827,12.827,0,0,0,3.1,8.661c3.566,4.343,8.255,7.173,13.227,9.553a96.552,96.552,0,0,0,27.672,8.172c6.141.917,12.354,1.357,18.538,1.971,1.816.18,3.422.642,4.192,2.488a3.452,3.452,0,0,1-.644,4.106,4.881,4.881,0,0,1-3.043,1.379c-18.648-.892-36.841-3.842-53.591-12.714a39.326,39.326,0,0,1-13.206-10.8,23.6,23.6,0,0,1-4.333-10.812V7724.855a24.877,24.877,0,0,1,3.67-9.749,36.55,36.55,0,0,1,11.917-10.6c13.33-7.8,28.04-11.058,43.152-12.919,3.84-.474,7.7-.767,11.557-1.144Zm-9.077,63.529c7.845-.684,15.711-1.175,23.528-2.1a101.751,101.751,0,0,0,29.3-7.793c5.781-2.552,11.289-5.582,15.33-10.637,3.967-4.964,3.932-10.017-.041-14.993-3.629-4.547-8.5-7.446-13.667-9.85-12.724-5.92-26.287-8.484-40.148-9.627a168.4,168.4,0,0,0-34.672.659c-10.662,1.326-21.085,3.562-31.026,7.732-5.828,2.444-11.35,5.4-15.689,10.149-5,5.475-5.023,11.331-.083,16.819.536.595,1.1,1.167,1.69,1.706,5.665,5.181,12.5,8.233,19.649,10.658C6068.227,7751.733,6083.583,7753.463,6099.212,7753.971Z" transform="translate(-6020.235 -7690.441)" fill="#12263f"/>
          <path id="Trazado_197169" data-name="Trazado 197169" d="M6295.037,7993.635c-8.614,12.379-23.861,12.5-32.7,4.725a21.761,21.761,0,1,1,30.485-30.944,10.675,10.675,0,0,0,1.085-.507c6.707-4.021,13.4-8.069,20.124-12.054a1.663,1.663,0,0,0,.9-2.317c-3.531-12.694,4.081-25.189,17.084-27.463,15.673-2.74,25.3,10.489,25.444,20.774.15,10.668-7.922,20.62-18.417,22.04a21.53,21.53,0,0,1-17.792-5.313c-.556-.483-1.084-1-1.63-1.491-.041-.037-.117-.033-.367-.1l-22.293,13.371a24.618,24.618,0,0,1,1.142,10.943,1.689,1.689,0,0,0,.882,1.3c5.8,2.382,11.638,4.672,17.443,7.042,1.223.5,1.49-.425,1.971-1.062a21.8,21.8,0,0,1,33.592-1.417,22.248,22.248,0,0,1,2.782,24.989c-4.448,7.91-13.685,12.532-22.075,10.994-9.876-1.812-16.936-8.672-18.293-17.992a64.987,64.987,0,0,1-.155-6.6c-.021-.5-.268-1.284-.621-1.429C6307.438,7998.572,6301.221,7996.106,6295.037,7993.635Zm27,11.959a13.671,13.671,0,0,0,13.642,13.8,13.786,13.786,0,1,0-13.642-13.8Zm0-59.092a13.755,13.755,0,0,0,27.511-.065,13.756,13.756,0,1,0-27.511.065Zm-59.195,35.362a13.753,13.753,0,0,0,27.5.261,13.9,13.9,0,0,0-13.745-13.984A13.753,13.753,0,0,0,6262.837,7981.864Z" transform="translate(-6167.874 -7837.874)" fill="#12263f"/>
        </g>
      </g>
    </g>
    <g id="_668BKT" data-name="668BKT" transform="translate(505.64 1018.701)">
      <g id="Grupo_155373" data-name="Grupo 155373" transform="translate(0 0)">
        <path id="Trazado_197267" data-name="Trazado 197267" d="M7998.03,4401.154h-88.171c-14.3-3.648-19.121-13.261-18.937-26.686.479-34.683.161-69.376.161-104.065,0-21.481.057-42.961-.028-64.441-.031-7.585,2.671-13.832,8.872-18.111,2.944-2.032,6.6-3.037,9.932-4.506h88.171c14.25,3.632,19.032,13.215,18.934,26.691-.385,52.71-.156,105.424-.158,158.137,0,4.074.057,8.15-.048,12.22-.169,6.424-2.761,11.871-7.941,15.547C8005.605,4398.219,8001.651,4399.452,7998.03,4401.154Zm13.555-183.531H7896.27v141.6h50.618c-4.274-6.111-8.456-11.594-12.058-17.436a26.829,26.829,0,0,1-4.086-10.395c-.661-5.54,3.943-8.312,9.04-5.931a28.275,28.275,0,0,1,4.553,3.1c1.424,1.051,2.787,2.188,4.767,3.752,0-9.667-.091-18.41.032-27.149.08-5.63,3.854-9.808,8.515-9.837,4.538-.028,8.294,3.888,8.65,9.32.207,3.169.037,6.362.037,9.645,4,.243,7.449.579,9.094,4.461a2.219,2.219,0,0,0,1.812.852c4.338-.288,7.063,1.66,8.224,5.714,7.427.793,9.507,2.058,9.973,8.494.587,8.134,1.9,16.536-2.6,24.211a3.322,3.322,0,0,0-.129,1.311h18.873Zm.662,147.229H7895.92c0,4.045-.044,7.842.021,11.638a34.541,34.541,0,0,0,.438,5.149c1.345,8.009,8.007,14.178,16.08,14.217q41.48.205,82.963.007c7.431-.032,14.641-5.708,15.756-12.775C8012.108,4377.194,8011.923,4371.123,8012.247,4364.853Zm-.6-152.836c2.253-15.562-7.228-23.918-20.311-23.628-25.538.565-51.1.153-76.652.171-13.139.009-21.281,10.444-18.193,23.457Zm-26.3,117.639a29.923,29.923,0,0,1-.1,5.431c-.169.9-1.346,1.613-2.067,2.411-.5-.831-1.355-1.632-1.425-2.5-.184-2.329.049-4.688-.028-7.03-.127-3.956-1.182-4.768-5.937-4.291a53.7,53.7,0,0,1-.09,6.495c-.1.813-1.209,1.5-1.859,2.251-.579-.795-1.588-1.554-1.66-2.392-.208-2.449.059-4.933-.047-7.4-.168-3.934-1.278-4.712-5.788-4.009a26.153,26.153,0,0,1-.064,4.675,18.6,18.6,0,0,1-1.6,3.83c-.651-1.345-1.81-2.669-1.864-4.038-.218-5.425-.052-10.863-.1-16.3-.046-4.765-2.054-7.791-5.046-7.8s-4.96,2.981-4.976,7.8c-.031,10.248-.007,20.5-.015,30.744a7.953,7.953,0,0,1-.178,2.926c-.319.759-1.265,1.254-1.935,1.868a9.224,9.224,0,0,1-1.483-2.173c-.335-1.017.108-2.626-.5-3.157a92.6,92.6,0,0,0-10.438-8.212c-2.3-1.481-4.3-.047-3.823,2.72a20.088,20.088,0,0,0,2.87,7.417c4.109,6.292,8.478,12.421,12.947,18.465a5.57,5.57,0,0,0,3.856,1.969c10.371.159,20.747.176,31.116-.019a5.549,5.549,0,0,0,3.92-2.367c4.677-7.718,3.393-16.149,2.287-24.441C7990.915,4329.547,7988.585,4328.746,7985.34,4329.656Z" transform="translate(-7890.918 -4183.344)" fill="#12263f"/>
        <path id="Trazado_197268" data-name="Trazado 197268" d="M7910.492,4254.668c0-11.84.343-12.181,12.22-12.181,11.585,0,11.983.4,11.983,12.11,0,11.841-.333,12.171-12.284,12.171C7910.9,4266.768,7910.492,4266.355,7910.492,4254.668Z" transform="translate(-7895.99 -4198.671)" fill="#12263f"/>
        <path id="Trazado_197269" data-name="Trazado 197269" d="M7910.492,4303.328c0-11.419.534-11.945,12.138-11.945,11.557,0,12.065.51,12.065,12.074,0,11.935-.313,12.25-12.194,12.25C7910.825,4315.707,7910.492,4315.363,7910.492,4303.328Z" transform="translate(-7895.99 -4211.343)" fill="#12263f"/>
        <path id="Trazado_197270" data-name="Trazado 197270" d="M8033.026,4303.936c0,11.318-.457,11.771-11.875,11.771-12.091,0-12.329-.24-12.329-12.481,0-11.31.536-11.842,11.927-11.842C8032.626,4291.383,8033.026,4291.791,8033.026,4303.936Z" transform="translate(-7921.473 -4211.343)" fill="#12263f"/>
        <path id="Trazado_197271" data-name="Trazado 197271" d="M8020.952,4266.768c-11.8,0-12.13-.335-12.13-12.318,0-11.558.411-11.962,12.128-11.962,11.645,0,12.076.425,12.076,11.958,0,1.479,0,2.959,0,4.438-.019,5.969-1.946,7.866-8,7.883C8023.666,4266.771,8022.309,4266.768,8020.952,4266.768Z" transform="translate(-7921.473 -4198.671)" fill="#12263f"/>
        <path id="Trazado_197272" data-name="Trazado 197272" d="M7971.5,4266.768c-11.315,0-11.934-.612-11.934-11.814,0-12.075.388-12.466,12.4-12.466,11.342,0,11.938.589,11.938,11.826C7983.905,4266.361,7983.5,4266.768,7971.5,4266.768Z" transform="translate(-7908.708 -4198.671)" fill="#12263f"/>
        <path id="Trazado_197273" data-name="Trazado 197273" d="M7971.5,4315.707c-11.351,0-11.93-.573-11.93-11.812,0-12.024.481-12.511,12.406-12.511,11.243,0,11.934.686,11.934,11.876C7983.905,4315.334,7983.534,4315.707,7971.5,4315.707Z" transform="translate(-7908.708 -4211.343)" fill="#12263f"/>
        <path id="Trazado_197274" data-name="Trazado 197274" d="M7970.93,4451.643c-3.69,0-7.4.2-11.061-.115-1.18-.1-2.242-1.571-3.357-2.416,1.108-.895,2.2-2.531,3.33-2.565q11.43-.344,22.871.008c1.1.034,2.14,1.752,3.208,2.691-1.061.8-2.077,2.2-3.19,2.284C7978.814,4451.813,7974.865,4451.64,7970.93,4451.643Z" transform="translate(-7907.917 -4251.509)" fill="#12263f"/>
        <path id="Trazado_197275" data-name="Trazado 197275" d="M7955.51,4208.829c-2.8-.2-4.586-1.757-3.923-4.247a6.157,6.157,0,0,1,3.88-3.852c2.337-.42,4.149,1.382,4.118,4.029C7959.553,4207.377,7957.953,4208.685,7955.51,4208.829Z" transform="translate(-7906.604 -4187.834)" fill="#12263f"/>
        <path id="Trazado_197276" data-name="Trazado 197276" d="M7978.767,4203.493c-.242,3.888-1.67,5.338-4.278,5.3a3.668,3.668,0,0,1-4-3.852c-.1-2.7,1.592-4.473,3.949-4.228C7976.145,4200.9,7977.671,4202.741,7978.767,4203.493Z" transform="translate(-7911.539 -4187.841)" fill="#12263f"/>
        <path id="Trazado_197277" data-name="Trazado 197277" d="M7993.73,4208.828c-2.455-.1-4.1-1.333-4.182-3.977s1.706-4.481,4.039-4.122a6.141,6.141,0,0,1,3.955,3.774C7998.247,4206.959,7996.532,4208.59,7993.73,4208.828Z" transform="translate(-7916.478 -4187.838)" fill="#12263f"/>
      </g>
    </g>
    <g id="Grupo_155366" data-name="Grupo 155366" transform="translate(487.412 1018.701) rotate(90)">
      <path id="Trazado_197278" data-name="Trazado 197278" d="M40.148,37.694c-2.992,5.128-5.85,10.028-8.689,14.893.823.742,1.268,1.128,1.7,1.532q3.681,3.464,7.357,6.938c-2.784,2.024-5.387,4.383-8.388,6.006-7.167,3.872-14.5,7.434-21.807,11.053-6.774,3.359-8.218,2.545-8.732-5.2Q.631,58.621.026,44.3c-.286-6.737,1.767-7.956,7.661-4.831,1.561.828,3.107,1.677,5.3,2.861,2.931-5.079,5.758-9.981,8.739-15.146a29.73,29.73,0,0,1-3.684-2.5c-1.9-1.777-3.644-3.719-5.453-5.592,1.85-1.613,3.477-3.646,5.587-4.764C26.434,9.966,34.83,5.862,43.2,1.71c6.246-3.1,7.763-2.217,8.146,4.554.563,9.933,1.258,19.861,1.628,29.8.07,1.914-.586,4.472-1.889,5.6-.852.74-3.547-.36-5.278-1A51.013,51.013,0,0,1,40.148,37.694ZM29.011,60.632c-7.44-5.309-7.443-5.31-3.4-12.352,2.381-4.146,5.071-8.146,7.085-12.462,2.683-5.747,5.964-8.881,13.047-3.576-.529-8.206-.978-15.181-1.485-23.047L24.235,19.35c2.967,2.96,8.113,4,5.08,9.2C25.5,35.088,21.963,41.807,17.768,48.09c-.937,1.4-4.081,1.542-6.267,1.813-1.114.138-2.353-.725-3.987-1.294.387,7.538.738,14.4,1.143,22.278Z" transform="translate(0 5.892)" fill="#12263f"/>
      <path id="Trazado_197279" data-name="Trazado 197279" d="M21.9,53.036c-2.992-5.2-5.752-9.991-8.841-15.354-2.422,1.348-4.583,2.616-6.8,3.774-3.965,2.07-6.417.695-6.244-3.638C.461,26.491,1.2,15.17,2.032,3.862,2.3.2,4.612-.9,7.93.75c9.961,4.963,19.939,9.9,29.817,15.026,3.867,2.009,3.991,4.728.352,7.268-1.943,1.354-4.052,2.473-6.65,4.038L40.079,42.25a28.247,28.247,0,0,1,3.013-1.316c2.881-.846,5.783-1.612,8.679-2.409.448,2.819,1.366,5.659,1.259,8.457-.361,9.341-1.128,18.665-1.665,28-.295,5.159-2.673,6.159-7.077,3.915-9.384-4.78-18.856-9.39-28.2-14.245-4.827-2.508-4.738-5.084.015-8.1C17.769,55.488,19.479,54.5,21.9,53.036ZM7.474,32.549c6.848-5.366,10-2.734,12.586,2.68,2.049,4.293,4.716,8.29,7.1,12.427,4.34,7.549,4.337,7.551-2.756,13.17l20.513,10.3V49.1c-7.783,2.45-7.78,2.449-12.306-5.386-1.988-3.444-4-6.876-5.984-10.322C21.993,25.359,22,25.358,28.638,19.206L8.84,9.25C8.373,17.208,7.969,24.1,7.474,32.549Z" transform="translate(151.165 5.816)" fill="#12263f"/>
      <path id="Trazado_197280" data-name="Trazado 197280" d="M12.228,54.886v-18.1c-2.9,0-5.432.113-7.949-.027-3.624-.2-5.481-2.19-3.422-5.482Q10.188,16.359,20.125,1.827c1.931-2.836,4.558-2.141,6.325.514C32.733,11.776,39.015,21.214,45.063,30.8c2.167,3.433.8,5.734-3.335,5.958-2.519.136-5.051.025-7.905.025V54.874a69.967,69.967,0,0,1,8.269.065c3.5.428,5.154,2.579,3.094,5.823C39,70.5,32.654,80.13,26.231,89.708c-1.876,2.8-4.46,2.77-6.318.007Q10.258,75.361.939,60.781C-1.144,57.509.546,55.4,4.03,54.95A67.773,67.773,0,0,1,12.228,54.886ZM23.092,10.309l-12.3,18.677c8.977,1.47,8.978,1.47,8.982,10.194,0,3.984.072,7.97-.027,11.951-.073,2.959.558,6.516-.851,8.684-1.2,1.851-4.863,2.107-7.916,3.247l12.087,18.46,12.5-19.116c-9.211-.89-9.213-.89-9.219-9.025,0-4.781.371-9.6-.079-14.333-.612-6.45.923-10.559,9.4-9.434C31.23,22.8,27.383,16.9,23.092,10.309Z" transform="translate(79.055)" fill="#12263f"/>
    </g>
    <g id="UyrgcM.tif" transform="translate(745.601 1058.011)">
      <g id="Grupo_151394" data-name="Grupo 151394" transform="translate(0 0)">
        <path id="Trazado_193789" data-name="Trazado 193789" d="M2007.364,63.337c.977.516,1.934,1.067,2.93,1.542a9.269,9.269,0,0,1,4.3,11.514c-.8,1.812-2.344,2.271-4.212,2.266-11.4-.031-22.807-.015-34.211-.015-4.561,0-9.123.012-13.684,0-3.252-.012-4.465-1.319-4.664-4.485-.3-4.738,1.266-8.221,5.991-9.874a12.823,12.823,0,0,0,2.01-1.246c-.944-.086-1.446-.17-1.948-.171-7.2-.013-14.4-.005-21.595-.023-5.311-.013-8.5-3.178-8.5-8.524q-.028-32.073,0-64.146c0-5.1,3.161-8.283,8.21-8.4a11.4,11.4,0,0,1,1.709.008,6.9,6.9,0,0,0,6.738-2.588c1.717-2.063,3.754-2.184,6.152-.853,1.541.855,2.348.421,2.8-1.209.732-2.647,2.175-3.72,4.952-3.763,1.5-.023,2.994-.037,4.49.005a4.446,4.446,0,0,1,4.651,3.623c.443,1.827,1.309,2.1,2.863,1.266,2.314-1.249,4.392-1.069,6.154,1.007,1.747,2.058,3.723,2.583,6.329,2.561,13.826-.118,27.653-.06,41.479-.058,5.6,0,8.74,3.113,8.742,8.73q.015,31.859,0,63.718c0,5.423-3.208,8.617-8.644,8.625q-11.436.018-22.869,0Zm27.469-17.924c0-.83,0-1.464,0-2.1q0-26.085-.006-52.17c0-4.153-1.048-5.2-5.169-5.2-13.184,0-26.369.051-39.553-.037-1.926-.013-3.089.262-3.826,2.281-.612,1.676-.538,2.443,1.282,2.908a4.39,4.39,0,0,1,3.619,4.636c.044,1.424.022,2.85.009,4.276-.03,3.094-.928,4.34-3.916,5.268-1.385.43-1.855,1.145-1.146,2.5,1.58,3.019,1.363,4.377-1.069,6.82-1,1.01-1.984,2.053-3.052,2.993a4.526,4.526,0,0,1-5.364.64c-2.1-1.035-2.486-.889-3.2,1.349a4.435,4.435,0,0,1-4.666,3.331c-3.3-.179-7.224,1.36-9.213-2.961a1.839,1.839,0,0,1-.063-.2c-.826-2.465-1.134-2.6-3.344-1.515a4.348,4.348,0,0,1-5.478-.786c-1.157-1.161-2.353-2.285-3.475-3.478a4.462,4.462,0,0,1-.784-5.674c.986-1.962.774-2.455-1.352-3.14a4.429,4.429,0,0,1-3.41-4.814c.126-3.24-1.273-7.074,2.928-9.019.256-.119.6-.107.8-.279.579-.5,1.66-1.261,1.552-1.565-.442-1.242-1.029-3.1-1.97-3.383-4.549-1.382-6.969.62-6.97,5.35q-.005,25.871,0,51.742v2.231Zm0,4.435H1938c0,1.382,0,2.648,0,3.913.016,3.733,1.107,4.844,4.819,4.845q29.61.011,59.22.008,14.218,0,28.435-.008c3.04-.006,4.3-1.266,4.35-4.25C2034.848,52.937,2034.828,51.518,2034.828,49.848Zm-65.7-31.127c1.5-5.264,4.88-6.664,9.85-4.238l3.888-3.814c-2.99-4.212-.716-8.619,3.966-9.9V-4.664c-4.826-.965-6.483-5.038-4.012-9.793l-3.794-3.856a6.2,6.2,0,0,1-9.942-3.944h-5.424c-.457,4.519-5.957,6.693-10.285,3.735a16.946,16.946,0,0,1-2.014,2.587c-1.134,1.014-1.283,1.818-.561,3.249a5.509,5.509,0,0,1,.159,3.649c-.689,2.459-2.158,4.334-4.969,4.308V.976c4.182.246,6.909,5.379,4.244,9.632l3.639,3.995c.628-.356,1.155-.71,1.725-.968,2.4-1.087,6.65.225,7.258,2.715.633,2.589,2.127,2.513,4.018,2.379C1967.583,18.68,1968.294,18.721,1969.131,18.721Zm41.355,55.572c.6-3.709.106-4.393-2.869-6.05a21.659,21.659,0,0,1-5.139-4.036,3.716,3.716,0,0,0-3.055-1.378c-8.476.046-16.954.069-25.43-.011a4.464,4.464,0,0,0-3.955,1.753,16.226,16.226,0,0,1-4.673,3.611c-3.181,1.732-3.685,2.474-3.014,6.111Z" transform="translate(-1933.769 26.659)" fill="#12263f"/>
        <path id="Trazado_193790" data-name="Trazado 193790" d="M2091.322,69.889c-2.445-1.859-3.919-.555-5.1,2.211-.306.713-1.783,1.167-2.777,1.289a24.566,24.566,0,0,1-5.323.055,3.837,3.837,0,0,1-3.515-3c-.372-1.455-.884-1.922-2.367-1.115a4.239,4.239,0,0,1-5.445-.9c-.748-.763-1.523-1.5-2.271-2.262-2.158-2.2-2.347-3.042-1.084-5.867.535-1.2.337-1.747-.968-2.171-2.53-.823-3.328-2.071-3.367-4.777-.017-1.14-.022-2.281,0-3.42.053-2.583.863-3.777,3.313-4.578,1.249-.408,1.568-.88.921-2.145-1.214-2.374-.9-3.834.973-5.764.893-.919,1.8-1.832,2.739-2.7a3.933,3.933,0,0,1,4.913-.76c1.678.993,2.283.475,2.6-1.185a2.462,2.462,0,0,1,.562-1.134c2.452-2.721,5.689-1.7,8.654-1.643,1.9.036,3.039,1.44,3.51,3.247.337,1.288.865,1.568,2.121.921,2.356-1.215,3.833-.9,5.77.974.869.843,1.728,1.7,2.565,2.573a4.126,4.126,0,0,1,.771,5.274c-.8,1.406-.52,2.1,1.071,2.343a2.524,2.524,0,0,1,1.165.49c2.8,2.275,1.921,5.451,1.891,8.355a3.855,3.855,0,0,1-3.148,3.848c-1.7.411-1.689,1.139-.887,2.4a3.859,3.859,0,0,1,.556,1.807C2099.3,64.951,2094.52,69.839,2091.322,69.889Zm-24.348-7.307,2.843,2.927c4.366-1.807,6.22-1.1,8.742,3.122a1.667,1.667,0,0,0,1.17.616c1.105.085,2.221.029,3.256.029,1.4-4.415,4.6-5.735,8.843-3.754l2.9-2.935c-2.052-3.178-.972-7.272,3.621-8.979V49.683c-3.92-1-5.749-4.817-3.725-9.023l-2.78-2.841c-3.6,2.332-7.7.5-9.036-3.665a21.872,21.872,0,0,0-2.706.03,2.249,2.249,0,0,0-1.531.691c-2.386,4.105-4.063,4.737-8.749,3.069l-2.8,2.78c1.9,4.02.923,6.843-2.812,8.623a1.774,1.774,0,0,0-.816,1.219,27.424,27.424,0,0,0-.038,3.113C2067.782,55.489,2069.167,58.86,2066.974,62.582Z" transform="translate(-2005.266 -5.547)" fill="#12263f"/>
        <path id="Trazado_193791" data-name="Trazado 193791" d="M2055.381,157.665a2.895,2.895,0,1,1-2.9-2.821A2.966,2.966,0,0,1,2055.381,157.665Z" transform="translate(-1999.849 -76.893)" fill="#12263f"/>
        <path id="Trazado_193792" data-name="Trazado 193792" d="M1996.578,27.85a9.928,9.928,0,1,1,9.97-9.868A9.934,9.934,0,0,1,1996.578,27.85Zm.113-15.663a5.718,5.718,0,1,0,5.644,5.775A5.783,5.783,0,0,0,1996.691,12.187Z" transform="translate(-1963.931 6.889)" fill="#12263f"/>
        <path id="Trazado_193793" data-name="Trazado 193793" d="M2089.1,68.987a8.915,8.915,0,0,1,17.829-.132,8.915,8.915,0,1,1-17.829.132Zm4.238-.084a4.661,4.661,0,0,0,4.646,4.778,4.777,4.777,0,0,0,4.74-4.738,4.688,4.688,0,0,0-4.592-4.633A4.582,4.582,0,0,0,2093.343,68.9Z" transform="translate(-2022.392 -22.819)" fill="#12263f"/>
      </g>
    </g>
    <g id="Y9abCQ" transform="translate(305.581 966.478)">
      <g id="Grupo_151188" data-name="Grupo 151188" transform="translate(0 0)">
        <path id="Trazado_192890" data-name="Trazado 192890" d="M3919.574-953.241q.9-3.864,1.8-7.728a8.83,8.83,0,0,1,5.143-6.219c4.032-1.853,8.15-3.525,12.27-5.18a4.476,4.476,0,0,0,1.826-7.229c-4.665-5.682-5.461-12.257-3.889-19.086a12.908,12.908,0,0,1,14.231-9.591c6.265.843,11.167,6.55,11.419,12.973.234,5.96-.871,11.4-4.817,16.11-1.291,1.541-1.029,3.528-.371,5.314.185.5.945.892,1.526,1.125,3.322,1.332,6.638,2.689,10.014,3.873,6.018,2.111,8.857,6.565,9.6,12.635a30.4,30.4,0,0,1,.387,4.8c-.029.778-.718,1.531-1.109,2.3h-58.031Zm55.785.594c-.156-1.221-.274-2.2-.406-3.169-.656-4.845-2.9-8.393-7.785-10.023-3.453-1.151-6.825-2.546-10.2-3.908a5.887,5.887,0,0,1-2.281-1.486c-1.73-2.052-1.914-7.621-.138-9.682,3.542-4.11,4.672-8.835,4.435-14.119a10.339,10.339,0,0,0-8.685-9.883,9.543,9.543,0,0,0-10.354,7.428c-1.051,5.333-.768,10.707,2.941,15.145a9.766,9.766,0,0,1,2.063,7.784,5.452,5.452,0,0,1-3.908,5.043c-4.386,1.64-8.751,3.391-12.957,5.442-3.224,1.572-5.486,7.817-4.561,11.428Z" transform="translate(-3899.774 1029.842)" fill="#12263f"/>
        <path id="Trazado_192891" data-name="Trazado 192891" d="M3994.617-1057.281c1.014,2.345,1.688,4.925,3.113,6.986a13.4,13.4,0,0,0,12.186,5.906c3.711-.193,6.7.69,9.237,3.357a11.538,11.538,0,0,0,2.485,1.967,2.681,2.681,0,0,0,1.991.4c.434-.168.738-1.092.8-1.709.121-1.25.036-2.52.036-3.8a4.821,4.821,0,0,0,1.828-.3A2.306,2.306,0,0,0,4027.3-1046c.005-.393-.728-1.04-1.222-1.144a15.024,15.024,0,0,0-2.852-.081c-1.215-.017-1.721.622-1.693,1.788.017.725,0,1.45,0,2.546-1.59-1.254-2.832-2.377-4.22-3.275a6.607,6.607,0,0,0-2.851-1.022c-2.524-.238-5.137.061-7.588-.457a11.815,11.815,0,0,1-9.309-12.321,11.959,11.959,0,0,1,11.693-11.225q9.222-.213,18.452,0c6.365.15,11.045,4.8,11.7,11.39.1,1.038.188,2.013,1.5,1.958,1.387-.059,1.46-1.116,1.423-2.2a15.013,15.013,0,0,0-12.006-13.79,8.455,8.455,0,0,1-1.02-.314h-21.637a3.459,3.459,0,0,1-.7.283,13.208,13.208,0,0,0-9.289,5.767c-1.364,2.109-2.06,4.65-3.057,7Z" transform="translate(-3994.617 1074.145)" fill="#2ec49f"/>
        <text id="A" transform="translate(21.906 21.049)" fill="#2ec49f" font-size="23" font-family="Roboto-Bold, Roboto" font-weight="700"><tspan x="-7.738" y="0">A</tspan></text>
      </g>
    </g>
    <g id="Y9abCQ-2" data-name="Y9abCQ" transform="translate(305.581 1082.638)">
      <g id="Grupo_151188-2" data-name="Grupo 151188" transform="translate(0 0)">
        <path id="Trazado_192890-2" data-name="Trazado 192890" d="M3919.574-953.241q.9-3.864,1.8-7.728a8.83,8.83,0,0,1,5.143-6.219c4.032-1.853,8.15-3.525,12.27-5.18a4.476,4.476,0,0,0,1.826-7.229c-4.665-5.682-5.461-12.257-3.889-19.086a12.908,12.908,0,0,1,14.231-9.591c6.265.843,11.167,6.55,11.419,12.973.234,5.96-.871,11.4-4.817,16.11-1.291,1.541-1.029,3.528-.371,5.314.185.5.945.892,1.526,1.125,3.322,1.332,6.638,2.689,10.014,3.873,6.018,2.111,8.857,6.565,9.6,12.635a30.4,30.4,0,0,1,.387,4.8c-.029.778-.718,1.531-1.109,2.3h-58.031Zm55.785.594c-.156-1.221-.274-2.2-.406-3.169-.656-4.845-2.9-8.393-7.785-10.023-3.453-1.151-6.825-2.546-10.2-3.908a5.887,5.887,0,0,1-2.281-1.486c-1.73-2.052-1.914-7.621-.138-9.682,3.542-4.11,4.672-8.835,4.435-14.119a10.339,10.339,0,0,0-8.685-9.883,9.543,9.543,0,0,0-10.354,7.428c-1.051,5.333-.768,10.707,2.941,15.145a9.766,9.766,0,0,1,2.063,7.784,5.452,5.452,0,0,1-3.908,5.043c-4.386,1.64-8.751,3.391-12.957,5.442-3.224,1.572-5.486,7.817-4.561,11.428Z" transform="translate(-3899.774 1029.842)" fill="#12263f"/>
        <path id="Trazado_192891-2" data-name="Trazado 192891" d="M3994.617-1057.281c1.014,2.345,1.688,4.925,3.113,6.986a13.4,13.4,0,0,0,12.186,5.906c3.711-.193,6.7.69,9.237,3.357a11.538,11.538,0,0,0,2.485,1.967,2.681,2.681,0,0,0,1.991.4c.434-.168.738-1.092.8-1.709.121-1.25.036-2.52.036-3.8a4.821,4.821,0,0,0,1.828-.3A2.306,2.306,0,0,0,4027.3-1046c.005-.393-.728-1.04-1.222-1.144a15.024,15.024,0,0,0-2.852-.081c-1.215-.017-1.721.622-1.693,1.788.017.725,0,1.45,0,2.546-1.59-1.254-2.832-2.377-4.22-3.275a6.607,6.607,0,0,0-2.851-1.022c-2.524-.238-5.137.061-7.588-.457a11.815,11.815,0,0,1-9.309-12.321,11.959,11.959,0,0,1,11.693-11.225q9.222-.213,18.452,0c6.365.15,11.045,4.8,11.7,11.39.1,1.038.188,2.013,1.5,1.958,1.387-.059,1.46-1.116,1.423-2.2a15.013,15.013,0,0,0-12.006-13.79,8.455,8.455,0,0,1-1.02-.314h-21.637a3.459,3.459,0,0,1-.7.283,13.208,13.208,0,0,0-9.289,5.767c-1.364,2.109-2.06,4.65-3.057,7Z" transform="translate(-3994.617 1074.145)" fill="#2ec49f"/>
        <text id="B" transform="translate(21.906 21.049)" fill="#2ec49f" font-size="23" font-family="Roboto-Bold, Roboto" font-weight="700"><tspan x="-7.339" y="0">B</tspan></text>
      </g>
    </g>
    <g id="Y9abCQ-3" data-name="Y9abCQ" transform="translate(305.581 1194.435)">
      <g id="Grupo_151188-3" data-name="Grupo 151188" transform="translate(0 0)">
        <path id="Trazado_192890-3" data-name="Trazado 192890" d="M3919.574-953.241q.9-3.864,1.8-7.728a8.83,8.83,0,0,1,5.143-6.219c4.032-1.853,8.15-3.525,12.27-5.18a4.476,4.476,0,0,0,1.826-7.229c-4.665-5.682-5.461-12.257-3.889-19.086a12.908,12.908,0,0,1,14.231-9.591c6.265.843,11.167,6.55,11.419,12.973.234,5.96-.871,11.4-4.817,16.11-1.291,1.541-1.029,3.528-.371,5.314.185.5.945.892,1.526,1.125,3.322,1.332,6.638,2.689,10.014,3.873,6.018,2.111,8.857,6.565,9.6,12.635a30.4,30.4,0,0,1,.387,4.8c-.029.778-.718,1.531-1.109,2.3h-58.031Zm55.785.594c-.156-1.221-.274-2.2-.406-3.169-.656-4.845-2.9-8.393-7.785-10.023-3.453-1.151-6.825-2.546-10.2-3.908a5.887,5.887,0,0,1-2.281-1.486c-1.73-2.052-1.914-7.621-.138-9.682,3.542-4.11,4.672-8.835,4.435-14.119a10.339,10.339,0,0,0-8.685-9.883,9.543,9.543,0,0,0-10.354,7.428c-1.051,5.333-.768,10.707,2.941,15.145a9.766,9.766,0,0,1,2.063,7.784,5.452,5.452,0,0,1-3.908,5.043c-4.386,1.64-8.751,3.391-12.957,5.442-3.224,1.572-5.486,7.817-4.561,11.428Z" transform="translate(-3899.774 1029.842)" fill="#12263f"/>
        <path id="Trazado_192891-3" data-name="Trazado 192891" d="M3994.617-1057.281c1.014,2.345,1.688,4.925,3.113,6.986a13.4,13.4,0,0,0,12.186,5.906c3.711-.193,6.7.69,9.237,3.357a11.538,11.538,0,0,0,2.485,1.967,2.681,2.681,0,0,0,1.991.4c.434-.168.738-1.092.8-1.709.121-1.25.036-2.52.036-3.8a4.821,4.821,0,0,0,1.828-.3A2.306,2.306,0,0,0,4027.3-1046c.005-.393-.728-1.04-1.222-1.144a15.024,15.024,0,0,0-2.852-.081c-1.215-.017-1.721.622-1.693,1.788.017.725,0,1.45,0,2.546-1.59-1.254-2.832-2.377-4.22-3.275a6.607,6.607,0,0,0-2.851-1.022c-2.524-.238-5.137.061-7.588-.457a11.815,11.815,0,0,1-9.309-12.321,11.959,11.959,0,0,1,11.693-11.225q9.222-.213,18.452,0c6.365.15,11.045,4.8,11.7,11.39.1,1.038.188,2.013,1.5,1.958,1.387-.059,1.46-1.116,1.423-2.2a15.013,15.013,0,0,0-12.006-13.79,8.455,8.455,0,0,1-1.02-.314h-21.637a3.459,3.459,0,0,1-.7.283,13.208,13.208,0,0,0-9.289,5.767c-1.364,2.109-2.06,4.65-3.057,7Z" transform="translate(-3994.617 1074.145)" fill="#2ec49f"/>
        <text id="C" transform="translate(21.906 21.049)" fill="#2ec49f" font-size="23" font-family="Roboto-Bold, Roboto" font-weight="700"><tspan x="-7.524" y="0">C</tspan></text>
      </g>
    </g>
    <path id="Trazado_197282" data-name="Trazado 197282" d="M12.228,54.886v-18.1c-2.9,0-5.432.113-7.949-.027-3.624-.2-5.481-2.19-3.422-5.482Q10.188,16.359,20.125,1.827c1.931-2.836,4.558-2.141,6.325.514C32.733,11.776,39.015,21.214,45.063,30.8c2.167,3.433.8,5.734-3.335,5.958-2.519.136-5.051.025-7.905.025V54.874a69.967,69.967,0,0,1,8.269.065c3.5.428,5.154,2.579,3.094,5.823C39,70.5,32.654,80.13,26.231,89.708c-1.876,2.8-4.46,2.77-6.318.007Q10.258,75.361.939,60.781C-1.144,57.509.546,55.4,4.03,54.95A67.773,67.773,0,0,1,12.228,54.886ZM23.092,10.309l-12.3,18.677c8.977,1.47,8.978,1.47,8.982,10.194,0,3.984.072,7.97-.027,11.951-.073,2.959.558,6.516-.851,8.684-1.2,1.851-4.863,2.107-7.916,3.247l12.087,18.46,12.5-19.116c-9.211-.89-9.213-.89-9.219-9.025,0-4.781.371-9.6-.079-14.333-.612-6.45.923-10.559,9.4-9.434C31.23,22.8,27.383,16.9,23.092,10.309Z" transform="translate(487.412 1097.757) rotate(90)" fill="#12263f"/>
    <path id="Trazado_197283" data-name="Trazado 197283" d="M12.228,54.886v-18.1c-2.9,0-5.432.113-7.949-.027-3.624-.2-5.481-2.19-3.422-5.482Q10.188,16.359,20.125,1.827c1.931-2.836,4.558-2.141,6.325.514C32.733,11.776,39.015,21.214,45.063,30.8c2.167,3.433.8,5.734-3.335,5.958-2.519.136-5.051.025-7.905.025V54.874a69.967,69.967,0,0,1,8.269.065c3.5.428,5.154,2.579,3.094,5.823C39,70.5,32.654,80.13,26.231,89.708c-1.876,2.8-4.46,2.77-6.318.007Q10.258,75.361.939,60.781C-1.144,57.509.546,55.4,4.03,54.95A67.773,67.773,0,0,1,12.228,54.886ZM23.092,10.309l-12.3,18.677c8.977,1.47,8.978,1.47,8.982,10.194,0,3.984.072,7.97-.027,11.951-.073,2.959.558,6.516-.851,8.684-1.2,1.851-4.863,2.107-7.916,3.247l12.087,18.46,12.5-19.116c-9.211-.89-9.213-.89-9.219-9.025,0-4.781.371-9.6-.079-14.333-.612-6.45.923-10.559,9.4-9.434C31.23,22.8,27.383,16.9,23.092,10.309Z" transform="translate(733.618 1097.757) rotate(90)" fill="#12263f"/>
    <path id="Trazado_197284" data-name="Trazado 197284" d="M12.228,54.886v-18.1c-2.9,0-5.432.113-7.949-.027-3.624-.2-5.481-2.19-3.422-5.482Q10.188,16.359,20.125,1.827c1.931-2.836,4.558-2.141,6.325.514C32.733,11.776,39.015,21.214,45.063,30.8c2.167,3.433.8,5.734-3.335,5.958-2.519.136-5.051.025-7.905.025V54.874a69.967,69.967,0,0,1,8.269.065c3.5.428,5.154,2.579,3.094,5.823C39,70.5,32.654,80.13,26.231,89.708c-1.876,2.8-4.46,2.77-6.318.007Q10.258,75.361.939,60.781C-1.144,57.509.546,55.4,4.03,54.95A67.773,67.773,0,0,1,12.228,54.886ZM23.092,10.309l-12.3,18.677c8.977,1.47,8.978,1.47,8.982,10.194,0,3.984.072,7.97-.027,11.951-.073,2.959.558,6.516-.851,8.684-1.2,1.851-4.863,2.107-7.916,3.247l12.087,18.46,12.5-19.116c-9.211-.89-9.213-.89-9.219-9.025,0-4.781.371-9.6-.079-14.333-.612-6.45.923-10.559,9.4-9.434C31.23,22.8,27.383,16.9,23.092,10.309Z" transform="translate(960.914 1097.757) rotate(90)" fill="#12263f"/>
    <g id="Grupo_155367" data-name="Grupo 155367" transform="translate(885.593 962.253)">
      <text id="DAM" transform="translate(0 21)" fill="#12263f" font-size="23" font-family="Roboto-Bold, Roboto" font-weight="700"><tspan x="0" y="0">DAM</tspan></text>
    </g>
    <g id="Grupo_155368" data-name="Grupo 155368" transform="translate(509.736 1246.407)">
      <text id="Aplicaction" transform="translate(0 21)" fill="#12263f" font-size="23" font-family="Roboto-Bold, Roboto" font-weight="700"><tspan x="0" y="0">Aplicaction</tspan></text>
    </g>
    <g id="Grupo_155369" data-name="Grupo 155369" transform="translate(635.961 1222.903)">
      <path id="Trazado_197285" data-name="Trazado 197285" d="M5752.3-9626.184s-31.951,101.274-139.175,50.609" transform="translate(-5590.02 9626.184)" fill="none" stroke="#12263f" stroke-width="6"/>
      <path id="Polígono_157" data-name="Polígono 157" d="M14.558,0,29.115,25.476H0Z" transform="translate(0 51.365) rotate(-58)" fill="#12263f"/>
    </g>
    <g id="ZaEuIB" transform="translate(877.335 995.258)">
      <g id="Grupo_155378" data-name="Grupo 155378" transform="translate(0)">
        <path id="Trazado_197286" data-name="Trazado 197286" d="M7000.27,4852.587h-3.794c-1.55,0-2.035-.539-1.763-2.061q1.154-6.44,2.354-12.873c.175-.946.6-1.27,1.573-1.27h55.912q5.6,0,11.2,0c1.237,0,1.563.227,1.795,1.442.737,3.879,1.45,7.762,2.172,11.644.084.455.172.909.252,1.364a1.383,1.383,0,0,1-1.44,1.755c-1.394.018-2.788,0-4.218,0a31.791,31.791,0,0,1-10.959,22.7,31.013,31.013,0,0,1-22.8,7.929A32.167,32.167,0,0,1,7000.27,4852.587Zm-2.764-2.687h69.567c-.052-.209-.1-.37-.131-.535-.558-3.117-1.125-6.231-1.657-9.352-.123-.725-.362-1.01-1.2-1.009q-31.789.048-63.577.025c-.147,0-.3.012-.441,0-.4-.038-.605.069-.663.541-.116.942-.33,1.872-.5,2.806C6998.441,4844.866,6997.979,4847.357,6997.506,4849.9Zm22.278,2.712c-.018.167-.037.263-.037.358q0,12.15-.015,24.3c0,.444.219.594.545.741a29.181,29.181,0,0,0,11.106,2.569,29.548,29.548,0,0,0,12.75-2.48.982.982,0,0,0,.72-1.07q-.035-11.819-.016-23.639v-.78Zm-16.789.015c.446,10.919,7.276,19.872,14,23.516v-23.516Zm44.592,23.7c8.611-5.721,13.274-13.525,14.043-23.7h-14.043Z" transform="translate(-6994.641 -4836.376)" fill="#12263f"/>
        <path id="Trazado_197287" data-name="Trazado 197287" d="M7202.756,4972.073a9.884,9.884,0,1,1-19.769-.035,10.008,10.008,0,0,1,9.832-9.855A9.907,9.907,0,0,1,7202.756,4972.073Zm-9.87-7.208a7.215,7.215,0,1,0,7.208,7.237A7.272,7.272,0,0,0,7192.886,4964.865Z" transform="translate(-7155.231 -4943.643)" fill="#12263f"/>
        <path id="Trazado_197288" data-name="Trazado 197288" d="M7223.747,4998.414a4.575,4.575,0,0,1,4.521,4.544,4.517,4.517,0,0,1-4.586,4.563,4.554,4.554,0,1,1,.065-9.107Zm-1.935,4.541a2.033,2.033,0,0,0,1.9,1.887,1.983,1.983,0,0,0,1.894-1.876,1.9,1.9,0,0,0-3.791-.011Z" transform="translate(-7186.064 -4974.535)" fill="#12263f"/>
      </g>
    </g>
    <path id="Trazado_197285-2" data-name="Trazado 197285" d="M1025.424,2152.406v29" transform="translate(-110.513 -1102.312)" fill="none" stroke="#12263f" stroke-width="6"/>
    <path id="Polígono_157-2" data-name="Polígono 157" d="M10,0,20,17H0Z" transform="translate(925.011 1088) rotate(180)" fill="#12263f"/>
    <text id="_" data-name="?" transform="translate(708.488 1248.909)" fill="#12263f" font-size="23" font-family="Roboto-Bold, Roboto" font-weight="700"><tspan x="0" y="0">?</tspan></text>
  </g>
</svg>
