<svg xmlns="http://www.w3.org/2000/svg" width="41.067" height="88.124" viewBox="0 0 41.067 88.124">
  <g id="Design-elements" transform="translate(0)">
    <path id="dots-03" d="M35.219,85.2a2.924,2.924,0,1,1,2.924,2.921A2.921,2.921,0,0,1,35.219,85.2Zm-17.61,0a2.92,2.92,0,1,1,2.92,2.921A2.919,2.919,0,0,1,17.609,85.2ZM0,85.2a2.917,2.917,0,1,1,2.917,2.921A2.918,2.918,0,0,1,0,85.2Zm35.219-16.46a2.924,2.924,0,1,1,2.924,2.92A2.922,2.922,0,0,1,35.219,68.742Zm-17.61,0a2.92,2.92,0,1,1,2.92,2.92A2.92,2.92,0,0,1,17.609,68.742ZM0,68.742a2.917,2.917,0,1,1,2.917,2.92A2.919,2.919,0,0,1,0,68.742ZM35.219,52.295a2.924,2.924,0,1,1,2.924,2.919A2.922,2.922,0,0,1,35.219,52.295Zm-17.61,0a2.92,2.92,0,1,1,2.92,2.919A2.92,2.92,0,0,1,17.609,52.295ZM0,52.295a2.917,2.917,0,1,1,2.917,2.919A2.919,2.919,0,0,1,0,52.295ZM35.219,35.829a2.924,2.924,0,1,1,2.924,2.92A2.921,2.921,0,0,1,35.219,35.829Zm-17.61,0a2.92,2.92,0,1,1,2.92,2.92A2.919,2.919,0,0,1,17.609,35.829ZM0,35.829a2.917,2.917,0,1,1,2.917,2.92A2.918,2.918,0,0,1,0,35.829ZM35.219,19.38a2.924,2.924,0,1,1,2.924,2.92A2.922,2.922,0,0,1,35.219,19.38Zm-17.61,0a2.92,2.92,0,1,1,2.92,2.92A2.92,2.92,0,0,1,17.609,19.38ZM0,19.38A2.917,2.917,0,1,1,2.917,22.3,2.919,2.919,0,0,1,0,19.38ZM35.219,2.924a2.924,2.924,0,1,1,2.924,2.924A2.924,2.924,0,0,1,35.219,2.924Zm-17.61,0a2.92,2.92,0,1,1,2.92,2.924A2.922,2.922,0,0,1,17.609,2.924ZM0,2.924A2.917,2.917,0,1,1,2.917,5.849,2.921,2.921,0,0,1,0,2.924Z" transform="translate(0 0)" fill="#12263f"/>
  </g>
</svg>
