<svg xmlns="http://www.w3.org/2000/svg" width="86.129" height="21.064" viewBox="0 0 86.129 21.064">
  <g id="Grupo_155445" data-name="Grupo 155445" transform="translate(-677.611 -2498.968)">
    <path id="Dots" d="M17.626,84.392a1.719,1.719,0,1,1,1.719,1.737A1.728,1.728,0,0,1,17.626,84.392ZM0,84.392a1.728,1.728,0,0,1,1.719-1.738,1.738,1.738,0,0,1,0,3.475A1.728,1.728,0,0,1,0,84.392ZM17.626,63.716a1.719,1.719,0,1,1,1.719,1.738A1.729,1.729,0,0,1,17.626,63.716ZM0,63.716a1.729,1.729,0,0,1,1.719-1.738,1.738,1.738,0,0,1,0,3.476A1.729,1.729,0,0,1,0,63.716ZM17.626,43.042a1.72,1.72,0,1,1,1.719,1.737A1.729,1.729,0,0,1,17.626,43.042ZM0,43.042A1.729,1.729,0,0,1,1.719,41.3a1.738,1.738,0,0,1,0,3.475A1.728,1.728,0,0,1,0,43.042ZM17.626,22.367A1.719,1.719,0,1,1,19.345,24.1,1.729,1.729,0,0,1,17.626,22.367ZM0,22.367a1.729,1.729,0,0,1,1.719-1.738,1.738,1.738,0,0,1,0,3.475A1.728,1.728,0,0,1,0,22.367ZM17.626,1.737a1.719,1.719,0,1,1,3.438,0,1.719,1.719,0,1,1-3.438,0ZM0,1.737A1.728,1.728,0,0,1,1.719,0a1.738,1.738,0,0,1,0,3.475A1.728,1.728,0,0,1,0,1.737Z" transform="translate(677.611 2520.032) rotate(-90)" fill="#fff"/>
  </g>
</svg>
