<svg xmlns="http://www.w3.org/2000/svg" xmlns:xlink="http://www.w3.org/1999/xlink" width="401.6" height="288.345" viewBox="0 0 401.6 288.345">
  <defs>
    <linearGradient id="linear-gradient" x1="0.5" x2="0.5" y2="1" gradientUnits="objectBoundingBox">
      <stop offset="0" stop-color="#fff"/>
      <stop offset="1" stop-color="#d2e6ee"/>
    </linearGradient>
    <linearGradient id="linear-gradient-2" x1="0.5" x2="0.5" y2="1" gradientUnits="objectBoundingBox">
      <stop offset="0" stop-color="#dedede"/>
      <stop offset="0.517" stop-color="#fff"/>
      <stop offset="1" stop-color="#dedede"/>
    </linearGradient>
    <linearGradient id="linear-gradient-3" x1="0.5" x2="0.5" y2="1" gradientUnits="objectBoundingBox">
      <stop offset="0" stop-color="#f5f5f5"/>
      <stop offset="0.25" stop-color="#f5f5f5"/>
      <stop offset="1" stop-color="#a7b3cf"/>
    </linearGradient>
  </defs>
  <g id="Grupo_155457" data-name="Grupo 155457" transform="translate(-975.076 -11211.714)">
    <ellipse id="Elipse_5928" data-name="Elipse 5928" cx="138.222" cy="140.914" rx="138.222" ry="140.914" transform="translate(1100.231 11211.714)" fill="#e6e6e6"/>
    <ellipse id="Elipse_5929" data-name="Elipse 5929" cx="125.836" cy="125.836" rx="125.836" ry="125.836" transform="translate(975.076 11248.197)" fill="#e6e6e6"/>
    <g id="Grupo_154584" data-name="Grupo 154584" transform="translate(-709.217 10625.769)">
      <path id="Trazado_196639" data-name="Trazado 196639" d="M1990.412,781.418a29.163,29.163,0,0,0-7.121,2.548q.724.88,1.53,1.687a23.363,23.363,0,0,0,10.423,6.042,19.548,19.548,0,0,1-2.9-4.684,33.461,33.461,0,0,1-1.929-5.593m29.016,2.548a29.21,29.21,0,0,0-7.12-2.548,33.449,33.449,0,0,1-1.93,5.593,19.551,19.551,0,0,1-2.9,4.684,23.365,23.365,0,0,0,10.423-6.043Q2018.7,784.848,2019.428,783.967Zm-6.822-25.906a28.952,28.952,0,0,0,7.544-2.876,23.456,23.456,0,0,0-12.675-8.651,19.544,19.544,0,0,1,2.9,4.685A34.812,34.812,0,0,1,2012.605,758.061Zm-30.036-2.876a28.947,28.947,0,0,0,7.544,2.876,34.817,34.817,0,0,1,2.227-6.842,19.561,19.561,0,0,1,2.9-4.685,23.436,23.436,0,0,0-12.675,8.651Zm17.579,4.133V745.911c-2.639.8-4.564,4.022-5.607,6.311a32.287,32.287,0,0,0-2.062,6.34A49.269,49.269,0,0,0,2000.148,759.318Zm-7.363,21.619a30.846,30.846,0,0,0,1.757,5.072c1.042,2.29,2.967,5.51,5.607,6.311V780.235A49.555,49.555,0,0,0,1992.785,780.937Zm9.787-.7V792.32c2.639-.8,4.565-4.021,5.607-6.311a30.921,30.921,0,0,0,1.757-5.072A49.554,49.554,0,0,0,2002.571,780.235Zm0-34.324v13.408a49.277,49.277,0,0,0,7.668-.757,32.374,32.374,0,0,0-2.061-6.34C2007.136,749.932,2005.21,746.712,2002.571,745.911Zm18.921,11.294a30.3,30.3,0,0,1-8.425,3.238,52.054,52.054,0,0,1,.688,7.461h10.961A23.277,23.277,0,0,0,2021.492,757.2Zm-18.921,10.7h8.76a49.886,49.886,0,0,0-.633-6.964,51.8,51.8,0,0,1-8.127.8Zm-11.184,0h8.761v-6.161a51.821,51.821,0,0,1-8.128-.8A49.867,49.867,0,0,0,1991.387,767.9Zm-13.386,0h10.962a52.018,52.018,0,0,1,.687-7.461,30.329,30.329,0,0,1-8.424-3.238A23.278,23.278,0,0,0,1978,767.9Zm10.962,2.424H1978A23.263,23.263,0,0,0,1981.838,782a31.143,31.143,0,0,1,8.043-2.943A51.162,51.162,0,0,1,1988.964,770.327Zm3.287,8.247a51.648,51.648,0,0,1,7.9-.762v-7.485h-8.761A48.884,48.884,0,0,0,1992.25,778.574Zm18.217,0a48.832,48.832,0,0,0,.864-8.247h-8.76v7.485A51.647,51.647,0,0,1,2010.468,778.574Zm14.25-8.247h-10.962a51.214,51.214,0,0,1-.918,8.73,31.2,31.2,0,0,1,8.044,2.943A23.26,23.26,0,0,0,2024.718,770.327ZM2001.359,743.3a25.81,25.81,0,1,1-18.252,7.56A25.736,25.736,0,0,1,2001.359,743.3Z" transform="translate(-234.517 -117.568)" fill="#f6f6f6" fill-rule="evenodd"/>
      <path id="Trazado_196640" data-name="Trazado 196640" d="M2641.042,606.41h109.212a18.417,18.417,0,0,1,18.2,18.521V854.913a18.417,18.417,0,0,1-18.2,18.522H2641.042a18.417,18.417,0,0,1-18.2-18.522V624.931a18.417,18.417,0,0,1,18.2-18.521" transform="translate(-790.434 0)" fill="#496281" fill-rule="evenodd"/>
      <path id="Trazado_196641" data-name="Trazado 196641" d="M2584.864,606.41h109.212a18.417,18.417,0,0,1,18.2,18.521V854.913a18.418,18.418,0,0,1-18.2,18.522H2584.864a18.417,18.417,0,0,1-18.2-18.522V624.931a18.417,18.417,0,0,1,18.2-18.521" transform="translate(-742.186 0)" fill="#f59d36" fill-rule="evenodd"/>
      <path id="Trazado_196642" data-name="Trazado 196642" d="M2630.676,666.154a9.723,9.723,0,0,0-9.671,9.671V905.05a9.723,9.723,0,0,0,9.671,9.672h110.929a9.722,9.722,0,0,0,9.672-9.672V675.825a9.722,9.722,0,0,0-9.672-9.671H2718.2a5.847,5.847,0,0,1-5.83,5.83h-54.638a5.847,5.847,0,0,1-5.83-5.83Z" transform="translate(-788.858 -51.31)" fill-rule="evenodd" fill="url(#linear-gradient)"/>
      <path id="Trazado_196643" data-name="Trazado 196643" d="M2765.248,2175.781a13.953,13.953,0,1,1-13.954,13.953,13.953,13.953,0,0,1,13.954-13.953" transform="translate(-900.755 -1347.83)" fill="#2ec49f" fill-rule="evenodd"/>
      <path id="Trazado_196644" data-name="Trazado 196644" d="M3430.461,712.431h-7.514a.592.592,0,1,0,0,1.184h7.514a.592.592,0,1,0,0-1.184" transform="translate(-1477.085 -91.055)" fill="#c3dcfa" fill-rule="evenodd"/>
      <path id="Trazado_196645" data-name="Trazado 196645" d="M3430.461,732.433h-7.514a.592.592,0,1,0,0,1.184h7.514a.592.592,0,1,0,0-1.184" transform="translate(-1477.085 -108.233)" fill="#c3dcfa" fill-rule="evenodd"/>
      <path id="Trazado_196646" data-name="Trazado 196646" d="M3430.461,751.054h-7.514a.592.592,0,1,0,0,1.184h7.514a.592.592,0,1,0,0-1.184" transform="translate(-1477.085 -124.225)" fill="#c3dcfa" fill-rule="evenodd"/>
      <rect id="Rectángulo_46124" data-name="Rectángulo 46124" width="358.817" height="0.805" transform="translate(1702.483 872.827)" fill="#000446"/>
      <path id="Trazado_196647" data-name="Trazado 196647" d="M3440.222,1929.676h-53.215v.091A14.184,14.184,0,0,0,3374.765,1944v51.557c0,7.878,6.2,14.322,13.781,14.322h61.321c7.58,0,13.78-6.444,13.78-14.322V1944a14.222,14.222,0,0,0-11.55-14.132l-.968-.189Z" transform="translate(-1436.213 -1136.466)" fill="#178368" fill-rule="evenodd"/>
      <path id="Trazado_196648" data-name="Trazado 196648" d="M3425.371,1565.5v-21.835c-.015-.317-.023-.637-.023-.958s.009-.64.023-.957v-.035h0a21.294,21.294,0,0,1,21.469-20.043c11.282,0,20.954,8.646,21.494,20.043V1565.5h12.342v-24.078l-.014-.292c-.853-17.975-15.952-31.8-33.822-31.8-17.885,0-32.945,13.845-33.8,31.8l0,.051c-.022.508-.036,1.017-.036,1.526q0,.606.024,1.212v21.58Z" transform="translate(-1469.056 -775.459)" fill="#496281" fill-rule="evenodd"/>
      <path id="Trazado_196649" data-name="Trazado 196649" d="M3406.279,1907.225H3419.2a.808.808,0,0,1,.806.806v3.086a.808.808,0,0,1-.806.806h-12.922a.808.808,0,0,1-.806-.806v-3.086a.808.808,0,0,1,.806-.806" transform="translate(-1462.586 -1117.185)" fill="#178368" fill-rule="evenodd"/>
      <path id="Trazado_196650" data-name="Trazado 196650" d="M3798.132,1907.225h12.922a.808.808,0,0,1,.806.806v3.086a.808.808,0,0,1-.806.806h-12.922a.808.808,0,0,1-.806-.806v-3.086a.808.808,0,0,1,.806-.806" transform="translate(-1799.123 -1117.185)" fill="#178368" fill-rule="evenodd"/>
      <path id="Trazado_196651" data-name="Trazado 196651" d="M3379.834,1929.676h-53.215v.091A14.184,14.184,0,0,0,3314.377,1944v51.557c0,7.878,6.2,14.322,13.781,14.322h61.322c7.58,0,13.781-6.444,13.781-14.322V1944a14.223,14.223,0,0,0-11.55-14.132l-1-.189Z" transform="translate(-1384.349 -1136.466)" fill="#2ec49f" fill-rule="evenodd"/>
      <path id="Trazado_196652" data-name="Trazado 196652" d="M3412.108,1966.442h-46.328v.079a12.348,12.348,0,0,0-10.657,12.389v44.884a12.275,12.275,0,0,0,12,12.468H3420.5a12.275,12.275,0,0,0,12-12.468V1978.91a12.382,12.382,0,0,0-10.055-12.3v-.165Z" transform="translate(-1419.344 -1168.042)" fill="#1d8168" fill-rule="evenodd"/>
      <path id="Trazado_196653" data-name="Trazado 196653" d="M3582.584,2094.307a10.089,10.089,0,0,0-10.089-10.089,10.226,10.226,0,0,0-1.18.068,10.091,10.091,0,0,0-3.521,18.95v16.677a4.764,4.764,0,0,0,3.521,2.348,6.056,6.056,0,0,0,5.879-2.348v-16.676a10.089,10.089,0,0,0,5.389-8.93" transform="translate(-1597.364 -1269.192)" fill="#fff" fill-rule="evenodd"/>
      <path id="Trazado_196654" data-name="Trazado 196654" d="M2522.85,978.558c-2.517-1.531-5.13-3.133-5.881-3.669-32.391-23.132-52.858-65.888-49.669-105.5l.786-9.763,9.675-1.523c16.975-2.671,29.449-7.8,44.362-16.2l.727-.41v-3.034h5.122v.146l.259-.146,6.108,3.444c14.994,8.455,27.431,13.382,44.473,16.223l9.571,1.6.779,9.671c3.329,41.348-19.122,86.125-54.007,108.429l-7.183,3.864h-5.122Z" transform="translate(-656.57 -199.292)" fill="#12263f" fill-rule="evenodd"/>
      <path id="Trazado_196655" data-name="Trazado 196655" d="M2489.857,981.687c-1.468-.939-9.58-5.781-11-6.8-32.391-23.132-52.858-65.888-49.67-105.5l.787-9.763,9.675-1.523c16.975-2.671,29.449-7.8,44.362-16.2l6.108-3.444,6.108,3.444c14.994,8.455,27.431,13.382,44.473,16.223l9.571,1.6.779,9.671c3.329,41.348-19.122,86.125-54.007,108.429Z" transform="translate(-623.836 -199.292)" fill-rule="evenodd" fill="url(#linear-gradient-2)"/>
      <path id="Trazado_196656" data-name="Trazado 196656" d="M2563.456,936.451c-16.767,9.456-30.25,14.857-48.91,17.793-3.069,38.119,18.39,78.469,48.91,97.85,30.52-19.381,51.979-59.731,48.911-97.85-19.01-3.17-32.143-8.338-48.911-17.793" transform="translate(-697.176 -283.451)" fill="#496281" fill-rule="evenodd"/>
      <path id="Trazado_196658" data-name="Trazado 196658" d="M2757.234,1280.444a4.757,4.757,0,0,0-4.21,4.71v17.063a4.754,4.754,0,0,0,4.74,4.74h21.092a4.754,4.754,0,0,0,4.74-4.74v-17.063a4.758,4.758,0,0,0-3.973-4.677v-4.011l0-.1a11.21,11.21,0,0,0-22.379,0v.017q-.012.252-.012.505,0,.2.008.4Zm18.3-.03h-14.219v-3.206c0-.1-.008-.211-.008-.317s0-.212.008-.317v-.011h0a7.127,7.127,0,0,1,14.219,0v3.851Z" transform="translate(-902.24 -566.345)" fill="#496281" fill-rule="evenodd"/>
      <path id="Trazado_196659" data-name="Trazado 196659" d="M2771.288,1283.627a4.765,4.765,0,0,0-2.22,8.981v7.876c.9,1.618,3.488,1.431,4.439,0v-7.875a4.765,4.765,0,0,0-2.219-8.982m11.313-5.018v-3.863l0-.1a11.21,11.21,0,0,0-22.379,0v.017c-.008.168-.012.337-.012.5q0,.2.008.4v3a4.756,4.756,0,0,0-4.211,4.71v17.063a4.754,4.754,0,0,0,4.74,4.74h21.092a4.754,4.754,0,0,0,4.74-4.74v-17.063A4.757,4.757,0,0,0,2782.6,1278.609Zm-18.3-.063v-3.058c0-.105-.008-.211-.008-.317s0-.212.008-.317v-.012h0a7.126,7.126,0,0,1,14.219,0v3.7Z" transform="translate(-904.798 -564.869)" fill="#f59d36" fill-rule="evenodd"/>
      <path id="Trazado_196660" data-name="Trazado 196660" d="M2726.716,1113.042l-6.136-9.444v9.444h-4.722v-17.679h4.7l6.159,9.535v-9.535h4.745v17.679Zm-19.549-13.733h-2.76v3.81h2.76a2.036,2.036,0,0,0,.775-.148,1.993,1.993,0,0,0,.639-.407,2.033,2.033,0,0,0,.433-.6,1.834,1.834,0,0,0,0-1.5,2.033,2.033,0,0,0-.433-.6,1.994,1.994,0,0,0-.639-.407A2.038,2.038,0,0,0,2707.167,1099.309Zm.342,8.258h-3.217v5.5h-4.745v-17.7h7.961a7.028,7.028,0,0,1,2.452.433,6.7,6.7,0,0,1,2.076,1.209,5.8,5.8,0,0,1,1.437,1.87,5.376,5.376,0,0,1,.536,2.4,5.722,5.722,0,0,1-.536,2.464,6.59,6.59,0,0,1-1.437,2,6.776,6.776,0,0,1-2.076,1.346A6.3,6.3,0,0,1,2707.509,1107.567Zm-16.858,5.5h-4.266l-6.592-17.656h5.292l3.422,9.147,3.422-9.147h5.292Z" transform="translate(-839.347 -419.93)" fill="#fff"/>
      <path id="Trazado_196661" data-name="Trazado 196661" d="M2432.4,1936.651h94.257A11.38,11.38,0,0,1,2538,1948h0a11.38,11.38,0,0,1-11.347,11.347H2432.4A11.381,11.381,0,0,1,2421.049,1948h0a11.381,11.381,0,0,1,11.347-11.347" transform="translate(-617.129 -1142.457)" fill-rule="evenodd" fill="url(#linear-gradient-3)"/>
      <path id="Trazado_196662" data-name="Trazado 196662" d="M3028.119,1975.739h14.6a5.745,5.745,0,0,1,5.728,5.728h0a5.745,5.745,0,0,1-5.728,5.728h-14.6a5.745,5.745,0,0,1-5.728-5.728h0a5.745,5.745,0,0,1,5.728-5.728" transform="translate(-1133.582 -1176.027)" fill="#afafaf" fill-rule="evenodd"/>
      <g id="Grupo_154576" data-name="Grupo 154576" transform="translate(1816.336 801.229)">
        <path id="Trazado_196663" data-name="Trazado 196663" d="M2518.522,1993.541a7.385,7.385,0,0,1-.822,1.094,4.733,4.733,0,0,1-1.009.837,4.847,4.847,0,0,1-1.24.537,5.538,5.538,0,0,1-1.5.192,4.839,4.839,0,0,1-1.928-.386,5.144,5.144,0,0,1-1.574-1.041,4.791,4.791,0,0,1-1.06-1.542,4.821,4.821,0,0,1,0-3.778,4.789,4.789,0,0,1,1.06-1.542,5.142,5.142,0,0,1,1.574-1.041,4.839,4.839,0,0,1,1.928-.386,5.613,5.613,0,0,1,1.529.193,4.721,4.721,0,0,1,1.234.54,4.668,4.668,0,0,1,1,.842,8.129,8.129,0,0,1,.816,1.086.247.247,0,0,1,.026.218.269.269,0,0,1-.154.167l-1.825.72a.333.333,0,0,1-.257,0,.386.386,0,0,1-.193-.154,2.722,2.722,0,0,0-.9-.906,2.438,2.438,0,0,0-1.272-.315,2.1,2.1,0,0,0-.919.206,2.51,2.51,0,0,0-.752.548,2.514,2.514,0,0,0-.5,2.654,2.424,2.424,0,0,0,.5.78,2.573,2.573,0,0,0,.752.541,2.1,2.1,0,0,0,.919.206,2.451,2.451,0,0,0,1.278-.34,2.627,2.627,0,0,0,.906-.88.392.392,0,0,1,.186-.154.319.319,0,0,1,.251,0l1.825.72a.271.271,0,0,1,.154.161A.266.266,0,0,1,2518.522,1993.541Z" transform="translate(-2509 -1986.486)" fill="#fff"/>
      </g>
      <g id="Grupo_154577" data-name="Grupo 154577" transform="translate(1826.021 801.204)">
        <path id="Trazado_196664" data-name="Trazado 196664" d="M2577.606,1991.176a4.685,4.685,0,0,1,.386-1.889,5.029,5.029,0,0,1,1.041-1.549,4.891,4.891,0,0,1,1.542-1.047,4.821,4.821,0,0,1,3.778,0,4.93,4.93,0,0,1,2.6,2.6,4.821,4.821,0,0,1,0,3.778,4.93,4.93,0,0,1-2.6,2.6,4.818,4.818,0,0,1-3.778,0,4.889,4.889,0,0,1-1.542-1.047,5.028,5.028,0,0,1-1.041-1.548A4.686,4.686,0,0,1,2577.606,1991.176Zm2.545,0a2.4,2.4,0,0,0,.18.925,2.5,2.5,0,0,0,.495.771,2.414,2.414,0,0,0,.739.533,2.13,2.13,0,0,0,1.8,0,2.493,2.493,0,0,0,.745-.533,2.448,2.448,0,0,0,.5-.771,2.452,2.452,0,0,0,0-1.844,2.355,2.355,0,0,0-.5-.771,2.555,2.555,0,0,0-.745-.527,2.129,2.129,0,0,0-1.8,0,2.472,2.472,0,0,0-.739.527,2.471,2.471,0,0,0-.675,1.69Z" transform="translate(-2577.606 -1986.305)" fill="#fff"/>
      </g>
      <g id="Grupo_154578" data-name="Grupo 154578" transform="translate(1836.695 801.371)">
        <path id="Trazado_196665" data-name="Trazado 196665" d="M2662.052,1987.8v8.79a.307.307,0,0,1-.308.309h-1.9a.562.562,0,0,1-.269-.077.662.662,0,0,1-.218-.18l-3.347-4.716c-.052-.068-.1-.1-.16-.083s-.083.062-.083.148v4.6a.308.308,0,0,1-.31.309h-1.924a.308.308,0,0,1-.31-.309v-8.79a.307.307,0,0,1,.308-.308h1.928a.677.677,0,0,1,.488.244l3.341,4.716a.174.174,0,0,0,.161.09q.083-.013.083-.141v-4.6a.307.307,0,0,1,.308-.308h1.9a.307.307,0,0,1,.308.308Z" transform="translate(-2653.223 -1987.488)" fill="#fff"/>
      </g>
      <g id="Grupo_154579" data-name="Grupo 154579" transform="translate(1847.074 801.371)">
        <path id="Trazado_196666" data-name="Trazado 196666" d="M2735.573,1987.8v8.79a.307.307,0,0,1-.308.309h-1.9a.562.562,0,0,1-.269-.077.662.662,0,0,1-.218-.18l-3.347-4.716c-.051-.068-.1-.1-.16-.083s-.083.062-.083.148v4.6a.309.309,0,0,1-.31.309h-1.924a.308.308,0,0,1-.31-.309v-8.79a.307.307,0,0,1,.309-.308h1.927a.677.677,0,0,1,.488.244l3.341,4.716a.174.174,0,0,0,.161.09q.083-.013.083-.141v-4.6a.307.307,0,0,1,.309-.308h1.9a.307.307,0,0,1,.308.308Z" transform="translate(-2726.744 -1987.488)" fill="#fff"/>
      </g>
      <g id="Grupo_154580" data-name="Grupo 154580" transform="translate(1857.427 801.371)">
        <path id="Trazado_196667" data-name="Trazado 196667" d="M2802.628,1990.161v.54a.308.308,0,0,0,.309.308h3.482a.307.307,0,0,1,.309.308v1.773a.307.307,0,0,1-.309.308h-3.482a.308.308,0,0,0-.309.309v.488a.307.307,0,0,0,.309.308h4a.307.307,0,0,1,.308.309v1.773a.307.307,0,0,1-.308.309h-6.541a.307.307,0,0,1-.308-.309v-8.79a.307.307,0,0,1,.308-.308h6.541a.307.307,0,0,1,.308.308v1.748a.307.307,0,0,1-.308.308h-4a.307.307,0,0,0-.309.308Z" transform="translate(-2800.084 -1987.488)" fill="#fff"/>
      </g>
      <g id="Grupo_154581" data-name="Grupo 154581" transform="translate(1865.133 801.229)">
        <path id="Trazado_196668" data-name="Trazado 196668" d="M2864.193,1993.541a7.369,7.369,0,0,1-.823,1.094,4.732,4.732,0,0,1-1.009.837,4.851,4.851,0,0,1-1.24.537,5.539,5.539,0,0,1-1.5.192,4.84,4.84,0,0,1-1.928-.386,5.143,5.143,0,0,1-1.574-1.041,4.792,4.792,0,0,1-1.06-1.542,4.821,4.821,0,0,1,0-3.778,4.79,4.79,0,0,1,1.06-1.542,5.141,5.141,0,0,1,1.574-1.041,4.84,4.84,0,0,1,1.928-.386,5.615,5.615,0,0,1,1.529.193,4.725,4.725,0,0,1,1.234.54,4.666,4.666,0,0,1,1,.842,8.109,8.109,0,0,1,.816,1.086.248.248,0,0,1,.026.218.27.27,0,0,1-.154.167l-1.825.72a.333.333,0,0,1-.257,0,.385.385,0,0,1-.193-.154,2.723,2.723,0,0,0-.9-.906,2.438,2.438,0,0,0-1.272-.315,2.1,2.1,0,0,0-.919.206,2.49,2.49,0,0,0-1.253,1.34,2.5,2.5,0,0,0,0,1.862,2.429,2.429,0,0,0,.5.78,2.567,2.567,0,0,0,.752.541,2.1,2.1,0,0,0,.919.206,2.453,2.453,0,0,0,1.279-.34,2.629,2.629,0,0,0,.906-.88.391.391,0,0,1,.186-.154.319.319,0,0,1,.25,0l1.825.72a.271.271,0,0,1,.154.161A.267.267,0,0,1,2864.193,1993.541Z" transform="translate(-2854.67 -1986.486)" fill="#fff"/>
      </g>
      <g id="Grupo_154582" data-name="Grupo 154582" transform="translate(1874.226 801.371)">
        <path id="Trazado_196669" data-name="Trazado 196669" d="M2926.183,1989.853h-1.8a.307.307,0,0,0-.309.308v6.425a.309.309,0,0,1-.083.219.292.292,0,0,1-.225.09h-1.928a.307.307,0,0,1-.308-.309v-6.425a.31.31,0,0,0-.083-.218.293.293,0,0,0-.225-.09H2919.4a.307.307,0,0,1-.308-.308V1987.8a.307.307,0,0,1,.308-.308h6.785a.293.293,0,0,1,.225.09.31.31,0,0,1,.083.219v1.748a.309.309,0,0,1-.083.219A.292.292,0,0,1,2926.183,1989.853Z" transform="translate(-2919.089 -1987.488)" fill="#fff"/>
      </g>
      <path id="Trazado_196670" data-name="Trazado 196670" d="M3039.607,1985.477a4.354,4.354,0,1,1-4.354,4.354,4.354,4.354,0,0,1,4.354-4.354" transform="translate(-1144.629 -1184.39)" fill="#fff" fill-rule="evenodd"/>
      <path id="Trazado_196671" data-name="Trazado 196671" d="M2135.818,1316.988a18.341,18.341,0,0,1-1.088,5.933,17.118,17.118,0,0,0,.068,10.548c1.028,3.494-2,9.551-2.739,9.8s-10.275,1.973-12.249,1.808-11.1-10.851-11.1-10.851l.987-9.371Z" transform="translate(-348.884 -610.269)" fill="#12263f" fill-rule="evenodd"/>
      <path id="Trazado_196672" data-name="Trazado 196672" d="M2134.842,1580.934l7.411,61.31-3.776,57.91c.127.173.253.343.378.509.1.132.193.26.29.385.232.305.461.594.69.863.1.123.206.243.313.357,1.7,1.875,3.9,2.328,5.7,2.767,1.395.34,2.469.507,3.415,2.371a.959.959,0,0,1,.07.176,1.063,1.063,0,0,1-1.045,1.357l-16.523-.517a1.594,1.594,0,0,1-1.548-1.419,1.57,1.57,0,0,1,0-.335l1.1-7.213a.235.235,0,0,1,0-.03c-.4-14.08-3.586-34.715-.976-51.162,0,0-15.607-30.854-15.543-31.6s20.037-35.728,20.037-35.728" transform="translate(-354.115 -836.955)" fill="#f7aaac"/>
      <path id="Trazado_196673" data-name="Trazado 196673" d="M2074.635,1965.2c-.718,6.2,3.606,9.875,2.888,16.072-.01,15.516-10.882,33.394-14.559,49.062-.122.519.8,5.447.7,5.961-1.633,1.746-6.287,4.209-6.785-3.843,2.082-13.529,4.67-35.392,10.028-51.851l-3.384-16.409Z" transform="translate(-304.365 -1166.111)" fill="#f7aaac"/>
      <path id="Trazado_196674" data-name="Trazado 196674" d="M2106.827,1642.981c3.574,11.864,1.7,34.64-.15,54.13-13.419,3.446-33.168,2.511-38.1-1.657,3.292-25.42,4.967-49.845,10.226-54.343,11.081-25.894,26.4-4.708,28.025,1.87" transform="translate(-314.413 -877.868)" fill="#12263f" fill-rule="evenodd"/>
      <path id="Trazado_196675" data-name="Trazado 196675" d="M2298.868,1434.138c0,.008-3.382,10.82.218,19.362,2.682,6.365,22.7,3.112,21.18-6.678-.135-.869-9.195,2.106-12.317,1.746-1.4-.161-2.456-1.375-3.15-3-4.318-10.079-2.151-16.712-9.768-21.774-.867-.558,1.3,6.521,3.838,10.339" transform="translate(-508.732 -701.975)" fill="#2ec49f" fill-rule="evenodd"/>
      <path id="Trazado_196676" data-name="Trazado 196676" d="M2078.914,1412.324c-3.156,12.877,9.483,14.491,6.62,40.487,9.469,1.315,21.586,1.768,29.727-.237-1.3-9.565-.223-19.325.155-24.548a26.337,26.337,0,0,0-4.45-17.352c-2.785-4.312-26.719-6.3-32.053,1.649" transform="translate(-322.854 -687.487)" fill="#2ec49f" fill-rule="evenodd"/>
      <path id="Trazado_196677" data-name="Trazado 196677" d="M2131.315,1659.18c.094,1.607.113,3.346.041,5.234l2.453,1.095,6.959-.233-9.451-6.1Z" transform="translate(-368.295 -904.154)" fill="#1d886d" fill-rule="evenodd"/>
      <path id="Trazado_196678" data-name="Trazado 196678" d="M2189.132,1281.15l-.8,3.078.341.5c1.225,2.354-1.732,5.668-3.686,5-5.093-1.149-7.8-6.343-5.673-8.159l.859-.549,1.35-4.293c-.255-.087-1.844-1.684-2.357-2.013a3.023,3.023,0,0,1-.774-2.8c.263-1.158,1.925-.3,1.925-.3-1.325-3.521-3.082-6.586.792-8.347s11.514-1.294,11.514-1.294l4.76-.3c-.969,1.344-1.67,4.606-1.423,8.036.35,4.876-2.6,10.582-6.832,11.433" transform="translate(-408.67 -562.768)" fill="#f7aaac" fill-rule="evenodd"/>
      <path id="Trazado_196679" data-name="Trazado 196679" d="M2214.315,1376.56s1.284,4.894,3.2,5.837.958.374,1.735.493l.795-3.078c-1.452-.163-2.781-.651-5.725-3.252" transform="translate(-439.578 -661.431)" fill="#e16e73" fill-rule="evenodd"/>
      <path id="Trazado_196680" data-name="Trazado 196680" d="M2030.937,1430.065c-11.749,3.643-12.632,26.8-10.958,33.978,1.425,5.829,18.838,12.252,23.881,10.67,2.432-.763,4.043-3.6.731-6.217-4.937-2.756-15.385-6.353-15.55-7.783-.166-4.029,1.615-11.494,3.644-14.472,2.93-4.3,4.937-16.606-1.749-16.176" transform="translate(-272.119 -707.374)" fill="#2ec49f" fill-rule="evenodd"/>
      <path id="Trazado_196681" data-name="Trazado 196681" d="M2187.528,1708.908l1.866.522,4.09-.89c.451-.226,3.419-1.048,2.664-.026-.531.717-2.208,1.931-2.163,2.006.593.982,6.235,2.26,6.293,2.348.827,1.238-2.8.637-3.422.562a22.724,22.724,0,0,1,2.295,1.08,1.247,1.247,0,0,1-1.157.4,15.31,15.31,0,0,0-2.395-.433c-.167.131,2.332,1.073,2.167,1.183a1.1,1.1,0,0,1-.9.178,21.14,21.14,0,0,0-2.336-.544c-.212.1,1.617.663,1.415.734-.157.055-.187.344-.348.329-4.333-.393-4.354-2.608-9.328-2.924-2.767-.177.333-4.062,1.262-4.526" transform="translate(-414.524 -946.095)" fill="#f7aaac" fill-rule="evenodd"/>
      <path id="Trazado_196682" data-name="Trazado 196682" d="M2041.529,1238.911s6.413,1.881,9.3.514c4.981-2.368,5.487-13.246-7.993-13.012-10.725.188-8.713,11.905-22.7,12.873-7.417.513-12.674,6.712-10.165,16.946.02.023,1.849-3.259,4.588-2.859-4.465,5.157-2.22,12-1.548,13.045,2.532-6.631,7.451-13.608,20.542-14.5,5.542-2.1.666-13.9,7.982-13" transform="translate(-263.532 -532.477)" fill="#12263f" fill-rule="evenodd"/>
      <path id="Trazado_196683" data-name="Trazado 196683" d="M2237.318,2445.447s5.753,1.593,5.495,3.366c-.522,3.582-20.27,1.217-20.375,1.086-.7-.87-.783-4.912.16-6.118.7-.9,8.428,3.9,14.721,1.666" transform="translate(-446.094 -1577.9)" fill="#355298" fill-rule="evenodd"/>
      <path id="Trazado_196684" data-name="Trazado 196684" d="M2054.532,2452.754c-.125,2.3-8.432,1.639-9.682.949-1.858-1.026.406-8.259,1.107-7.455,0,0,2.166,3.409,4.727,2.721s1.663-1.449,2.1-.586c.819,1.616,1.861,2.25,1.747,4.37" transform="translate(-293.421 -1580.063)" fill="#355298" fill-rule="evenodd"/>
      <path id="Trazado_196685" data-name="Trazado 196685" d="M2400.167,1510.755l.885-.009,5.278,2.429-7.108,13.393-5.362-.692-.806-.812Z" transform="translate(-593.085 -776.675)" fill="#355298" fill-rule="evenodd"/>
      <path id="Trazado_196686" data-name="Trazado 196686" d="M2425.383,1554.483c-.353-.367.1-1.2-.314-1.736-.616-.8-1.969-1.821-2-2.05-.048-.42,2.211.119,2.454.111.212-.007-1.81-1.858-1.754-2.368-.017-.344.013-.763.559-.395a23.848,23.848,0,0,1,2.071,1.612c.09-.585-1.775-3.232-1.114-3.817.306-.27,1.766,2.161,1.993,1.987.4-.312-.946-3.454-.489-4.1.351.16,1.451.734,2.3,3.459.042.132.735-1.661.829-1.562.452.473.625,4.722.344,5.529a4.674,4.674,0,0,1-4.884,3.326" transform="translate(-618.867 -805.003)" fill="#f7aaac" fill-rule="evenodd"/>
      <path id="Trazado_196687" data-name="Trazado 196687" d="M2802.03,2251.069a10.043,10.043,0,0,0-5.6,2.214,5.59,5.59,0,0,0-1.06,1.064,1.164,1.164,0,0,0,.058,1.133,1.143,1.143,0,0,0,1.483.41c.2-.1.769-.673,1.155-.97a7.824,7.824,0,0,1,10.281.729.991.991,0,0,0,.421.288,1.15,1.15,0,0,0,1.377-1.686,4.534,4.534,0,0,0-.708-.709,9.088,9.088,0,0,0-.784-.631,10.07,10.07,0,0,0-6.626-1.841" transform="translate(-938.508 -1412.465)" fill="#fff" fill-rule="evenodd"/>
      <path id="Trazado_196688" data-name="Trazado 196688" d="M2819.323,2279.073a6.011,6.011,0,0,0-3.83,1.738,1.152,1.152,0,1,0,1.434,1.8c.073-.058.162-.172.227-.234s.167-.143.252-.21a3.977,3.977,0,0,1,2.881-.793,3.766,3.766,0,0,1,1.39.462,3.619,3.619,0,0,1,.551.374l.484.44c1.083.74,2.84-.71,1.1-2.113a6.086,6.086,0,0,0-4.487-1.468" transform="translate(-955.511 -1436.52)" fill="#fff" fill-rule="evenodd"/>
      <path id="Trazado_196689" data-name="Trazado 196689" d="M2836.969,2309.344a1.876,1.876,0,1,0,2.106,1.6,1.87,1.87,0,0,0-2.106-1.6" transform="translate(-972.934 -1462.522)" fill="#fff" fill-rule="evenodd"/>
      <path id="Trazado_196690" data-name="Trazado 196690" d="M2778.431,2227.793c.018-.065-.012-.008.055-.066a12.976,12.976,0,0,1,1.581-1.038,11.714,11.714,0,0,1,6.87-1.366,11.64,11.64,0,0,1,4.275,1.3,13.557,13.557,0,0,1,1.681,1.09l1.288,1.145a1.88,1.88,0,0,1,.2.138,1.209,1.209,0,0,0,1.025-.025,1.153,1.153,0,0,0,.449-1.635,5.209,5.209,0,0,0-.6-.629,13.378,13.378,0,0,0-2.828-2.037,14.127,14.127,0,0,0-13.556.055,13.672,13.672,0,0,0-1.481.952,18.1,18.1,0,0,0-1.477,1.234l-.3.314a1.15,1.15,0,0,0,1.489,1.705l.636-.565a3.964,3.964,0,0,1,.691-.571" transform="translate(-921.418 -1388.35)" fill="#fff" fill-rule="evenodd"/>
      <path id="Trazado_196691" data-name="Trazado 196691" d="M3005.394,2175.781a13.953,13.953,0,1,1-13.954,13.953,13.953,13.953,0,0,1,13.954-13.953" transform="translate(-1107 -1347.83)" fill="#12263f" fill-rule="evenodd"/>
      <path id="Trazado_196692" data-name="Trazado 196692" d="M3042.177,2251.069a10.042,10.042,0,0,0-5.6,2.214,5.582,5.582,0,0,0-1.06,1.064,1.163,1.163,0,0,0,.058,1.133,1.143,1.143,0,0,0,1.483.41c.2-.1.77-.673,1.156-.97a7.824,7.824,0,0,1,10.281.729.988.988,0,0,0,.42.288,1.15,1.15,0,0,0,1.378-1.686,4.545,4.545,0,0,0-.708-.709,9.092,9.092,0,0,0-.784-.631,10.07,10.07,0,0,0-6.626-1.841" transform="translate(-1144.754 -1412.465)" fill="#ddeaf8" fill-rule="evenodd"/>
      <path id="Trazado_196693" data-name="Trazado 196693" d="M3059.47,2279.073a6.011,6.011,0,0,0-3.83,1.738,1.152,1.152,0,1,0,1.434,1.8c.073-.058.162-.172.227-.234s.167-.143.252-.21a3.977,3.977,0,0,1,2.881-.793,3.766,3.766,0,0,1,1.39.462,3.631,3.631,0,0,1,.551.374l.484.44c1.083.74,2.84-.71,1.1-2.113a6.086,6.086,0,0,0-4.486-1.468" transform="translate(-1161.757 -1436.52)" fill="#ddeaf8" fill-rule="evenodd"/>
      <path id="Trazado_196694" data-name="Trazado 196694" d="M3077.115,2309.344a1.876,1.876,0,1,0,2.106,1.6,1.87,1.87,0,0,0-2.106-1.6" transform="translate(-1179.18 -1462.522)" fill="#ddeaf8" fill-rule="evenodd"/>
      <path id="Trazado_196695" data-name="Trazado 196695" d="M3018.579,2227.793c.018-.065-.012-.008.055-.066a12.957,12.957,0,0,1,1.581-1.038,11.712,11.712,0,0,1,6.87-1.366,11.639,11.639,0,0,1,4.275,1.3,13.539,13.539,0,0,1,1.681,1.09l1.288,1.145a1.9,1.9,0,0,1,.2.138,1.209,1.209,0,0,0,1.025-.025,1.153,1.153,0,0,0,.449-1.635,5.176,5.176,0,0,0-.6-.629,13.362,13.362,0,0,0-2.827-2.037,14.127,14.127,0,0,0-13.556.055,13.648,13.648,0,0,0-1.481.952,18.1,18.1,0,0,0-1.477,1.234l-.3.314a1.15,1.15,0,0,0,1.489,1.705l.636-.565a3.965,3.965,0,0,1,.692-.571" transform="translate(-1127.665 -1388.35)" fill="#7ba9e3" fill-rule="evenodd"/>
    </g>
  </g>
</svg>
