<svg xmlns="http://www.w3.org/2000/svg" xmlns:xlink="http://www.w3.org/1999/xlink" width="112" height="112" viewBox="0 0 112 112">
  <defs>
    <linearGradient id="linear-gradient" x1="0.5" x2="0.5" y2="1" gradientUnits="objectBoundingBox">
      <stop offset="0" stop-color="#039be5"/>
      <stop offset="1" stop-color="#027fbc"/>
    </linearGradient>
  </defs>
  <g id="Grupo_155439" data-name="Grupo 155439" transform="translate(8871.824 10720)">
    <circle id="Elipse_5853" data-name="Elipse 5853" cx="56" cy="56" r="56" transform="translate(-8871.824 -10720)" fill="url(#linear-gradient)"/>
    <g id="cBpRW6" transform="translate(-13804.243 -11555.831)">
      <g id="Grupo_143032" data-name="Grupo 143032" transform="translate(4955.523 852.734)">
        <path id="Trazado_184068" data-name="Trazado 184068" d="M4966.608,868.409a16.559,16.559,0,0,1,4.021-10.1,16.174,16.174,0,0,1,25.272,1.041,1.83,1.83,0,0,0,1.685.861,14.061,14.061,0,0,1,12.893,7.485,2.312,2.312,0,0,0,1.3,1.015,12.269,12.269,0,0,1,9.52,12.31,12.131,12.131,0,0,1-10.831,11.681c-.512.061-1.021.135-1.7.226,0,.821-.032,1.629.008,2.433.055,1.082-.388,1.7-1.5,1.571-.98-.111-1.4.279-1.576,1.214a6.359,6.359,0,0,1-.655,1.683c-.591,1.159-1.3,2.261.229,3.323.189.131.082,1.119-.2,1.425-1.433,1.561-2.966,3.032-4.471,4.527a1.177,1.177,0,0,1-1.984-.15c-.593-.775-1.144-.725-1.965-.287-1.17.624-2.451,1.042-3.7,1.556-.318,2.479-.318,2.479-3.4,2.723v5.772c.063.045.13.13.2.132,2.682.052,2.636-.172,2.622,2.8,0,1.255-.027,2.512.008,3.766.028.983-.412,1.451-1.38,1.452-1.688,0-3.376-.008-5.065,0-1.018.007-1.5-.431-1.479-1.491.04-1.6,0-3.2.014-4.805.01-1.524.167-1.664,1.75-1.689.338-.005.676-.029,1.082-.047v-5.874c-.927-.083-2.013.12-2.644-.325-.571-.4-.646-1.512-1-2.477-1.2-.524-2.632-1.2-4.114-1.756-.295-.11-.852.16-1.146.418-1.131.994-1.41,1.023-2.473-.03-1.23-1.218-2.451-2.446-3.674-3.672-1.307-1.31-1.306-1.441.012-2.816.146-.154.281-.319.373-.423-.583-1.507-1.1-2.97-1.733-4.375a1.393,1.393,0,0,0-1.108-.534c-1.285.038-1.843-.481-1.736-1.776.06-.725.01-1.459.01-2.323a12.553,12.553,0,0,1-10.06-4.91,11.754,11.754,0,0,1-2.476-7.493C4955.6,875.273,4959.018,869.619,4966.608,868.409Zm42.152,22.284a21.212,21.212,0,0,0,2.5-.264,9.942,9.942,0,0,0,7.867-10.058,9.81,9.81,0,0,0-8.355-9.615,2.4,2.4,0,0,1-1.977-1.536,11.685,11.685,0,0,0-12.036-6.774,1.752,1.752,0,0,1-1.934-.878,14.05,14.05,0,0,0-26.03,7.231c-.042,1.238-.373,1.744-1.7,1.809a10.014,10.014,0,0,0-9.343,8.724c-.473,5.363,2.541,9.78,7.568,11.02a21.875,21.875,0,0,0,2.6.333c.282-2.178.286-2.165,2.43-2.721a1.041,1.041,0,0,0,.58-.566c.588-1.423,1.134-2.864,1.714-4.351-.138-.147-.312-.338-.491-.522-1.194-1.226-1.194-1.391.027-2.617,1.038-1.043,2.089-2.074,3.121-3.124,1.7-1.73,1.782-2.011,3.671-.1.053.054.154.059.087.036,1.344-.553,2.553-1.138,3.821-1.541.833-.264,1.24-.6,1.11-1.52-.112-.8.09-1.516,1.105-1.523,2.208-.018,4.417-.053,6.62.039.388.016,1.105.679,1.064.947-.249,1.57.665,1.946,1.889,2.3a25.712,25.712,0,0,1,3.1,1.346c.178-.164.37-.334.554-.512,1.236-1.2,1.478-1.191,2.729.06q1.56,1.56,3.122,3.121c1.723,1.722,1.723,1.722.068,3.553a.42.42,0,0,0-.071.171,35.8,35.8,0,0,1,1.543,3.746c.262.892.647,1.191,1.53,1.095,1.016-.11,1.553.378,1.518,1.432C5008.751,889.773,5008.761,890.112,5008.761,890.693Zm-34.721-9.4c1.316,1.577,1.255,1.547.29,3.515a24.969,24.969,0,0,0-1.51,3.973c-.273.934-.68,1.444-1.7,1.351a3.93,3.93,0,0,0-.854.106v4.583c1.819-.431,2.409.539,2.743,2.074a13.705,13.705,0,0,0,1.3,3.228c.993,1.949,1.03,1.93-.282,3.549l3.136,3.227c1.64-1.376,1.623-1.342,3.52-.36a14.553,14.553,0,0,0,3.1,1.288c1.516.378,2.831.758,2.231,2.818h4.64c.258-2.164.28-2.108,1.167-2.459,1.8-.712,3.547-1.54,5.359-2.207a2.644,2.644,0,0,1,1.6.189c.331.115.568.5.866.782l3.189-3.264c-1.346-1.609-1.312-1.592-.3-3.569a14.718,14.718,0,0,0,1.255-3.107c.367-1.494.815-2.7,2.756-2.191v-4.751c-2,.541-2.362-.7-2.779-2.166a18.542,18.542,0,0,0-1.721-3.885,1.484,1.484,0,0,1,.279-2.156,3.453,3.453,0,0,0,.457-.552l-3.116-3.283c-.816.551-1.3,1.658-2.659.929-1.655-.887-3.5-1.418-5.206-2.212a2.645,2.645,0,0,1-1-1.26,3.122,3.122,0,0,1-.029-1.195h-4.785c.7,2.1-.643,2.461-2.17,2.824a9.747,9.747,0,0,0-2.971,1.243c-1.354.87-2.547,1.409-3.582-.411Zm12.644,39.715v3.614h3.451v-3.614Z" transform="translate(-4955.523 -852.734)" fill="#fff"/>
        <path id="Trazado_184069" data-name="Trazado 184069" d="M5160.489,1060.473c-2.215,0-4.366-.012-6.517.007-.8.007-1.6-.07-1.589-1.054.007-.965.791-1.072,1.6-1.065,2.379.019,4.759.037,7.137-.006,1.193-.022,1.6.509,1.589,1.65-.034,3.63-.012,7.26-.012,10.841.12.1.185.206.247.2,3.057-.063,2.613.322,2.634,2.914.011,1.211-.033,2.424.013,3.633.039,1.073-.479,1.486-1.485,1.479-1.644-.011-3.288-.023-4.932,0-1.106.018-1.565-.5-1.548-1.582.026-1.514,0-3.028.007-4.542.006-1.652.2-1.84,1.861-1.864.3,0,.6-.026,1-.044Zm2.89,16.357v-3.588h-3.48v3.588Z" transform="translate(-5101.237 -1004.931)" fill="#fff"/>
        <path id="Trazado_184070" data-name="Trazado 184070" d="M4969.774,1060.493c0,3.328,0,6.478,0,9.628,0,.294.026.588.039.86,2.858.4,2.858.4,2.858,3.349,0,1.124-.024,2.249.008,3.372a1.173,1.173,0,0,1-1.307,1.385q-2.66.022-5.318,0c-.909-.006-1.313-.494-1.3-1.4.017-1.6,0-3.2,0-4.8s.171-1.749,1.8-1.778c.335-.006.669-.037,1.126-.063v-10.412c0-2.249,0-2.249,2.233-2.249,2.205,0,4.41.012,6.615-.005.8-.006,1.422.236,1.405,1.122-.015.834-.641,1-1.372,1C4974.363,1060.482,4972.165,1060.493,4969.774,1060.493ZM4967,1073.268v3.574h3.455v-3.574Z" transform="translate(-4962.354 -1004.951)" fill="#fff"/>
        <path id="Trazado_184071" data-name="Trazado 184071" d="M5029.449,872.632a14.249,14.249,0,0,1,6.788,1.917c.712.417,1.25.94.731,1.759-.49.772-1.193.462-1.825.086a10.705,10.705,0,0,0-7.861-1.38c-4.088.851-6.371,3.737-6.943,8.585-.09.762-.105,1.606-1.125,1.538-1.056-.069-1.082-.928-1.024-1.755C5018.632,877.037,5023.284,872.593,5029.449,872.632Z" transform="translate(-5001.896 -867.462)" fill="#fff"/>
        <path id="Trazado_184072" data-name="Trazado 184072" d="M5045.746,979.97a10.626,10.626,0,0,0,10.525-10.229c.041-.826.245-1.572,1.183-1.508.972.066.982.9.952,1.682a12.807,12.807,0,0,1-25.593-1.033c.218-6.776,5.914-12.514,12.356-12.393a1.9,1.9,0,0,1,1.377.654c.453.678-.156,1.33-1.226,1.407a10.577,10.577,0,0,0-9.312,6.053A10.684,10.684,0,0,0,5045.746,979.97Z" transform="translate(-5012.728 -929.531)" fill="#fff"/>
        <path id="Trazado_184073" data-name="Trazado 184073" d="M5070.04,986.962a6.465,6.465,0,0,1-5.926,6.544c-.742.073-1.476.054-1.6-.859-.14-1,.586-1.191,1.393-1.285a4.347,4.347,0,0,0,4.039-4.3,4.417,4.417,0,0,0-8.811-.512c-.093.819-.207,1.538-1.206,1.447-1.056-.1-.94-.954-.9-1.692a6.521,6.521,0,0,1,13.01.652Z" transform="translate(-5030.638 -947.258)" fill="#fff"/>
      </g>
    </g>
  </g>
</svg>
