<svg id="Grupo_145747" data-name="Grupo 145747" xmlns="http://www.w3.org/2000/svg" xmlns:xlink="http://www.w3.org/1999/xlink" width="87.339" height="87.338" viewBox="0 0 87.339 87.338">
  <defs>
    <radialGradient id="radial-gradient" cx="0.076" cy="0.019" r="1.465" gradientTransform="translate(0.001)" gradientUnits="objectBoundingBox">
      <stop offset="0" stop-color="#f6f6f7"/>
      <stop offset="0.477" stop-color="#f9f9fa"/>
      <stop offset="0.715" stop-color="#fff"/>
    </radialGradient>
  </defs>
  <g id="Grupo_18423" data-name="Grupo 18423" transform="translate(0 0)">
    <g id="Grupo_18421" data-name="Grupo 18421">
      <g id="Grupo_18420" data-name="Grupo 18420">
        <g id="Grupo_18419" data-name="Grupo 18419">
          <path id="Trazado_40936" data-name="Trazado 40936" d="M281.962,2189.389a43.669,43.669,0,1,1-43.669-43.668A43.669,43.669,0,0,1,281.962,2189.389Z" transform="translate(-194.623 -2145.721)" fill="#fff"/>
        </g>
      </g>
    </g>
    <path id="Trazado_40937" data-name="Trazado 40937" d="M281.7,2189.1a43.669,43.669,0,1,0-43.669,43.67A43.5,43.5,0,0,0,281.7,2189.1Z" transform="translate(-194.361 -2145.436)" fill="url(#radial-gradient)"/>
    <path id="Trazado_40938" data-name="Trazado 40938" d="M269.1,2186.859a33.332,33.332,0,1,0-33.333,33.333A33.209,33.209,0,0,0,269.1,2186.859Z" transform="translate(-191.968 -2143.046)" fill="none" stroke="#f59d36" stroke-miterlimit="10" stroke-width="4"/>
    <g id="Grupo_18422" data-name="Grupo 18422" transform="translate(7.736 24.517)">
      <path id="Trazado_40939" data-name="Trazado 40939" d="M275.732,2164.488a43.675,43.675,0,0,1-75.187,43.488,43.536,43.536,0,0,0,75.187-43.488Z" transform="translate(-200.545 -2164.488)" fill="#eceef0"/>
    </g>
  </g>
  <g id="qYkDHW" transform="translate(470.074 -199.104)">
    <g id="Grupo_151945" data-name="Grupo 151945" transform="translate(-444.586 225.916)">
      <path id="Trazado_194416" data-name="Trazado 194416" d="M-386.212,236.322a37.838,37.838,0,0,1-10.667-1.385,25.776,25.776,0,0,1-3.295-1.457,2.807,2.807,0,0,1-.715-.587,2.358,2.358,0,0,1,.081-3.654,9.186,9.186,0,0,1,3.752-1.927,39.5,39.5,0,0,1,12.109-1.386,34.78,34.78,0,0,1,10,1.4,13.3,13.3,0,0,1,3.06,1.379c2.174,1.372,2.158,3.362.033,4.8A14.316,14.316,0,0,1-377,235.439,44.994,44.994,0,0,1-386.212,236.322Zm.245-1.593a43.684,43.684,0,0,0,7.695-.665,16.458,16.458,0,0,0,5.322-1.73c1.417-.826,1.452-1.677,0-2.431a15.241,15.241,0,0,0-3.407-1.308,42.3,42.3,0,0,0-18.3-.25,13.118,13.118,0,0,0-4.533,1.626c-1.23.774-1.269,1.538.005,2.243a15.613,15.613,0,0,0,3.287,1.341A37.591,37.591,0,0,0-385.967,234.729Z" transform="translate(405.916 -225.916)" fill="#12263f"/>
      <path id="Trazado_194417" data-name="Trazado 194417" d="M-431.936,367.22a1.153,1.153,0,0,1-.052.291c-.411.676-.113,1.144.44,1.545a.58.58,0,0,1,.169.176.828.828,0,0,0,1.216.36.65.65,0,0,1,.95.4c.245.584.477,1.174.7,1.767a.6.6,0,0,1-.348.843c-.538.235-.9.565-.7,1.221a.4.4,0,0,1,0,.195,1.064,1.064,0,0,0,.712,1.416.568.568,0,0,1,.286.792q-.364.928-.784,1.833a.623.623,0,0,1-.9.335.867.867,0,0,0-1.271.357.44.44,0,0,1-.138.138,1.117,1.117,0,0,0-.526,1.545.756.756,0,0,1-.288.678,15.958,15.958,0,0,1-1.981.816.6.6,0,0,1-.812-.43.829.829,0,0,0-1.095-.646.436.436,0,0,1-.195,0,1.143,1.143,0,0,0-1.526.762.711.711,0,0,1-.644.252,18.48,18.48,0,0,1-1.977-.813.6.6,0,0,1-.309-.863.9.9,0,0,0-.357-1.315.438.438,0,0,1-.138-.138,1.064,1.064,0,0,0-1.538-.482c-.331.161-.61-.054-.746-.37-.263-.612-.5-1.234-.742-1.857a.593.593,0,0,1,.367-.837c.58-.228.866-.586.678-1.225a.3.3,0,0,1,0-.146,1.109,1.109,0,0,0-.711-1.467.761.761,0,0,1-.275-.689,17,17,0,0,1,.85-2.012.565.565,0,0,1,.806-.239.9.9,0,0,0,1.31-.375.234.234,0,0,1,.071-.067c.59-.4.921-.858.576-1.619a.758.758,0,0,1,.309-.665,15.654,15.654,0,0,1,1.936-.8.625.625,0,0,1,.852.442c.181.519.49.778,1.057.628a.331.331,0,0,1,.146,0,1.22,1.22,0,0,0,1.617-.781.723.723,0,0,1,.658-.227,16.678,16.678,0,0,1,1.974.831C-432.133,366.862-432.031,367.1-431.936,367.22Zm-11.289,4.323.477.324a1.037,1.037,0,0,1,.537,1.187,4.013,4.013,0,0,0-.017,1.46,1.108,1.108,0,0,1-.674,1.311c-.412.2-.306.44-.194.753.118.33.283.406.623.31a1.122,1.122,0,0,1,1.423.515,3.138,3.138,0,0,0,.913.94,1.137,1.137,0,0,1,.475,1.442c-.115.359-.005.529.326.669s.529.152.71-.2a1.158,1.158,0,0,1,1.413-.661,3.1,3.1,0,0,0,1.212.019,1.2,1.2,0,0,1,1.448.693c.06.113.141.216.234.357l.872-.365c-.035-.206-.053-.351-.085-.492a1.14,1.14,0,0,1,.552-1.37,2.811,2.811,0,0,0,.876-.841,1.246,1.246,0,0,1,1.6-.522c.091.027.185.043.269.062.508-.731.506-.736-.157-1.262a.949.949,0,0,1-.471-.9,5.65,5.65,0,0,0,.059-1.554,1.238,1.238,0,0,1,.727-1.476c.428-.211.2-.465.119-.727s-.2-.4-.53-.306a1.137,1.137,0,0,1-1.5-.524,2.745,2.745,0,0,0-.888-.9,1.156,1.156,0,0,1-.5-1.475c.118-.376-.026-.518-.344-.658s-.529-.121-.705.222a1.149,1.149,0,0,1-1.373.655,4.389,4.389,0,0,0-1.407-.008,1,1,0,0,1-1.174-.567c-.236-.506-.55-.5-.957-.261l-.255.15c.022.111.039.206.059.3a1.251,1.251,0,0,1-.6,1.58,2.4,2.4,0,0,0-.822.82,1.125,1.125,0,0,1-1.466.513c-.383-.133-.539.008-.642.336C-443.1,371.227-443.157,371.36-443.225,371.543Z" transform="translate(444.586 -352.132)" fill="#12263f"/>
      <path id="Trazado_194418" data-name="Trazado 194418" d="M-398.8,494.321c.294.079.585.171.882.232a1.52,1.52,0,0,0,.718.07,1.945,1.945,0,0,1,1.515.293,22.02,22.02,0,0,0,6.089,1.566,45.932,45.932,0,0,0,11.669.083,22.738,22.738,0,0,0,6.9-1.725c.222-.1.435-.224.649-.342a1.814,1.814,0,0,0,1.085-1.9,22.619,22.619,0,0,1-.012-2.349.805.805,0,0,1,.766-.9.83.83,0,0,1,.816.909c.008,1.028.017,2.057,0,3.085a2.551,2.551,0,0,1-1,1.887,10.415,10.415,0,0,1-4.3,2.023,40.779,40.779,0,0,1-11.449,1.2,36.6,36.6,0,0,1-10.046-1.4,9.685,9.685,0,0,1-3.291-1.573,13.44,13.44,0,0,1-1.064-1.047Z" transform="translate(403.361 -463.545)" fill="#12263f"/>
      <path id="Trazado_194419" data-name="Trazado 194419" d="M-320.043,371.8c.528-.309.988-.653,1.61-.4a1.352,1.352,0,0,0,.486.019h11.165a2.494,2.494,0,0,0,2.726-2.741q0-5.582,0-11.164a2.486,2.486,0,0,0-2.744-2.721q-5.607,0-11.214,0a1.13,1.13,0,0,0-.389.012,1.588,1.588,0,0,1-1.6-.406,2.924,2.924,0,0,1,1.84-.526h6.121c1.844,0,3.689-.01,5.533.006a3.3,3.3,0,0,1,3.364,3.436q0,5.8,0,11.6a3.3,3.3,0,0,1-3.387,3.412c-3.9.012-7.8,0-11.7.005A2.962,2.962,0,0,1-320.043,371.8Z" transform="translate(332.244 -341.334)" fill="#12263f"/>
      <path id="Trazado_194420" data-name="Trazado 194420" d="M-278.618,378.96c.308-.267.513-.449.726-.623a.22.22,0,0,1,.171-.051c.384.132.765.275,1.146.416.457.169.437.6.54.969.145.518.545.135.9.336-.1-1.08.54-1.394,1.338-1.557a.672.672,0,0,0,.267-.118,1.189,1.189,0,0,1,1.8.107c.664-.44.674-.446.326-1.058a.855.855,0,0,1-.016-.952,6.363,6.363,0,0,0,.541-1.353.892.892,0,0,1,.892-.629c.334-.035.383-.192.391-.478.008-.3-.1-.457-.4-.484a.979.979,0,0,1-.947-.883,6.713,6.713,0,0,0-.43-1.077c.963-.2,1.067-.169,1.352.67.1.306.3.342.551.368.662.07.777.182.833.841a6.546,6.546,0,0,1,.018.88c-.047.941-.092.984-1.029,1.118a.716.716,0,0,0-.145.018,2.676,2.676,0,0,0-.543,1.769c.532.766.531.794-.106,1.473-.156.167-.315.332-.484.486-.685.624-.842.613-1.439.073-.111-.1-.366-.074-.548-.054-.138.015-.261.138-.4.171-.574.139-.949.406-.921,1.084.006.144-.27.416-.432.43a9.756,9.756,0,0,1-1.845-.005c-.168-.018-.414-.338-.431-.536-.043-.5-.209-.8-.737-.911A4.6,4.6,0,0,1-278.618,378.96Z" transform="translate(294.878 -357.166)" fill="#12263f"/>
      <path id="Trazado_194421" data-name="Trazado 194421" d="M-138.479,329.964c0-.44-.027-.881.016-1.316.013-.133.2-.3.342-.362.918-.411,1.862-.766,2.766-1.2a1.571,1.571,0,0,0,.944-1.663c-.059-.794-.021-1.6-.017-2.4,0-.625.288-.958.8-.954s.79.337.793.962c0,.9-.019,1.794.006,2.689a2.674,2.674,0,0,1-.819,2.02A10.058,10.058,0,0,1-138.479,329.964Z" transform="translate(168.476 -312.65)" fill="#12263f"/>
      <path id="Trazado_194422" data-name="Trazado 194422" d="M-138.511,416.318a1.3,1.3,0,0,1-.063-.159c-.1-1.41-.085-1.381,1.221-1.894a16.753,16.753,0,0,0,2.1-1.036,1.4,1.4,0,0,0,.732-1.386c-.039-.863-.014-1.729,0-2.594.006-.572.323-.924.794-.913a.837.837,0,0,1,.788.938q.01,1.493,0,2.986a2.478,2.478,0,0,1-.82,1.771,7.925,7.925,0,0,1-3.028,1.737C-137.359,415.969-137.932,416.134-138.511,416.318Z" transform="translate(168.586 -390.464)" fill="#12263f"/>
      <path id="Trazado_194423" data-name="Trazado 194423" d="M-240.873,458.382l1.01.4-.04.206c-.556,0-1.112.01-1.667-.013-.068,0-.182-.177-.186-.276-.016-.454-.015-.909.007-1.362.018-.376.3-.489.615-.49a.58.58,0,0,0,.638-.518,1.355,1.355,0,0,1,.208-.493.5.5,0,0,0-.089-.729.612.612,0,0,1,.015-.98c.276-.277.558-.548.838-.821a.535.535,0,0,1,.854,0,.58.58,0,0,0,.856.1,1.025,1.025,0,0,1,.406-.163.593.593,0,0,0,.54-.68c-.01-.381.189-.543.553-.608,1.641-.3,2.248.313,1.977,2.02-.444,0-.788-.178-.829-.643-.05-.565-.348-.617-.812-.494-.03.124-.07.249-.089.376a.794.794,0,0,1-.7.761,1.757,1.757,0,0,0-.682.256,1.131,1.131,0,0,1-1.676-.171l-.463.562a2.192,2.192,0,0,1,.306.549,1.354,1.354,0,0,1-.019.682,6.779,6.779,0,0,1-.522,1.256,1,1,0,0,1-.58.49C-240.932,457.682-241,457.953-240.873,458.382Z" transform="translate(261.637 -429.746)" fill="#12263f"/>
      <path id="Trazado_194424" data-name="Trazado 194424" d="M-270.3,377.2a2.422,2.422,0,0,1-2.431-2.515,2.472,2.472,0,0,1,2.527-2.391,2.463,2.463,0,0,1,2.381,2.536A2.422,2.422,0,0,1-270.3,377.2Zm.007-1a1.452,1.452,0,0,0,1.474-1.436,1.477,1.477,0,0,0-1.462-1.464,1.482,1.482,0,0,0-1.453,1.426A1.459,1.459,0,0,0-270.3,376.2Z" transform="translate(289.572 -357.951)" fill="#12263f"/>
      <path id="Trazado_194425" data-name="Trazado 194425" d="M-401.714,325.583c0-.969-.019-1.894.008-2.818a.745.745,0,0,1,.785-.714.743.743,0,0,1,.776.72c.022.748.006,1.5.006,2.263Z" transform="translate(405.92 -312.633)" fill="#12263f"/>
      <path id="Trazado_194426" data-name="Trazado 194426" d="M-197.819,494.836c-.679-.944-1.274-1.175-1.933-.825-.684.364-.828.972-.467,1.983-1.022.177-1.086.111-1.117-.853a2.166,2.166,0,0,1,2.991-2.006c.377.152.593.359.533.8A7.352,7.352,0,0,0-197.819,494.836Z" transform="translate(225.168 -466.812)" fill="#12263f"/>
      <path id="Trazado_194427" data-name="Trazado 194427" d="M-301.613,371.76c-.2.566-.352,1.061-.554,1.536-.053.125-.255.188-.389.279a1.36,1.36,0,0,1-.23-.433,8.985,8.985,0,0,1,0-.92c0-.283.073-.48.411-.465C-302.136,371.768-301.893,371.76-301.613,371.76Z" transform="translate(316.691 -357.469)" fill="#12263f"/>
      <path id="Trazado_194428" data-name="Trazado 194428" d="M-386.221,421.165a2.911,2.911,0,0,1-2.947,2.9,2.931,2.931,0,0,1-2.889-2.967,2.949,2.949,0,0,1,2.908-2.9A2.914,2.914,0,0,1-386.221,421.165Zm-1.191-.057a1.74,1.74,0,0,0-1.807-1.713,1.737,1.737,0,0,0-1.636,1.782,1.739,1.739,0,0,0,1.728,1.7A1.747,1.747,0,0,0-387.412,421.109Z" transform="translate(397.203 -399.361)" fill="#12263f"/>
    </g>
  </g>
</svg>
