<svg xmlns="http://www.w3.org/2000/svg" xmlns:xlink="http://www.w3.org/1999/xlink" width="522" height="165" viewBox="0 0 522 165">
  <defs>
    <filter id="Rectángulo_36007" x="0" y="0" width="179" height="165" filterUnits="userSpaceOnUse">
      <feOffset dy="3" input="SourceAlpha"/>
      <feGaussianBlur stdDeviation="3" result="blur"/>
      <feFlood flood-opacity="0.161"/>
      <feComposite operator="in" in2="blur"/>
      <feComposite in="SourceGraphic"/>
    </filter>
    <filter id="Rectángulo_37253" x="172" y="0" width="179" height="165" filterUnits="userSpaceOnUse">
      <feOffset dy="3" input="SourceAlpha"/>
      <feGaussianBlur stdDeviation="3" result="blur-2"/>
      <feFlood flood-opacity="0.161"/>
      <feComposite operator="in" in2="blur-2"/>
      <feComposite in="SourceGraphic"/>
    </filter>
    <filter id="Rectángulo_37255" x="343" y="0" width="179" height="165" filterUnits="userSpaceOnUse">
      <feOffset dy="3" input="SourceAlpha"/>
      <feGaussianBlur stdDeviation="3" result="blur-3"/>
      <feFlood flood-opacity="0.161"/>
      <feComposite operator="in" in2="blur-3"/>
      <feComposite in="SourceGraphic"/>
    </filter>
  </defs>
  <g id="Grupo_155435" data-name="Grupo 155435" transform="translate(-218 -562)">
    <g transform="matrix(1, 0, 0, 1, 218, 562)" filter="url(#Rectángulo_36007)">
      <rect id="Rectángulo_36007-2" data-name="Rectángulo 36007" width="161" height="147" rx="10" transform="translate(9 6)" fill="#fff"/>
    </g>
    <g transform="matrix(1, 0, 0, 1, 218, 562)" filter="url(#Rectángulo_37253)">
      <rect id="Rectángulo_37253-2" data-name="Rectángulo 37253" width="161" height="147" rx="10" transform="translate(181 6)" fill="#fff"/>
    </g>
    <g transform="matrix(1, 0, 0, 1, 218, 562)" filter="url(#Rectángulo_37255)">
      <rect id="Rectángulo_37255-2" data-name="Rectángulo 37255" width="161" height="147" rx="10" transform="translate(352 6)" fill="#fff"/>
    </g>
    <path id="Trazado_197292" data-name="Trazado 197292" d="M33.77,5.625l2.922,8.25L39.6,5.625h3.078V17H40.324V13.891l.234-5.367L37.488,17H35.879L32.816,8.531l.234,5.359V17H30.707V5.625ZM46.957,17H44.691V8.547h2.266Zm-2.4-10.641a1.112,1.112,0,0,1,.34-.836,1.465,1.465,0,0,1,1.848,0,1.105,1.105,0,0,1,.344.836,1.108,1.108,0,0,1-.348.844,1.448,1.448,0,0,1-1.836,0A1.108,1.108,0,0,1,44.559,6.359Zm7.773,8.977a1.481,1.481,0,0,0,1.016-.344,1.2,1.2,0,0,0,.406-.914h2.117a2.9,2.9,0,0,1-.469,1.574,3.093,3.093,0,0,1-1.262,1.109,3.949,3.949,0,0,1-1.77.395A3.67,3.67,0,0,1,49.512,16a4.56,4.56,0,0,1-1.047-3.184v-.148A4.508,4.508,0,0,1,49.5,9.555a3.627,3.627,0,0,1,2.852-1.164,3.555,3.555,0,0,1,2.543.9,3.2,3.2,0,0,1,.973,2.4H53.754a1.551,1.551,0,0,0-.406-1.072,1.51,1.51,0,0,0-2.223.163,3.333,3.333,0,0,0-.4,1.866v.235a3.375,3.375,0,0,0,.4,1.878A1.377,1.377,0,0,0,52.332,15.336Zm9.578-4.672A6.134,6.134,0,0,0,61.1,10.6a1.654,1.654,0,0,0-1.68.867V17H57.16V8.547h2.133l.063,1.008a2.092,2.092,0,0,1,1.883-1.164,2.366,2.366,0,0,1,.7.1Zm.453,2.031a5.013,5.013,0,0,1,.484-2.242A3.546,3.546,0,0,1,64.242,8.93a4.069,4.069,0,0,1,2.113-.539,3.849,3.849,0,0,1,2.793,1.047,4.2,4.2,0,0,1,1.207,2.844l.016.578a4.418,4.418,0,0,1-1.086,3.121,4.209,4.209,0,0,1-5.832,0,4.5,4.5,0,0,1-1.09-3.187Zm2.258.16a3.16,3.16,0,0,0,.453,1.843,1.628,1.628,0,0,0,2.578.008,3.457,3.457,0,0,0,.461-2.015,3.128,3.128,0,0,0-.461-1.831,1.5,1.5,0,0,0-1.3-.649,1.474,1.474,0,0,0-1.281.646A3.516,3.516,0,0,0,64.621,12.856ZM76.34,14.664a.727.727,0,0,0-.41-.652,4.659,4.659,0,0,0-1.316-.426Q71.6,12.953,71.6,11.023a2.323,2.323,0,0,1,.934-1.879,3.766,3.766,0,0,1,2.441-.754,4.053,4.053,0,0,1,2.574.758,2.388,2.388,0,0,1,.965,1.969H76.254a1.092,1.092,0,0,0-.312-.8A1.322,1.322,0,0,0,74.965,10a1.351,1.351,0,0,0-.883.258.814.814,0,0,0-.312.656.7.7,0,0,0,.355.605,3.657,3.657,0,0,0,1.2.4,9.8,9.8,0,0,1,1.422.379,2.336,2.336,0,0,1,1.789,2.273,2.2,2.2,0,0,1-.992,1.871,4.28,4.28,0,0,1-2.562.715,4.47,4.47,0,0,1-1.887-.379A3.166,3.166,0,0,1,71.8,15.738a2.414,2.414,0,0,1-.469-1.426h2.141a1.179,1.179,0,0,0,.445.922,1.766,1.766,0,0,0,1.109.32,1.635,1.635,0,0,0,.98-.246A.766.766,0,0,0,76.34,14.664Zm3.3-1.969a5.013,5.013,0,0,1,.484-2.242A3.546,3.546,0,0,1,81.516,8.93a4.069,4.069,0,0,1,2.113-.539,3.849,3.849,0,0,1,2.793,1.047,4.2,4.2,0,0,1,1.207,2.844l.016.578a4.418,4.418,0,0,1-1.086,3.121,4.209,4.209,0,0,1-5.832,0,4.5,4.5,0,0,1-1.09-3.187Zm2.258.16a3.16,3.16,0,0,0,.453,1.843,1.628,1.628,0,0,0,2.578.008,3.457,3.457,0,0,0,.461-2.015,3.128,3.128,0,0,0-.461-1.831,1.5,1.5,0,0,0-1.3-.649,1.474,1.474,0,0,0-1.281.646A3.516,3.516,0,0,0,81.895,12.856ZM89.652,17V10.2H88.395V8.547h1.258V7.828a2.918,2.918,0,0,1,.816-2.207,3.162,3.162,0,0,1,2.285-.785,5.278,5.278,0,0,1,1.148.156l-.023,1.75a2.878,2.878,0,0,0-.687-.07q-1.273,0-1.273,1.2v.68H93.6V10.2h-1.68V17Zm7.82-10.531V8.547h1.445V10.2H97.473v4.219a1.007,1.007,0,0,0,.18.672.9.9,0,0,0,.688.2A3.6,3.6,0,0,0,99,15.242v1.711a4.648,4.648,0,0,1-1.367.2,2.156,2.156,0,0,1-2.422-2.4V10.2H93.98V8.547h1.234V6.469Z" transform="translate(240 661)" fill="#12263f"/>
    <path id="Trazado_197293" data-name="Trazado 197293" d="M48.379,15.117h4.977V17h-7.32V5.625h2.344ZM56.934,17H54.668V8.547h2.266Zm-2.4-10.641a1.112,1.112,0,0,1,.34-.836,1.465,1.465,0,0,1,1.848,0,1.105,1.105,0,0,1,.344.836,1.108,1.108,0,0,1-.348.844,1.448,1.448,0,0,1-1.836,0A1.108,1.108,0,0,1,54.535,6.359Zm6.336,2.188.07.977a2.951,2.951,0,0,1,2.43-1.133,2.453,2.453,0,0,1,2,.789,3.682,3.682,0,0,1,.672,2.359V17H63.785V11.594a1.465,1.465,0,0,0-.312-1.043,1.4,1.4,0,0,0-1.039-.324,1.553,1.553,0,0,0-1.43.813V17H58.746V8.547Zm11.945,7.594A2.831,2.831,0,0,1,70.5,17.156a2.67,2.67,0,0,1-2.074-.781,3.335,3.335,0,0,1-.73-2.289V8.547h2.258v5.467q0,1.322,1.2,1.322a1.63,1.63,0,0,0,1.578-.8V8.547H75V17H72.879Zm7.109-5.07,1.422-2.523h2.414l-2.406,4.141L83.863,17H81.441l-1.508-2.656L78.434,17H76l2.508-4.312-2.4-4.141h2.422Z" transform="translate(412 661)" fill="#12263f"/>
    <path id="Trazado_197294" data-name="Trazado 197294" d="M48.219,5.625v7.492a3.836,3.836,0,0,1-1.168,2.953,4.5,4.5,0,0,1-3.191,1.086A4.553,4.553,0,0,1,40.7,16.1a3.77,3.77,0,0,1-1.2-2.9V5.625h2.344v7.508a2.167,2.167,0,0,0,.535,1.629,2.054,2.054,0,0,0,1.48.512q1.977,0,2.008-2.078V5.625Zm9.391,7.227a5.119,5.119,0,0,1-.867,3.168,2.872,2.872,0,0,1-2.422,1.137,2.639,2.639,0,0,1-2.2-1.055l-.1.9H49.992V5H52.25V9.3A2.571,2.571,0,0,1,54.3,8.391,2.9,2.9,0,0,1,56.73,9.527a5.126,5.126,0,0,1,.879,3.2Zm-2.258-.164a3.363,3.363,0,0,0-.406-1.871,1.374,1.374,0,0,0-1.211-.59,1.489,1.489,0,0,0-1.484.883v3.336a1.509,1.509,0,0,0,1.5.891,1.394,1.394,0,0,0,1.438-1.078A5.562,5.562,0,0,0,55.352,12.688Zm8.711,3.453a2.831,2.831,0,0,1-2.312,1.016,2.67,2.67,0,0,1-2.074-.781,3.335,3.335,0,0,1-.73-2.289V8.547H61.2v5.467q0,1.322,1.2,1.322a1.63,1.63,0,0,0,1.578-.8V8.547H66.25V17H64.125Zm5.969-7.594.07.977a2.951,2.951,0,0,1,2.43-1.133,2.453,2.453,0,0,1,2,.789,3.682,3.682,0,0,1,.672,2.359V17H72.945V11.594a1.465,1.465,0,0,0-.312-1.043,1.4,1.4,0,0,0-1.039-.324,1.553,1.553,0,0,0-1.43.813V17H67.906V8.547Zm9.586-2.078V8.547h1.445V10.2H79.617v4.219a1.007,1.007,0,0,0,.18.672.9.9,0,0,0,.688.2,3.6,3.6,0,0,0,.664-.055v1.711a4.648,4.648,0,0,1-1.367.2,2.156,2.156,0,0,1-2.422-2.4V10.2H76.125V8.547h1.234V6.469Zm7.766,9.672a2.831,2.831,0,0,1-2.312,1.016A2.67,2.67,0,0,1,83,16.375a3.335,3.335,0,0,1-.73-2.289V8.547h2.258v5.467q0,1.322,1.2,1.322a1.63,1.63,0,0,0,1.578-.8V8.547H89.57V17H87.445Z" transform="translate(583 661)" fill="#12263f"/>
    <g id="Grupo_142439" data-name="Grupo 142439" transform="translate(445.734 591.499)">
      <circle id="Elipse_4868" data-name="Elipse 4868" cx="30.5" cy="30.5" r="30.5" transform="translate(0.266 -0.499)" fill="#2ec49f"/>
      <g id="ujAiFS.tif" transform="translate(-3301.777 -3684.021)">
        <g id="Grupo_154944" data-name="Grupo 154944" transform="translate(3317.086 3696.472)">
          <path id="Trazado_196925" data-name="Trazado 196925" d="M3325.948,3963.945h-.562l-.273-.05a4.052,4.052,0,0,1-1.945-.994,12.582,12.582,0,0,1-1.641-1.807,20,20,0,0,1-3.272-5.867,20.4,20.4,0,0,1-1.076-4.719c-.032-.327-.062-.655-.093-.982v-1.554a1.135,1.135,0,0,0,.028-.143,11.064,11.064,0,0,1,.837-3.668,8.288,8.288,0,0,1,4.311-4.53,6.806,6.806,0,0,1,5.316-.257c.753.278,1.5.577,2.255.847a2.388,2.388,0,0,0,1.62.054q.95-.33,1.89-.69a8.744,8.744,0,0,1,4.08-.68,8.153,8.153,0,0,1,3.487,1.125,7.634,7.634,0,0,1,2.225,2.114,7.278,7.278,0,0,0-3.548,6.77,7.2,7.2,0,0,0,4.412,6.255c-.045.139-.093.3-.147.45a19.468,19.468,0,0,1-3.012,5.454,9.843,9.843,0,0,1-1.921,2.014,4.016,4.016,0,0,1-3.379.7,9.188,9.188,0,0,1-1.747-.639,6.477,6.477,0,0,0-2.545-.562,7.135,7.135,0,0,0-2.913.635c-.475.2-.958.388-1.45.544A7.547,7.547,0,0,1,3325.948,3963.945Z" transform="translate(-3317.086 -3930.843)" fill="#fff"/>
          <path id="Trazado_196927" data-name="Trazado 196927" d="M3726.334,3696.472a10.274,10.274,0,0,1,.011,1.08,7.357,7.357,0,0,1-2.925,5.338,5.866,5.866,0,0,1-2.706,1.192,8.127,8.127,0,0,1-.871.036c-.156.007-.186-.083-.2-.214a4.723,4.723,0,0,1,.221-2.053,7.548,7.548,0,0,1,5.422-5.2A10.079,10.079,0,0,1,3726.334,3696.472Z" transform="translate(-3706.284 -3696.472)" fill="#fff"/>
        </g>
      </g>
    </g>
    <g id="Grupo_142441" data-name="Grupo 142441" transform="translate(616.747 591.499)">
      <circle id="Elipse_4870" data-name="Elipse 4870" cx="30.5" cy="30.5" r="30.5" transform="translate(0.253 -0.499)" fill="#f59d36"/>
      <g id="ygpzb9.tif" transform="translate(-5205.688 -4010.779)">
        <g id="Grupo_154946" data-name="Grupo 154946" transform="translate(5212.706 4020.245)">
          <path id="Trazado_196932" data-name="Trazado 196932" d="M5570.106,4433.006a5.331,5.331,0,0,1-2.29-1.042,4.375,4.375,0,0,1,0-6.739,4.151,4.151,0,0,1,4.8-.56,4.227,4.227,0,0,1,2.429,4.158,4.441,4.441,0,0,1-3.557,4.1c-.106.021-.209.056-.314.083Z" transform="translate(-5537.009 -4390.758)" fill="#fff"/>
          <path id="Trazado_196933" data-name="Trazado 196933" d="M5413.463,4297.022q.587-1.033,1.176-2.067c.667-1.168,1.346-2.331,2-3.509.158-.287.293-.344.6-.225a9.8,9.8,0,0,0,8.039-.247,9.939,9.939,0,0,0,5.772-7.674q.028-.163.06-.324c.01-.052.024-.1.044-.186l6.9.139c-.205,1.1-.339,2.148-.6,3.163a16.832,16.832,0,0,1-3.845,7.1.423.423,0,0,1-.584.143,6.1,6.1,0,0,0-8.592,4.794c-.028.214-.087.335-.33.378a16.977,16.977,0,0,1-10.555-1.418A.507.507,0,0,1,5413.463,4297.022Z" transform="translate(-5396.868 -4261.087)" fill="#fff"/>
          <path id="Trazado_196934" data-name="Trazado 196934" d="M5316.762,4124.354c-1.125,2-2.24,3.986-3.4,6.059-.733-.63-1.468-1.2-2.132-1.847a16.91,16.91,0,0,1-4.126-6.429.4.4,0,0,1,.143-.547,6.108,6.108,0,0,0-.141-9.773c-.166-.125-.313-.208-.223-.49a17.127,17.127,0,0,1,6.2-8.671c.042-.032.091-.056.167-.1l3.625,5.8a10.246,10.246,0,0,0-.1,16Z" transform="translate(-5299.068 -4095.751)" fill="#fff"/>
          <path id="Trazado_196935" data-name="Trazado 196935" d="M5432.89,4069.673a17.058,17.058,0,0,1,4.144,9.805l-6.837.212a10.282,10.282,0,0,0-14.368-8.136l-3.384-5.956a17.085,17.085,0,0,1,10.753-1.481,6.189,6.189,0,0,0,9.692,5.556Z" transform="translate(-5395.934 -4060.226)" fill="#fff"/>
          <path id="Trazado_196936" data-name="Trazado 196936" d="M5212.706,4225.371a4.416,4.416,0,1,1,4.4,4.413A4.427,4.427,0,0,1,5212.706,4225.371Z" transform="translate(-5212.706 -4204.365)" fill="#fff"/>
          <path id="Trazado_196937" data-name="Trazado 196937" d="M5572.186,4024.681a4.413,4.413,0,0,1-8.825-.017,4.413,4.413,0,1,1,8.825.017Z" transform="translate(-5534.375 -4020.245)" fill="#fff"/>
        </g>
      </g>
    </g>
    <g id="Grupo_142438" data-name="Grupo 142438" transform="translate(273.603 591.499)">
      <ellipse id="Elipse_4775" data-name="Elipse 4775" cx="30" cy="30.5" rx="30" ry="30.5" transform="translate(0.397 -0.499)" fill="#f59d36"/>
      <g id="Grupo_154945" data-name="Grupo 154945" transform="translate(-4930.368 -4104.811)">
        <path id="Trazado_196928" data-name="Trazado 196928" d="M5054.786,4242.823c-3.189-.465-6.233-.906-9.276-1.355-3.413-.5-6.824-1.02-10.237-1.522-1.247-.184-1.249-.173-1.249-1.467,0-4.4.018-8.792-.017-13.187-.006-.78.208-1.022,1-1.019q9.419.045,18.838,0c.791,0,1.016.235,1.012,1.019-.03,5.537-.016,11.074-.019,16.612C5054.842,4242.181,5054.809,4242.458,5054.786,4242.823Z" transform="translate(-76.557 -90.403)" fill="#fff"/>
        <path id="Trazado_196929" data-name="Trazado 196929" d="M5044.45,4133.292c-3.168,0-6.337-.02-9.5.016-.728.008-.921-.235-.917-.933q.038-6.722,0-13.444c0-.659.163-.948.868-1.048,6.041-.859,12.075-1.764,18.113-2.64,1.849-.269,1.853-.246,1.853,1.626,0,5.109-.019,10.219.019,15.328.006.857-.217,1.129-1.1,1.114C5050.673,4133.259,5047.562,4133.291,5044.45,4133.292Z" transform="translate(-76.575)" fill="#fff"/>
        <path id="Trazado_196930" data-name="Trazado 196930" d="M4956.881,4231.989c0,2.281-.018,4.563.01,6.844.008.659-.2.84-.855.742q-6.8-1.034-13.611-2.011c-.646-.092-.848-.373-.845-1q.029-5.689,0-11.378c0-.656.206-.9.887-.893q6.758.037,13.517,0c.728,0,.921.252.911.941C4956.859,4227.483,4956.881,4229.736,4956.881,4231.989Z" transform="translate(-0.006 -90.416)" fill="#fff"/>
        <path id="Trazado_196931" data-name="Trazado 196931" d="M4949.242,4148.077c-2.256,0-4.512-.019-6.768.012-.66.009-.906-.193-.9-.875q.036-5.611,0-11.223c0-.7.271-.934.926-1.026,4.491-.631,8.981-1.274,13.464-1.962.779-.12.928.127.924.828q-.031,6.683,0,13.365c0,.666-.19.9-.876.895C4953.755,4148.055,4951.5,4148.077,4949.242,4148.077Z" transform="translate(0 -14.787)" fill="#fff"/>
      </g>
    </g>
  </g>
</svg>
