<svg xmlns="http://www.w3.org/2000/svg" xmlns:xlink="http://www.w3.org/1999/xlink" width="595.922" height="452.591" viewBox="0 0 595.922 452.591">
  <defs>
    <linearGradient id="linear-gradient" x1="0.5" x2="0.5" y2="1" gradientUnits="objectBoundingBox">
      <stop offset="0" stop-color="#fff"/>
      <stop offset="1" stop-color="#d2e6ee"/>
    </linearGradient>
    <linearGradient id="linear-gradient-17" x1="0.5" x2="0.5" y2="1" gradientUnits="objectBoundingBox">
      <stop offset="0" stop-color="#f5f5f5"/>
      <stop offset="0.25" stop-color="#f5f5f5"/>
      <stop offset="1" stop-color="#a7b3cf"/>
    </linearGradient>
  </defs>
  <g id="Grupo_154998" data-name="Grupo 154998" transform="translate(-800 -5873.865)">
    <g id="Grupo_151144" data-name="Grupo 151144" transform="translate(834.161 5973.923)" opacity="0.158">
      <path id="Trazado_183874" data-name="Trazado 183874" d="M547.437,168.689l-43-24.828,43-24.829,43,24.829Zm-39.958-24.828,39.958,23.07,39.959-23.07-39.959-23.07Z" transform="translate(-89.624 -119.029)" fill="#173d7a"/>
      <path id="Trazado_183875" data-name="Trazado 183875" d="M487.084,168.689l-43-24.829,43-24.828.379.221,42.624,24.608ZM447.125,143.86l39.959,23.071,39.958-23.07-39.959-23.07Z" transform="translate(-112.231 -119.029)" fill="#173d7a"/>
      <path id="Trazado_183876" data-name="Trazado 183876" d="M517.261,186.112l-43-24.828,43-24.829,43,24.829ZM477.3,161.284l39.959,23.07,39.958-23.07-39.958-23.07Z" transform="translate(-100.927 -112.503)" fill="#173d7a"/>
      <path id="Trazado_183877" data-name="Trazado 183877" d="M547.438,203.535l-.379-.22-42.624-24.608,43-24.829.381.22,42.625,24.609Zm-39.959-24.828,39.959,23.07,39.959-23.07-39.96-23.071Z" transform="translate(-89.624 -105.977)" fill="#173d7a"/>
      <path id="Trazado_183878" data-name="Trazado 183878" d="M426.729,168.688l-.379-.22L383.725,143.86l43-24.829.381.221,42.624,24.608ZM386.77,143.86l39.959,23.07,39.959-23.07-39.961-23.07Z" transform="translate(-134.839 -119.03)" fill="#173d7a"/>
      <path id="Trazado_183879" data-name="Trazado 183879" d="M456.907,186.111l-.379-.22L413.9,161.283l43-24.829,43,24.83Zm-39.959-24.828,39.959,23.07,39.958-23.068-39.959-23.071Z" transform="translate(-123.535 -112.503)" fill="#173d7a"/>
      <path id="Trazado_183880" data-name="Trazado 183880" d="M487.085,203.533l-.379-.22-42.624-24.608,43-24.828,43,24.829Zm-39.959-24.828,39.959,23.07,39.956-23.068-39.958-23.071Z" transform="translate(-112.231 -105.977)" fill="#173d7a"/>
      <path id="Trazado_183881" data-name="Trazado 183881" d="M517.262,220.958l-43-24.83,43-24.826.379.22,42.624,24.608ZM477.3,196.127,517.262,219.2l39.958-23.071-39.959-23.07Z" transform="translate(-100.927 -99.45)" fill="#173d7a"/>
      <path id="Trazado_183882" data-name="Trazado 183882" d="M547.439,238.381l-.38-.22-42.624-24.609,43-24.828.381.22,42.624,24.608ZM507.48,213.552l39.959,23.07,39.959-23.07-39.961-23.07Z" transform="translate(-89.623 -92.924)" fill="#173d7a"/>
      <path id="Trazado_183883" data-name="Trazado 183883" d="M366.375,168.688l-43-24.829,43-24.828.379.221,42.624,24.608Zm-39.959-24.829,39.959,23.071,39.958-23.07-39.959-23.07Z" transform="translate(-157.447 -119.03)" fill="#173d7a"/>
      <path id="Trazado_183884" data-name="Trazado 183884" d="M396.553,186.111l-.381-.22-42.624-24.608,43-24.829.379.22,42.624,24.609Zm-39.961-24.828,39.961,23.07,39.958-23.07-39.959-23.07Z" transform="translate(-146.143 -112.503)" fill="#173d7a"/>
      <path id="Trazado_183885" data-name="Trazado 183885" d="M426.73,203.534l-.379-.22-42.624-24.608,43-24.829.381.22,42.624,24.609Zm-39.959-24.828,39.959,23.07,39.959-23.07-39.96-23.071Z" transform="translate(-134.839 -105.977)" fill="#173d7a"/>
      <path id="Trazado_183886" data-name="Trazado 183886" d="M456.908,220.957l-.379-.22L413.9,196.128l43-24.828.381.22,42.623,24.608Zm-39.959-24.829L456.908,219.2l39.958-23.071-39.959-23.07Z" transform="translate(-123.535 -99.451)" fill="#173d7a"/>
      <path id="Trazado_183887" data-name="Trazado 183887" d="M487.084,238.38l-43-24.829,43-24.828,43,24.829Zm-39.958-24.829,39.958,23.07,39.958-23.068-39.958-23.071Z" transform="translate(-112.23 -92.924)" fill="#173d7a"/>
      <path id="Trazado_183888" data-name="Trazado 183888" d="M517.263,255.8l-43.005-24.831,43-24.826.379.22,42.624,24.608ZM477.3,230.973l39.96,23.071,39.958-23.07-39.959-23.07Z" transform="translate(-100.927 -86.398)" fill="#173d7a"/>
      <path id="Trazado_183889" data-name="Trazado 183889" d="M547.44,273.226l-.38-.22L504.436,248.4l43-24.829.381.221L590.443,248.4ZM507.481,248.4l39.959,23.07L587.4,248.4l-39.961-23.07Z" transform="translate(-89.623 -79.872)" fill="#173d7a"/>
      <path id="Trazado_183890" data-name="Trazado 183890" d="M306.02,168.687l-.379-.22-42.624-24.608,43-24.829.381.221,42.624,24.608Zm-39.959-24.828,39.959,23.07,39.959-23.07-39.961-23.07Z" transform="translate(-180.054 -119.03)" fill="#173d7a"/>
      <path id="Trazado_183891" data-name="Trazado 183891" d="M336.2,186.11l-.379-.22-42.624-24.608,43-24.829,43,24.83Zm-39.959-24.828,39.959,23.07,39.958-23.068L336.2,138.212Z" transform="translate(-168.75 -112.504)" fill="#173d7a"/>
      <path id="Trazado_183892" data-name="Trazado 183892" d="M366.376,203.532l-.379-.22L323.372,178.7l43-24.828.379.22,42.624,24.609ZM326.417,178.7l39.959,23.07,39.958-23.068-39.959-23.071Z" transform="translate(-157.446 -105.977)" fill="#173d7a"/>
      <path id="Trazado_183893" data-name="Trazado 183893" d="M396.554,220.957l-43.005-24.83,43-24.826.379.22,42.624,24.608Zm-39.96-24.83,39.96,23.072,39.958-23.071-39.959-23.07Z" transform="translate(-146.142 -99.451)" fill="#173d7a"/>
      <path id="Trazado_183894" data-name="Trazado 183894" d="M426.731,238.38l-.379-.22-42.624-24.609,43-24.828.381.22,42.624,24.608Zm-39.959-24.829,39.959,23.07,39.959-23.07-39.961-23.07Z" transform="translate(-134.838 -92.924)" fill="#173d7a"/>
      <path id="Trazado_183895" data-name="Trazado 183895" d="M456.907,255.8l-43-24.829,43-24.828,43,24.828ZM416.95,230.974l39.958,23.07,39.958-23.07L456.907,207.9Z" transform="translate(-123.534 -86.398)" fill="#173d7a"/>
      <path id="Trazado_183896" data-name="Trazado 183896" d="M487.086,273.225,486.7,273,444.082,248.4l43-24.829,43,24.83ZM447.127,248.4l39.959,23.07L527.044,248.4l-39.959-23.071Z" transform="translate(-112.23 -79.872)" fill="#173d7a"/>
      <path id="Trazado_183897" data-name="Trazado 183897" d="M517.264,290.647l-.381-.22L474.259,265.82l43-24.828.379.22,42.625,24.609ZM477.3,265.82l39.961,23.07,39.958-23.068-39.959-23.07Z" transform="translate(-100.927 -73.345)" fill="#173d7a"/>
      <path id="Trazado_183898" data-name="Trazado 183898" d="M547.441,308.072l-43-24.829,43-24.828.381.22,42.623,24.609Zm-39.959-24.829,39.959,23.071,39.959-23.07-39.961-23.071Z" transform="translate(-89.622 -66.819)" fill="#173d7a"/>
      <path id="Trazado_183899" data-name="Trazado 183899" d="M245.666,168.685l-.379-.22-42.624-24.608,43-24.828.379.221,42.624,24.608Zm-39.959-24.828,39.959,23.07,39.958-23.068-39.959-23.07Z" transform="translate(-202.662 -119.03)" fill="#173d7a"/>
      <path id="Trazado_183900" data-name="Trazado 183900" d="M275.844,186.11l-43-24.829,43-24.828.379.22,42.624,24.609Zm-39.96-24.829,39.96,23.071,39.958-23.07-39.959-23.07Z" transform="translate(-191.358 -112.504)" fill="#173d7a"/>
      <path id="Trazado_183901" data-name="Trazado 183901" d="M306.021,203.533l-.379-.22-42.624-24.608,43-24.829.381.22,42.624,24.609Zm-39.959-24.828,39.959,23.07,39.959-23.07-39.961-23.071Z" transform="translate(-180.054 -105.977)" fill="#173d7a"/>
      <path id="Trazado_183902" data-name="Trazado 183902" d="M336.2,220.956l-.379-.22L293.2,196.127l43-24.828.381.22L379.2,196.127ZM296.24,196.127,336.2,219.2l39.958-23.071L336.2,173.057Z" transform="translate(-168.75 -99.451)" fill="#173d7a"/>
      <path id="Trazado_183903" data-name="Trazado 183903" d="M366.377,238.379l-.381-.22L323.373,213.55l43-24.828,43,24.829ZM326.418,213.55l39.959,23.071,39.958-23.07L366.375,190.48Z" transform="translate(-157.446 -92.925)" fill="#173d7a"/>
      <path id="Trazado_183904" data-name="Trazado 183904" d="M396.555,255.8l-.381-.22L353.55,230.972l43-24.826.379.22,42.624,24.608Zm-39.96-24.829,39.96,23.07,39.958-23.068L396.554,207.9Z" transform="translate(-146.142 -86.398)" fill="#173d7a"/>
      <path id="Trazado_183905" data-name="Trazado 183905" d="M426.732,273.225l-43-24.829,43-24.828,43,24.829ZM386.773,248.4l39.959,23.071L466.69,248.4l-39.959-23.07Z" transform="translate(-134.838 -79.872)" fill="#173d7a"/>
      <path id="Trazado_183906" data-name="Trazado 183906" d="M456.908,290.648l-43-24.828,43-24.829.379.22,42.624,24.609ZM416.951,265.82l39.958,23.07,39.958-23.07-39.959-23.07Z" transform="translate(-123.534 -73.346)" fill="#173d7a"/>
      <path id="Trazado_183907" data-name="Trazado 183907" d="M487.087,308.071l-.381-.22-42.623-24.608,43-24.829.379.22,42.624,24.609Zm-39.959-24.828,39.959,23.07,39.958-23.07-39.959-23.071Z" transform="translate(-112.23 -66.819)" fill="#173d7a"/>
      <path id="Trazado_183908" data-name="Trazado 183908" d="M517.265,325.494l-.381-.22L474.26,300.665l43-24.828,43,24.829ZM477.3,300.665l39.961,23.071,39.958-23.07L517.264,277.6Z" transform="translate(-100.926 -60.293)" fill="#173d7a"/>
      <path id="Trazado_183909" data-name="Trazado 183909" d="M547.442,342.918l-43-24.83,43-24.826.381.22,42.623,24.608Zm-39.959-24.83,39.959,23.071,39.959-23.07-39.96-23.07Z" transform="translate(-89.622 -53.766)" fill="#173d7a"/>
      <path id="Trazado_183910" data-name="Trazado 183910" d="M245.667,203.532l-.379-.22L202.663,178.7l43-24.829,43,24.83ZM205.708,178.7l39.959,23.07,39.958-23.068-39.959-23.072Z" transform="translate(-202.662 -105.978)" fill="#173d7a"/>
      <path id="Trazado_183911" data-name="Trazado 183911" d="M275.845,220.956l-43.005-24.83,43-24.826.379.22,42.624,24.608Zm-39.96-24.83,39.96,23.072L315.8,196.127l-39.959-23.07Z" transform="translate(-191.358 -99.451)" fill="#173d7a"/>
      <path id="Trazado_183912" data-name="Trazado 183912" d="M306.022,238.379l-.379-.22L263.018,213.55l43-24.828.381.22,42.624,24.608ZM266.063,213.55l39.959,23.071,39.959-23.071-39.96-23.07Z" transform="translate(-180.054 -92.925)" fill="#173d7a"/>
      <path id="Trazado_183913" data-name="Trazado 183913" d="M336.2,255.8l-.379-.22L293.2,230.973l43-24.828.379.22L379.2,230.973Zm-39.959-24.829,39.959,23.07,39.958-23.07L336.2,207.9Z" transform="translate(-168.75 -86.398)" fill="#173d7a"/>
      <path id="Trazado_183914" data-name="Trazado 183914" d="M366.378,273.225,366,273,323.374,248.4l43-24.828.379.22L409.38,248.4ZM326.419,248.4l39.959,23.07,39.958-23.07-39.959-23.07Z" transform="translate(-157.445 -79.872)" fill="#173d7a"/>
      <path id="Trazado_183915" data-name="Trazado 183915" d="M396.556,290.647l-.381-.22-42.624-24.608,43-24.829,43,24.83ZM356.6,265.819l39.961,23.07,39.958-23.068-39.959-23.071Z" transform="translate(-146.142 -73.346)" fill="#173d7a"/>
      <path id="Trazado_183916" data-name="Trazado 183916" d="M426.731,308.071l-43-24.829,43-24.828,43,24.829Zm-39.958-24.829,39.958,23.071,39.959-23.07-39.959-23.071Z" transform="translate(-134.838 -66.819)" fill="#173d7a"/>
      <path id="Trazado_183917" data-name="Trazado 183917" d="M456.91,325.494l-.379-.22-42.624-24.609,43-24.828.379.22,42.624,24.608Zm-39.959-24.829,39.959,23.071,39.958-23.071L456.908,277.6Z" transform="translate(-123.534 -60.293)" fill="#173d7a"/>
      <path id="Trazado_183918" data-name="Trazado 183918" d="M487.088,342.917l-.381-.22-42.623-24.609,43-24.828.379.22,42.624,24.608Zm-39.96-24.829,39.96,23.071,39.958-23.071-39.959-23.07Z" transform="translate(-112.23 -53.767)" fill="#173d7a"/>
      <path id="Trazado_183919" data-name="Trazado 183919" d="M517.266,360.34l-.381-.22-42.624-24.609,43-24.828,43,24.829Zm-39.96-24.829,39.96,23.07,39.958-23.068-39.959-23.071Z" transform="translate(-100.926 -47.24)" fill="#173d7a"/>
      <path id="Trazado_183920" data-name="Trazado 183920" d="M547.443,377.763l-.379-.221-42.625-24.608,43-24.828.381.221,42.623,24.608Zm-39.959-24.829L547.443,376,587.4,352.935l-39.96-23.07Z" transform="translate(-89.622 -40.714)" fill="#173d7a"/>
      <path id="Trazado_183921" data-name="Trazado 183921" d="M245.668,238.378l-.379-.22-42.624-24.609,43-24.828,43,24.829Zm-39.959-24.829,39.959,23.071,39.958-23.07-39.959-23.071Z" transform="translate(-202.661 -92.925)" fill="#173d7a"/>
      <path id="Trazado_183922" data-name="Trazado 183922" d="M275.846,255.8l-.381-.22-42.624-24.609,43-24.826.379.22,42.624,24.608Zm-39.96-24.829,39.96,23.07L315.8,230.973,275.845,207.9Z" transform="translate(-191.358 -86.398)" fill="#173d7a"/>
      <path id="Trazado_183923" data-name="Trazado 183923" d="M306.023,273.225l-43-24.83,43-24.826.381.22L349.027,248.4Zm-39.959-24.83,39.959,23.071,39.959-23.07-39.96-23.07Z" transform="translate(-180.053 -79.872)" fill="#173d7a"/>
      <path id="Trazado_183924" data-name="Trazado 183924" d="M336.2,290.647l-.379-.22L293.2,265.819l43-24.829.379.22L379.2,265.819Zm-39.959-24.828,39.959,23.07,39.958-23.07L336.2,242.749Z" transform="translate(-168.749 -73.346)" fill="#173d7a"/>
      <path id="Trazado_183925" data-name="Trazado 183925" d="M366.379,308.07l-.381-.22-42.623-24.608,43-24.829.379.22,42.624,24.609ZM326.42,283.242l39.959,23.069,39.958-23.069-39.959-23.07Z" transform="translate(-157.445 -66.82)" fill="#173d7a"/>
      <path id="Trazado_183926" data-name="Trazado 183926" d="M396.556,325.493l-43-24.828,43-24.829,43,24.829ZM356.6,300.665l39.959,23.07,39.958-23.07-39.958-23.071Z" transform="translate(-146.141 -60.293)" fill="#173d7a"/>
      <path id="Trazado_183927" data-name="Trazado 183927" d="M426.733,342.915l-.379-.22-42.624-24.609,43-24.826.381.22,42.623,24.608Zm-39.959-24.829,39.959,23.071,39.959-23.07-39.961-23.07Z" transform="translate(-134.838 -53.767)" fill="#173d7a"/>
      <path id="Trazado_183928" data-name="Trazado 183928" d="M456.911,360.34l-43-24.831,43-24.826.379.22,42.624,24.608Zm-39.959-24.831,39.959,23.071,39.958-23.07-39.959-23.07Z" transform="translate(-123.533 -47.24)" fill="#173d7a"/>
      <path id="Trazado_183929" data-name="Trazado 183929" d="M487.089,377.763l-.381-.221-42.623-24.608,43-24.828.379.22,42.624,24.608Zm-39.96-24.829L487.089,376l39.958-23.07-39.959-23.07Z" transform="translate(-112.229 -40.714)" fill="#173d7a"/>
      <path id="Trazado_183930" data-name="Trazado 183930" d="M245.669,273.224l-.381-.221-42.623-24.608,43-24.828.379.22,42.624,24.608ZM205.71,248.395l39.959,23.07,39.958-23.07-39.959-23.07Z" transform="translate(-202.661 -79.872)" fill="#173d7a"/>
      <path id="Trazado_183931" data-name="Trazado 183931" d="M275.847,290.646l-.381-.22-42.624-24.608,43-24.829,43,24.83Zm-39.961-24.828,39.961,23.07L315.8,265.819l-39.959-23.071Z" transform="translate(-191.357 -73.346)" fill="#173d7a"/>
      <path id="Trazado_183932" data-name="Trazado 183932" d="M306.024,308.07l-43-24.829,43-24.828.381.22,42.624,24.609Zm-39.959-24.829,39.959,23.071,39.959-23.069-39.961-23.07Z" transform="translate(-180.053 -66.82)" fill="#173d7a"/>
      <path id="Trazado_183933" data-name="Trazado 183933" d="M336.2,325.493l-.379-.22L293.2,300.665l43-24.829.379.22L379.2,300.665Zm-39.959-24.828,39.959,23.07,39.958-23.07L336.2,277.594Z" transform="translate(-168.749 -60.293)" fill="#173d7a"/>
      <path id="Trazado_183934" data-name="Trazado 183934" d="M366.38,342.916,366,342.7l-42.623-24.609,43-24.828,43,24.828Zm-39.96-24.829,39.96,23.071,39.956-23.071-39.958-23.07Z" transform="translate(-157.445 -53.767)" fill="#173d7a"/>
      <path id="Trazado_183935" data-name="Trazado 183935" d="M396.557,360.339l-43-24.829,43-24.828.379.22,42.624,24.608ZM356.6,335.51l39.959,23.07,39.958-23.07-39.959-23.07Z" transform="translate(-146.141 -47.241)" fill="#173d7a"/>
      <path id="Trazado_183936" data-name="Trazado 183936" d="M426.734,377.762l-.379-.221L383.73,352.933l43-24.828,43,24.829Zm-39.959-24.829L426.734,376l39.959-23.068-39.96-23.071Z" transform="translate(-134.837 -40.714)" fill="#173d7a"/>
      <path id="Trazado_183937" data-name="Trazado 183937" d="M245.67,308.069l-.381-.22-42.623-24.608,43-24.829.379.22,42.624,24.609Zm-39.959-24.828,39.959,23.07,39.958-23.07-39.959-23.07Z" transform="translate(-202.66 -66.82)" fill="#173d7a"/>
      <path id="Trazado_183938" data-name="Trazado 183938" d="M275.848,325.492l-.381-.22-42.624-24.608,43-24.829,43,24.83Zm-39.96-24.828,39.96,23.07,39.958-23.068-39.959-23.072Z" transform="translate(-191.357 -60.294)" fill="#173d7a"/>
      <path id="Trazado_183939" data-name="Trazado 183939" d="M306.025,342.914l-.379-.22-42.624-24.609,43-24.826.381.22,42.623,24.608Zm-39.959-24.829,39.959,23.071,39.959-23.07-39.96-23.07Z" transform="translate(-180.053 -53.767)" fill="#173d7a"/>
      <path id="Trazado_183940" data-name="Trazado 183940" d="M336.2,360.339l-43-24.83,43-24.826.379.22,42.624,24.608Zm-39.959-24.83L336.2,358.579l39.958-23.07L336.2,312.44Z" transform="translate(-168.748 -47.241)" fill="#173d7a"/>
      <path id="Trazado_183941" data-name="Trazado 183941" d="M366.379,377.762l-43-24.829,43-24.828,43,24.828ZM326.42,352.933,366.379,376l39.958-23.07-39.958-23.07Z" transform="translate(-157.444 -40.714)" fill="#173d7a"/>
      <path id="Trazado_183942" data-name="Trazado 183942" d="M245.671,342.915l-.381-.22-42.623-24.609,43-24.828.379.22,42.624,24.608Zm-39.96-24.829,39.96,23.071,39.958-23.071-39.959-23.07Z" transform="translate(-202.66 -53.767)" fill="#173d7a"/>
      <path id="Trazado_183943" data-name="Trazado 183943" d="M275.849,360.338l-.381-.22-42.624-24.609,43-24.828.379.22,42.624,24.608Zm-39.96-24.829,39.96,23.07,39.958-23.07-39.959-23.07Z" transform="translate(-191.356 -47.241)" fill="#173d7a"/>
      <path id="Trazado_183944" data-name="Trazado 183944" d="M306.026,377.761l-.379-.221-42.624-24.608,43-24.828,43,24.829Zm-39.959-24.829L306.026,376l39.959-23.068-39.96-23.071Z" transform="translate(-180.052 -40.715)" fill="#173d7a"/>
      <path id="Trazado_183945" data-name="Trazado 183945" d="M245.672,377.761l-.381-.221-42.623-24.608,43-24.828.379.22,42.624,24.608Zm-39.961-24.829L245.672,376l39.958-23.07-39.959-23.07Z" transform="translate(-202.66 -40.715)" fill="#173d7a"/>
    </g>
    <g id="Grupo_41977" data-name="Grupo 41977" transform="translate(800 5873.865)">
      <path id="Trazado_95347" data-name="Trazado 95347" d="M310.1,215.377l38.558-22.261c7.062-4.076,18.508-4.076,25.566,0l16.6,10.065,133.93,77.327c7.062,4.075,7.061,10.684,0,14.758L407.787,362.8" transform="translate(64.374 -37.69)" fill="none" stroke="#00223d" stroke-linecap="round" stroke-linejoin="round" stroke-width="3"/>
      <path id="Trazado_95348" data-name="Trazado 95348" d="M118.68,197.867l74.9-43.246c7.059-4.075,18.506-4.075,25.564,0l16.6,10.066,84.633,48.861" transform="translate(5.325 -49.564)" fill="none" stroke="#00223d" stroke-linecap="round" stroke-linejoin="round" stroke-width="3"/>
      <path id="Trazado_95349" data-name="Trazado 95349" d="M156.007,387.4,40.638,320.793c-7.061-4.077-7.061-10.686,0-14.761l124.885-72.1" transform="translate(-20.382 -24.157)" fill="none" stroke="#00223d" stroke-linecap="round" stroke-linejoin="round" stroke-width="3"/>
      <line id="Línea_335" data-name="Línea 335" x1="88.935" y2="52.591" transform="translate(124.005 295.31)" fill="none" stroke="#00223d" stroke-linecap="round" stroke-linejoin="round" stroke-width="3"/>
      <line id="Línea_336" data-name="Línea 336" x1="146.993" y2="85.36" transform="translate(213.21 199.678)" fill="none" stroke="#00223d" stroke-linecap="round" stroke-linejoin="round" stroke-width="3"/>
      <path id="Trazado_95350" data-name="Trazado 95350" d="M393.628,351.661,257.513,430.248c-7.061,4.074-18.506,4.074-25.565,0L123.635,367.713" transform="translate(6.854 12.161)" fill="none" stroke="#00223d" stroke-linecap="round" stroke-linejoin="round" stroke-width="3"/>
      <path id="Trazado_95351" data-name="Trazado 95351" d="M391,238.585,275.553,171.932a2.152,2.152,0,0,0-2.156,0l-53.337,30.794a2.156,2.156,0,0,0,0,3.734L335.5,273.111a2.146,2.146,0,0,0,2.156,0L391,242.319a2.156,2.156,0,0,0,0-3.734Z" transform="translate(36.266 -43.37)" opacity="0.2" style="mix-blend-mode: multiply;isolation: isolate"/>
      <g id="Grupo_41938" data-name="Grupo 41938" transform="translate(257.403 0)">
        <path id="Trazado_95352" data-name="Trazado 95352" d="M362.2,253.9l-53.337,30.793V155L362.2,124.206Z" transform="translate(-193.412 -58.003)" fill="url(#linear-gradient)"/>
        <path id="Trazado_95353" data-name="Trazado 95353" d="M362.2,144.463l-53.337,30.793v-3.218L362.2,141.244Z" transform="translate(-193.412 -52.748)" fill="#00223d"/>
        <path id="Trazado_95354" data-name="Trazado 95354" d="M362.2,164.5,308.858,195.3v-3.218L362.2,161.284Z" transform="translate(-193.412 -46.566)" fill="#00223d"/>
        <path id="Trazado_95355" data-name="Trazado 95355" d="M362.2,184.544l-53.337,30.794v-3.219L362.2,181.325Z" transform="translate(-193.412 -40.384)" fill="#00223d"/>
        <path id="Trazado_95356" data-name="Trazado 95356" d="M362.2,204.585,308.858,235.38V232.16L362.2,201.366Z" transform="translate(-193.412 -34.202)" fill="#00223d"/>
        <path id="Trazado_95357" data-name="Trazado 95357" d="M333.784,224.285a8.126,8.126,0,0,1-3.677,6.367c-2.031,1.172-3.677.224-3.677-2.122a8.124,8.124,0,0,1,3.677-6.367C332.138,220.99,333.785,221.939,333.784,224.285Z" transform="translate(-187.992 -27.941)" fill="#00223d"/>
        <g id="Grupo_41937" data-name="Grupo 41937" transform="translate(124.38 185.086)">
          <path id="Trazado_95358" data-name="Trazado 95358" d="M319.363,228.364a8.133,8.133,0,0,0-3.677,6.367c0,2.345,1.649,3.295,3.677,2.121a8.112,8.112,0,0,0,3.678-6.366C323.04,228.143,321.4,227.192,319.363,228.364Z" transform="translate(-315.686 -211.114)" fill="#2ec49f"/>
          <path id="Trazado_95359" data-name="Trazado 95359" d="M341.534,215.563a8.137,8.137,0,0,0-3.678,6.37c0,2.343,1.649,3.295,3.678,2.122a8.123,8.123,0,0,0,3.677-6.37C345.211,215.342,343.566,214.393,341.534,215.563Z" transform="translate(-308.847 -215.062)" fill="#e2c140"/>
        </g>
        <path id="Trazado_95360" data-name="Trazado 95360" d="M336.073,293.146,220.629,226.494V96.8l115.445,66.652Z" transform="translate(-220.629 -66.457)" fill="url(#linear-gradient)"/>
        <path id="Trazado_95361" data-name="Trazado 95361" d="M336.074,171.058,220.629,104.405l53.338-30.795,115.445,66.653Z" transform="translate(-220.629 -73.611)" fill="#d2e1f1"/>
        <path id="Trazado_95362" data-name="Trazado 95362" d="M336.073,183.711,220.629,117.059V113.84l115.444,66.652Z" transform="translate(-220.629 -61.201)" fill="#21587b"/>
        <path id="Trazado_95363" data-name="Trazado 95363" d="M336.075,203.751,220.629,137.1V133.88l115.445,66.652Z" transform="translate(-220.629 -55.019)" fill="#21587b"/>
        <path id="Trazado_95364" data-name="Trazado 95364" d="M336.075,223.791,220.629,157.14v-3.219l115.445,66.652Z" transform="translate(-220.629 -48.837)" fill="#21587b"/>
        <path id="Trazado_95365" data-name="Trazado 95365" d="M336.073,243.833,220.629,177.18v-3.218l115.445,66.652Z" transform="translate(-220.629 -42.655)" fill="#21587b"/>
      </g>
      <path id="Trazado_95366" data-name="Trazado 95366" d="M328.067,337.942l-107.7-62.177a11.437,11.437,0,0,0-10.584,0L146.3,312.422a4.747,4.747,0,0,0,0,8.7L253.992,383.3a11.435,11.435,0,0,0,10.583,0l63.492-36.658a4.748,4.748,0,0,0,0-8.7Z" transform="translate(12.966 -11.652)" opacity="0.2" style="mix-blend-mode: multiply;isolation: isolate"/>
      <g id="Grupo_41939" data-name="Grupo 41939" transform="translate(158.66 258.126)">
        <path id="Trazado_95367" data-name="Trazado 95367" d="M328.138,336.9v-.417a2.913,2.913,0,0,0-1.723-2.427L218.721,271.88a9.217,9.217,0,0,0-8.339,0l-63.491,36.656a2.923,2.923,0,0,0-1.725,2.427v.908a.293.293,0,0,0,0,.034v.118a.314.314,0,0,0,0,.035v1.626a.29.29,0,0,0,0,.034v2.911a2.917,2.917,0,0,0,1.725,2.426l107.694,62.177a9.224,9.224,0,0,0,8.339,0l63.491-36.657a2.915,2.915,0,0,0,1.723-2.426V336.9Z" transform="translate(-145.164 -270.883)" fill="#00223d"/>
        <path id="Trazado_95368" data-name="Trazado 95368" d="M326.415,334.057c2.3,1.328,2.3,3.484,0,4.815l-63.491,36.655a9.216,9.216,0,0,1-8.339,0L146.891,313.354c-2.3-1.331-2.3-3.486,0-4.818l63.491-36.656a9.217,9.217,0,0,1,8.339,0Z" transform="translate(-145.164 -270.883)" fill="url(#linear-gradient)"/>
        <path id="Trazado_95369" data-name="Trazado 95369" d="M297.056,325.752c1.821,1.052,1.824,2.76,0,3.81L246.8,358.581a7.31,7.31,0,0,1-6.6,0l-79.657-45.99c-1.823-1.053-1.823-2.76,0-3.81L210.8,279.763a7.29,7.29,0,0,1,6.6,0Z" transform="translate(-140.842 -268.387)" fill="#00223d"/>
        <path id="Trazado_95370" data-name="Trazado 95370" d="M291.894,325.234c1.73,1,1.766,2.6.082,3.572l-46.49,26.839a6.842,6.842,0,0,1-6.185-.043l-75.584-43.642c-1.731-1-1.764-2.6-.079-3.571l46.487-26.841a6.841,6.841,0,0,1,6.187.046Z" transform="translate(-139.849 -267.814)" fill="#a6e4ff"/>
        <path id="Trazado_95371" data-name="Trazado 95371" d="M163.717,310.493l7.614,4.4q14.636-14.642,29.254-29.3l-36.946,21.332C161.954,307.9,161.986,309.493,163.717,310.493Z" transform="translate(-139.849 -266.346)" fill="#bfecff"/>
        <path id="Trazado_95372" data-name="Trazado 95372" d="M247.753,301.666l-13.777-7.953q-19.252,19.25-38.5,38.5l13.776,7.953Q228.5,320.917,247.753,301.666Z" transform="translate(-129.645 -263.84)" fill="#bfecff"/>
        <path id="Trazado_95373" data-name="Trazado 95373" d="M226.3,348.409l37.488-37.486-7.745-4.471q-19.252,19.254-38.5,38.5l4.751,2.745A6.783,6.783,0,0,0,226.3,348.409Z" transform="translate(-122.838 -259.911)" fill="#bfecff"/>
        <path id="Trazado_95374" data-name="Trazado 95374" d="M223.421,287.628l-4.23-2.443Q200,304.479,180.76,323.727l4.16,2.4Q204.172,306.878,223.421,287.628Z" transform="translate(-134.184 -266.471)" fill="#bfecff"/>
        <path id="Trazado_95375" data-name="Trazado 95375" d="M189.684,283.828a1.121,1.121,0,0,1,0,2.125l-18.415,10.635a4.083,4.083,0,0,1-3.686,0h0a1.122,1.122,0,0,1,0-2.126L186,283.828a4.063,4.063,0,0,1,3.685,0Z" transform="translate(-138.484 -267.026)" fill="#00223d"/>
        <path id="Trazado_95376" data-name="Trazado 95376" d="M259.79,330.446c3.164,1.828,3.164,4.789,0,6.618a12.678,12.678,0,0,1-11.461,0c-3.164-1.828-3.164-4.789,0-6.617A12.674,12.674,0,0,1,259.79,330.446Z" transform="translate(-114.073 -252.932)" fill="#fff"/>
        <path id="Trazado_95377" data-name="Trazado 95377" d="M256.883,331.285c1.96,1.133,1.96,2.968,0,4.1a7.846,7.846,0,0,1-7.1,0c-1.959-1.132-1.959-2.966,0-4.1A7.862,7.862,0,0,1,256.883,331.285Z" transform="translate(-113.346 -252.512)" fill="#66797a"/>
        <path id="Trazado_95378" data-name="Trazado 95378" d="M248.573,337.33a.876.876,0,0,1,0,1.656l-15.144,8.741a3.162,3.162,0,0,1-2.864,0h0a.871.871,0,0,1,0-1.651l15.143-8.746a3.168,3.168,0,0,1,2.866,0Z" transform="translate(-119.004 -250.492)" fill="#00223d"/>
        <path id="Trazado_95379" data-name="Trazado 95379" d="M278.263,320.188a.875.875,0,0,1,0,1.655l-15.142,8.743a3.182,3.182,0,0,1-2.868,0h0a.872.872,0,0,1,0-1.653l15.144-8.746a3.168,3.168,0,0,1,2.866,0Z" transform="translate(-109.846 -255.779)" fill="#00223d"/>
      </g>
      <path id="Trazado_95380" data-name="Trazado 95380" d="M268.028,211.987,175.3,158.449a17.929,17.929,0,0,0-8.709-2.308,11.607,11.607,0,0,0-5.789,1.373L27.341,234.566a6.443,6.443,0,0,0-3.432,5.615c0,2.786,1.841,5.446,5.052,7.3l92.732,53.536a17.92,17.92,0,0,0,8.708,2.308,11.6,11.6,0,0,0,5.79-1.375L269.647,224.9a6.441,6.441,0,0,0,3.434-5.615C273.081,216.5,271.24,213.841,268.028,211.987Z" transform="translate(-23.909 -48.152)" opacity="0.2" style="mix-blend-mode: multiply;isolation: isolate"/>
      <g id="Grupo_41940" data-name="Grupo 41940" transform="translate(3.936 105.098)">
        <path id="Trazado_95381" data-name="Trazado 95381" d="M268.21,215.811c0-.016,0-.031,0-.046s0-.033,0-.048,0-.031,0-.048,0-.033,0-.048,0-.033,0-.05,0-.03,0-.046v-.048c0-.016,0-.033,0-.048s0-.033,0-.048,0-.031,0-.047,0-.033,0-.05,0-.031,0-.047,0-.033,0-.048,0-.033,0-.048,0-.031,0-.048,0-.031,0-.047,0-.034,0-.048,0-.033,0-.048,0-.031,0-.047,0-.033,0-.051,0-.033,0-.048,0-.03,0-.045v-.05c0-.016,0-.033,0-.048s0-.033,0-.048,0-.033,0-.047,0-.033,0-.05,0-.031,0-.047,0-.033,0-.048,0-.033,0-.048,0-.031,0-.048,0-.031,0-.048,0-.031,0-.047,0-.033,0-.048,0-.033,0-.048,0-.031,0-.048,0-.031,0-.048,0-.031,0-.047,0-.033,0-.048,0-.033,0-.048,0-.03,0-.043,0-.038,0-.058,0-.029,0-.043,0-.033,0-.048,0-.033,0-.048,0-.033,0-.048,0-.033,0-.047,0-.033,0-.048,0-.033,0-.05,0-.031,0-.047,0-.062,0-.092c.1-1.322-.972-2.847-3.079-4.064L172.4,155.713c-3.363-1.942-8.093-2.361-10.562-.936L28.382,231.829a2.584,2.584,0,0,0-1.459,2.082c0,.048,0,.1,0,.147,0,.018,0,.035,0,.052s0,.031,0,.048,0,.031,0,.047,0,.033,0,.048,0,.033,0,.049,0,.033,0,.048,0,.033,0,.05,0,.03,0,.045,0,.034,0,.05,0,.033,0,.048,0,.033,0,.048,0,.033,0,.048,0,.031,0,.047,0,.033,0,.048,0,.033,0,.048,0,.033,0,.048,0,.033,0,.048,0,.033,0,.047,0,.033,0,.05,0,.031,0,.047,0,.034,0,.05,0,.031,0,.046,0,.033,0,.05,0,.031,0,.048,0,.033,0,.047,0,.033,0,.048,0,.031,0,.047,0,.034,0,.05,0,.033,0,.047,0,.033,0,.048,0,.033,0,.047,0,.034,0,.05,0,.031,0,.048,0,.031,0,.048,0,.031,0,.047,0,.033,0,.05,0,.032,0,.047,0,.033,0,.048,0,.031,0,.048,0,.031,0,.048,0,.031,0,.05,0,.03,0,.043,0,.034,0,.051,0,.033,0,.048,0,.031,0,.047,0,.033,0,.048,0,.033,0,.048,0,.033,0,.05,0,.033,0,.048,0,.03,0,.046,0,.033,0,.048,0,.033,0,.048,0,.033,0,.048,0,.031,0,.048,0,.033,0,.048,0,.031,0,.047,0,.034,0,.048,0,.033,0,.048,0,.033,0,.048,0,.033,0,.047,0,.033,0,.05,0,.031,0,.048,0,.031,0,.047,0,.033,0,.048,0,.032,0,.05,0,.03,0,.047,0,.031,0,.046,0,.034,0,.051,0,.033,0,.048,0,.03,0,.046,0,.031,0,.05,0,.031,0,.047,0,.033,0,.048,0,.033,0,.048,0,.033,0,.048,0,.033,0,.048,0,.031,0,.047,0,.033,0,.048,0,.033,0,.048,0,.033,0,.048,0,.031,0,.048,0,.031,0,.048,0,.031,0,.048,0,.031,0,.047,0,.033,0,.048,0,.033,0,.048,0,.031,0,.047,0,.033,0,.05,0,.031,0,.047,0,.033,0,.048,0,.033,0,.048,0,.031,0,.048,0,.033,0,.048,0,.031,0,.047,0,.033,0,.048,0,.031,0,.048,0,.033,0,.048,0,.031,0,.048,0,.031,0,.048,0,.031,0,.048,0,.031,0,.047,0,.033,0,.048,0,.031,0,.048,0,.031,0,.047,0,.034,0,.048,0,.033,0,.048,0,.033,0,.048,0,.031,0,.047,0,.033,0,.048,0,.033,0,.048,0,.033,0,.048,0,.033,0,.048,0,.031,0,.048,0,.033,0,.048,0,.031,0,.047,0,.033,0,.05,0,.031,0,.048,0,.03,0,.047,0,.031,0,.048,0,.033,0,.047,0,.034,0,.048,0,.033,0,.048,0,.033,0,.048,0,.033,0,.047,0,.033,0,.048,0,.033,0,.05,0,.03,0,.047,0,.033,0,.048,0,.031,0,.047,0,.033,0,.05,0,.031,0,.048,0,.031,0,.048,0,.031,0,.047,0,.031,0,.048,0,.031,0,.048,0,.031,0,.047,0,.034,0,.048,0,.033,0,.048,0,.033,0,.048,0,.033,0,.047,0,.033,0,.048,0,.033,0,.048,0,.033,0,.048,0,.031,0,.048,0,.031,0,.048,0,.031,0,.047,0,.034,0,.05c-.1,1.319.974,2.842,3.078,4.058l92.732,53.538c3.363,1.942,8.092,2.36,10.562.936l133.457-77.052a2.586,2.586,0,0,0,1.459-2.088c0-.016,0-.033,0-.048s0-.033,0-.047,0-.033,0-.05,0-.033,0-.048,0-.03,0-.046,0-.033,0-.05,0-.031,0-.047,0-.034,0-.048,0-.033,0-.048,0-.033,0-.048,0-.031,0-.048,0-.031,0-.048,0-.031,0-.047,0-.033,0-.05,0-.031,0-.047,0-.033,0-.048,0-.033,0-.047,0-.033,0-.05,0-.031,0-.048,0-.031,0-.047,0-.033,0-.048,0-.031,0-.048,0-.031,0-.048,0-.033,0-.047,0-.033,0-.048,0-.033,0-.048,0-.033,0-.048,0-.031,0-.048,0-.031,0-.047,0-.033,0-.05,0-.031,0-.047,0-.033,0-.048,0-.033,0-.048,0-.031,0-.047,0-.033,0-.05,0-.031,0-.047,0-.033,0-.048,0-.031,0-.048,0-.031,0-.048,0-.031,0-.047,0-.033,0-.048,0-.033,0-.048,0-.033,0-.048,0-.031,0-.048,0-.031,0-.048,0-.031,0-.047,0-.033,0-.048,0-.033,0-.048,0-.031,0-.048,0-.033,0-.048,0-.031,0-.047,0-.033,0-.05,0-.03,0-.047,0-.033,0-.048,0-.033,0-.048,0-.031,0-.048,0-.031,0-.047,0-.033,0-.048,0-.033,0-.048,0-.031,0-.048,0-.031,0-.048,0-.031,0-.047,0-.033,0-.048,0-.033,0-.048,0-.033,0-.047,0-.033,0-.048,0-.033,0-.048,0-.033,0-.049,0-.033,0-.048,0-.031,0-.049,0-.033,0-.048,0-.031,0-.047,0-.033,0-.048,0-.033,0-.048,0-.033,0-.048,0-.033,0-.048,0-.03,0-.046,0-.034,0-.052,0-.031,0-.047,0-.031,0-.047,0-.031,0-.046,0-.035,0-.051,0-.033,0-.05,0-.03,0-.045,0-.033,0-.05,0-.031,0-.047,0-.033,0-.05,0-.031,0-.047,0-.033,0-.048,0-.033,0-.048,0-.031,0-.048,0-.031,0-.048,0-.031,0-.047,0-.033,0-.048,0-.033,0-.05,0-.031,0-.047,0-.03,0-.047S268.21,215.828,268.21,215.811Z" transform="translate(-26.917 -153.932)" fill="#00223d"/>
        <path id="Trazado_95382" data-name="Trazado 95382" d="M133.295,292.4c-2.47,1.426-7.2,1.006-10.562-.936L30,237.928c-3.363-1.943-4.088-4.673-1.619-6.1l133.457-77.052c2.469-1.425,7.2-1.006,10.562.936l92.73,53.536c3.364,1.943,4.089,4.673,1.62,6.1Z" transform="translate(-26.917 -153.932)" fill="url(#linear-gradient)"/>
        <path id="Trazado_95383" data-name="Trazado 95383" d="M140.757,276.081c-2.283,1.319-6.575.979-9.586-.758L48.185,227.411c-3.008-1.738-3.6-4.215-1.312-5.535l103.163-59.56c2.283-1.319,6.576-.98,9.586.758l82.986,47.912c3.009,1.736,3.6,4.215,1.314,5.534Z" transform="translate(-21.191 -151.594)" fill="#00223d"/>
        <path id="Trazado_95384" data-name="Trazado 95384" d="M138.348,271.743c-2.168,1.254-6.182.963-8.967-.643L52.617,226.779c-2.783-1.607-3.284-3.924-1.116-5.176l98.061-56.615c2.167-1.251,6.183-.963,8.966.645l76.764,44.319c2.784,1.607,3.284,3.925,1.117,5.176Z" transform="translate(-19.749 -150.761)" fill="#1e2729"/>
        <path id="Trazado_95385" data-name="Trazado 95385" d="M52.617,215.684l.8.465L69.4,200.176,51.5,210.508C49.333,211.76,49.834,214.077,52.617,215.684Z" transform="translate(-19.749 -139.667)" fill="#2b383b"/>
        <path id="Trazado_95386" data-name="Trazado 95386" d="M150.056,164.253a7.753,7.753,0,0,0-4.385.733l-30.777,17.769L62.766,234.883l10.559,6.1Z" transform="translate(-15.859 -150.76)" fill="#2b383b"/>
        <path id="Trazado_95387" data-name="Trazado 95387" d="M184.729,184.623l-12.245-7.071L94.951,255.084l12.246,7.07Z" transform="translate(-5.93 -146.646)" fill="#2b383b"/>
        <path id="Trazado_95388" data-name="Trazado 95388" d="M201.758,194.649l-10.141-5.854-76.094,76.094a6.471,6.471,0,0,0,2.66-.73l33.273-19.21Z" transform="translate(0.416 -143.177)" fill="#2b383b"/>
        <path id="Trazado_95389" data-name="Trazado 95389" d="M195.012,199.186l-.136-.078q-7.07,7.074-14.145,14.145l15.4-8.89C198.3,203.112,197.8,200.793,195.012,199.186Z" transform="translate(20.531 -139.996)" fill="#2b383b"/>
        <path id="Trazado_95390" data-name="Trazado 95390" d="M163.568,172.4l-5.086-2.935L80.951,247l5.085,2.935Q124.8,211.171,163.568,172.4Z" transform="translate(-10.249 -149.139)" fill="#2b383b"/>
        <path id="Trazado_95391" data-name="Trazado 95391" d="M183.89,186.905a4.36,4.36,0,0,1-3.95,0l-19.75-11.4a1.2,1.2,0,0,1,0-2.281h0a4.365,4.365,0,0,1,3.95,0l19.75,11.4a1.2,1.2,0,0,1,0,2.279Z" transform="translate(13.942 -148.127)" fill="#324245"/>
        <path id="Trazado_95392" data-name="Trazado 95392" d="M80.365,239.006a13.585,13.585,0,0,1-12.289,0c-3.4-1.959-3.4-5.137,0-7.1a13.581,13.581,0,0,1,12.289,0C83.757,233.869,83.757,237.047,80.365,239.006Z" transform="translate(-15.006 -130.331)" fill="#00223d"/>
        <path id="Trazado_95393" data-name="Trazado 95393" d="M77.247,237.207a8.421,8.421,0,0,1-7.614,0c-2.1-1.216-2.1-3.183,0-4.4a8.409,8.409,0,0,1,7.613,0C79.348,234.024,79.348,235.992,77.247,237.207Z" transform="translate(-14.227 -129.881)" fill="#4b6366"/>
        <path id="Trazado_95394" data-name="Trazado 95394" d="M70.9,233.545a3.4,3.4,0,0,1-3.074,0L41.112,218.118c-1.155-.667-1.4-1.6-.555-2.095h0a4.117,4.117,0,0,1,3.628.321L70.9,231.771a.937.937,0,0,1,0,1.774Z" transform="translate(-22.865 -134.868)" fill="#00223d"/>
        <path id="Trazado_95395" data-name="Trazado 95395" d="M111.208,256.813a4.116,4.116,0,0,1-3.628-.319l-26.72-15.428a.936.936,0,0,1,0-1.773h0a3.4,3.4,0,0,1,3.072,0L110.65,254.72c1.157.667,1.405,1.605.557,2.094Z" transform="translate(-10.474 -127.713)" fill="#00223d"/>
      </g>
      <path id="Trazado_95396" data-name="Trazado 95396" d="M517.59,345.674l-59.55-34.38a15.818,15.818,0,0,0-14.6,0l-146.4,84.527c-2.423,1.4-3.813,3.5-3.813,5.767s1.387,4.367,3.809,5.766l59.551,34.381a15.821,15.821,0,0,0,14.6,0l146.4-84.527c2.426-1.4,3.814-3.5,3.814-5.768S520.015,347.071,517.59,345.674Z" transform="translate(59.168 -0.842)" opacity="0.2" style="mix-blend-mode: multiply;isolation: isolate"/>
      <path id="Trazado_95397" data-name="Trazado 95397" d="M192.828,402.34a15.473,15.473,0,0,1-14,0c-3.867-2.231-3.867-5.85,0-8.082a15.465,15.465,0,0,1,14,0C196.695,396.49,196.695,400.109,192.828,402.34Z" transform="translate(22.985 24.784)" fill="#00223d"/>
      <path id="Trazado_95398" data-name="Trazado 95398" d="M84.615,326.04a15.472,15.472,0,0,1-14,0c-3.867-2.231-3.867-5.85,0-8.081a15.456,15.456,0,0,1,14,0C88.482,320.19,88.482,323.809,84.615,326.04Z" transform="translate(-10.396 1.247)" fill="#00223d"/>
      <path id="Trazado_95399" data-name="Trazado 95399" d="M153.426,329.627a15.473,15.473,0,0,1-14,0c-3.868-2.231-3.868-5.851,0-8.082a15.464,15.464,0,0,1,14,0C157.292,323.776,157.292,327.4,153.426,329.627Z" transform="translate(10.83 2.354)" fill="#00223d"/>
      <path id="Trazado_95400" data-name="Trazado 95400" d="M265.769,255.817a15.469,15.469,0,0,1-14,0c-3.868-2.234-3.868-5.852,0-8.082a15.462,15.462,0,0,1,14,0C269.636,249.966,269.636,253.584,265.769,255.817Z" transform="translate(45.485 -20.415)" fill="#00223d"/>
      <path id="Trazado_95401" data-name="Trazado 95401" d="M419.128,227.032a15.472,15.472,0,0,1-14,0c-3.865-2.231-3.865-5.85,0-8.082a15.464,15.464,0,0,1,14,0C423,221.182,423,224.8,419.128,227.032Z" transform="translate(92.793 -29.294)" fill="#00223d"/>
      <path id="Trazado_95402" data-name="Trazado 95402" d="M187.247,159.32a15.475,15.475,0,0,1-14,0c-3.867-2.231-3.867-5.85,0-8.082a15.475,15.475,0,0,1,14,0C191.113,153.47,191.113,157.089,187.247,159.32Z" transform="translate(21.263 -50.181)" fill="#00223d"/>
      <path id="Trazado_95403" data-name="Trazado 95403" d="M214.964,388.313,142.024,346.2a14.9,14.9,0,0,0-13.722,0L55.361,388.317a5.7,5.7,0,0,0,0,10.525L128.3,440.957a14.9,14.9,0,0,0,13.719,0l72.941-42.115a5.707,5.707,0,0,0,0-10.529Z" transform="translate(-15.288 9.961)" opacity="0.2" style="mix-blend-mode: multiply;isolation: isolate"/>
      <g id="Grupo_41943" data-name="Grupo 41943" transform="translate(38.826 292.926)">
        <path id="Trazado_95404" data-name="Trazado 95404" d="M132.255,410.651,59.313,368.538a11.585,11.585,0,0,1-3.878-3.991,4.741,4.741,0,0,1-1.853.543v14.77a12.676,12.676,0,0,0,5.731,9.927L132.255,431.9c3.165,1.827,5.731-.551,5.731-4.205V407.343C137.986,411,135.421,412.479,132.255,410.651Z" transform="translate(-53.582 -276.79)" fill="url(#linear-gradient)"/>
        <path id="Trazado_95405" data-name="Trazado 95405" d="M197.318,364.937h-1.571a11.764,11.764,0,0,1-4.115,4.393l-72.944,39.593c-3.166,1.827-5.731,2.868-5.731-.788v20.338c0,3.655,2.566,5.134,5.731,3.309l72.942-42.113a12.674,12.674,0,0,0,5.732-9.927V364.933C197.348,364.933,197.333,364.937,197.318,364.937Z" transform="translate(-35.266 -276.671)" fill="#e1eef2"/>
        <path id="Trazado_95406" data-name="Trazado 95406" d="M182.493,384.791l-60.34,34.837V408.9l60.339-34.838Z" transform="translate(-32.429 -273.855)" fill="#00223d"/>
        <g id="Grupo_41941" data-name="Grupo 41941" transform="translate(91.719 102.982)">
          <path id="Trazado_95407" data-name="Trazado 95407" d="M123.678,408.381l1.627-.938.126,1.268,2.367-1.362.127-1.416,1.629-.94V398.21l-5.874,3.39Z" transform="translate(-123.678 -369.388)" fill="url(#linear-gradient)"/>
          <path id="Trazado_95408" data-name="Trazado 95408" d="M130.037,404.711l1.629-.94.126,1.27,2.365-1.366.127-1.415,1.628-.939V394.54l-5.873,3.388Z" transform="translate(-121.717 -370.52)" fill="url(#linear-gradient)"/>
          <path id="Trazado_95409" data-name="Trazado 95409" d="M136.4,401.041l1.627-.939.128,1.269L140.515,400l.126-1.416,1.629-.939v-6.781l-5.872,3.39Z" transform="translate(-119.755 -371.652)" fill="url(#linear-gradient)"/>
          <path id="Trazado_95410" data-name="Trazado 95410" d="M142.754,397.369l1.627-.939.127,1.269,2.364-1.366.127-1.416,1.627-.939V387.2l-5.873,3.391Z" transform="translate(-117.794 -372.785)" fill="url(#linear-gradient)"/>
          <path id="Trazado_95411" data-name="Trazado 95411" d="M149.113,393.7l1.628-.94.127,1.27,2.365-1.365.127-1.416,1.627-.939v-6.784l-5.873,3.391Z" transform="translate(-115.832 -373.918)" fill="url(#linear-gradient)"/>
          <path id="Trazado_95412" data-name="Trazado 95412" d="M155.471,390.027l1.627-.939.126,1.268,2.366-1.365.126-1.414,1.628-.941v-6.781l-5.873,3.39Z" transform="translate(-113.871 -375.05)" fill="url(#linear-gradient)"/>
          <path id="Trazado_95413" data-name="Trazado 95413" d="M161.83,379.573v6.783l1.628-.939.125,1.269,2.366-1.363.127-1.416,1.627-.941v-6.783Z" transform="translate(-111.909 -376.183)" fill="url(#linear-gradient)"/>
        </g>
        <path id="Trazado_95414" data-name="Trazado 95414" d="M69.861,345.528,62.479,316.91c-.2-.764-1.237-1.193-2.329-.995s-1.914.968-1.828,1.752l3.2,29.379a8.232,8.232,0,0,0,.293,1.446l5.2,28.478a4.208,4.208,0,0,0,8.28-1.511L70.1,346.98A8.519,8.519,0,0,0,69.861,345.528Z" transform="translate(-52.121 -291.807)" fill="url(#linear-gradient)"/>
        <g id="Grupo_41942" data-name="Grupo 41942" transform="translate(9.353 53.441)">
          <path id="Trazado_95415" data-name="Trazado 95415" d="M67.38,339.941a8.375,8.375,0,0,0-.224-1.34l-.072-.28Z" transform="translate(-58.77 -338.321)" fill="#cfdade"/>
          <path id="Trazado_95416" data-name="Trazado 95416" d="M74.55,368.221l-3.358-18.4a4.2,4.2,0,0,1-8.285,1.441L60.73,339.331l.051.478a8.227,8.227,0,0,0,.293,1.446l5.2,28.478a4.208,4.208,0,0,0,8.28-1.511Z" transform="translate(-60.73 -338.01)" fill="#cfdade"/>
        </g>
        <path id="Trazado_95417" data-name="Trazado 95417" d="M82,335.434,73.17,298.891a2.144,2.144,0,0,0-4.157.759l4.65,37.3a13.4,13.4,0,0,0,.365,1.844l6.617,36.263c.534,2.911,2.816,4.934,5.1,4.516s3.708-3.114,3.177-6.027l-6.618-36.264A13.646,13.646,0,0,0,82,335.434Z" transform="translate(-48.826 -297.479)" fill="url(#linear-gradient)"/>
        <path id="Trazado_95418" data-name="Trazado 95418" d="M87.9,364.871l-3.267-17.9c-.008,2.4-1.322,4.43-3.276,4.788-2.289.417-4.57-1.6-5.1-4.517L72.31,325.608l.332,2.668a13.4,13.4,0,0,0,.365,1.844l6.617,36.263c.534,2.911,2.816,4.934,5.1,4.516S88.436,367.784,87.9,364.871Z" transform="translate(-47.805 -288.802)" fill="#cfdade"/>
        <path id="Trazado_95419" data-name="Trazado 95419" d="M95.859,339l-7.381-28.616c-.2-.767-1.238-1.195-2.332-1s-1.913.968-1.827,1.755l3.2,29.378a8.429,8.429,0,0,0,.293,1.445l5.2,28.476a4.208,4.208,0,1,0,8.28-1.51l-5.2-28.478A8.468,8.468,0,0,0,95.859,339Z" transform="translate(-44.102 -293.821)" fill="url(#linear-gradient)"/>
        <path id="Trazado_95420" data-name="Trazado 95420" d="M100.611,362.279l-4.619-25.312a4.2,4.2,0,0,1-8.308.322L86.519,330.9l.323,2.969a8.43,8.43,0,0,0,.293,1.445l5.2,28.476a4.208,4.208,0,1,0,8.28-1.51Z" transform="translate(-43.422 -287.169)" fill="#cfdade"/>
        <path id="Trazado_95421" data-name="Trazado 95421" d="M140.361,421.087a12.669,12.669,0,0,1-11.462,0L55.957,378.974c-3.167-1.829-3.167-4.792,0-6.618L128.9,330.242a12.664,12.664,0,0,1,11.462,0L213.3,372.354c3.168,1.828,3.168,4.79,0,6.62Z" transform="translate(-53.582 -287.795)" fill="url(#linear-gradient)"/>
        <path id="Trazado_95422" data-name="Trazado 95422" d="M137.9,413.182a11.428,11.428,0,0,1-10.329,0L61.857,375.241c-2.851-1.646-2.852-4.317,0-5.964l65.717-37.942a11.424,11.424,0,0,1,10.329,0l65.716,37.94c2.853,1.647,2.853,4.318,0,5.963Z" transform="translate(-51.689 -287.415)" fill="#e1eef2"/>
        <path id="Trazado_95423" data-name="Trazado 95423" d="M61.857,373.229,72.368,379.3q21.264-21.356,42.562-42.675L61.856,367.265C59,368.912,59.006,371.583,61.857,373.229Z" transform="translate(-51.689 -285.404)" fill="#e6f3f7"/>
        <path id="Trazado_95424" data-name="Trazado 95424" d="M146.723,339.213l-10.143-5.858q-27.825,27.827-55.6,55.71l10.075,5.816Z" transform="translate(-45.131 -286.412)" fill="#e6f3f7"/>
        <path id="Trazado_95425" data-name="Trazado 95425" d="M166.1,350.387l-10.147-5.858L100.28,400.2l10.146,5.858Q138.261,378.224,166.1,350.387Z" transform="translate(-39.177 -282.965)" fill="#e6f3f7"/>
        <path id="Trazado_95426" data-name="Trazado 95426" d="M181.669,361.379l-9.831-5.675q-20.483,20.485-40.967,40.967l50.8-29.329C184.521,365.7,184.521,363.026,181.669,361.379Z" transform="translate(-29.74 -279.518)" fill="#e6f3f7"/>
      </g>
      <g id="Grupo_41945" data-name="Grupo 41945" transform="translate(227.867 98.687)">
        <path id="Trazado_95427" data-name="Trazado 95427" d="M224.391,209.006l-26.333-15.2c.059,33.823,10.821,59.579,27.817,72.317l15.05,8.69Z" transform="translate(-198.055 -135.221)" fill="#12263f"/>
        <path id="Trazado_95428" data-name="Trazado 95428" d="M309.276,155.023,298.9,149.032c-1.021.635-2.041,1.265-3.072,1.859-17.195,9.93-33.281,13.056-47.013,10.282C235.081,179.8,219,195.25,201.8,205.179c-1.253.725-2.5,1.4-3.741,2.053v.109c0,.092,0,.182,0,.273l26.333,15.2Z" transform="translate(-198.056 -149.032)" fill="#12263f"/>
        <path id="Trazado_95429" data-name="Trazado 95429" d="M263,182.427l34.312-27.4-10.379-5.992c-1.021.635-2.041,1.265-3.072,1.859-17.195,9.93-33.281,13.056-47.014,10.282l9.709,6.311Z" transform="translate(-186.09 -149.032)" fill="#12263f"/>
        <path id="Trazado_95430" data-name="Trazado 95430" d="M303.246,155.809c-17.2,9.93-33.281,13.056-47.013,10.283-13.732,18.63-29.818,34.075-47.015,44-1.253.724-2.5,1.4-3.741,2.053,0,.037,0,.072,0,.109,0,47.52,20.539,76.971,50.757,80.576,30.217-38.5,50.756-91.665,50.756-139.185v-.107C305.746,154.324,304.5,155.086,303.246,155.809Z" transform="translate(-195.767 -147.641)" fill="#f59d36"/>
        <g id="Grupo_41944" data-name="Grupo 41944" transform="translate(28.537 32.785)">
          <path id="Trazado_95431" data-name="Trazado 95431" d="M236.3,211.519l-16.434-9.489c.037,21.11,6.752,37.184,17.36,45.133l9.392,5.422Z" transform="translate(-219.865 -165.469)" fill="#205173"/>
          <path id="Trazado_95432" data-name="Trazado 95432" d="M289.277,177.828l-6.477-3.74c-.636.4-1.275.79-1.916,1.162-10.733,6.2-20.773,8.148-29.343,6.415-8.571,11.628-18.609,21.268-29.343,27.465-.782.451-1.561.874-2.334,1.282v.067c0,.056,0,.112,0,.17l16.434,9.489Z" transform="translate(-219.865 -174.088)" fill="#3d7293"/>
          <path id="Trazado_95433" data-name="Trazado 95433" d="M262.486,193.258l19.324-15.431-6.477-3.74c-.636.4-1.274.79-1.916,1.162-10.733,6.2-20.773,8.148-29.343,6.415l6.057,3.94Z" transform="translate(-212.397 -174.088)" fill="#21587b"/>
          <path id="Trazado_95434" data-name="Trazado 95434" d="M285.513,178.318c-10.733,6.2-20.771,8.148-29.342,6.418C247.6,196.362,237.563,206,226.83,212.2c-.781.453-1.561.875-2.334,1.281v.068c0,29.658,12.82,48.038,31.677,50.289,18.86-24.026,31.678-57.209,31.678-86.866V176.9C287.074,177.391,286.3,177.867,285.513,178.318Z" transform="translate(-218.437 -173.219)" fill="url(#linear-gradient-17)"/>
          <path id="Trazado_95435" data-name="Trazado 95435" d="M248.7,263.836c18.86-24.026,31.678-57.209,31.678-86.866V176.9c-.775.487-1.552.963-2.336,1.414-10.733,6.2-20.771,8.148-29.343,6.418C248.7,184.736,258.221,214.262,248.7,263.836Z" transform="translate(-210.969 -173.219)" fill="#3d7293"/>
        </g>
      </g>
      <g id="Grupo_41951" data-name="Grupo 41951" transform="translate(341.364 189.527)">
        <path id="Trazado_95436" data-name="Trazado 95436" d="M438.017,219.436,287.493,304.678c-3.291,1.9-3.292,4.976,0,6.875l8.249,6.244c-3.288-1.9-3.288-4.979,0-6.876l146.405-84.529c3.288-1.9,4.8-.64,6.94-2.028,0,0,1.231-.379.237-2.462C447.662,218.421,441.305,217.537,438.017,219.436Z" transform="translate(-284.726 -218.457)" fill="#00223d"/>
        <path id="Trazado_95437" data-name="Trazado 95437" d="M292.646,395.444v-100.5c0-3.8,2.665-5.339,5.958-3.439l-7.85-6.01c-3.289-1.9-5.956-.361-5.956,3.437v100.5c0,3.8,2.528,8.683,5.956,10.317,5.785,2.757,3.753.695,3.753.695C295.482,400.442,294.586,398.613,292.646,395.444Z" transform="translate(-284.796 -198.029)" fill="#00223d"/>
        <path id="Trazado_95438" data-name="Trazado 95438" d="M448.523,324.864a13.165,13.165,0,0,1-5.958,10.317l-146.4,84.526c-3.291,1.9-5.957.361-5.957-3.439v-100.5a13.163,13.163,0,0,1,5.957-10.316l146.4-84.527c3.29-1.9,5.958-.358,5.958,3.439Z" transform="translate(-283.128 -217.946)" fill="url(#linear-gradient)"/>
        <path id="Trazado_95439" data-name="Trazado 95439" d="M441.051,319.8a11.868,11.868,0,0,1-5.5,9.213l-135.22,78.07c-3.037,1.753-5.5.474-5.5-2.863l0-88.217a11.883,11.883,0,0,1,5.5-9.213L435.55,228.721c3.036-1.755,5.5-.474,5.5,2.86Z" transform="translate(-281.703 -215.533)" fill="#1e2729"/>
        <path id="Trazado_95440" data-name="Trazado 95440" d="M301.127,287.718l-1.093.631a11.733,11.733,0,0,0-4.262,4.725Z" transform="translate(-281.41 -197.091)" fill="#2b383b"/>
        <path id="Trazado_95441" data-name="Trazado 95441" d="M294.827,330.151V347.8q51.162-51.164,102.321-102.323l-41.764,24.113Z" transform="translate(-281.702 -210.121)" fill="#2b383b"/>
        <path id="Trazado_95442" data-name="Trazado 95442" d="M441.05,232.009v-.919a5.127,5.127,0,0,0-.224-1.562q-73,73-146,146v2.7Z" transform="translate(-281.702 -215.041)" fill="#2b383b"/>
        <path id="Trazado_95443" data-name="Trazado 95443" d="M295.908,394a9.134,9.134,0,0,1-1.081.915v2.855a3.512,3.512,0,0,0,1.577,3.318q72.326-72.32,144.647-144.643v-7.587Z" transform="translate(-281.702 -209.079)" fill="#2b383b"/>
        <path id="Trazado_95444" data-name="Trazado 95444" d="M428.964,280.494v-8.408l-94.956,94.953,19.9-11.488Q391.436,318.026,428.964,280.494Z" transform="translate(-269.615 -201.913)" fill="#2b383b"/>
        <g id="Grupo_41950" data-name="Grupo 41950" transform="translate(13.804 113.766)">
          <path id="Trazado_95445" data-name="Trazado 95445" d="M518.147,351v-6.328c.008-1.252-.811-2.507-2.468-3.464l-59.547-34.38a13.164,13.164,0,0,0-11.914,0L297.812,391.356c-1.654.953-2.476,2.209-2.464,3.461v7.03c-.012,1.252.81,2.506,2.464,3.462l59.55,34.381a13.171,13.171,0,0,0,11.914,0l146.4-84.527c1.658-.957,2.476-2.21,2.468-3.465V351Z" transform="translate(-295.345 -305.402)" fill="#00223d"/>
          <path id="Trazado_95446" data-name="Trazado 95446" d="M515.68,341.207c3.292,1.9,3.292,4.98,0,6.879l-146.4,84.526a13.163,13.163,0,0,1-11.914,0l-59.55-34.379c-3.29-1.9-3.29-4.98,0-6.877l146.407-84.529a13.163,13.163,0,0,1,11.914,0Z" transform="translate(-295.345 -305.402)" fill="url(#linear-gradient)"/>
          <path id="Trazado_95447" data-name="Trazado 95447" d="M323.58,374.958a.726.726,0,0,1,0,1.374l-8.68,5.009a2.62,2.62,0,0,1-2.383,0l-8.677-5.009a.725.725,0,0,1,0-1.375l8.677-5.009a2.62,2.62,0,0,1,2.383,0Z" transform="translate(-292.878 -285.58)" fill="#00223d"/>
          <g id="Grupo_41946" data-name="Grupo 41946" transform="translate(33.55 7.456)">
            <path id="Trazado_95448" data-name="Trazado 95448" d="M330.16,359.761l-8.679,5.01a.725.725,0,0,0,0,1.375l8.679,5.01a2.626,2.626,0,0,0,2.381,0l8.678-5.01a.727.727,0,0,0,0-1.376l-8.678-5.009A2.626,2.626,0,0,0,330.16,359.761Z" transform="translate(-320.986 -296.178)" fill="#00223d"/>
            <path id="Trazado_95449" data-name="Trazado 95449" d="M340.632,353.714l-8.679,5.011a.725.725,0,0,0,0,1.374l8.676,5.012a2.636,2.636,0,0,0,2.383,0l8.678-5.012a.725.725,0,0,0,0-1.374l-8.678-5.011A2.624,2.624,0,0,0,340.632,353.714Z" transform="translate(-317.755 -298.043)" fill="#00223d"/>
            <path id="Trazado_95450" data-name="Trazado 95450" d="M351.106,347.667l-8.679,5.01a.725.725,0,0,0,0,1.374l8.679,5.013a2.628,2.628,0,0,0,2.383,0l8.678-5.013a.725.725,0,0,0,0-1.374l-8.678-5.01A2.636,2.636,0,0,0,351.106,347.667Z" transform="translate(-314.524 -299.908)" fill="#00223d"/>
            <path id="Trazado_95451" data-name="Trazado 95451" d="M361.58,341.621l-8.68,5.009a.728.728,0,0,0,0,1.378l8.678,5.009a2.638,2.638,0,0,0,2.382,0l8.678-5.008a.728.728,0,0,0,0-1.378l-8.679-5.009A2.626,2.626,0,0,0,361.58,341.621Z" transform="translate(-311.293 -301.774)" fill="#00223d"/>
            <path id="Trazado_95452" data-name="Trazado 95452" d="M372.054,335.573l-8.679,5.011a.725.725,0,0,0,0,1.374l8.679,5.011a2.641,2.641,0,0,0,2.381,0l8.678-5.011a.725.725,0,0,0,0-1.374l-8.681-5.013A2.629,2.629,0,0,0,372.054,335.573Z" transform="translate(-308.062 -303.639)" fill="#00223d"/>
            <path id="Trazado_95453" data-name="Trazado 95453" d="M382.527,329.526l-8.679,5.01a.727.727,0,0,0,0,1.375l8.679,5.01a2.62,2.62,0,0,0,2.383,0l8.676-5.01a.725.725,0,0,0,0-1.375l-8.676-5.01A2.637,2.637,0,0,0,382.527,329.526Z" transform="translate(-304.831 -305.505)" fill="#00223d"/>
            <path id="Trazado_95454" data-name="Trazado 95454" d="M393,323.478l-8.678,5.011a.727.727,0,0,0,0,1.377L393,334.875a2.636,2.636,0,0,0,2.383,0l8.679-5.009a.727.727,0,0,0,0-1.377l-8.679-5.011A2.636,2.636,0,0,0,393,323.478Z" transform="translate(-301.6 -307.37)" fill="#00223d"/>
            <path id="Trazado_95455" data-name="Trazado 95455" d="M403.474,317.431l-8.678,5.01a.727.727,0,0,0,0,1.375l8.678,5.013a2.636,2.636,0,0,0,2.383,0l8.681-5.013a.726.726,0,0,0,0-1.375l-8.681-5.01A2.632,2.632,0,0,0,403.474,317.431Z" transform="translate(-298.369 -309.236)" fill="#00223d"/>
            <path id="Trazado_95456" data-name="Trazado 95456" d="M413.948,311.385l-8.678,5.01a.726.726,0,0,0,0,1.375l8.678,5.012a2.644,2.644,0,0,0,2.383,0l8.679-5.012a.726.726,0,0,0,0-1.375l-8.679-5.01A2.636,2.636,0,0,0,413.948,311.385Z" transform="translate(-295.139 -311.1)" fill="#00223d"/>
          </g>
          <g id="Grupo_41947" data-name="Grupo 41947" transform="translate(23.94 15.575)">
            <path id="Trazado_95457" data-name="Trazado 95457" d="M346.49,365.967l-32.355,18.68a.727.727,0,0,0,0,1.376l8.677,5.012a2.638,2.638,0,0,0,2.384,0l32.353-18.682a.724.724,0,0,0,0-1.374l-8.677-5.011A2.637,2.637,0,0,0,346.49,365.967Z" transform="translate(-313.642 -302.382)" fill="#00223d"/>
            <path id="Trazado_95458" data-name="Trazado 95458" d="M351.383,359.92l-8.679,5.011a.726.726,0,0,0,0,1.375l8.679,5.008a2.619,2.619,0,0,0,2.384,0l8.675-5.008a.725.725,0,0,0,0-1.375l-8.675-5.011A2.639,2.639,0,0,0,351.383,359.92Z" transform="translate(-304.829 -304.247)" fill="#00223d"/>
            <path id="Trazado_95459" data-name="Trazado 95459" d="M361.856,353.872l-8.679,5.012a.725.725,0,0,0,0,1.374l8.679,5.014a2.635,2.635,0,0,0,2.383,0l8.675-5.014a.724.724,0,0,0,0-1.374l-8.675-5.012A2.645,2.645,0,0,0,361.856,353.872Z" transform="translate(-301.598 -306.113)" fill="#00223d"/>
            <path id="Trazado_95460" data-name="Trazado 95460" d="M372.33,347.828l-8.679,5.01a.726.726,0,0,0,0,1.375l8.679,5.012a2.633,2.633,0,0,0,2.381,0l8.679-5.012a.726.726,0,0,0,0-1.375l-8.676-5.01A2.623,2.623,0,0,0,372.33,347.828Z" transform="translate(-298.368 -307.978)" fill="#00223d"/>
            <path id="Trazado_95461" data-name="Trazado 95461" d="M382.8,341.78l-8.679,5.009a.726.726,0,0,0,0,1.376l8.679,5.01a2.633,2.633,0,0,0,2.381,0l8.679-5.01a.727.727,0,0,0,0-1.376l-8.679-5.009A2.625,2.625,0,0,0,382.8,341.78Z" transform="translate(-295.137 -309.843)" fill="#00223d"/>
            <path id="Trazado_95462" data-name="Trazado 95462" d="M393.276,335.732l-8.679,5.009a.727.727,0,0,0,0,1.375l8.679,5.011a2.639,2.639,0,0,0,2.384,0l8.676-5.009a.727.727,0,0,0,0-1.377l-8.676-5.01A2.635,2.635,0,0,0,393.276,335.732Z" transform="translate(-291.906 -311.709)" fill="#00223d"/>
            <path id="Trazado_95463" data-name="Trazado 95463" d="M403.751,329.685l-8.679,5.011a.726.726,0,0,0,0,1.375l8.679,5.01a2.633,2.633,0,0,0,2.381,0l8.68-5.01a.727.727,0,0,0,0-1.375l-8.68-5.011A2.625,2.625,0,0,0,403.751,329.685Z" transform="translate(-288.675 -313.574)" fill="#00223d"/>
            <path id="Trazado_95464" data-name="Trazado 95464" d="M414.225,323.638l-8.679,5.009a.728.728,0,0,0,0,1.376l8.679,5.01a2.633,2.633,0,0,0,2.381,0l8.679-5.01a.726.726,0,0,0,0-1.375l-8.679-5.01A2.633,2.633,0,0,0,414.225,323.638Z" transform="translate(-285.443 -315.439)" fill="#00223d"/>
            <path id="Trazado_95465" data-name="Trazado 95465" d="M424.7,317.59l-8.676,5.011a.725.725,0,0,0,0,1.375l8.676,5.009a2.617,2.617,0,0,0,2.381,0l8.678-5.009a.725.725,0,0,0,0-1.375l-8.678-5.011A2.629,2.629,0,0,0,424.7,317.59Z" transform="translate(-282.213 -317.305)" fill="#00223d"/>
          </g>
          <g id="Grupo_41948" data-name="Grupo 41948" transform="translate(53.209 32.473)">
            <path id="Trazado_95466" data-name="Trazado 95466" d="M368.859,378.882,336.5,397.562a.726.726,0,0,0,0,1.375l8.679,5.013a2.631,2.631,0,0,0,2.38,0l32.357-18.682a.726.726,0,0,0,0-1.375l-8.679-5.01A2.624,2.624,0,0,0,368.859,378.882Z" transform="translate(-336.01 -315.297)" fill="#00223d"/>
            <path id="Trazado_95467" data-name="Trazado 95467" d="M373.75,372.835l-8.678,5.011a.725.725,0,0,0,0,1.374l8.678,5.011a2.637,2.637,0,0,0,2.383,0l8.678-5.011a.725.725,0,0,0,0-1.374l-8.68-5.011A2.635,2.635,0,0,0,373.75,372.835Z" transform="translate(-327.198 -317.162)" fill="#00223d"/>
            <path id="Trazado_95468" data-name="Trazado 95468" d="M425.338,348.647l-49.793,28.747a.726.726,0,0,0,0,1.375l8.679,5.01a2.634,2.634,0,0,0,2.381,0L436.4,355.033a.727.727,0,0,0,0-1.376l-8.679-5.009A2.628,2.628,0,0,0,425.338,348.647Z" transform="translate(-323.967 -324.623)" fill="#00223d"/>
            <path id="Trazado_95469" data-name="Trazado 95469" d="M426.121,342.6l-8.679,5.01a.726.726,0,0,0,0,1.377l8.679,5.009a2.62,2.62,0,0,0,2.379,0l8.681-5.009a.728.728,0,0,0,0-1.377L428.5,342.6A2.629,2.629,0,0,0,426.121,342.6Z" transform="translate(-311.044 -326.489)" fill="#00223d"/>
            <path id="Trazado_95470" data-name="Trazado 95470" d="M450.3,330.505l-22.38,12.922a.726.726,0,0,0,0,1.377l8.678,5.009a2.626,2.626,0,0,0,2.381,0l22.381-12.921a.725.725,0,0,0,0-1.374l-8.678-5.013A2.634,2.634,0,0,0,450.3,330.505Z" transform="translate(-307.813 -330.22)" fill="#00223d"/>
          </g>
          <g id="Grupo_41949" data-name="Grupo 41949" transform="translate(38.391 23.92)">
            <path id="Trazado_95471" data-name="Trazado 95471" d="M343.747,378.428,325.179,389.15a.725.725,0,0,0,0,1.374l8.68,5.011a2.627,2.627,0,0,0,2.383,0l18.563-10.72a.726.726,0,0,0,0-1.377l-8.676-5.01A2.641,2.641,0,0,0,343.747,378.428Z" transform="translate(-324.686 -306.883)" fill="#00223d"/>
            <path id="Trazado_95472" data-name="Trazado 95472" d="M362.427,366.3l-8.677,5.01a.724.724,0,0,0,0,1.374l8.677,5.011a2.636,2.636,0,0,0,2.383,0l8.678-5.011a.724.724,0,0,0,0-1.374l-8.678-5.01A2.628,2.628,0,0,0,362.427,366.3Z" transform="translate(-315.873 -310.626)" fill="#00223d"/>
            <path id="Trazado_95473" data-name="Trazado 95473" d="M351.953,372.344l-8.676,5.01a.726.726,0,0,0,0,1.375l8.676,5.012a2.633,2.633,0,0,0,2.381,0l8.679-5.012a.726.726,0,0,0,0-1.375l-8.68-5.01A2.625,2.625,0,0,0,351.953,372.344Z" transform="translate(-319.103 -308.76)" fill="#00223d"/>
            <path id="Trazado_95474" data-name="Trazado 95474" d="M372.9,360.251l-8.678,5.009a.727.727,0,0,0,0,1.377l8.678,5.01a2.639,2.639,0,0,0,2.384,0l8.676-5.01a.727.727,0,0,0,0-1.377l-8.678-5.009A2.639,2.639,0,0,0,372.9,360.251Z" transform="translate(-312.642 -312.491)" fill="#00223d"/>
            <path id="Trazado_95475" data-name="Trazado 95475" d="M383.374,354.2l-8.677,5.012a.725.725,0,0,0,0,1.375l8.679,5.01a2.626,2.626,0,0,0,2.382,0l8.677-5.01a.725.725,0,0,0,0-1.375l-8.677-5.012A2.639,2.639,0,0,0,383.374,354.2Z" transform="translate(-309.411 -314.356)" fill="#00223d"/>
            <path id="Trazado_95476" data-name="Trazado 95476" d="M393.848,348.156l-8.678,5.011a.727.727,0,0,0,0,1.377l8.678,5.01a2.633,2.633,0,0,0,2.381,0l8.68-5.01a.726.726,0,0,0,0-1.377l-8.677-5.011A2.642,2.642,0,0,0,393.848,348.156Z" transform="translate(-306.18 -316.222)" fill="#00223d"/>
            <path id="Trazado_95477" data-name="Trazado 95477" d="M404.324,342.109l-8.679,5.01a.726.726,0,0,0,0,1.376l8.679,5.009a2.625,2.625,0,0,0,2.381,0l8.678-5.009a.727.727,0,0,0,0-1.376l-8.678-5.01A2.633,2.633,0,0,0,404.324,342.109Z" transform="translate(-302.949 -318.087)" fill="#00223d"/>
            <path id="Trazado_95478" data-name="Trazado 95478" d="M414.8,336.062l-8.68,5.01a.726.726,0,0,0,0,1.375l8.679,5.011a2.636,2.636,0,0,0,2.383,0l8.677-5.011a.726.726,0,0,0,0-1.375l-8.677-5.01A2.628,2.628,0,0,0,414.8,336.062Z" transform="translate(-299.718 -319.953)" fill="#00223d"/>
            <path id="Trazado_95479" data-name="Trazado 95479" d="M425.27,330.015l-8.678,5.01a.726.726,0,0,0,0,1.375l8.678,5.011a2.635,2.635,0,0,0,2.383,0l8.676-5.01a.726.726,0,0,0,0-1.375l-8.676-5.01A2.636,2.636,0,0,0,425.27,330.015Z" transform="translate(-296.487 -321.818)" fill="#00223d"/>
            <path id="Trazado_95480" data-name="Trazado 95480" d="M435.744,323.968l-8.679,5.009a.726.726,0,0,0,0,1.375l8.679,5.012a2.625,2.625,0,0,0,2.381,0l8.68-5.012a.726.726,0,0,0,0-1.375l-8.68-5.009A2.629,2.629,0,0,0,435.744,323.968Z" transform="translate(-293.256 -323.683)" fill="#00223d"/>
          </g>
        </g>
      </g>
      <g id="Grupo_151149" data-name="Grupo 151149" transform="translate(481.251 111.347)">
        <g id="Grupo_34836" data-name="Grupo 34836">
          <g id="Grupo_34835" data-name="Grupo 34835">
            <g id="Grupo_34834" data-name="Grupo 34834" style="isolation: isolate">
              <g id="Grupo_34831" data-name="Grupo 34831" transform="translate(33.164 19.147)">
                <path id="Trazado_85790" data-name="Trazado 85790" d="M208.057,321.69l2.822-1.64-.108,38.107-2.822,1.641Z" transform="translate(-207.949 -320.05)" fill="#264d65"/>
              </g>
              <g id="Grupo_34832" data-name="Grupo 34832" transform="translate(0.108)">
                <path id="Trazado_85791" data-name="Trazado 85791" d="M194.272,313.768l2.822-1.64,33.164,19.147-2.822,1.64Z" transform="translate(-194.272 -312.128)" fill="#264d65"/>
              </g>
              <g id="Grupo_34833" data-name="Grupo 34833" transform="translate(0 1.64)">
                <path id="Trazado_85792" data-name="Trazado 85792" d="M227.5,331.953l-.108,38.108-33.164-19.148.108-38.107Z" transform="translate(-194.227 -312.806)" fill="#21587b"/>
              </g>
            </g>
          </g>
        </g>
        <g id="Grupo_34838" data-name="Grupo 34838" transform="translate(4.062 13.538)">
          <g id="Grupo_34837" data-name="Grupo 34837">
            <path id="Trazado_85793" data-name="Trazado 85793" d="M202.609,328.434c1.141.657,2.069.123,2.069-1.194v-4.851l8.556,4.94a4.487,4.487,0,0,1,2.02,3.5v8.635c0,1.286-.909,1.81-2.02,1.17l-2.41-1.392,1.08,4.341c.1.425-.043.479-.329.116l-5.68-7.171a1.577,1.577,0,0,1-.14-.21l-4.452-2.572a4.49,4.49,0,0,1-2.023-3.5v-3.732Z" transform="translate(-191.129 -311.128)" fill="#f5f5fd"/>
            <path id="Trazado_85794" data-name="Trazado 85794" d="M195.908,318.915v7.105a3.7,3.7,0,0,0,1.663,2.881l1.984,1.146-.889,2.545c-.087.251.034.433.271.408l4.672-.507a.206.206,0,0,0,.116-.041l3.664,2.117c.914.527,1.663.1,1.663-.96V326.5a3.687,3.687,0,0,0-1.663-2.881l-9.817-5.668C196.657,317.426,195.908,317.859,195.908,318.915Zm8.766,8.916c0-.677.474-.95,1.059-.612a2.339,2.339,0,0,1,1.061,1.834c0,.677-.474.95-1.061.614A2.348,2.348,0,0,1,204.674,327.831Zm-3.253-1.878c0-.677.474-.95,1.059-.614a2.346,2.346,0,0,1,1.061,1.837c0,.677-.476.95-1.061.612A2.34,2.34,0,0,1,201.421,325.953Zm-3.255-1.88c0-.674.476-.95,1.061-.611a2.346,2.346,0,0,1,1.061,1.837c0,.677-.476.95-1.061.612A2.346,2.346,0,0,1,198.165,324.073Z" transform="translate(-195.908 -317.729)" fill="#f5f5fd"/>
          </g>
        </g>
      </g>
      <g id="Grupo_151150" data-name="Grupo 151150" transform="translate(508.475 29.872)">
        <g id="Grupo_34845" data-name="Grupo 34845">
          <g id="Grupo_34844" data-name="Grupo 34844">
            <g id="Grupo_34843" data-name="Grupo 34843" style="isolation: isolate">
              <g id="Grupo_34840" data-name="Grupo 34840" transform="translate(31.295 18.068)">
                <path id="Trazado_85795" data-name="Trazado 85795" d="M218.543,287.439l2.663-1.547-.1,35.96L218.44,323.4Z" transform="translate(-218.44 -285.893)" fill="#cba81f"/>
              </g>
              <g id="Grupo_34841" data-name="Grupo 34841" transform="translate(0.102)">
                <path id="Trazado_85796" data-name="Trazado 85796" d="M205.534,279.964l2.663-1.547,31.295,18.068-2.663,1.547Z" transform="translate(-205.534 -278.417)" fill="#cba81f"/>
              </g>
              <g id="Grupo_34842" data-name="Grupo 34842" transform="translate(0 1.547)">
                <path id="Trazado_85797" data-name="Trazado 85797" d="M236.889,297.124l-.1,35.96-31.295-18.068.1-35.959Z" transform="translate(-205.492 -279.057)" fill="#e2c140"/>
              </g>
            </g>
          </g>
        </g>
        <g id="Grupo_34848" data-name="Grupo 34848" transform="translate(4.244 13.08)">
          <g id="Grupo_34847" data-name="Grupo 34847">
            <path id="Trazado_85798" data-name="Trazado 85798" d="M213.549,286.8c0,1.7-1.2,2.4-2.675,1.544l-2.576-1.486,5.252-3.033Z" transform="translate(-205.762 -283.829)" fill="#f5f5fd"/>
            <g id="Grupo_34846" data-name="Grupo 34846" transform="translate(0 0.384)">
              <path id="Trazado_85799" data-name="Trazado 85799" d="M213.645,309.8l10.322,5.96c1.472.851,2.676.155,2.676-1.544V294.252a5.939,5.939,0,0,0-2.676-4.635l-9.752-5.629v2.975c0,2.129-1.5,2.992-3.342,1.929l-2.576-1.486v12.713a4.6,4.6,0,0,1,1.2.5,9.747,9.747,0,0,1,4.4,7.63A4.4,4.4,0,0,1,213.645,309.8Zm10.847-10.605c0,.544-.45.727-1,.408l-12.036-6.948a2.077,2.077,0,0,1-1.005-1.569c0-.541.452-.728,1.005-.408l12.036,6.951A2.07,2.07,0,0,1,224.492,299.192Zm0,3.77c0,.544-.45.728-1,.408l-12.036-6.948a2.077,2.077,0,0,1-1.005-1.569c0-.544.452-.727,1.005-.408l12.036,6.948A2.074,2.074,0,0,1,224.492,302.963Zm0,3.681c0,.541-.45.727-1,.409L211.453,300.1a2.077,2.077,0,0,1-1.005-1.566c0-.544.452-.728,1.005-.408l12.036,6.951A2.07,2.07,0,0,1,224.492,306.644Zm-9.9-1.622c0-.541.452-.725,1-.409l7.893,4.558a2.074,2.074,0,0,1,1,1.566c0,.544-.45.727-1,.408l-7.893-4.558A2.072,2.072,0,0,1,214.593,305.022Z" transform="translate(-205.762 -283.988)" fill="#f5f5fd"/>
              <path id="Trazado_85800" data-name="Trazado 85800" d="M207.248,293.643a8.264,8.264,0,0,0,3.739,6.477c2.064,1.191,3.739.225,3.739-2.161a8.265,8.265,0,0,0-3.739-6.475C208.92,290.294,207.248,291.26,207.248,293.643Zm1.842.481,1.436.829v-1.607l.921.532v1.607l1.436.827v1.17l-1.436-.829v1.6l-.921-.534v-1.6l-1.436-.829Z" transform="translate(-207.248 -274.089)" fill="#f5f5fd"/>
            </g>
          </g>
        </g>
      </g>
      <g id="Grupo_151151" data-name="Grupo 151151" transform="translate(449.823 42.297)">
        <g id="Grupo_34855" data-name="Grupo 34855">
          <g id="Grupo_34854" data-name="Grupo 34854">
            <g id="Grupo_34853" data-name="Grupo 34853" style="isolation: isolate">
              <g id="Grupo_34850" data-name="Grupo 34850" transform="translate(32.926 19.01)">
                <path id="Trazado_85801" data-name="Trazado 85801" d="M194.955,293.051l2.8-1.628-.107,37.833-2.8,1.629Z" transform="translate(-194.847 -291.423)" fill="#199375"/>
              </g>
              <g id="Grupo_34851" data-name="Grupo 34851" transform="translate(0.107)">
                <path id="Trazado_85802" data-name="Trazado 85802" d="M181.268,285.186l2.8-1.628L217,302.568l-2.8,1.628Z" transform="translate(-181.268 -283.558)" fill="#199375"/>
              </g>
              <g id="Grupo_34852" data-name="Grupo 34852" transform="translate(0 1.628)">
                <path id="Trazado_85803" data-name="Trazado 85803" d="M214.257,303.241l-.108,37.834-32.926-19.009.107-37.834Z" transform="translate(-181.224 -284.232)" fill="#2ec49f"/>
              </g>
            </g>
          </g>
        </g>
        <g id="Grupo_34858" data-name="Grupo 34858" transform="translate(5.312 16.014)">
          <g id="Grupo_34857" data-name="Grupo 34857">
            <g id="Grupo_34856" data-name="Grupo 34856" transform="translate(5.672 4.545)">
              <path id="Trazado_85804" data-name="Trazado 85804" d="M196.013,304.054,192.3,306.2a1.1,1.1,0,0,1-1.136-.155,2.958,2.958,0,0,1-1.138-1.158l-3.715-6.436c-.585-1.013-.585-2.11,0-2.446s1.532.21,2.12,1.223l.947,1.641V293.34c0-1.138.8-1.6,1.786-1.032a3.947,3.947,0,0,1,1.786,3.094v5.53l.947-.549c.585-.338,1.535.21,2.12,1.223S196.6,303.716,196.013,304.054Z" transform="translate(-185.628 -292.064)" fill="#f5f5fd"/>
              <path id="Trazado_85805" data-name="Trazado 85805" d="M185.769,298.344c0-1.1.776-1.549,1.728-1l7.606,4.391a3.827,3.827,0,0,1,1.731,2.994c0,1.1-.776,1.549-1.731,1l-7.606-4.391A3.828,3.828,0,0,1,185.769,298.344Zm1.728-.778c-.846-.488-1.537-.09-1.537.889a3.407,3.407,0,0,0,1.537,2.663l7.606,4.391c.848.488,1.54.089,1.54-.887a3.407,3.407,0,0,0-1.54-2.666Z" transform="translate(-185.769 -284.914)" fill="#f5f5fd"/>
              <path id="Trazado_85806" data-name="Trazado 85806" d="M187.2,297.667l5.873,3.391a3.609,3.609,0,0,1,1.634,2.83c0,1.042-.73,1.465-1.634.943L187.2,301.44Z" transform="translate(-183.74 -284.125)" fill="#f5f5fd"/>
            </g>
            <path id="Trazado_85807" data-name="Trazado 85807" d="M183.422,298.179c0-7.134,5.025-10.037,11.2-6.47s11.2,12.275,11.2,19.407-5.027,10.037-11.2,6.47S183.42,305.314,183.422,298.179Zm1.257.725c0,6.335,4.462,14.064,9.948,17.232s9.948.59,9.948-5.745-4.461-14.064-9.948-17.23S184.679,292.572,184.679,298.9Z" transform="translate(-183.422 -290.184)" fill="#f5f5fd"/>
          </g>
        </g>
      </g>
    </g>
  </g>
</svg>
