<svg xmlns="http://www.w3.org/2000/svg" xmlns:xlink="http://www.w3.org/1999/xlink" width="112" height="112" viewBox="0 0 112 112">
  <defs>
    <linearGradient id="linear-gradient" x1="0.5" x2="0.5" y2="1" gradientUnits="objectBoundingBox">
      <stop offset="0" stop-color="#039be5"/>
      <stop offset="1" stop-color="#027fbc"/>
    </linearGradient>
  </defs>
  <g id="Grupo_155451" data-name="Grupo 155451" transform="translate(-421.676 -5935.944)">
    <circle id="Elipse_5852" data-name="Elipse 5852" cx="56" cy="56" r="56" transform="translate(421.676 5935.944)" fill="url(#linear-gradient)"/>
    <g id="Grupo_152776" data-name="Grupo 152776" transform="translate(443.676 5957.106)">
      <path id="Trazado_184357" data-name="Trazado 184357" d="M2875.463-2069c1.77-4.361,3.345-5.411,8.121-5.411,3.092,0,6.186,0,9.278,0,.96,0,1.857.135,1.856,1.348,0,1.181-.872,1.4-1.837,1.4-3.485,0-6.971-.007-10.457,0a3.894,3.894,0,0,0-4.237,4.2q-.031,20.546,0,41.092a4.149,4.149,0,0,0,4.3,4.436c12.617.037,25.234.016,37.852.011a6.818,6.818,0,0,0,.768-.111v-1.571c0-3.191-.025-6.382.007-9.573a6.737,6.737,0,0,1,6.647-6.682c1.325-.023,2.651.021,3.976-.013.982-.025,1.729.33,1.7,1.359-.028,1-.779,1.374-1.751,1.355q-1.841-.036-3.682,0a4.069,4.069,0,0,0-4.188,4.188c-.032,2.891-.007,5.783-.007,8.883a9.929,9.929,0,0,0,.879-.682c4.517-4.508,9.047-9,13.514-13.562a3.2,3.2,0,0,0,.819-2.031c.054-8.836.02-17.674.07-26.51a2.3,2.3,0,0,1,.8-1.792c.442-.21,1.241.331,1.883.543v30.061l-18.862,18.862h-41.555a7.492,7.492,0,0,1-5.894-5.894Z" transform="translate(-2875.463 2085.5)" fill="#fff"/>
      <path id="Trazado_184358" data-name="Trazado 184358" d="M2970.455-2112.042a3.428,3.428,0,0,1,2.078,3.661c-.085,2.3-.006,4.6-.026,6.907-.02,2.171-1.08,3.259-3.252,3.268q-7.789.034-15.579,0c-2.17-.009-3.232-1.1-3.25-3.271-.02-2.3.062-4.608-.027-6.907a3.42,3.42,0,0,1,2.079-3.658Zm-17.261,11h16.492v-8.193h-16.492Z" transform="translate(-2928.31 2112.042)" fill="#fff"/>
      <path id="Trazado_184359" data-name="Trazado 184359" d="M2961.492-2041.973c-2.6,0-5.2.013-7.8,0-2.213-.014-3.214-1.025-3.229-3.257-.017-2.452-.021-4.9,0-7.357.02-2.115,1.051-3.15,3.183-3.157q7.871-.029,15.743,0c2.116.009,3.135,1.055,3.154,3.187.022,2.5.026,5,0,7.5a2.772,2.772,0,0,1-3.107,3.078C2966.789-2041.956,2964.141-2041.974,2961.492-2041.973Zm8.283-2.79v-8.165h-16.537v8.165Z" transform="translate(-2928.35 2072.349)" fill="#fff"/>
      <path id="Trazado_184360" data-name="Trazado 184360" d="M2961.408-1985.635c-2.648,0-5.295.019-7.942-.006a2.7,2.7,0,0,1-3.005-3q-.048-3.824,0-7.648c.021-2,1-3.022,2.963-3.03q8.09-.033,16.178,0a2.65,2.65,0,0,1,2.931,2.913q.056,3.9,0,7.794a2.709,2.709,0,0,1-3.036,2.974C2966.8-1985.617,2964.1-1985.635,2961.408-1985.635Zm-8.167-10.92v8.1h16.482v-8.1Z" transform="translate(-2928.341 2032.555)" fill="#fff"/>
      <path id="Trazado_184361" data-name="Trazado 184361" d="M3039.583-2073.42a15.715,15.715,0,0,1,1.64,1.16c.675.611.87,1.489.082,2a2.036,2.036,0,0,1-1.91-.095,52.274,52.274,0,0,1-3.981-3.919,1.365,1.365,0,0,1,.041-2.089c1.311-1.326,2.575-2.709,3.994-3.908.395-.333,1.264-.1,1.916-.133a4.9,4.9,0,0,1-.07,1.948c-.276.561-.989.908-1.511,1.347l.184.411c1.63,0,3.268.088,4.884-.061a1.725,1.725,0,0,0,1.089-1.268c.09-3.677.066-7.358.046-11.038-.006-1.142-.743-1.474-1.773-1.466-2.5.019-5,0-7.506.01-1.037.005-1.854-.368-1.654-1.49a1.857,1.857,0,0,1,1.356-1.149q4.337-.156,8.681-.018a3.709,3.709,0,0,1,3.565,3.638q.1,5.959,0,11.921a3.743,3.743,0,0,1-3.726,3.626c-1.617.052-3.235.039-4.854.06-.027,0-.054.073-.081.112Z" transform="translate(-2987.945 2098.78)" fill="#fff"/>
      <path id="Trazado_184362" data-name="Trazado 184362" d="M2903.08-2017.753c-1.4,0-2.8.008-4.2,0-3.051-.02-4.534-1.475-4.544-4.487q-.019-5.225,0-10.45a3.985,3.985,0,0,1,4.286-4.337c2.5-.028,5,0,7.506-.011.967,0,1.871.164,1.894,1.332.027,1.294-.938,1.385-1.957,1.374-2.354-.027-4.71.017-7.064-.018-1.328-.02-2.007.471-1.99,1.891q.061,5.078,0,10.155c-.016,1.314.527,1.891,1.842,1.848,1.369-.044,2.74-.01,4.487-.01-.663-.689-1.119-1.151-1.562-1.625-.616-.659-.865-1.5-.081-2.027a2.031,2.031,0,0,1,1.911.074,51.68,51.68,0,0,1,3.988,3.911,1.443,1.443,0,0,1-.1,2.213q-1.857,1.888-3.742,3.749c-.681.667-1.481.892-2.19.117a1.33,1.33,0,0,1,.276-2.061c.478-.416,1.027-.75,1.545-1.12Z" transform="translate(-2888.762 2059.145)" fill="#fff"/>
      <path id="Trazado_184363" data-name="Trazado 184363" d="M2910.048-1938.505c2.6,0,5.193-.021,7.789.007,2.274.024,3.156.95,3.174,3.24.036,4.659-.28,4.975-4.979,4.975-4.508,0-9.014.007-13.522,0-2.63-.006-3.484-.883-3.5-3.543,0-.441,0-.882,0-1.323.032-2.438.925-3.333,3.4-3.349C2904.953-1938.519,2907.5-1938.506,2910.048-1938.505Zm-8.212,5.359h16.387v-2.549h-16.387Z" transform="translate(-2892.067 1989.655)" fill="#fff"/>
      <path id="Trazado_184364" data-name="Trazado 184364" d="M2988.168-1935.764c-1.029,0-2.058.01-3.087,0-.882-.011-1.582-.347-1.615-1.323s.636-1.373,1.533-1.38q3.234-.025,6.469,0c.9,0,1.548.375,1.523,1.378s-.7,1.324-1.588,1.331C2990.325-1935.757,2989.247-1935.764,2988.168-1935.764Z" transform="translate(-2951.635 1989.633)" fill="#fff"/>
      <path id="Trazado_184365" data-name="Trazado 184365" d="M2985.7-1917.2c-1.141.006-2.183-.037-2.188-1.333-.006-1.244.971-1.413,1.98-1.425s1.994.164,2.026,1.385C2987.55-1917.284,2986.53-1917.175,2985.7-1917.2Z" transform="translate(-2951.666 1976.565)" fill="#fff"/>
      <path id="Trazado_184366" data-name="Trazado 184366" d="M3004.267-1917.18c-.988,0-1.974-.1-1.92-1.416.053-1.284,1.057-1.337,2.027-1.34,1.005,0,1.958.169,1.923,1.444C3006.262-1917.174,3005.225-1917.189,3004.267-1917.18Z" transform="translate(-2964.95 1976.552)" fill="#fff"/>
    </g>
  </g>
</svg>
