<svg xmlns="http://www.w3.org/2000/svg" width="598" height="349" viewBox="0 0 598 349">
  <g id="Grupo_155452" data-name="Grupo 155452" transform="translate(-717 -10282.795)">
    <rect id="Rectángulo_46207" data-name="Rectángulo 46207" width="182" height="44" transform="translate(717 10282.795)" fill="#2ec49f"/>
    <rect id="Rectángulo_46210" data-name="Rectángulo 46210" width="182" height="44" transform="translate(717 10344.795)" fill="#2ec49f"/>
    <rect id="Rectángulo_46214" data-name="Rectángulo 46214" width="182" height="44" transform="translate(717 10406.795)" fill="#2ec49f"/>
    <rect id="Rectángulo_46208" data-name="Rectángulo 46208" width="182" height="44" transform="translate(922 10282.795)" fill="#45818e"/>
    <rect id="Rectángulo_46211" data-name="Rectángulo 46211" width="182" height="44" transform="translate(922 10344.795)" fill="#45818e"/>
    <rect id="Rectángulo_46213" data-name="Rectángulo 46213" width="182" height="44" transform="translate(922 10406.795)" fill="#45818e"/>
    <rect id="Rectángulo_46209" data-name="Rectángulo 46209" width="182" height="44" transform="translate(1133 10282.795)" fill="#1565c0"/>
    <rect id="Rectángulo_46216" data-name="Rectángulo 46216" width="598" height="44" transform="translate(717 10466.795)" fill="#4a86e8"/>
    <rect id="Rectángulo_46217" data-name="Rectángulo 46217" width="598" height="44" transform="translate(717 10526.795)" fill="#f1c242"/>
    <rect id="Rectángulo_46218" data-name="Rectángulo 46218" width="598" height="44" transform="translate(717 10587.795)" fill="#caecf2"/>
    <rect id="Rectángulo_46212" data-name="Rectángulo 46212" width="182" height="44" transform="translate(1133 10344.795)" fill="#1565c0"/>
    <rect id="Rectángulo_46215" data-name="Rectángulo 46215" width="182" height="44" transform="translate(1133 10406.795)" fill="#1565c0"/>
    <path id="Trazado_197361" data-name="Trazado 197361" d="M11.9-3.453H5.789L4.723,0H-.038L6.741-18.484h4.189L17.761,0H12.975Zm-5.04-3.44h3.974L8.836-13.3Zm24.807.127a8.284,8.284,0,0,1-1.441,5.11A4.62,4.62,0,0,1,26.33.254,3.96,3.96,0,0,1,23.22-1.13V5.281H18.941V-13.736h4l.127,1.27A3.96,3.96,0,0,1,26.3-13.99a4.657,4.657,0,0,1,3.948,1.873A8.386,8.386,0,0,1,31.662-6.97Zm-4.278-.267q0-3.656-2.133-3.656A2.013,2.013,0,0,0,23.22-9.6v5.408a2.079,2.079,0,0,0,2.057,1.143q2.044,0,2.107-3.529ZM38.061,0H33.77V-19.5h4.291Zm7.147,0H40.917V-13.736h4.291ZM40.663-17.278a1.91,1.91,0,0,1,.66-1.5,2.491,2.491,0,0,1,1.714-.584,2.491,2.491,0,0,1,1.714.584,1.91,1.91,0,0,1,.66,1.5,1.91,1.91,0,0,1-.66,1.5,2.491,2.491,0,0,1-1.714.584,2.491,2.491,0,0,1-1.714-.584A1.91,1.91,0,0,1,40.663-17.278ZM53.65-3.047a1.9,1.9,0,0,0,1.4-.489A1.792,1.792,0,0,0,55.529-4.9h4.012a4.749,4.749,0,0,1-1.619,3.707A6.021,6.021,0,0,1,53.752.254a6.1,6.1,0,0,1-4.723-1.879A7.4,7.4,0,0,1,47.3-6.83v-.178a8.367,8.367,0,0,1,.768-3.675,5.592,5.592,0,0,1,2.215-2.45,6.605,6.605,0,0,1,3.428-.857A5.945,5.945,0,0,1,57.967-12.5,5.268,5.268,0,0,1,59.541-8.48H55.529a2.348,2.348,0,0,0-.521-1.638,1.8,1.8,0,0,0-1.4-.571q-1.663,0-1.942,2.12a14.96,14.96,0,0,0-.089,1.854,5.876,5.876,0,0,0,.5,2.869A1.714,1.714,0,0,0,53.65-3.047ZM69.088,0a4.831,4.831,0,0,1-.406-1.231,3.978,3.978,0,0,1-3.3,1.485A4.874,4.874,0,0,1,62.08-.92a3.738,3.738,0,0,1-1.358-2.952,3.842,3.842,0,0,1,1.65-3.377,8.408,8.408,0,0,1,4.8-1.143h1.32v-.727q0-1.9-1.638-1.9A1.339,1.339,0,0,0,65.33-9.514H61.052a3.835,3.835,0,0,1,1.695-3.233,7.122,7.122,0,0,1,4.323-1.243,6.245,6.245,0,0,1,4.151,1.282,4.458,4.458,0,0,1,1.562,3.517V-3.11a6.227,6.227,0,0,0,.584,2.895V0ZM66.409-2.793a2.386,2.386,0,0,0,1.327-.343,2.148,2.148,0,0,0,.755-.774v-2.2H67.247q-2.234,0-2.234,2.006a1.225,1.225,0,0,0,.394.946A1.424,1.424,0,0,0,66.409-2.793Zm14.549-.254a1.9,1.9,0,0,0,1.4-.489A1.792,1.792,0,0,0,82.837-4.9h4.012A4.749,4.749,0,0,1,85.23-1.193,6.021,6.021,0,0,1,81.06.254a6.1,6.1,0,0,1-4.723-1.879A7.4,7.4,0,0,1,74.61-6.83v-.178a8.367,8.367,0,0,1,.768-3.675,5.592,5.592,0,0,1,2.215-2.45,6.605,6.605,0,0,1,3.428-.857A5.945,5.945,0,0,1,85.274-12.5,5.268,5.268,0,0,1,86.849-8.48H82.837a2.348,2.348,0,0,0-.521-1.638,1.8,1.8,0,0,0-1.4-.571q-1.663,0-1.942,2.12a14.961,14.961,0,0,0-.089,1.854,5.876,5.876,0,0,0,.5,2.869A1.714,1.714,0,0,0,80.958-3.047ZM93.171,0H88.88V-13.736h4.291ZM88.626-17.278a1.91,1.91,0,0,1,.66-1.5A2.491,2.491,0,0,1,91-19.36a2.491,2.491,0,0,1,1.714.584,1.91,1.91,0,0,1,.66,1.5,1.91,1.91,0,0,1-.66,1.5A2.491,2.491,0,0,1,91-15.2a2.491,2.491,0,0,1-1.714-.584A1.91,1.91,0,0,1,88.626-17.278ZM95.266-7a8.107,8.107,0,0,1,.8-3.663,5.72,5.72,0,0,1,2.3-2.469,6.92,6.92,0,0,1,3.517-.863,6.316,6.316,0,0,1,4.862,1.911,7.332,7.332,0,0,1,1.777,5.2v.152a7.113,7.113,0,0,1-1.784,5.1A6.333,6.333,0,0,1,101.905.254,6.4,6.4,0,0,1,97.2-1.5a6.877,6.877,0,0,1-1.917-4.767Zm4.278.267a5.111,5.111,0,0,0,.6,2.793,1.988,1.988,0,0,0,1.765.889q2.285,0,2.336-3.517V-7q0-3.694-2.361-3.694-2.146,0-2.323,3.187Zm2.92-12.771h4.52l-3.529,3.986-3.491-.006Zm11.87,5.764.14,1.612A4.658,4.658,0,0,1,118.4-13.99a3.919,3.919,0,0,1,3.206,1.282,6.1,6.1,0,0,1,1.1,3.859V0h-4.291V-8.671a2.318,2.318,0,0,0-.419-1.53,1.938,1.938,0,0,0-1.523-.489,2.04,2.04,0,0,0-1.866.99V0h-4.278V-13.736ZM140.956,0h-4.291V-13.66l-4.215,1.231v-3.25l8.112-2.806h.394Z" transform="translate(732 10313.795)" fill="#12263f"/>
    <path id="Trazado_197364" data-name="Trazado 197364" d="M1.4,0V-18.484h6.64a9.4,9.4,0,0,1,5.427,1.308,4.351,4.351,0,0,1,1.86,3.8,4.4,4.4,0,0,1-.66,2.45,3.847,3.847,0,0,1-1.942,1.5,3.9,3.9,0,0,1,2.222,1.422,4.134,4.134,0,0,1,.774,2.539A4.894,4.894,0,0,1,14-1.39,8.186,8.186,0,0,1,8.9,0ZM5.853-7.858v4.431h2.92a2.777,2.777,0,0,0,1.854-.552,1.933,1.933,0,0,0,.647-1.555,2.049,2.049,0,0,0-2.3-2.323Zm0-2.92H8.176a3.3,3.3,0,0,0,2.082-.535,1.9,1.9,0,0,0,.622-1.541,1.993,1.993,0,0,0-.673-1.687,3.6,3.6,0,0,0-2.171-.516H5.853ZM22.483,0H18.192V-13.736h4.291ZM17.938-17.278a1.91,1.91,0,0,1,.66-1.5,2.491,2.491,0,0,1,1.714-.584,2.491,2.491,0,0,1,1.714.584,1.91,1.91,0,0,1,.66,1.5,1.91,1.91,0,0,1-.66,1.5,2.491,2.491,0,0,1-1.714.584A2.491,2.491,0,0,1,18.6-15.78,1.91,1.91,0,0,1,17.938-17.278ZM37.87-6.754a8.372,8.372,0,0,1-1.4,5.192A4.677,4.677,0,0,1,32.538.254a4.059,4.059,0,0,1-3.377-1.663L28.983,0H25.149V-19.5h4.278v6.868a3.916,3.916,0,0,1,3.085-1.358,4.679,4.679,0,0,1,3.961,1.841,8.415,8.415,0,0,1,1.4,5.18Zm-4.291-.273a5.584,5.584,0,0,0-.527-2.82,1.776,1.776,0,0,0-1.619-.843,2.048,2.048,0,0,0-2.006,1.1v5.45a2.06,2.06,0,0,0,2.031,1.09,1.817,1.817,0,0,0,1.917-1.47A10.557,10.557,0,0,0,33.579-7.027ZM44.269,0H39.978V-19.5h4.291Zm7.147,0H47.125V-13.736h4.291ZM46.871-17.278a1.91,1.91,0,0,1,.66-1.5,2.491,2.491,0,0,1,1.714-.584,2.491,2.491,0,0,1,1.714.584,1.91,1.91,0,0,1,.66,1.5,1.91,1.91,0,0,1-.66,1.5,2.491,2.491,0,0,1-1.714.584,2.491,2.491,0,0,1-1.714-.584A1.91,1.91,0,0,1,46.871-17.278ZM53.511-7a8.107,8.107,0,0,1,.8-3.663,5.72,5.72,0,0,1,2.3-2.469,6.92,6.92,0,0,1,3.517-.863,6.316,6.316,0,0,1,4.862,1.911,7.332,7.332,0,0,1,1.777,5.2v.152a7.113,7.113,0,0,1-1.784,5.1A6.333,6.333,0,0,1,60.15.254,6.4,6.4,0,0,1,55.44-1.5a6.877,6.877,0,0,1-1.917-4.767Zm4.278.267a5.111,5.111,0,0,0,.6,2.793,1.988,1.988,0,0,0,1.765.889q2.285,0,2.336-3.517V-7q0-3.694-2.361-3.694-2.146,0-2.323,3.187ZM73.633-17.151v3.415h2.26v2.971h-2.26v6.284A1.6,1.6,0,0,0,73.912-3.4a1.5,1.5,0,0,0,1.1.3,6.276,6.276,0,0,0,1.066-.076v3.06a7.9,7.9,0,0,1-2.412.368A4.482,4.482,0,0,1,70.408-.787a4.267,4.267,0,0,1-1.054-3.161v-6.817H67.6v-2.971h1.752v-3.415ZM84.221.254A7.061,7.061,0,0,1,79.1-1.631a6.51,6.51,0,0,1-1.955-4.907v-.355a8.436,8.436,0,0,1,.781-3.72,5.713,5.713,0,0,1,2.279-2.495,6.879,6.879,0,0,1,3.555-.882,5.946,5.946,0,0,1,4.57,1.8A7.059,7.059,0,0,1,90.01-7.186v1.663H81.5a3.084,3.084,0,0,0,1,1.815,2.984,2.984,0,0,0,2.006.66,3.845,3.845,0,0,0,3.174-1.422l1.955,2.311A5.465,5.465,0,0,1,87.375-.4,7.658,7.658,0,0,1,84.221.254Zm-.482-10.943q-1.879,0-2.234,2.488H85.82v-.33a2.119,2.119,0,0,0-.521-1.593A2.071,2.071,0,0,0,83.738-10.689Zm13.8,7.643a1.9,1.9,0,0,0,1.4-.489A1.792,1.792,0,0,0,99.417-4.9h4.012a4.749,4.749,0,0,1-1.619,3.707A6.021,6.021,0,0,1,97.64.254a6.1,6.1,0,0,1-4.723-1.879A7.4,7.4,0,0,1,91.19-6.83v-.178a8.367,8.367,0,0,1,.768-3.675,5.592,5.592,0,0,1,2.215-2.45A6.605,6.605,0,0,1,97.6-13.99a5.945,5.945,0,0,1,4.253,1.485,5.268,5.268,0,0,1,1.574,4.024H99.417a2.348,2.348,0,0,0-.521-1.638,1.8,1.8,0,0,0-1.4-.571q-1.663,0-1.942,2.12a14.961,14.961,0,0,0-.089,1.854,5.876,5.876,0,0,0,.5,2.869A1.714,1.714,0,0,0,97.538-3.047ZM112.976,0a4.831,4.831,0,0,1-.406-1.231,3.978,3.978,0,0,1-3.3,1.485,4.874,4.874,0,0,1-3.3-1.174,3.738,3.738,0,0,1-1.358-2.952,3.842,3.842,0,0,1,1.65-3.377,8.408,8.408,0,0,1,4.8-1.143h1.32v-.727q0-1.9-1.638-1.9a1.339,1.339,0,0,0-1.523,1.505h-4.278a3.835,3.835,0,0,1,1.695-3.233,7.122,7.122,0,0,1,4.323-1.243,6.245,6.245,0,0,1,4.151,1.282,4.458,4.458,0,0,1,1.562,3.517V-3.11a6.227,6.227,0,0,0,.584,2.895V0ZM110.3-2.793a2.386,2.386,0,0,0,1.327-.343,2.148,2.148,0,0,0,.755-.774v-2.2h-1.244q-2.234,0-2.234,2.006a1.225,1.225,0,0,0,.394.946A1.424,1.424,0,0,0,110.3-2.793Zm15.933-1.066a.988.988,0,0,0-.571-.876,8.69,8.69,0,0,0-2.171-.686,9.9,9.9,0,0,1-2.641-.933,4.423,4.423,0,0,1-1.587-1.4,3.35,3.35,0,0,1-.546-1.892,3.8,3.8,0,0,1,1.562-3.117,6.432,6.432,0,0,1,4.088-1.225,7.127,7.127,0,0,1,4.367,1.231,3.851,3.851,0,0,1,1.65,3.237H126.09q0-1.65-1.739-1.65a1.724,1.724,0,0,0-1.13.375,1.16,1.16,0,0,0-.457.933,1.064,1.064,0,0,0,.559.927,5.278,5.278,0,0,0,1.784.584,15.414,15.414,0,0,1,2.152.546q3.1,1.066,3.1,3.821a3.6,3.6,0,0,1-1.669,3.06A7.321,7.321,0,0,1,124.363.254a7.471,7.471,0,0,1-3.148-.635,5.265,5.265,0,0,1-2.158-1.727,3.91,3.91,0,0,1-.774-2.3h4a1.653,1.653,0,0,0,.635,1.39,2.611,2.611,0,0,0,1.562.438,2.054,2.054,0,0,0,1.314-.355A1.137,1.137,0,0,0,126.229-3.859ZM140.3,1.587h-3.034l6.31-20.071h3.047Z" transform="translate(732 10374.795)" fill="#12263f"/>
    <path id="Trazado_197367" data-name="Trazado 197367" d="M10.931-4.913a1.831,1.831,0,0,0-.692-1.523,8.6,8.6,0,0,0-2.431-1.13A23.324,23.324,0,0,1,4.964-8.7q-3.593-1.765-3.593-4.85a4.349,4.349,0,0,1,.9-2.71A5.789,5.789,0,0,1,4.8-18.084a9.856,9.856,0,0,1,3.682-.654,8.621,8.621,0,0,1,3.574.711A5.658,5.658,0,0,1,14.511-16a5.288,5.288,0,0,1,.876,3H10.943a2.234,2.234,0,0,0-.692-1.752,2.7,2.7,0,0,0-1.873-.622,3.041,3.041,0,0,0-1.885.527A1.616,1.616,0,0,0,5.8-13.508a1.627,1.627,0,0,0,.762,1.289,9.606,9.606,0,0,0,2.679,1.193A16.409,16.409,0,0,1,12.391-9.7a5.291,5.291,0,0,1,3,4.761A4.513,4.513,0,0,1,13.559-1.13,8.131,8.131,0,0,1,8.544.254,9.949,9.949,0,0,1,4.475-.552,6.135,6.135,0,0,1,1.733-2.761a5.756,5.756,0,0,1-.92-3.231H5.281A2.835,2.835,0,0,0,6.049-3.8a3.63,3.63,0,0,0,2.495.7,2.868,2.868,0,0,0,1.746-.476A1.571,1.571,0,0,0,10.931-4.913ZM21.988,0H17.7V-13.736h4.291ZM17.443-17.278a1.91,1.91,0,0,1,.66-1.5,2.491,2.491,0,0,1,1.714-.584,2.491,2.491,0,0,1,1.714.584,1.91,1.91,0,0,1,.66,1.5,1.91,1.91,0,0,1-.66,1.5,2.491,2.491,0,0,1-1.714.584A2.491,2.491,0,0,1,18.1-15.78,1.91,1.91,0,0,1,17.443-17.278ZM31.814-3.859a.988.988,0,0,0-.571-.876,8.69,8.69,0,0,0-2.171-.686,9.9,9.9,0,0,1-2.641-.933,4.423,4.423,0,0,1-1.587-1.4A3.35,3.35,0,0,1,24.3-9.648a3.8,3.8,0,0,1,1.562-3.117,6.432,6.432,0,0,1,4.088-1.225,7.127,7.127,0,0,1,4.367,1.231,3.851,3.851,0,0,1,1.65,3.237H31.675q0-1.65-1.739-1.65a1.724,1.724,0,0,0-1.13.375,1.16,1.16,0,0,0-.457.933,1.064,1.064,0,0,0,.559.927,5.278,5.278,0,0,0,1.784.584,15.414,15.414,0,0,1,2.152.546q3.1,1.066,3.1,3.821a3.6,3.6,0,0,1-1.669,3.06A7.321,7.321,0,0,1,29.948.254,7.471,7.471,0,0,1,26.8-.381a5.265,5.265,0,0,1-2.158-1.727,3.91,3.91,0,0,1-.774-2.3h4a1.653,1.653,0,0,0,.635,1.39,2.611,2.611,0,0,0,1.562.438,2.054,2.054,0,0,0,1.314-.355A1.137,1.137,0,0,0,31.814-3.859ZM42.923-17.151v3.415h2.26v2.971h-2.26v6.284A1.6,1.6,0,0,0,43.2-3.4a1.5,1.5,0,0,0,1.1.3,6.276,6.276,0,0,0,1.066-.076v3.06a7.9,7.9,0,0,1-2.412.368A4.482,4.482,0,0,1,39.7-.787a4.267,4.267,0,0,1-1.054-3.161v-6.817H36.893v-2.971h1.752v-3.415ZM53.511.254a7.061,7.061,0,0,1-5.116-1.885,6.51,6.51,0,0,1-1.955-4.907v-.355a8.436,8.436,0,0,1,.781-3.72A5.713,5.713,0,0,1,49.5-13.108a6.879,6.879,0,0,1,3.555-.882,5.946,5.946,0,0,1,4.57,1.8A7.059,7.059,0,0,1,59.3-7.186v1.663H50.794a3.084,3.084,0,0,0,1,1.815,2.984,2.984,0,0,0,2.006.66,3.845,3.845,0,0,0,3.174-1.422l1.955,2.311A5.465,5.465,0,0,1,56.666-.4,7.658,7.658,0,0,1,53.511.254Zm-.482-10.943q-1.879,0-2.234,2.488H55.11v-.33a2.119,2.119,0,0,0-.521-1.593A2.071,2.071,0,0,0,53.028-10.689Zm12.035-3.047.14,1.612a4.723,4.723,0,0,1,3.923-1.866,3.477,3.477,0,0,1,3.517,2.069A4.571,4.571,0,0,1,76.68-13.99q4.177,0,4.291,5.053V0H76.68V-8.671a2.619,2.619,0,0,0-.355-1.536,1.513,1.513,0,0,0-1.295-.482,2.027,2.027,0,0,0-1.892,1.13l.013.178V0H68.859V-8.646a2.752,2.752,0,0,0-.343-1.562,1.509,1.509,0,0,0-1.308-.482A2.052,2.052,0,0,0,65.33-9.56V0H61.052V-13.736ZM91.152,0a4.831,4.831,0,0,1-.406-1.231,3.978,3.978,0,0,1-3.3,1.485,4.874,4.874,0,0,1-3.3-1.174,3.738,3.738,0,0,1-1.358-2.952,3.842,3.842,0,0,1,1.65-3.377,8.408,8.408,0,0,1,4.8-1.143h1.32v-.727q0-1.9-1.638-1.9a1.339,1.339,0,0,0-1.523,1.505H83.116a3.835,3.835,0,0,1,1.695-3.233,7.122,7.122,0,0,1,4.323-1.243,6.245,6.245,0,0,1,4.151,1.282,4.458,4.458,0,0,1,1.562,3.517V-3.11a6.227,6.227,0,0,0,.584,2.895V0ZM88.474-2.793A2.386,2.386,0,0,0,89.8-3.136a2.148,2.148,0,0,0,.755-.774v-2.2H89.312q-2.234,0-2.234,2.006a1.225,1.225,0,0,0,.394.946A1.424,1.424,0,0,0,88.474-2.793Zm15.933-1.066a.988.988,0,0,0-.571-.876,8.69,8.69,0,0,0-2.171-.686,9.9,9.9,0,0,1-2.641-.933,4.423,4.423,0,0,1-1.587-1.4,3.35,3.35,0,0,1-.546-1.892,3.8,3.8,0,0,1,1.562-3.117,6.432,6.432,0,0,1,4.088-1.225,7.127,7.127,0,0,1,4.367,1.231,3.851,3.851,0,0,1,1.65,3.237h-4.291q0-1.65-1.739-1.65a1.724,1.724,0,0,0-1.13.375,1.16,1.16,0,0,0-.457.933,1.064,1.064,0,0,0,.559.927,5.278,5.278,0,0,0,1.784.584,15.414,15.414,0,0,1,2.152.546q3.1,1.066,3.1,3.821a3.6,3.6,0,0,1-1.669,3.06A7.321,7.321,0,0,1,102.54.254a7.471,7.471,0,0,1-3.148-.635,5.265,5.265,0,0,1-2.158-1.727,3.91,3.91,0,0,1-.774-2.3h4a1.653,1.653,0,0,0,.635,1.39,2.611,2.611,0,0,0,1.562.438,2.054,2.054,0,0,0,1.314-.355A1.137,1.137,0,0,0,104.406-3.859Z" transform="translate(746 10436.795)" fill="#12263f"/>
    <path id="Trazado_197362" data-name="Trazado 197362" d="M11.9-3.453H5.789L4.723,0H-.038L6.741-18.484h4.189L17.761,0H12.975Zm-5.04-3.44h3.974L8.836-13.3Zm24.807.127a8.284,8.284,0,0,1-1.441,5.11A4.62,4.62,0,0,1,26.33.254,3.96,3.96,0,0,1,23.22-1.13V5.281H18.941V-13.736h4l.127,1.27A3.96,3.96,0,0,1,26.3-13.99a4.657,4.657,0,0,1,3.948,1.873A8.386,8.386,0,0,1,31.662-6.97Zm-4.278-.267q0-3.656-2.133-3.656A2.013,2.013,0,0,0,23.22-9.6v5.408a2.079,2.079,0,0,0,2.057,1.143q2.044,0,2.107-3.529ZM38.061,0H33.77V-19.5h4.291Zm7.147,0H40.917V-13.736h4.291ZM40.663-17.278a1.91,1.91,0,0,1,.66-1.5,2.491,2.491,0,0,1,1.714-.584,2.491,2.491,0,0,1,1.714.584,1.91,1.91,0,0,1,.66,1.5,1.91,1.91,0,0,1-.66,1.5,2.491,2.491,0,0,1-1.714.584,2.491,2.491,0,0,1-1.714-.584A1.91,1.91,0,0,1,40.663-17.278ZM53.65-3.047a1.9,1.9,0,0,0,1.4-.489A1.792,1.792,0,0,0,55.529-4.9h4.012a4.749,4.749,0,0,1-1.619,3.707A6.021,6.021,0,0,1,53.752.254a6.1,6.1,0,0,1-4.723-1.879A7.4,7.4,0,0,1,47.3-6.83v-.178a8.367,8.367,0,0,1,.768-3.675,5.592,5.592,0,0,1,2.215-2.45,6.605,6.605,0,0,1,3.428-.857A5.945,5.945,0,0,1,57.967-12.5,5.268,5.268,0,0,1,59.541-8.48H55.529a2.348,2.348,0,0,0-.521-1.638,1.8,1.8,0,0,0-1.4-.571q-1.663,0-1.942,2.12a14.96,14.96,0,0,0-.089,1.854,5.876,5.876,0,0,0,.5,2.869A1.714,1.714,0,0,0,53.65-3.047ZM69.088,0a4.831,4.831,0,0,1-.406-1.231,3.978,3.978,0,0,1-3.3,1.485A4.874,4.874,0,0,1,62.08-.92a3.738,3.738,0,0,1-1.358-2.952,3.842,3.842,0,0,1,1.65-3.377,8.408,8.408,0,0,1,4.8-1.143h1.32v-.727q0-1.9-1.638-1.9A1.339,1.339,0,0,0,65.33-9.514H61.052a3.835,3.835,0,0,1,1.695-3.233,7.122,7.122,0,0,1,4.323-1.243,6.245,6.245,0,0,1,4.151,1.282,4.458,4.458,0,0,1,1.562,3.517V-3.11a6.227,6.227,0,0,0,.584,2.895V0ZM66.409-2.793a2.386,2.386,0,0,0,1.327-.343,2.148,2.148,0,0,0,.755-.774v-2.2H67.247q-2.234,0-2.234,2.006a1.225,1.225,0,0,0,.394.946A1.424,1.424,0,0,0,66.409-2.793Zm14.549-.254a1.9,1.9,0,0,0,1.4-.489A1.792,1.792,0,0,0,82.837-4.9h4.012A4.749,4.749,0,0,1,85.23-1.193,6.021,6.021,0,0,1,81.06.254a6.1,6.1,0,0,1-4.723-1.879A7.4,7.4,0,0,1,74.61-6.83v-.178a8.367,8.367,0,0,1,.768-3.675,5.592,5.592,0,0,1,2.215-2.45,6.605,6.605,0,0,1,3.428-.857A5.945,5.945,0,0,1,85.274-12.5,5.268,5.268,0,0,1,86.849-8.48H82.837a2.348,2.348,0,0,0-.521-1.638,1.8,1.8,0,0,0-1.4-.571q-1.663,0-1.942,2.12a14.961,14.961,0,0,0-.089,1.854,5.876,5.876,0,0,0,.5,2.869A1.714,1.714,0,0,0,80.958-3.047ZM93.171,0H88.88V-13.736h4.291ZM88.626-17.278a1.91,1.91,0,0,1,.66-1.5A2.491,2.491,0,0,1,91-19.36a2.491,2.491,0,0,1,1.714.584,1.91,1.91,0,0,1,.66,1.5,1.91,1.91,0,0,1-.66,1.5A2.491,2.491,0,0,1,91-15.2a2.491,2.491,0,0,1-1.714-.584A1.91,1.91,0,0,1,88.626-17.278ZM95.266-7a8.107,8.107,0,0,1,.8-3.663,5.72,5.72,0,0,1,2.3-2.469,6.92,6.92,0,0,1,3.517-.863,6.316,6.316,0,0,1,4.862,1.911,7.332,7.332,0,0,1,1.777,5.2v.152a7.113,7.113,0,0,1-1.784,5.1A6.333,6.333,0,0,1,101.905.254,6.4,6.4,0,0,1,97.2-1.5a6.877,6.877,0,0,1-1.917-4.767Zm4.278.267a5.111,5.111,0,0,0,.6,2.793,1.988,1.988,0,0,0,1.765.889q2.285,0,2.336-3.517V-7q0-3.694-2.361-3.694-2.146,0-2.323,3.187Zm2.92-12.771h4.52l-3.529,3.986-3.491-.006Zm11.87,5.764.14,1.612A4.658,4.658,0,0,1,118.4-13.99a3.919,3.919,0,0,1,3.206,1.282,6.1,6.1,0,0,1,1.1,3.859V0h-4.291V-8.671a2.318,2.318,0,0,0-.419-1.53,1.938,1.938,0,0,0-1.523-.489,2.04,2.04,0,0,0-1.866.99V0h-4.278V-13.736ZM144.371,0h-12.9V-2.793l5.941-6.246q2.2-2.5,2.2-3.974a2.764,2.764,0,0,0-.521-1.815,1.858,1.858,0,0,0-1.511-.622,1.882,1.882,0,0,0-1.587.832,3.417,3.417,0,0,0-.609,2.076h-4.291a6.07,6.07,0,0,1,.851-3.142,5.965,5.965,0,0,1,2.361-2.253,7.014,7.014,0,0,1,3.377-.812,6.9,6.9,0,0,1,4.615,1.384,4.94,4.94,0,0,1,1.619,3.974,5.77,5.77,0,0,1-.406,2.126A9.325,9.325,0,0,1,142.245-9.1a31.819,31.819,0,0,1-2.761,3.041L137.1-3.3h7.274Z" transform="translate(937 10313.795)" fill="#12263f"/>
    <path id="Trazado_197365" data-name="Trazado 197365" d="M1.4,0V-18.484h6.64a9.4,9.4,0,0,1,5.427,1.308,4.351,4.351,0,0,1,1.86,3.8,4.4,4.4,0,0,1-.66,2.45,3.847,3.847,0,0,1-1.942,1.5,3.9,3.9,0,0,1,2.222,1.422,4.134,4.134,0,0,1,.774,2.539A4.894,4.894,0,0,1,14-1.39,8.186,8.186,0,0,1,8.9,0ZM5.853-7.858v4.431h2.92a2.777,2.777,0,0,0,1.854-.552,1.933,1.933,0,0,0,.647-1.555,2.049,2.049,0,0,0-2.3-2.323Zm0-2.92H8.176a3.3,3.3,0,0,0,2.082-.535,1.9,1.9,0,0,0,.622-1.541,1.993,1.993,0,0,0-.673-1.687,3.6,3.6,0,0,0-2.171-.516H5.853ZM22.483,0H18.192V-13.736h4.291ZM17.938-17.278a1.91,1.91,0,0,1,.66-1.5,2.491,2.491,0,0,1,1.714-.584,2.491,2.491,0,0,1,1.714.584,1.91,1.91,0,0,1,.66,1.5,1.91,1.91,0,0,1-.66,1.5,2.491,2.491,0,0,1-1.714.584A2.491,2.491,0,0,1,18.6-15.78,1.91,1.91,0,0,1,17.938-17.278ZM37.87-6.754a8.372,8.372,0,0,1-1.4,5.192A4.677,4.677,0,0,1,32.538.254a4.059,4.059,0,0,1-3.377-1.663L28.983,0H25.149V-19.5h4.278v6.868a3.916,3.916,0,0,1,3.085-1.358,4.679,4.679,0,0,1,3.961,1.841,8.415,8.415,0,0,1,1.4,5.18Zm-4.291-.273a5.584,5.584,0,0,0-.527-2.82,1.776,1.776,0,0,0-1.619-.843,2.048,2.048,0,0,0-2.006,1.1v5.45a2.06,2.06,0,0,0,2.031,1.09,1.817,1.817,0,0,0,1.917-1.47A10.557,10.557,0,0,0,33.579-7.027ZM44.269,0H39.978V-19.5h4.291Zm7.147,0H47.125V-13.736h4.291ZM46.871-17.278a1.91,1.91,0,0,1,.66-1.5,2.491,2.491,0,0,1,1.714-.584,2.491,2.491,0,0,1,1.714.584,1.91,1.91,0,0,1,.66,1.5,1.91,1.91,0,0,1-.66,1.5,2.491,2.491,0,0,1-1.714.584,2.491,2.491,0,0,1-1.714-.584A1.91,1.91,0,0,1,46.871-17.278ZM53.511-7a8.107,8.107,0,0,1,.8-3.663,5.72,5.72,0,0,1,2.3-2.469,6.92,6.92,0,0,1,3.517-.863,6.316,6.316,0,0,1,4.862,1.911,7.332,7.332,0,0,1,1.777,5.2v.152a7.113,7.113,0,0,1-1.784,5.1A6.333,6.333,0,0,1,60.15.254,6.4,6.4,0,0,1,55.44-1.5a6.877,6.877,0,0,1-1.917-4.767Zm4.278.267a5.111,5.111,0,0,0,.6,2.793,1.988,1.988,0,0,0,1.765.889q2.285,0,2.336-3.517V-7q0-3.694-2.361-3.694-2.146,0-2.323,3.187ZM73.633-17.151v3.415h2.26v2.971h-2.26v6.284A1.6,1.6,0,0,0,73.912-3.4a1.5,1.5,0,0,0,1.1.3,6.276,6.276,0,0,0,1.066-.076v3.06a7.9,7.9,0,0,1-2.412.368A4.482,4.482,0,0,1,70.408-.787a4.267,4.267,0,0,1-1.054-3.161v-6.817H67.6v-2.971h1.752v-3.415ZM84.221.254A7.061,7.061,0,0,1,79.1-1.631a6.51,6.51,0,0,1-1.955-4.907v-.355a8.436,8.436,0,0,1,.781-3.72,5.713,5.713,0,0,1,2.279-2.495,6.879,6.879,0,0,1,3.555-.882,5.946,5.946,0,0,1,4.57,1.8A7.059,7.059,0,0,1,90.01-7.186v1.663H81.5a3.084,3.084,0,0,0,1,1.815,2.984,2.984,0,0,0,2.006.66,3.845,3.845,0,0,0,3.174-1.422l1.955,2.311A5.465,5.465,0,0,1,87.375-.4,7.658,7.658,0,0,1,84.221.254Zm-.482-10.943q-1.879,0-2.234,2.488H85.82v-.33a2.119,2.119,0,0,0-.521-1.593A2.071,2.071,0,0,0,83.738-10.689Zm13.8,7.643a1.9,1.9,0,0,0,1.4-.489A1.792,1.792,0,0,0,99.417-4.9h4.012a4.749,4.749,0,0,1-1.619,3.707A6.021,6.021,0,0,1,97.64.254a6.1,6.1,0,0,1-4.723-1.879A7.4,7.4,0,0,1,91.19-6.83v-.178a8.367,8.367,0,0,1,.768-3.675,5.592,5.592,0,0,1,2.215-2.45A6.605,6.605,0,0,1,97.6-13.99a5.945,5.945,0,0,1,4.253,1.485,5.268,5.268,0,0,1,1.574,4.024H99.417a2.348,2.348,0,0,0-.521-1.638,1.8,1.8,0,0,0-1.4-.571q-1.663,0-1.942,2.12a14.961,14.961,0,0,0-.089,1.854,5.876,5.876,0,0,0,.5,2.869A1.714,1.714,0,0,0,97.538-3.047ZM112.976,0a4.831,4.831,0,0,1-.406-1.231,3.978,3.978,0,0,1-3.3,1.485,4.874,4.874,0,0,1-3.3-1.174,3.738,3.738,0,0,1-1.358-2.952,3.842,3.842,0,0,1,1.65-3.377,8.408,8.408,0,0,1,4.8-1.143h1.32v-.727q0-1.9-1.638-1.9a1.339,1.339,0,0,0-1.523,1.505h-4.278a3.835,3.835,0,0,1,1.695-3.233,7.122,7.122,0,0,1,4.323-1.243,6.245,6.245,0,0,1,4.151,1.282,4.458,4.458,0,0,1,1.562,3.517V-3.11a6.227,6.227,0,0,0,.584,2.895V0ZM110.3-2.793a2.386,2.386,0,0,0,1.327-.343,2.148,2.148,0,0,0,.755-.774v-2.2h-1.244q-2.234,0-2.234,2.006a1.225,1.225,0,0,0,.394.946A1.424,1.424,0,0,0,110.3-2.793Zm15.933-1.066a.988.988,0,0,0-.571-.876,8.69,8.69,0,0,0-2.171-.686,9.9,9.9,0,0,1-2.641-.933,4.423,4.423,0,0,1-1.587-1.4,3.35,3.35,0,0,1-.546-1.892,3.8,3.8,0,0,1,1.562-3.117,6.432,6.432,0,0,1,4.088-1.225,7.127,7.127,0,0,1,4.367,1.231,3.851,3.851,0,0,1,1.65,3.237H126.09q0-1.65-1.739-1.65a1.724,1.724,0,0,0-1.13.375,1.16,1.16,0,0,0-.457.933,1.064,1.064,0,0,0,.559.927,5.278,5.278,0,0,0,1.784.584,15.414,15.414,0,0,1,2.152.546q3.1,1.066,3.1,3.821a3.6,3.6,0,0,1-1.669,3.06A7.321,7.321,0,0,1,124.363.254a7.471,7.471,0,0,1-3.148-.635,5.265,5.265,0,0,1-2.158-1.727,3.91,3.91,0,0,1-.774-2.3h4a1.653,1.653,0,0,0,.635,1.39,2.611,2.611,0,0,0,1.562.438,2.054,2.054,0,0,0,1.314-.355A1.137,1.137,0,0,0,126.229-3.859ZM140.3,1.587h-3.034l6.31-20.071h3.047Z" transform="translate(937 10374.795)" fill="#12263f"/>
    <path id="Trazado_197368" data-name="Trazado 197368" d="M10.931-4.913a1.831,1.831,0,0,0-.692-1.523,8.6,8.6,0,0,0-2.431-1.13A23.324,23.324,0,0,1,4.964-8.7q-3.593-1.765-3.593-4.85a4.349,4.349,0,0,1,.9-2.71A5.789,5.789,0,0,1,4.8-18.084a9.856,9.856,0,0,1,3.682-.654,8.621,8.621,0,0,1,3.574.711A5.658,5.658,0,0,1,14.511-16a5.288,5.288,0,0,1,.876,3H10.943a2.234,2.234,0,0,0-.692-1.752,2.7,2.7,0,0,0-1.873-.622,3.041,3.041,0,0,0-1.885.527A1.616,1.616,0,0,0,5.8-13.508a1.627,1.627,0,0,0,.762,1.289,9.606,9.606,0,0,0,2.679,1.193A16.409,16.409,0,0,1,12.391-9.7a5.291,5.291,0,0,1,3,4.761A4.513,4.513,0,0,1,13.559-1.13,8.131,8.131,0,0,1,8.544.254,9.949,9.949,0,0,1,4.475-.552,6.135,6.135,0,0,1,1.733-2.761a5.756,5.756,0,0,1-.92-3.231H5.281A2.835,2.835,0,0,0,6.049-3.8a3.63,3.63,0,0,0,2.495.7,2.868,2.868,0,0,0,1.746-.476A1.571,1.571,0,0,0,10.931-4.913ZM21.988,0H17.7V-13.736h4.291ZM17.443-17.278a1.91,1.91,0,0,1,.66-1.5,2.491,2.491,0,0,1,1.714-.584,2.491,2.491,0,0,1,1.714.584,1.91,1.91,0,0,1,.66,1.5,1.91,1.91,0,0,1-.66,1.5,2.491,2.491,0,0,1-1.714.584A2.491,2.491,0,0,1,18.1-15.78,1.91,1.91,0,0,1,17.443-17.278ZM31.814-3.859a.988.988,0,0,0-.571-.876,8.69,8.69,0,0,0-2.171-.686,9.9,9.9,0,0,1-2.641-.933,4.423,4.423,0,0,1-1.587-1.4A3.35,3.35,0,0,1,24.3-9.648a3.8,3.8,0,0,1,1.562-3.117,6.432,6.432,0,0,1,4.088-1.225,7.127,7.127,0,0,1,4.367,1.231,3.851,3.851,0,0,1,1.65,3.237H31.675q0-1.65-1.739-1.65a1.724,1.724,0,0,0-1.13.375,1.16,1.16,0,0,0-.457.933,1.064,1.064,0,0,0,.559.927,5.278,5.278,0,0,0,1.784.584,15.414,15.414,0,0,1,2.152.546q3.1,1.066,3.1,3.821a3.6,3.6,0,0,1-1.669,3.06A7.321,7.321,0,0,1,29.948.254,7.471,7.471,0,0,1,26.8-.381a5.265,5.265,0,0,1-2.158-1.727,3.91,3.91,0,0,1-.774-2.3h4a1.653,1.653,0,0,0,.635,1.39,2.611,2.611,0,0,0,1.562.438,2.054,2.054,0,0,0,1.314-.355A1.137,1.137,0,0,0,31.814-3.859ZM42.923-17.151v3.415h2.26v2.971h-2.26v6.284A1.6,1.6,0,0,0,43.2-3.4a1.5,1.5,0,0,0,1.1.3,6.276,6.276,0,0,0,1.066-.076v3.06a7.9,7.9,0,0,1-2.412.368A4.482,4.482,0,0,1,39.7-.787a4.267,4.267,0,0,1-1.054-3.161v-6.817H36.893v-2.971h1.752v-3.415ZM53.511.254a7.061,7.061,0,0,1-5.116-1.885,6.51,6.51,0,0,1-1.955-4.907v-.355a8.436,8.436,0,0,1,.781-3.72A5.713,5.713,0,0,1,49.5-13.108a6.879,6.879,0,0,1,3.555-.882,5.946,5.946,0,0,1,4.57,1.8A7.059,7.059,0,0,1,59.3-7.186v1.663H50.794a3.084,3.084,0,0,0,1,1.815,2.984,2.984,0,0,0,2.006.66,3.845,3.845,0,0,0,3.174-1.422l1.955,2.311A5.465,5.465,0,0,1,56.666-.4,7.658,7.658,0,0,1,53.511.254Zm-.482-10.943q-1.879,0-2.234,2.488H55.11v-.33a2.119,2.119,0,0,0-.521-1.593A2.071,2.071,0,0,0,53.028-10.689Zm12.035-3.047.14,1.612a4.723,4.723,0,0,1,3.923-1.866,3.477,3.477,0,0,1,3.517,2.069A4.571,4.571,0,0,1,76.68-13.99q4.177,0,4.291,5.053V0H76.68V-8.671a2.619,2.619,0,0,0-.355-1.536,1.513,1.513,0,0,0-1.295-.482,2.027,2.027,0,0,0-1.892,1.13l.013.178V0H68.859V-8.646a2.752,2.752,0,0,0-.343-1.562,1.509,1.509,0,0,0-1.308-.482A2.052,2.052,0,0,0,65.33-9.56V0H61.052V-13.736ZM91.152,0a4.831,4.831,0,0,1-.406-1.231,3.978,3.978,0,0,1-3.3,1.485,4.874,4.874,0,0,1-3.3-1.174,3.738,3.738,0,0,1-1.358-2.952,3.842,3.842,0,0,1,1.65-3.377,8.408,8.408,0,0,1,4.8-1.143h1.32v-.727q0-1.9-1.638-1.9a1.339,1.339,0,0,0-1.523,1.505H83.116a3.835,3.835,0,0,1,1.695-3.233,7.122,7.122,0,0,1,4.323-1.243,6.245,6.245,0,0,1,4.151,1.282,4.458,4.458,0,0,1,1.562,3.517V-3.11a6.227,6.227,0,0,0,.584,2.895V0ZM88.474-2.793A2.386,2.386,0,0,0,89.8-3.136a2.148,2.148,0,0,0,.755-.774v-2.2H89.312q-2.234,0-2.234,2.006a1.225,1.225,0,0,0,.394.946A1.424,1.424,0,0,0,88.474-2.793Zm15.933-1.066a.988.988,0,0,0-.571-.876,8.69,8.69,0,0,0-2.171-.686,9.9,9.9,0,0,1-2.641-.933,4.423,4.423,0,0,1-1.587-1.4,3.35,3.35,0,0,1-.546-1.892,3.8,3.8,0,0,1,1.562-3.117,6.432,6.432,0,0,1,4.088-1.225,7.127,7.127,0,0,1,4.367,1.231,3.851,3.851,0,0,1,1.65,3.237h-4.291q0-1.65-1.739-1.65a1.724,1.724,0,0,0-1.13.375,1.16,1.16,0,0,0-.457.933,1.064,1.064,0,0,0,.559.927,5.278,5.278,0,0,0,1.784.584,15.414,15.414,0,0,1,2.152.546q3.1,1.066,3.1,3.821a3.6,3.6,0,0,1-1.669,3.06A7.321,7.321,0,0,1,102.54.254a7.471,7.471,0,0,1-3.148-.635,5.265,5.265,0,0,1-2.158-1.727,3.91,3.91,0,0,1-.774-2.3h4a1.653,1.653,0,0,0,.635,1.39,2.611,2.611,0,0,0,1.562.438,2.054,2.054,0,0,0,1.314-.355A1.137,1.137,0,0,0,104.406-3.859Z" transform="translate(962 10436.795)" fill="#12263f"/>
    <path id="Trazado_197363" data-name="Trazado 197363" d="M11.9-3.453H5.789L4.723,0H-.038L6.741-18.484h4.189L17.761,0H12.975Zm-5.04-3.44h3.974L8.836-13.3Zm24.807.127a8.284,8.284,0,0,1-1.441,5.11A4.62,4.62,0,0,1,26.33.254,3.96,3.96,0,0,1,23.22-1.13V5.281H18.941V-13.736h4l.127,1.27A3.96,3.96,0,0,1,26.3-13.99a4.657,4.657,0,0,1,3.948,1.873A8.386,8.386,0,0,1,31.662-6.97Zm-4.278-.267q0-3.656-2.133-3.656A2.013,2.013,0,0,0,23.22-9.6v5.408a2.079,2.079,0,0,0,2.057,1.143q2.044,0,2.107-3.529ZM38.061,0H33.77V-19.5h4.291Zm7.147,0H40.917V-13.736h4.291ZM40.663-17.278a1.91,1.91,0,0,1,.66-1.5,2.491,2.491,0,0,1,1.714-.584,2.491,2.491,0,0,1,1.714.584,1.91,1.91,0,0,1,.66,1.5,1.91,1.91,0,0,1-.66,1.5,2.491,2.491,0,0,1-1.714.584,2.491,2.491,0,0,1-1.714-.584A1.91,1.91,0,0,1,40.663-17.278ZM53.65-3.047a1.9,1.9,0,0,0,1.4-.489A1.792,1.792,0,0,0,55.529-4.9h4.012a4.749,4.749,0,0,1-1.619,3.707A6.021,6.021,0,0,1,53.752.254a6.1,6.1,0,0,1-4.723-1.879A7.4,7.4,0,0,1,47.3-6.83v-.178a8.367,8.367,0,0,1,.768-3.675,5.592,5.592,0,0,1,2.215-2.45,6.605,6.605,0,0,1,3.428-.857A5.945,5.945,0,0,1,57.967-12.5,5.268,5.268,0,0,1,59.541-8.48H55.529a2.348,2.348,0,0,0-.521-1.638,1.8,1.8,0,0,0-1.4-.571q-1.663,0-1.942,2.12a14.96,14.96,0,0,0-.089,1.854,5.876,5.876,0,0,0,.5,2.869A1.714,1.714,0,0,0,53.65-3.047ZM69.088,0a4.831,4.831,0,0,1-.406-1.231,3.978,3.978,0,0,1-3.3,1.485A4.874,4.874,0,0,1,62.08-.92a3.738,3.738,0,0,1-1.358-2.952,3.842,3.842,0,0,1,1.65-3.377,8.408,8.408,0,0,1,4.8-1.143h1.32v-.727q0-1.9-1.638-1.9A1.339,1.339,0,0,0,65.33-9.514H61.052a3.835,3.835,0,0,1,1.695-3.233,7.122,7.122,0,0,1,4.323-1.243,6.245,6.245,0,0,1,4.151,1.282,4.458,4.458,0,0,1,1.562,3.517V-3.11a6.227,6.227,0,0,0,.584,2.895V0ZM66.409-2.793a2.386,2.386,0,0,0,1.327-.343,2.148,2.148,0,0,0,.755-.774v-2.2H67.247q-2.234,0-2.234,2.006a1.225,1.225,0,0,0,.394.946A1.424,1.424,0,0,0,66.409-2.793Zm14.549-.254a1.9,1.9,0,0,0,1.4-.489A1.792,1.792,0,0,0,82.837-4.9h4.012A4.749,4.749,0,0,1,85.23-1.193,6.021,6.021,0,0,1,81.06.254a6.1,6.1,0,0,1-4.723-1.879A7.4,7.4,0,0,1,74.61-6.83v-.178a8.367,8.367,0,0,1,.768-3.675,5.592,5.592,0,0,1,2.215-2.45,6.605,6.605,0,0,1,3.428-.857A5.945,5.945,0,0,1,85.274-12.5,5.268,5.268,0,0,1,86.849-8.48H82.837a2.348,2.348,0,0,0-.521-1.638,1.8,1.8,0,0,0-1.4-.571q-1.663,0-1.942,2.12a14.961,14.961,0,0,0-.089,1.854,5.876,5.876,0,0,0,.5,2.869A1.714,1.714,0,0,0,80.958-3.047ZM93.171,0H88.88V-13.736h4.291ZM88.626-17.278a1.91,1.91,0,0,1,.66-1.5A2.491,2.491,0,0,1,91-19.36a2.491,2.491,0,0,1,1.714.584,1.91,1.91,0,0,1,.66,1.5,1.91,1.91,0,0,1-.66,1.5A2.491,2.491,0,0,1,91-15.2a2.491,2.491,0,0,1-1.714-.584A1.91,1.91,0,0,1,88.626-17.278ZM95.266-7a8.107,8.107,0,0,1,.8-3.663,5.72,5.72,0,0,1,2.3-2.469,6.92,6.92,0,0,1,3.517-.863,6.316,6.316,0,0,1,4.862,1.911,7.332,7.332,0,0,1,1.777,5.2v.152a7.113,7.113,0,0,1-1.784,5.1A6.333,6.333,0,0,1,101.905.254,6.4,6.4,0,0,1,97.2-1.5a6.877,6.877,0,0,1-1.917-4.767Zm4.278.267a5.111,5.111,0,0,0,.6,2.793,1.988,1.988,0,0,0,1.765.889q2.285,0,2.336-3.517V-7q0-3.694-2.361-3.694-2.146,0-2.323,3.187Zm2.92-12.771h4.52l-3.529,3.986-3.491-.006Zm11.87,5.764.14,1.612A4.658,4.658,0,0,1,118.4-13.99a3.919,3.919,0,0,1,3.206,1.282,6.1,6.1,0,0,1,1.1,3.859V0h-4.291V-8.671a2.318,2.318,0,0,0-.419-1.53,1.938,1.938,0,0,0-1.523-.489,2.04,2.04,0,0,0-1.866.99V0h-4.278V-13.736Zm21.049,2.7H137.4a2.1,2.1,0,0,0,2.4-2.349,2.031,2.031,0,0,0-.571-1.492,2.166,2.166,0,0,0-1.612-.578,2.319,2.319,0,0,0-1.479.5,1.511,1.511,0,0,0-.628,1.231h-4.278a4.379,4.379,0,0,1,.813-2.6A5.366,5.366,0,0,1,134.3-18.11a7.7,7.7,0,0,1,3.167-.641,7.57,7.57,0,0,1,4.85,1.409,4.685,4.685,0,0,1,1.765,3.872,3.9,3.9,0,0,1-.73,2.253,5.2,5.2,0,0,1-2.126,1.72,4.97,4.97,0,0,1,2.311,1.619,4.263,4.263,0,0,1,.838,2.685,4.77,4.77,0,0,1-1.9,3.961,7.9,7.9,0,0,1-5,1.485,8.2,8.2,0,0,1-3.371-.692,5.281,5.281,0,0,1-2.355-1.917,4.984,4.984,0,0,1-.8-2.787h4.3a1.926,1.926,0,0,0,.686,1.473,2.42,2.42,0,0,0,1.688.622,2.535,2.535,0,0,0,1.8-.628,2.1,2.1,0,0,0,.673-1.606,2.456,2.456,0,0,0-.7-1.98,2.919,2.919,0,0,0-1.93-.584h-2.082Z" transform="translate(1148 10313.795)" fill="#12263f"/>
    <path id="Trazado_197370" data-name="Trazado 197370" d="M16.847,0H12.416V-7.719H5.853V0H1.4V-18.484H5.853v7.338h6.563v-7.338h4.431Zm7.135,0H19.69V-13.736h4.291ZM19.437-17.278a1.91,1.91,0,0,1,.66-1.5,2.491,2.491,0,0,1,1.714-.584,2.491,2.491,0,0,1,1.714.584,1.91,1.91,0,0,1,.66,1.5,1.91,1.91,0,0,1-.66,1.5,2.491,2.491,0,0,1-1.714.584A2.491,2.491,0,0,1,20.1-15.78,1.91,1.91,0,0,1,19.437-17.278ZM39.368-6.767a8.284,8.284,0,0,1-1.441,5.11A4.62,4.62,0,0,1,34.036.254a3.96,3.96,0,0,1-3.11-1.384V5.281H26.647V-13.736h4l.127,1.27a3.96,3.96,0,0,1,3.237-1.523,4.657,4.657,0,0,1,3.948,1.873A8.386,8.386,0,0,1,39.368-6.97ZM35.09-7.033q0-3.656-2.133-3.656A2.013,2.013,0,0,0,30.926-9.6v5.408a2.079,2.079,0,0,0,2.057,1.143q2.044,0,2.107-3.529ZM47.9.254a7.061,7.061,0,0,1-5.116-1.885,6.51,6.51,0,0,1-1.955-4.907v-.355a8.436,8.436,0,0,1,.781-3.72,5.713,5.713,0,0,1,2.279-2.495,6.879,6.879,0,0,1,3.555-.882,5.946,5.946,0,0,1,4.57,1.8,7.059,7.059,0,0,1,1.676,5.008v1.663H45.183a3.084,3.084,0,0,0,1,1.815,2.984,2.984,0,0,0,2.006.66,3.845,3.845,0,0,0,3.174-1.422L53.32-2.158A5.465,5.465,0,0,1,51.054-.4,7.658,7.658,0,0,1,47.9.254Zm-.482-10.943q-1.879,0-2.234,2.488H49.5v-.33a2.119,2.119,0,0,0-.521-1.593A2.071,2.071,0,0,0,47.417-10.689Zm16.3.825-1.409-.1q-2.019,0-2.59,1.27V0H55.44V-13.736h4.012l.14,1.765A3.313,3.313,0,0,1,62.6-13.99a4.172,4.172,0,0,1,1.193.152Zm7.249,4.773,2.171-8.646h4.507L73.163,0H68.8L64.314-13.736h4.52ZM83.434,0H79.143V-13.736h4.291ZM78.889-17.278a1.91,1.91,0,0,1,.66-1.5,2.491,2.491,0,0,1,1.714-.584,2.491,2.491,0,0,1,1.714.584,1.91,1.91,0,0,1,.66,1.5,1.91,1.91,0,0,1-.66,1.5,2.491,2.491,0,0,1-1.714.584,2.491,2.491,0,0,1-1.714-.584A1.91,1.91,0,0,1,78.889-17.278ZM93.26-3.859a.988.988,0,0,0-.571-.876,8.69,8.69,0,0,0-2.171-.686,9.9,9.9,0,0,1-2.641-.933,4.423,4.423,0,0,1-1.587-1.4,3.35,3.35,0,0,1-.546-1.892,3.8,3.8,0,0,1,1.562-3.117,6.432,6.432,0,0,1,4.088-1.225,7.127,7.127,0,0,1,4.367,1.231,3.851,3.851,0,0,1,1.65,3.237H93.12q0-1.65-1.739-1.65a1.724,1.724,0,0,0-1.13.375,1.16,1.16,0,0,0-.457.933,1.064,1.064,0,0,0,.559.927,5.278,5.278,0,0,0,1.784.584,15.414,15.414,0,0,1,2.152.546q3.1,1.066,3.1,3.821a3.6,3.6,0,0,1-1.669,3.06A7.321,7.321,0,0,1,91.394.254a7.471,7.471,0,0,1-3.148-.635,5.265,5.265,0,0,1-2.158-1.727,3.91,3.91,0,0,1-.774-2.3h4a1.653,1.653,0,0,0,.635,1.39,2.611,2.611,0,0,0,1.562.438,2.054,2.054,0,0,0,1.314-.355A1.137,1.137,0,0,0,93.26-3.859ZM98.846-7a8.107,8.107,0,0,1,.8-3.663,5.72,5.72,0,0,1,2.3-2.469,6.92,6.92,0,0,1,3.517-.863,6.316,6.316,0,0,1,4.862,1.911,7.332,7.332,0,0,1,1.777,5.2v.152a7.113,7.113,0,0,1-1.784,5.1A6.333,6.333,0,0,1,105.485.254a6.4,6.4,0,0,1-4.71-1.758,6.877,6.877,0,0,1-1.917-4.767Zm4.278.267a5.111,5.111,0,0,0,.6,2.793,1.988,1.988,0,0,0,1.765.889q2.285,0,2.336-3.517V-7q0-3.694-2.361-3.694-2.146,0-2.323,3.187Zm19.17-3.136-1.409-.1q-2.019,0-2.59,1.27V0h-4.278V-13.736h4.012l.14,1.765a3.313,3.313,0,0,1,3.009-2.019,4.172,4.172,0,0,1,1.193.152Z" transform="translate(952 10496.795)" fill="#12263f"/>
    <path id="Trazado_197371" data-name="Trazado 197371" d="M10.931-4.913a1.831,1.831,0,0,0-.692-1.523,8.6,8.6,0,0,0-2.431-1.13A23.324,23.324,0,0,1,4.964-8.7q-3.593-1.765-3.593-4.85a4.349,4.349,0,0,1,.9-2.71A5.789,5.789,0,0,1,4.8-18.084a9.856,9.856,0,0,1,3.682-.654,8.621,8.621,0,0,1,3.574.711A5.658,5.658,0,0,1,14.511-16a5.288,5.288,0,0,1,.876,3H10.943a2.234,2.234,0,0,0-.692-1.752,2.7,2.7,0,0,0-1.873-.622,3.041,3.041,0,0,0-1.885.527A1.616,1.616,0,0,0,5.8-13.508a1.627,1.627,0,0,0,.762,1.289,9.606,9.606,0,0,0,2.679,1.193A16.409,16.409,0,0,1,12.391-9.7a5.291,5.291,0,0,1,3,4.761A4.513,4.513,0,0,1,13.559-1.13,8.131,8.131,0,0,1,8.544.254,9.949,9.949,0,0,1,4.475-.552,6.135,6.135,0,0,1,1.733-2.761a5.756,5.756,0,0,1-.92-3.231H5.281A2.835,2.835,0,0,0,6.049-3.8a3.63,3.63,0,0,0,2.495.7,2.868,2.868,0,0,0,1.746-.476A1.571,1.571,0,0,0,10.931-4.913ZM21.988,0H17.7V-13.736h4.291ZM17.443-17.278a1.91,1.91,0,0,1,.66-1.5,2.491,2.491,0,0,1,1.714-.584,2.491,2.491,0,0,1,1.714.584,1.91,1.91,0,0,1,.66,1.5,1.91,1.91,0,0,1-.66,1.5,2.491,2.491,0,0,1-1.714.584A2.491,2.491,0,0,1,18.1-15.78,1.91,1.91,0,0,1,17.443-17.278ZM31.814-3.859a.988.988,0,0,0-.571-.876,8.69,8.69,0,0,0-2.171-.686,9.9,9.9,0,0,1-2.641-.933,4.423,4.423,0,0,1-1.587-1.4A3.35,3.35,0,0,1,24.3-9.648a3.8,3.8,0,0,1,1.562-3.117,6.432,6.432,0,0,1,4.088-1.225,7.127,7.127,0,0,1,4.367,1.231,3.851,3.851,0,0,1,1.65,3.237H31.675q0-1.65-1.739-1.65a1.724,1.724,0,0,0-1.13.375,1.16,1.16,0,0,0-.457.933,1.064,1.064,0,0,0,.559.927,5.278,5.278,0,0,0,1.784.584,15.414,15.414,0,0,1,2.152.546q3.1,1.066,3.1,3.821a3.6,3.6,0,0,1-1.669,3.06A7.321,7.321,0,0,1,29.948.254,7.471,7.471,0,0,1,26.8-.381a5.265,5.265,0,0,1-2.158-1.727,3.91,3.91,0,0,1-.774-2.3h4a1.653,1.653,0,0,0,.635,1.39,2.611,2.611,0,0,0,1.562.438,2.054,2.054,0,0,0,1.314-.355A1.137,1.137,0,0,0,31.814-3.859ZM42.923-17.151v3.415h2.26v2.971h-2.26v6.284A1.6,1.6,0,0,0,43.2-3.4a1.5,1.5,0,0,0,1.1.3,6.276,6.276,0,0,0,1.066-.076v3.06a7.9,7.9,0,0,1-2.412.368A4.482,4.482,0,0,1,39.7-.787a4.267,4.267,0,0,1-1.054-3.161v-6.817H36.893v-2.971h1.752v-3.415ZM53.511.254a7.061,7.061,0,0,1-5.116-1.885,6.51,6.51,0,0,1-1.955-4.907v-.355a8.436,8.436,0,0,1,.781-3.72A5.713,5.713,0,0,1,49.5-13.108a6.879,6.879,0,0,1,3.555-.882,5.946,5.946,0,0,1,4.57,1.8A7.059,7.059,0,0,1,59.3-7.186v1.663H50.794a3.084,3.084,0,0,0,1,1.815,2.984,2.984,0,0,0,2.006.66,3.845,3.845,0,0,0,3.174-1.422l1.955,2.311A5.465,5.465,0,0,1,56.666-.4,7.658,7.658,0,0,1,53.511.254Zm-.482-10.943q-1.879,0-2.234,2.488H55.11v-.33a2.119,2.119,0,0,0-.521-1.593A2.071,2.071,0,0,0,53.028-10.689Zm12.035-3.047.14,1.612a4.723,4.723,0,0,1,3.923-1.866,3.477,3.477,0,0,1,3.517,2.069A4.571,4.571,0,0,1,76.68-13.99q4.177,0,4.291,5.053V0H76.68V-8.671a2.619,2.619,0,0,0-.355-1.536,1.513,1.513,0,0,0-1.295-.482,2.027,2.027,0,0,0-1.892,1.13l.013.178V0H68.859V-8.646a2.752,2.752,0,0,0-.343-1.562,1.509,1.509,0,0,0-1.308-.482A2.052,2.052,0,0,0,65.33-9.56V0H61.052V-13.736ZM91.152,0a4.831,4.831,0,0,1-.406-1.231,3.978,3.978,0,0,1-3.3,1.485,4.874,4.874,0,0,1-3.3-1.174,3.738,3.738,0,0,1-1.358-2.952,3.842,3.842,0,0,1,1.65-3.377,8.408,8.408,0,0,1,4.8-1.143h1.32v-.727q0-1.9-1.638-1.9a1.339,1.339,0,0,0-1.523,1.505H83.116a3.835,3.835,0,0,1,1.695-3.233,7.122,7.122,0,0,1,4.323-1.243,6.245,6.245,0,0,1,4.151,1.282,4.458,4.458,0,0,1,1.562,3.517V-3.11a6.227,6.227,0,0,0,.584,2.895V0ZM88.474-2.793A2.386,2.386,0,0,0,89.8-3.136a2.148,2.148,0,0,0,.755-.774v-2.2H89.312q-2.234,0-2.234,2.006a1.225,1.225,0,0,0,.394.946A1.424,1.424,0,0,0,88.474-2.793ZM103.149-7a8.107,8.107,0,0,1,.8-3.663,5.72,5.72,0,0,1,2.3-2.469,6.92,6.92,0,0,1,3.517-.863,6.316,6.316,0,0,1,4.862,1.911,7.332,7.332,0,0,1,1.777,5.2v.152a7.113,7.113,0,0,1-1.784,5.1A6.333,6.333,0,0,1,109.789.254a6.4,6.4,0,0,1-4.71-1.758,6.877,6.877,0,0,1-1.917-4.767Zm4.278.267a5.111,5.111,0,0,0,.6,2.793,1.988,1.988,0,0,0,1.765.889q2.285,0,2.336-3.517V-7q0-3.694-2.361-3.694-2.146,0-2.323,3.187Zm23.613-.038a8.284,8.284,0,0,1-1.441,5.11A4.62,4.62,0,0,1,125.709.254,3.96,3.96,0,0,1,122.6-1.13V5.281H118.32V-13.736h4l.127,1.27a3.96,3.96,0,0,1,3.237-1.523,4.657,4.657,0,0,1,3.948,1.873,8.386,8.386,0,0,1,1.409,5.148Zm-4.278-.267q0-3.656-2.133-3.656A2.013,2.013,0,0,0,122.6-9.6v5.408a2.079,2.079,0,0,0,2.057,1.143q2.044,0,2.107-3.529ZM139.572.254a7.061,7.061,0,0,1-5.116-1.885A6.51,6.51,0,0,1,132.5-6.538v-.355a8.436,8.436,0,0,1,.781-3.72,5.713,5.713,0,0,1,2.279-2.495,6.879,6.879,0,0,1,3.555-.882,5.946,5.946,0,0,1,4.57,1.8,7.059,7.059,0,0,1,1.676,5.008v1.663h-8.506a3.084,3.084,0,0,0,1,1.815,2.984,2.984,0,0,0,2.006.66,3.845,3.845,0,0,0,3.174-1.422l1.955,2.311A5.465,5.465,0,0,1,142.727-.4,7.658,7.658,0,0,1,139.572.254Zm-.482-10.943q-1.879,0-2.234,2.488h4.316v-.33a2.119,2.119,0,0,0-.521-1.593A2.071,2.071,0,0,0,139.09-10.689Zm16.3.825-1.409-.1q-2.019,0-2.59,1.27V0h-4.278V-13.736h4.012l.14,1.765a3.313,3.313,0,0,1,3.009-2.019,4.172,4.172,0,0,1,1.193.152ZM164.29,0a4.83,4.83,0,0,1-.406-1.231,3.978,3.978,0,0,1-3.3,1.485,4.874,4.874,0,0,1-3.3-1.174,3.738,3.738,0,0,1-1.358-2.952,3.842,3.842,0,0,1,1.65-3.377,8.408,8.408,0,0,1,4.8-1.143h1.32v-.727q0-1.9-1.638-1.9a1.339,1.339,0,0,0-1.523,1.505h-4.278a3.835,3.835,0,0,1,1.695-3.233,7.122,7.122,0,0,1,4.323-1.243,6.245,6.245,0,0,1,4.151,1.282,4.458,4.458,0,0,1,1.562,3.517V-3.11a6.227,6.227,0,0,0,.584,2.895V0Zm-2.679-2.793a2.386,2.386,0,0,0,1.327-.343,2.148,2.148,0,0,0,.755-.774v-2.2h-1.244q-2.234,0-2.234,2.006a1.225,1.225,0,0,0,.394.946A1.424,1.424,0,0,0,161.611-2.793Zm13.724-14.358v3.415h2.26v2.971h-2.26v6.284a1.6,1.6,0,0,0,.279,1.079,1.5,1.5,0,0,0,1.1.3,6.276,6.276,0,0,0,1.066-.076v3.06a7.9,7.9,0,0,1-2.412.368A4.482,4.482,0,0,1,172.11-.787a4.267,4.267,0,0,1-1.054-3.161v-6.817H169.3v-2.971h1.752v-3.415ZM183.79,0H179.5V-13.736h4.291Zm-4.545-17.278a1.91,1.91,0,0,1,.66-1.5,2.491,2.491,0,0,1,1.714-.584,2.491,2.491,0,0,1,1.714.584,1.91,1.91,0,0,1,.66,1.5,1.91,1.91,0,0,1-.66,1.5,2.491,2.491,0,0,1-1.714.584,2.491,2.491,0,0,1-1.714-.584A1.91,1.91,0,0,1,179.245-17.278ZM191.9-5.091l2.171-8.646h4.507L194.1,0h-4.367L185.25-13.736h4.52ZM199.126-7a8.107,8.107,0,0,1,.8-3.663,5.72,5.72,0,0,1,2.3-2.469,6.921,6.921,0,0,1,3.517-.863A6.316,6.316,0,0,1,210.6-12.08a7.332,7.332,0,0,1,1.777,5.2v.152a7.113,7.113,0,0,1-1.784,5.1A6.333,6.333,0,0,1,205.766.254a6.4,6.4,0,0,1-4.71-1.758,6.877,6.877,0,0,1-1.917-4.767Zm4.278.267a5.111,5.111,0,0,0,.6,2.793,1.988,1.988,0,0,0,1.765.889q2.285,0,2.336-3.517V-7q0-3.694-2.361-3.694-2.146,0-2.323,3.187Zm21.519-5.535a4.282,4.282,0,0,1,3.5-1.727,4.269,4.269,0,0,1,3.428,1.346,6.047,6.047,0,0,1,1.181,3.974V0h-4.291V-8.569a2.418,2.418,0,0,0-.444-1.606,1.909,1.909,0,0,0-1.511-.514,2.057,2.057,0,0,0-1.866.838V0h-4.278V-19.5h4.278ZM234.876-7a8.107,8.107,0,0,1,.8-3.663,5.72,5.72,0,0,1,2.3-2.469,6.921,6.921,0,0,1,3.517-.863,6.316,6.316,0,0,1,4.862,1.911,7.332,7.332,0,0,1,1.777,5.2v.152a7.113,7.113,0,0,1-1.784,5.1A6.333,6.333,0,0,1,241.516.254a6.4,6.4,0,0,1-4.71-1.758,6.877,6.877,0,0,1-1.917-4.767Zm4.278.267a5.111,5.111,0,0,0,.6,2.793,1.988,1.988,0,0,0,1.765.889q2.285,0,2.336-3.517V-7q0-3.694-2.361-3.694-2.146,0-2.323,3.187Zm18.053,2.869a.988.988,0,0,0-.571-.876,8.69,8.69,0,0,0-2.171-.686,9.9,9.9,0,0,1-2.641-.933,4.423,4.423,0,0,1-1.587-1.4,3.35,3.35,0,0,1-.546-1.892,3.8,3.8,0,0,1,1.562-3.117,6.432,6.432,0,0,1,4.088-1.225,7.127,7.127,0,0,1,4.367,1.231,3.851,3.851,0,0,1,1.65,3.237h-4.291q0-1.65-1.739-1.65a1.724,1.724,0,0,0-1.13.375,1.16,1.16,0,0,0-.457.933,1.064,1.064,0,0,0,.559.927,5.278,5.278,0,0,0,1.784.584,15.413,15.413,0,0,1,2.152.546q3.1,1.066,3.1,3.821a3.6,3.6,0,0,1-1.669,3.06A7.321,7.321,0,0,1,255.341.254a7.471,7.471,0,0,1-3.148-.635,5.265,5.265,0,0,1-2.158-1.727,3.91,3.91,0,0,1-.774-2.3h4a1.653,1.653,0,0,0,.635,1.39,2.611,2.611,0,0,0,1.562.438,2.054,2.054,0,0,0,1.314-.355A1.137,1.137,0,0,0,257.207-3.859Zm11.108-13.292v3.415h2.26v2.971h-2.26v6.284a1.6,1.6,0,0,0,.279,1.079,1.5,1.5,0,0,0,1.1.3,6.276,6.276,0,0,0,1.066-.076v3.06a7.9,7.9,0,0,1-2.412.368,4.482,4.482,0,0,1-3.263-1.041,4.267,4.267,0,0,1-1.054-3.161v-6.817h-1.752v-2.971h1.752v-3.415Z" transform="translate(873 10557.795)" fill="#12263f"/>
    <path id="Trazado_197372" data-name="Trazado 197372" d="M16.847,0H12.416V-7.719H5.853V0H1.4V-18.484H5.853v7.338h6.563v-7.338h4.431ZM27.206,0A4.831,4.831,0,0,1,26.8-1.231,3.978,3.978,0,0,1,23.5.254,4.874,4.874,0,0,1,20.2-.92,3.738,3.738,0,0,1,18.84-3.872a3.842,3.842,0,0,1,1.65-3.377,8.408,8.408,0,0,1,4.8-1.143h1.32v-.727q0-1.9-1.638-1.9a1.339,1.339,0,0,0-1.523,1.505H19.17a3.835,3.835,0,0,1,1.695-3.233,7.122,7.122,0,0,1,4.323-1.243,6.245,6.245,0,0,1,4.151,1.282A4.458,4.458,0,0,1,30.9-9.191V-3.11a6.227,6.227,0,0,0,.584,2.895V0ZM24.527-2.793a2.386,2.386,0,0,0,1.327-.343,2.148,2.148,0,0,0,.755-.774v-2.2H25.365q-2.234,0-2.234,2.006a1.225,1.225,0,0,0,.394.946A1.424,1.424,0,0,0,24.527-2.793Zm17.05-7.071-1.409-.1q-2.019,0-2.59,1.27V0H33.3V-13.736h4.012l.14,1.765A3.313,3.313,0,0,1,40.46-13.99a4.172,4.172,0,0,1,1.193.152Zm1,2.895a8.391,8.391,0,0,1,1.409-5.142,4.638,4.638,0,0,1,3.936-1.879,3.945,3.945,0,0,1,3.1,1.447V-19.5h4.291V0H51.467l-.216-1.473A4.051,4.051,0,0,1,47.9.254a4.63,4.63,0,0,1-3.885-1.879A8.657,8.657,0,0,1,42.58-6.97Zm4.278.267q0,3.656,2.133,3.656A2.106,2.106,0,0,0,51.022-4.24v-5.23a2.049,2.049,0,0,0-2.006-1.219q-1.98,0-2.146,3.2Zm22.75,1.066,1.384-8.1h4.1L71.855,0H68.237L65.965-8.15,63.68,0H60.062L56.824-13.736h4.1l1.358,8.29,2.184-8.29H67.45ZM84.36,0a4.831,4.831,0,0,1-.406-1.231,3.978,3.978,0,0,1-3.3,1.485,4.874,4.874,0,0,1-3.3-1.174,3.738,3.738,0,0,1-1.358-2.952,3.842,3.842,0,0,1,1.65-3.377,8.408,8.408,0,0,1,4.8-1.143h1.32v-.727q0-1.9-1.638-1.9A1.339,1.339,0,0,0,80.6-9.514H76.324a3.835,3.835,0,0,1,1.695-3.233,7.122,7.122,0,0,1,4.323-1.243,6.245,6.245,0,0,1,4.151,1.282,4.458,4.458,0,0,1,1.562,3.517V-3.11a6.227,6.227,0,0,0,.584,2.895V0ZM81.682-2.793a2.386,2.386,0,0,0,1.327-.343,2.148,2.148,0,0,0,.755-.774v-2.2H82.52q-2.234,0-2.234,2.006a1.225,1.225,0,0,0,.394.946A1.424,1.424,0,0,0,81.682-2.793Zm17.05-7.071-1.409-.1q-2.019,0-2.59,1.27V0H90.454V-13.736h4.012l.14,1.765a3.313,3.313,0,0,1,3.009-2.019,4.172,4.172,0,0,1,1.193.152ZM106.92.254A7.061,7.061,0,0,1,101.8-1.631a6.51,6.51,0,0,1-1.955-4.907v-.355a8.436,8.436,0,0,1,.781-3.72,5.713,5.713,0,0,1,2.279-2.495,6.879,6.879,0,0,1,3.555-.882,5.946,5.946,0,0,1,4.57,1.8,7.059,7.059,0,0,1,1.676,5.008v1.663H104.2a3.084,3.084,0,0,0,1,1.815,2.984,2.984,0,0,0,2.006.66,3.845,3.845,0,0,0,3.174-1.422l1.955,2.311A5.465,5.465,0,0,1,110.075-.4,7.658,7.658,0,0,1,106.92.254Zm-.482-10.943q-1.879,0-2.234,2.488h4.316v-.33A2.119,2.119,0,0,0,108-10.125,2.071,2.071,0,0,0,106.438-10.689Z" transform="translate(957 10617.795)" fill="#12263f"/>
    <path id="Trazado_197366" data-name="Trazado 197366" d="M1.4,0V-18.484h6.64a9.4,9.4,0,0,1,5.427,1.308,4.351,4.351,0,0,1,1.86,3.8,4.4,4.4,0,0,1-.66,2.45,3.847,3.847,0,0,1-1.942,1.5,3.9,3.9,0,0,1,2.222,1.422,4.134,4.134,0,0,1,.774,2.539A4.894,4.894,0,0,1,14-1.39,8.186,8.186,0,0,1,8.9,0ZM5.853-7.858v4.431h2.92a2.777,2.777,0,0,0,1.854-.552,1.933,1.933,0,0,0,.647-1.555,2.049,2.049,0,0,0-2.3-2.323Zm0-2.92H8.176a3.3,3.3,0,0,0,2.082-.535,1.9,1.9,0,0,0,.622-1.541,1.993,1.993,0,0,0-.673-1.687,3.6,3.6,0,0,0-2.171-.516H5.853ZM22.483,0H18.192V-13.736h4.291ZM17.938-17.278a1.91,1.91,0,0,1,.66-1.5,2.491,2.491,0,0,1,1.714-.584,2.491,2.491,0,0,1,1.714.584,1.91,1.91,0,0,1,.66,1.5,1.91,1.91,0,0,1-.66,1.5,2.491,2.491,0,0,1-1.714.584A2.491,2.491,0,0,1,18.6-15.78,1.91,1.91,0,0,1,17.938-17.278ZM37.87-6.754a8.372,8.372,0,0,1-1.4,5.192A4.677,4.677,0,0,1,32.538.254a4.059,4.059,0,0,1-3.377-1.663L28.983,0H25.149V-19.5h4.278v6.868a3.916,3.916,0,0,1,3.085-1.358,4.679,4.679,0,0,1,3.961,1.841,8.415,8.415,0,0,1,1.4,5.18Zm-4.291-.273a5.584,5.584,0,0,0-.527-2.82,1.776,1.776,0,0,0-1.619-.843,2.048,2.048,0,0,0-2.006,1.1v5.45a2.06,2.06,0,0,0,2.031,1.09,1.817,1.817,0,0,0,1.917-1.47A10.557,10.557,0,0,0,33.579-7.027ZM44.269,0H39.978V-19.5h4.291Zm7.147,0H47.125V-13.736h4.291ZM46.871-17.278a1.91,1.91,0,0,1,.66-1.5,2.491,2.491,0,0,1,1.714-.584,2.491,2.491,0,0,1,1.714.584,1.91,1.91,0,0,1,.66,1.5,1.91,1.91,0,0,1-.66,1.5,2.491,2.491,0,0,1-1.714.584,2.491,2.491,0,0,1-1.714-.584A1.91,1.91,0,0,1,46.871-17.278ZM53.511-7a8.107,8.107,0,0,1,.8-3.663,5.72,5.72,0,0,1,2.3-2.469,6.92,6.92,0,0,1,3.517-.863,6.316,6.316,0,0,1,4.862,1.911,7.332,7.332,0,0,1,1.777,5.2v.152a7.113,7.113,0,0,1-1.784,5.1A6.333,6.333,0,0,1,60.15.254,6.4,6.4,0,0,1,55.44-1.5a6.877,6.877,0,0,1-1.917-4.767Zm4.278.267a5.111,5.111,0,0,0,.6,2.793,1.988,1.988,0,0,0,1.765.889q2.285,0,2.336-3.517V-7q0-3.694-2.361-3.694-2.146,0-2.323,3.187ZM73.633-17.151v3.415h2.26v2.971h-2.26v6.284A1.6,1.6,0,0,0,73.912-3.4a1.5,1.5,0,0,0,1.1.3,6.276,6.276,0,0,0,1.066-.076v3.06a7.9,7.9,0,0,1-2.412.368A4.482,4.482,0,0,1,70.408-.787a4.267,4.267,0,0,1-1.054-3.161v-6.817H67.6v-2.971h1.752v-3.415ZM84.221.254A7.061,7.061,0,0,1,79.1-1.631a6.51,6.51,0,0,1-1.955-4.907v-.355a8.436,8.436,0,0,1,.781-3.72,5.713,5.713,0,0,1,2.279-2.495,6.879,6.879,0,0,1,3.555-.882,5.946,5.946,0,0,1,4.57,1.8A7.059,7.059,0,0,1,90.01-7.186v1.663H81.5a3.084,3.084,0,0,0,1,1.815,2.984,2.984,0,0,0,2.006.66,3.845,3.845,0,0,0,3.174-1.422l1.955,2.311A5.465,5.465,0,0,1,87.375-.4,7.658,7.658,0,0,1,84.221.254Zm-.482-10.943q-1.879,0-2.234,2.488H85.82v-.33a2.119,2.119,0,0,0-.521-1.593A2.071,2.071,0,0,0,83.738-10.689Zm13.8,7.643a1.9,1.9,0,0,0,1.4-.489A1.792,1.792,0,0,0,99.417-4.9h4.012a4.749,4.749,0,0,1-1.619,3.707A6.021,6.021,0,0,1,97.64.254a6.1,6.1,0,0,1-4.723-1.879A7.4,7.4,0,0,1,91.19-6.83v-.178a8.367,8.367,0,0,1,.768-3.675,5.592,5.592,0,0,1,2.215-2.45A6.605,6.605,0,0,1,97.6-13.99a5.945,5.945,0,0,1,4.253,1.485,5.268,5.268,0,0,1,1.574,4.024H99.417a2.348,2.348,0,0,0-.521-1.638,1.8,1.8,0,0,0-1.4-.571q-1.663,0-1.942,2.12a14.961,14.961,0,0,0-.089,1.854,5.876,5.876,0,0,0,.5,2.869A1.714,1.714,0,0,0,97.538-3.047ZM112.976,0a4.831,4.831,0,0,1-.406-1.231,3.978,3.978,0,0,1-3.3,1.485,4.874,4.874,0,0,1-3.3-1.174,3.738,3.738,0,0,1-1.358-2.952,3.842,3.842,0,0,1,1.65-3.377,8.408,8.408,0,0,1,4.8-1.143h1.32v-.727q0-1.9-1.638-1.9a1.339,1.339,0,0,0-1.523,1.505h-4.278a3.835,3.835,0,0,1,1.695-3.233,7.122,7.122,0,0,1,4.323-1.243,6.245,6.245,0,0,1,4.151,1.282,4.458,4.458,0,0,1,1.562,3.517V-3.11a6.227,6.227,0,0,0,.584,2.895V0ZM110.3-2.793a2.386,2.386,0,0,0,1.327-.343,2.148,2.148,0,0,0,.755-.774v-2.2h-1.244q-2.234,0-2.234,2.006a1.225,1.225,0,0,0,.394.946A1.424,1.424,0,0,0,110.3-2.793Zm15.933-1.066a.988.988,0,0,0-.571-.876,8.69,8.69,0,0,0-2.171-.686,9.9,9.9,0,0,1-2.641-.933,4.423,4.423,0,0,1-1.587-1.4,3.35,3.35,0,0,1-.546-1.892,3.8,3.8,0,0,1,1.562-3.117,6.432,6.432,0,0,1,4.088-1.225,7.127,7.127,0,0,1,4.367,1.231,3.851,3.851,0,0,1,1.65,3.237H126.09q0-1.65-1.739-1.65a1.724,1.724,0,0,0-1.13.375,1.16,1.16,0,0,0-.457.933,1.064,1.064,0,0,0,.559.927,5.278,5.278,0,0,0,1.784.584,15.414,15.414,0,0,1,2.152.546q3.1,1.066,3.1,3.821a3.6,3.6,0,0,1-1.669,3.06A7.321,7.321,0,0,1,124.363.254a7.471,7.471,0,0,1-3.148-.635,5.265,5.265,0,0,1-2.158-1.727,3.91,3.91,0,0,1-.774-2.3h4a1.653,1.653,0,0,0,.635,1.39,2.611,2.611,0,0,0,1.562.438,2.054,2.054,0,0,0,1.314-.355A1.137,1.137,0,0,0,126.229-3.859ZM140.3,1.587h-3.034l6.31-20.071h3.047Z" transform="translate(1148 10374.795)" fill="#12263f"/>
    <path id="Trazado_197369" data-name="Trazado 197369" d="M10.931-4.913a1.831,1.831,0,0,0-.692-1.523,8.6,8.6,0,0,0-2.431-1.13A23.324,23.324,0,0,1,4.964-8.7q-3.593-1.765-3.593-4.85a4.349,4.349,0,0,1,.9-2.71A5.789,5.789,0,0,1,4.8-18.084a9.856,9.856,0,0,1,3.682-.654,8.621,8.621,0,0,1,3.574.711A5.658,5.658,0,0,1,14.511-16a5.288,5.288,0,0,1,.876,3H10.943a2.234,2.234,0,0,0-.692-1.752,2.7,2.7,0,0,0-1.873-.622,3.041,3.041,0,0,0-1.885.527A1.616,1.616,0,0,0,5.8-13.508a1.627,1.627,0,0,0,.762,1.289,9.606,9.606,0,0,0,2.679,1.193A16.409,16.409,0,0,1,12.391-9.7a5.291,5.291,0,0,1,3,4.761A4.513,4.513,0,0,1,13.559-1.13,8.131,8.131,0,0,1,8.544.254,9.949,9.949,0,0,1,4.475-.552,6.135,6.135,0,0,1,1.733-2.761a5.756,5.756,0,0,1-.92-3.231H5.281A2.835,2.835,0,0,0,6.049-3.8a3.63,3.63,0,0,0,2.495.7,2.868,2.868,0,0,0,1.746-.476A1.571,1.571,0,0,0,10.931-4.913ZM21.988,0H17.7V-13.736h4.291ZM17.443-17.278a1.91,1.91,0,0,1,.66-1.5,2.491,2.491,0,0,1,1.714-.584,2.491,2.491,0,0,1,1.714.584,1.91,1.91,0,0,1,.66,1.5,1.91,1.91,0,0,1-.66,1.5,2.491,2.491,0,0,1-1.714.584A2.491,2.491,0,0,1,18.1-15.78,1.91,1.91,0,0,1,17.443-17.278ZM31.814-3.859a.988.988,0,0,0-.571-.876,8.69,8.69,0,0,0-2.171-.686,9.9,9.9,0,0,1-2.641-.933,4.423,4.423,0,0,1-1.587-1.4A3.35,3.35,0,0,1,24.3-9.648a3.8,3.8,0,0,1,1.562-3.117,6.432,6.432,0,0,1,4.088-1.225,7.127,7.127,0,0,1,4.367,1.231,3.851,3.851,0,0,1,1.65,3.237H31.675q0-1.65-1.739-1.65a1.724,1.724,0,0,0-1.13.375,1.16,1.16,0,0,0-.457.933,1.064,1.064,0,0,0,.559.927,5.278,5.278,0,0,0,1.784.584,15.414,15.414,0,0,1,2.152.546q3.1,1.066,3.1,3.821a3.6,3.6,0,0,1-1.669,3.06A7.321,7.321,0,0,1,29.948.254,7.471,7.471,0,0,1,26.8-.381a5.265,5.265,0,0,1-2.158-1.727,3.91,3.91,0,0,1-.774-2.3h4a1.653,1.653,0,0,0,.635,1.39,2.611,2.611,0,0,0,1.562.438,2.054,2.054,0,0,0,1.314-.355A1.137,1.137,0,0,0,31.814-3.859ZM42.923-17.151v3.415h2.26v2.971h-2.26v6.284A1.6,1.6,0,0,0,43.2-3.4a1.5,1.5,0,0,0,1.1.3,6.276,6.276,0,0,0,1.066-.076v3.06a7.9,7.9,0,0,1-2.412.368A4.482,4.482,0,0,1,39.7-.787a4.267,4.267,0,0,1-1.054-3.161v-6.817H36.893v-2.971h1.752v-3.415ZM53.511.254a7.061,7.061,0,0,1-5.116-1.885,6.51,6.51,0,0,1-1.955-4.907v-.355a8.436,8.436,0,0,1,.781-3.72A5.713,5.713,0,0,1,49.5-13.108a6.879,6.879,0,0,1,3.555-.882,5.946,5.946,0,0,1,4.57,1.8A7.059,7.059,0,0,1,59.3-7.186v1.663H50.794a3.084,3.084,0,0,0,1,1.815,2.984,2.984,0,0,0,2.006.66,3.845,3.845,0,0,0,3.174-1.422l1.955,2.311A5.465,5.465,0,0,1,56.666-.4,7.658,7.658,0,0,1,53.511.254Zm-.482-10.943q-1.879,0-2.234,2.488H55.11v-.33a2.119,2.119,0,0,0-.521-1.593A2.071,2.071,0,0,0,53.028-10.689Zm12.035-3.047.14,1.612a4.723,4.723,0,0,1,3.923-1.866,3.477,3.477,0,0,1,3.517,2.069A4.571,4.571,0,0,1,76.68-13.99q4.177,0,4.291,5.053V0H76.68V-8.671a2.619,2.619,0,0,0-.355-1.536,1.513,1.513,0,0,0-1.295-.482,2.027,2.027,0,0,0-1.892,1.13l.013.178V0H68.859V-8.646a2.752,2.752,0,0,0-.343-1.562,1.509,1.509,0,0,0-1.308-.482A2.052,2.052,0,0,0,65.33-9.56V0H61.052V-13.736ZM91.152,0a4.831,4.831,0,0,1-.406-1.231,3.978,3.978,0,0,1-3.3,1.485,4.874,4.874,0,0,1-3.3-1.174,3.738,3.738,0,0,1-1.358-2.952,3.842,3.842,0,0,1,1.65-3.377,8.408,8.408,0,0,1,4.8-1.143h1.32v-.727q0-1.9-1.638-1.9a1.339,1.339,0,0,0-1.523,1.505H83.116a3.835,3.835,0,0,1,1.695-3.233,7.122,7.122,0,0,1,4.323-1.243,6.245,6.245,0,0,1,4.151,1.282,4.458,4.458,0,0,1,1.562,3.517V-3.11a6.227,6.227,0,0,0,.584,2.895V0ZM88.474-2.793A2.386,2.386,0,0,0,89.8-3.136a2.148,2.148,0,0,0,.755-.774v-2.2H89.312q-2.234,0-2.234,2.006a1.225,1.225,0,0,0,.394.946A1.424,1.424,0,0,0,88.474-2.793Zm15.933-1.066a.988.988,0,0,0-.571-.876,8.69,8.69,0,0,0-2.171-.686,9.9,9.9,0,0,1-2.641-.933,4.423,4.423,0,0,1-1.587-1.4,3.35,3.35,0,0,1-.546-1.892,3.8,3.8,0,0,1,1.562-3.117,6.432,6.432,0,0,1,4.088-1.225,7.127,7.127,0,0,1,4.367,1.231,3.851,3.851,0,0,1,1.65,3.237h-4.291q0-1.65-1.739-1.65a1.724,1.724,0,0,0-1.13.375,1.16,1.16,0,0,0-.457.933,1.064,1.064,0,0,0,.559.927,5.278,5.278,0,0,0,1.784.584,15.414,15.414,0,0,1,2.152.546q3.1,1.066,3.1,3.821a3.6,3.6,0,0,1-1.669,3.06A7.321,7.321,0,0,1,102.54.254a7.471,7.471,0,0,1-3.148-.635,5.265,5.265,0,0,1-2.158-1.727,3.91,3.91,0,0,1-.774-2.3h4a1.653,1.653,0,0,0,.635,1.39,2.611,2.611,0,0,0,1.562.438,2.054,2.054,0,0,0,1.314-.355A1.137,1.137,0,0,0,104.406-3.859Z" transform="translate(1173 10436.795)" fill="#12263f"/>
  </g>
</svg>
