<svg xmlns="http://www.w3.org/2000/svg" width="85.899" height="73.708" viewBox="0 0 85.899 73.708">
  <g id="_1I0MYx" data-name="1I0MYx" transform="translate(-3479.625 -2318.732)">
    <g id="Grupo_155228" data-name="Grupo 155228" transform="translate(3479.625 2318.733)">
      <path id="Trazado_197037" data-name="Trazado 197037" d="M3536.728,2590.691v-2.025h11.748c0-.378,0-.714,0-1.05q.015-11.765.029-23.529c0-1.018-.012-2.037-.009-3.055a5.579,5.579,0,0,1,5.039-5.8,56.826,56.826,0,0,1,6-.04v2.029c-1.78,0-3.542-.01-5.3,0a3.541,3.541,0,0,0-3.182,1.853,2.97,2.97,0,0,0-.447,1.354c-.049,1.924-.021,3.85-.021,5.83h39.493c0-2.014.145-4.006-.042-5.966a3.483,3.483,0,0,0-3.656-3.07c-1.987-.015-3.973,0-5.96-.006-.183,0-.367-.024-.6-.04v-2.029c.386,0,.753-.005,1.121,0a61.517,61.517,0,0,1,6.592.168,5.511,5.511,0,0,1,4.66,5.555q.023,14.255.01,28.511c0,.969-.354,1.347-1.289,1.347q-26.875.006-53.752,0C3537.048,2590.732,3536.942,2590.713,3536.728,2590.691Zm53.374-22.269h-39.52v9.021h39.52Zm-39.512,11.186v9h39.495v-9Z" transform="translate(-3527.524 -2517.027)" fill="#12263f"/>
      <path id="Trazado_197038" data-name="Trazado 197038" d="M3497.1,2372.323v2.013a15.825,15.825,0,0,1-9.772-1.995,16.382,16.382,0,0,1-6.887-19.033c1.75-5.354,5.158-9.151,10.656-10.847a10.316,10.316,0,0,1,2.206-.42.881.881,0,0,0,.946-.8c1.7-6.472,5.568-10.963,12.067-12.963a14,14,0,0,1,7.085-.3,1.083,1.083,0,0,0,1.308-.519c3.985-5.537,9.367-8.65,16.227-8.718,6.963-.069,12.439,3.033,16.559,8.576a22,22,0,0,1,3.794,8.626,1.1,1.1,0,0,0,.547.736c7.314,2.233,11.572,7.335,13.155,14.593A18.723,18.723,0,0,1,3559,2370.1a16.484,16.484,0,0,1-10.69,4.286,2.528,2.528,0,0,1-.322-.006,1.318,1.318,0,0,1-.212-.065V2372.4a24.907,24.907,0,0,0,2.674-.326c7-1.6,11.082-6.127,12.618-12.985a17.79,17.79,0,0,0-7.648-18.564,19.925,19.925,0,0,0-4.411-1.878c-1.375-.455-1.379-.358-1.669-1.857a19.471,19.471,0,0,0-8.316-12.916,17.575,17.575,0,0,0-23.98,3.86c-.41.53-.791,1.083-1.161,1.642-.695,1.049-.761,1.071-1.967.781a13.378,13.378,0,0,0-9.693,1.129,15.5,15.5,0,0,0-8.21,11.578c-.128.712-.418,1.126-1.19,1.126-6.072,0-10.636,4.545-12.291,9.5a14.47,14.47,0,0,0,4.886,16.438,11.836,11.836,0,0,0,7.046,2.395C3495.317,2372.334,3496.171,2372.323,3497.1,2372.323Z" transform="translate(-3479.626 -2318.733)" fill="#12263f"/>
      <path id="Trazado_197039" data-name="Trazado 197039" d="M3700.4,2372.726c.571,0,.94,0,1.31,0,.958.012,1.306.347,1.308,1.312.008,3.007,0,6.015.006,9.023,0,1.792,0,3.583,0,5.469.691,0,1.3.01,1.91,0,.559-.012,1.2,0,1.342.613a2.067,2.067,0,0,1-.248,1.478c-2.062,3.01-4.176,5.985-6.3,8.956-1.418,1.987-1.692,1.963-3.1-.044-2.007-2.852-4.034-5.689-6.052-8.533a6.421,6.421,0,0,1-.451-.665,1.152,1.152,0,0,1,1.036-1.8c.349-.013.7,0,1.047,0h1.133v-4.481h2.079c0,1.871.028,3.716-.016,5.559a1,1,0,0,1-1.073.99c-.446.02-.894,0-1.508,0l5.363,7.591,5.372-7.589c-.523,0-.883.005-1.243,0-.989-.017-1.364-.379-1.367-1.365-.009-3.034-.005-6.069-.006-9.1,0-1.742,0-3.484,0-5.35a14.268,14.268,0,0,1-2.018-.025c-.429-.063-1.059-.269-1.179-.575a1.819,1.819,0,0,1,.181-1.466c1.827-2.683,3.723-5.319,5.6-7.97.449-.635.882-1.283,1.352-1.9a1.026,1.026,0,0,1,1.846.01c2.351,3.3,4.7,6.6,6.992,9.942a1.639,1.639,0,0,1,.115,1.4c-.155.314-.762.5-1.2.56a14.329,14.329,0,0,1-2,.024v4.517h-2.093v-3.092c0-.725-.01-1.45,0-2.175.016-.942.379-1.292,1.327-1.3.369,0,.739,0,1.3,0l-5.377-7.617Z" transform="translate(-3656.042 -2355.253)" fill="#12263f"/>
      <path id="Trazado_197040" data-name="Trazado 197040" d="M3911.449,2763.5v1.958h-8.3V2763.5Z" transform="translate(-3834.885 -2691.813)" fill="#12263f"/>
      <path id="Trazado_197041" data-name="Trazado 197041" d="M3807.588,2483.922h-1.957v-2.309h1.957Z" transform="translate(-3753.087 -2455.361)" fill="#12263f"/>
      <path id="Trazado_197042" data-name="Trazado 197042" d="M3711.443,2443.874v-2.311h1.976v2.311Z" transform="translate(-3674.08 -2421.766)" fill="#12263f"/>
      <path id="Trazado_197043" data-name="Trazado 197043" d="M3711.439,2469.161h1.963v2.3h-1.963Z" transform="translate(-3674.076 -2444.916)" fill="#12263f"/>
      <path id="Trazado_197044" data-name="Trazado 197044" d="M3807.569,2511.482H3805.6v-2.29h1.973Z" transform="translate(-3753.057 -2478.494)" fill="#12263f"/>
      <path id="Trazado_197045" data-name="Trazado 197045" d="M3766.363,2659.489h2.466v1.975h-2.466Z" transform="translate(-3720.148 -2604.568)" fill="#12263f"/>
      <path id="Trazado_197046" data-name="Trazado 197046" d="M3740.025,2659.667v1.958h-2.475v-1.958Z" transform="translate(-3695.979 -2604.717)" fill="#12263f"/>
      <path id="Trazado_197047" data-name="Trazado 197047" d="M3711.335,2659.512v1.974h-2.48v-1.974Z" transform="translate(-3671.909 -2604.586)" fill="#12263f"/>
      <path id="Trazado_197048" data-name="Trazado 197048" d="M3711.333,2728.931v1.94h-2.476v-1.94Z" transform="translate(-3671.911 -2662.817)" fill="#12263f"/>
      <path id="Trazado_197049" data-name="Trazado 197049" d="M3768.807,2729.13v1.913h-2.473v-1.913Z" transform="translate(-3720.123 -2662.984)" fill="#12263f"/>
      <path id="Trazado_197050" data-name="Trazado 197050" d="M3739.993,2728.873v1.931H3737.5v-1.931Z" transform="translate(-3695.94 -2662.768)" fill="#12263f"/>
    </g>
  </g>
</svg>
