<svg xmlns="http://www.w3.org/2000/svg" width="71.579" height="71.596" viewBox="0 0 71.579 71.596">
  <g id="vlYUca.tif" transform="translate(-2859.568 -2223.085)">
    <g id="Grupo_155227" data-name="Grupo 155227" transform="translate(2859.568 2223.085)">
      <path id="Trazado_197032" data-name="Trazado 197032" d="M2931.147,2249.476c-.193.714-.347,1.442-.584,2.141a10.662,10.662,0,0,1-10.072,7.248c-1.984.006-3.967,0-6,0v9.548c1.128,0,2.239,0,3.349,0a3.554,3.554,0,0,1,3.76,3.791c0,2.679,0,5.359,0,8.122h4.732v2.4h-2.423c-1.093,0-2.187,0-3.28,0-.99-.006-1.406-.415-1.408-1.4-.005-2.957,0-5.914,0-8.871,0-1.252-.4-1.656-1.644-1.658-.969,0-1.937,0-2.907.01a1.156,1.156,0,0,0-.225.073c0,.656-.031,1.345.007,2.03a2.926,2.926,0,0,1-1.3,2.611,11.579,11.579,0,0,1-5.166,1.96c-1.387.241-2.795.365-4.234.546v10.61a5.082,5.082,0,0,0,.538.054c2.833,0,5.665,0,8.5.01a.714.714,0,0,0,.809-.532,4.767,4.767,0,1,1,5.409,6.393,4.689,4.689,0,0,1-5.334-2.815.949.949,0,0,0-1.09-.684c-3.255.022-6.51.013-9.765.01-1.089,0-1.483-.391-1.484-1.472q0-5.367,0-10.734v-.847l-4.777-.556v.832q0,7.38,0,14.759c0,1.241-.353,1.6-1.584,1.6-1.434,0-2.868,0-4.338,0v-2.361h3.506c.015-.271.035-.462.035-.653,0-4.746-.007-9.491.013-14.237a.849.849,0,0,0-.6-.941,8.4,8.4,0,0,1-1.682-.939,2.963,2.963,0,0,1-1.317-2.6c.041-2.259.012-4.519.012-6.846-.24-.017-.452-.044-.665-.045q-2.385-.005-4.771,0c-2.669,0-4.112,1.43-4.112,4.079q0,7.38,0,14.759a5.929,5.929,0,0,1-6.234,6.21c-1.74,0-3.479.011-5.218-.008a.713.713,0,0,0-.812.528,4.781,4.781,0,1,1-.035-3.513.8.8,0,0,0,.9.626c1.714-.036,3.428-.008,5.143-.015a3.636,3.636,0,0,0,3.876-3.869c.008-4.994,0-9.988,0-14.983a5.918,5.918,0,0,1,6.171-6.2c1.885,0,3.77,0,5.706,0v-4.777h-.878q-9.579,0-19.157,0a10.718,10.718,0,0,1-1.908-21.3,1.125,1.125,0,0,0,1.1-1,17.769,17.769,0,0,1,15.1-13.344,2.367,2.367,0,0,0,.417-.135h3.578a2.346,2.346,0,0,0,.417.135,17.764,17.764,0,0,1,11.546,6.3,4.148,4.148,0,0,0,.307.295A10.8,10.8,0,0,1,2918,2237.4c.862,0,1.678,0,2.495,0a10.678,10.678,0,0,1,10.05,7.177c.248.722.4,1.475.6,2.213Zm-52.416-1.347c-.133-.763-.206-1.456-.378-2.124a8.33,8.33,0,1,0-7.773,10.478q9.69.02,19.379,0c.191,0,.383-.02.634-.034,0-1.408.072-2.773-.018-4.128a3.237,3.237,0,0,1,1.968-3.366,18.508,18.508,0,0,1,3.825-1.38c1.6-.37,3.265-.5,4.961-.743,0-.662.011-1.354,0-2.045a1.264,1.264,0,0,0-1.424-1.425c-1.789-.013-3.578.007-5.366-.012a.627.627,0,0,0-.689.49,4.626,4.626,0,0,1-4.7,3.084,4.474,4.474,0,0,1-4.09-2.763,4.764,4.764,0,0,1,5.238-6.675,4.735,4.735,0,0,1,3.73,3.431.766.766,0,0,0,.175.053c1.962,0,3.925,0,5.888.01a3.545,3.545,0,0,1,3.62,3.63c.006.763,0,1.525,0,2.3.747.066,1.412.116,2.075.186a17.42,17.42,0,0,1,6.436,1.676,3.6,3.6,0,0,1,2.262,2.89h2.354c0-1.563.008-3.075,0-4.587-.005-.691.284-1.217.966-1.291a24.18,24.18,0,0,1,2.574-.022v2.33l-1.156.079c0,1.511,0,2.973,0,4.435,0,1.088-.393,1.482-1.471,1.486s-2.167,0-3.244,0v2.366c2.165,0,4.282.114,6.383-.022a8.261,8.261,0,0,0,7.541-10.542c-1.295-4.479-5.261-6.723-10.464-6.012a10.885,10.885,0,0,1-2.294,5.429l-1.844-1.491a8.4,8.4,0,0,0-1.163-11.606,8.176,8.176,0,0,0-10.208-.3,17.4,17.4,0,0,1,2.018,5.244l-2.272.5a15.625,15.625,0,0,0-17.323-12.022c-6.279.852-12.491,6.58-12.865,11.86,5.609,1.446,9.533,6.071,8.962,10.6a2.108,2.108,0,0,1-.274.035C2880.054,2248.131,2879.41,2248.129,2878.731,2248.129Zm33.333,20.978a26.852,26.852,0,0,1-19.089,0c0,1.318-.032,2.559.024,3.8a1.146,1.146,0,0,0,.514.809,10.716,10.716,0,0,0,2.169.947,25.112,25.112,0,0,0,11.352.51,25.392,25.392,0,0,0,4.236-1.306,1.372,1.372,0,0,0,.759-.955C2912.12,2271.677,2912.064,2270.434,2912.064,2269.107Zm0-7.152a26.865,26.865,0,0,1-19.089-.005c0,1.32-.032,2.562.024,3.8a1.144,1.144,0,0,0,.514.807,10.654,10.654,0,0,0,2.168.949,25.108,25.108,0,0,0,11.352.511,25.415,25.415,0,0,0,4.236-1.305,1.373,1.373,0,0,0,.76-.955C2912.12,2264.521,2912.064,2263.277,2912.064,2261.955Zm0-7.162a26.876,26.876,0,0,1-19.09.007c0,1.244.025,2.41-.011,3.574a1.032,1.032,0,0,0,.607,1.083,14.562,14.562,0,0,0,2.115.892,25.157,25.157,0,0,0,11.352.508,25.509,25.509,0,0,0,4.236-1.307,1.372,1.372,0,0,0,.756-.957C2912.119,2257.36,2912.064,2256.116,2912.064,2254.792Zm-19.263-3.179a5.746,5.746,0,0,0,2.9,1.588,24.538,24.538,0,0,0,10.1.682,35.5,35.5,0,0,0,5.022-1.256,5.532,5.532,0,0,0,1.281-.789l.024-.307a19.356,19.356,0,0,0-1.909-1,18.877,18.877,0,0,0-6.113-1.143,22.609,22.609,0,0,0-9.585,1.268A15.361,15.361,0,0,0,2892.8,2251.613Zm-3.4-7.063a2.381,2.381,0,1,0-2.386-2.375A2.437,2.437,0,0,0,2889.4,2244.55Zm-22.671,45.35a2.382,2.382,0,1,0-2.4,2.365A2.443,2.443,0,0,0,2866.731,2289.9Zm53.676,0a2.382,2.382,0,1,0-2.395,2.366A2.441,2.441,0,0,0,2920.407,2289.9Z" transform="translate(-2859.568 -2223.085)" fill="#12263f"/>
      <path id="Trazado_197033" data-name="Trazado 197033" d="M3325.363,2608.672h-2.331v-2.386h2.331Z" transform="translate(-3253.785 -2549.031)" fill="#12263f"/>
      <path id="Trazado_197034" data-name="Trazado 197034" d="M3035.509,2688.781v-2.287h2.3v2.287Z" transform="translate(-3009.222 -2617.255)" fill="#12263f"/>
      <path id="Trazado_197035" data-name="Trazado 197035" d="M2897.463,2350.791v2.184a12.837,12.837,0,0,0-2.182,1.023,3.413,3.413,0,0,0-1.155,3.936,3.588,3.588,0,0,0,3.431,2.4c2.857.02,5.715.006,8.573.007h.854v2.38h-.679c-2.907,0-5.815,0-8.722,0a5.97,5.97,0,0,1-1-11.871C2896.848,2350.8,2897.123,2350.812,2897.463,2350.791Z" transform="translate(-2886.746 -2331.71)" fill="#12263f"/>
      <path id="Trazado_197036" data-name="Trazado 197036" d="M3285.449,2375.134v2.29h-2.288v-2.29Z" transform="translate(-3219.871 -2352.416)" fill="#12263f"/>
    </g>
  </g>
</svg>
