<svg xmlns="http://www.w3.org/2000/svg" width="112.159" height="94.304" viewBox="0 0 112.159 94.304">
  <g id="Grupo_155442" data-name="Grupo 155442" transform="translate(-244.676 -2255.001)">
    <path id="Polígono_49" data-name="Polígono 49" d="M12.5,0,25,19H0Z" transform="translate(263.676 2281.264) rotate(90)" fill="#f59d36"/>
    <g id="_5KWReG.tif" data-name="5KWReG.tif" transform="translate(-1544.069 2414.447)">
      <g id="Grupo_151395" data-name="Grupo 151395" transform="translate(1810.245 -159.446)">
        <path id="Trazado_193794" data-name="Trazado 193794" d="M1850.974-65.143c-1.6-.235-3.213-.411-4.8-.714A39.922,39.922,0,0,1,1820.688-82a39.682,39.682,0,0,1-7.622-27.5,38.536,38.536,0,0,1,4.121-14.414c.151-.3.3-.6.406-.808-1.231-1.366-2.531-2.592-3.58-4.005a19.322,19.322,0,0,1,13.283-30.6,19.251,19.251,0,0,1,20.349,12.359c.222.593.448.763,1.111.7,2.013-.189,4.037-.35,6.058-.359,8.166-.038,16.332-.016,24.5-.016,1.248,0,1.224,0,1.267-1.221a3.889,3.889,0,0,1,.266-1.512,1.879,1.879,0,0,1,2.76-.707q4.743,3.089,9.424,6.27a1.92,1.92,0,0,1-.028,3.266q-4.641,3.159-9.35,6.217a1.954,1.954,0,0,1-3.075-1.685c-.026-.544,0-1.091,0-1.725h-1.1c-8.443,0-16.885-.016-25.327.015-1.621.006-3.244.177-4.861.328a.912.912,0,0,0-.654.549,19.514,19.514,0,0,1-6.585,11.488c.878.864,1.734,1.723,2.618,2.551a.7.7,0,0,0,.559.043c.262-.072.492-.289.754-.33,1.929-.309,2.324-1.534,2.092-3.26a15.965,15.965,0,0,1-.012-2.668,2.475,2.475,0,0,1,2.443-2.605c2.078-.09,4.165-.089,6.244,0a2.488,2.488,0,0,1,2.491,2.654c.031,1.381.046,2.765-.007,4.144-.027.682.119,1.1.845,1.251a3.157,3.157,0,0,1,1.19.473c.9.649,1.491.339,2.142-.415.8-.927,1.709-1.762,2.593-2.615a2.445,2.445,0,0,1,3.624-.158,57.334,57.334,0,0,1,4.244,4.2c1.312,1.454,1.182,2.694-.229,4.106-1.084,1.085-2.186,2.153-3.284,3.233.407,1.018.762,1.99,1.2,2.924a.947.947,0,0,0,.725.347c1.412.033,2.824.006,4.237.019,1.8.017,2.752.763,2.849,2.543a60.115,60.115,0,0,1-.026,6.333,2.379,2.379,0,0,1-2.549,2.262c-1.5.024-3.01-.019-4.512.03a1.081,1.081,0,0,0-.789.5c-.413.851-.728,1.75-1.12,2.727,1.08,1.079,2.209,2.2,3.33,3.327,1.325,1.334,1.472,2.592.238,3.968a53.552,53.552,0,0,1-4.3,4.27,2.458,2.458,0,0,1-3.7-.209c-1.035-1.005-2.059-2.022-3.059-3.062a.71.71,0,0,0-1.034-.167,5.521,5.521,0,0,1-.832.388c-1.764.745-1.764.744-1.764,2.7,0,.952.01,1.9,0,2.855-.022,1.688-.819,2.73-2.5,2.83a51.831,51.831,0,0,1-6.334-.029,2.43,2.43,0,0,1-2.35-2.675c-.024-1.412-.034-2.825.008-4.236.017-.576-.112-.934-.714-1.05a1.718,1.718,0,0,1-.687-.251c-1.394-1.032-2.388-.5-3.338.71a19.519,19.519,0,0,1-2.073,2.091,2.4,2.4,0,0,1-3.485.176,65.064,65.064,0,0,1-4.606-4.612,2.388,2.388,0,0,1,.228-3.475c1.177-1.207,2.389-2.38,3.549-3.531-.4-.995-.75-1.907-1.131-2.809a2,2,0,0,0-.381-.451,1.96,1.96,0,0,0-.443.4,4.2,4.2,0,0,1-4.06,2.188c-1.043-.034-2.088.009-3.131-.011a4.042,4.042,0,0,1-3.9-3.065,24.145,24.145,0,0,1-.645-2.963c-.113-.869-.493-1.171-1.391-.959a26.364,26.364,0,0,0,1.242,7.663c4.149,12.614,12.741,20.349,25.824,22.6,16.56,2.851,32.88-8.786,35.938-25.322a47.385,47.385,0,0,0,.562-4.837,2.494,2.494,0,0,1,2.844-2.638c1.227.02,2.456.043,3.682.087a2.33,2.33,0,0,1,2.417,2.546,40.627,40.627,0,0,1-9.993,25.445,1.424,1.424,0,0,1-2.1.329c-.663-.57-.668-1.343.056-2.187a37.56,37.56,0,0,0,8.507-17.308c.391-1.946.573-3.935.869-6.033H1888.4a67.473,67.473,0,0,1-1.333,7.22c-4.158,14.072-13.436,22.822-27.905,25.329a34.317,34.317,0,0,1-39.4-27.244,65.209,65.209,0,0,1-.684-7.039,3.08,3.08,0,0,0-.1-.991,4.653,4.653,0,0,1,.687-5.37c-1.881-2.929-1.634-5.036.891-7.165l-.929-2.917c-.337.7-.6,1.2-.824,1.712a37.814,37.814,0,0,0,9.867,43.527,37.332,37.332,0,0,0,26.22,9.365,37.265,37.265,0,0,0,21.967-7.906c.244-.186.478-.385.729-.562a1.386,1.386,0,0,1,2.036.185,1.35,1.35,0,0,1-.387,2.006c-1.878,1.324-3.726,2.716-5.715,3.853a39.328,39.328,0,0,1-16.666,5.08,5.781,5.781,0,0,0-.715.145Zm-11.4-47.231c.055.08.195.277.33.478a4.585,4.585,0,0,1-2.76,7.061c-1.176.285-1.253.4-1.194,1.743a2.836,2.836,0,0,1,2.466,2.265,16.407,16.407,0,0,0,.909,2.206,2.685,2.685,0,0,1-.588,3.644c-1.1,1.106-2.207,2.205-3.436,3.432l4.05,4.017c1.3-1.326,2.419-2.5,3.577-3.645a2.509,2.509,0,0,1,3.189-.518c.894.4,1.8.778,2.715,1.123a2.582,2.582,0,0,1,1.977,2.837c0,.645,0,1.289,0,1.934v2.933h5.672c0-1.84-.012-3.527,0-5.213a2.4,2.4,0,0,1,1.608-2.344c1.1-.458,2.206-.913,3.3-1.378a2.476,2.476,0,0,1,2.88.544c.776.743,1.521,1.517,2.285,2.273.448.443.907.875,1.548,1.493l4.018-3.959c-1.408-1.389-2.594-2.538-3.755-3.711a2.544,2.544,0,0,1-.541-3.191c.389-.865.774-1.735,1.1-2.625a2.665,2.665,0,0,1,2.942-2.1c1.561-.005,3.123,0,4.855,0,0-1.661-.009-3.247,0-4.833.006-.654-.315-.815-.917-.8-1.319.035-2.639.024-3.959.006a2.662,2.662,0,0,1-2.933-2.121c-.268-.749-.558-1.494-.9-2.212-.836-1.759-.719-2.529.683-3.93,1.056-1.054,2.117-2.1,3.318-3.294l-3.971-4.079c-1.366,1.381-2.5,2.545-3.651,3.686a2.548,2.548,0,0,1-3.266.557c-.778-.359-1.556-.729-2.362-1.016-1.867-.664-2.3-1.243-2.3-3.243,0-1.5,0-2.991,0-4.577h-5.669c0,1.781.011,3.433,0,5.085a2.491,2.491,0,0,1-1.822,2.572c-.886.34-1.776.675-2.634,1.077-1.565.734-2.4.619-3.633-.618-.857-.859-1.7-1.736-2.73-2.8-.46,1.289-.8,2.325-1.2,3.34a.806.806,0,0,0,.3,1.083,4.255,4.255,0,0,1,1.53,4.287A13.96,13.96,0,0,1,1839.576-112.373Zm-8.638-7.913c1.443,0,2.731-.059,4.012.022a1.037,1.037,0,0,0,1.256-.96,11.709,11.709,0,0,1,4.108-6.352,15.7,15.7,0,0,0,5.57-15.26,16.423,16.423,0,0,0-18.847-13.673,16.7,16.7,0,0,0-14.011,15.631,16.363,16.363,0,0,0,6.251,13.705,9.835,9.835,0,0,1,3.377,5.027,11.243,11.243,0,0,0,.467,1.393c.08.186.3.437.469.44,1.5.034,2.992.02,4.578.02,0-2.646.014-5.187-.03-7.726,0-.176-.416-.449-.673-.5a11.84,11.84,0,0,1-9.45-13.973,11.755,11.755,0,0,1,13.8-9.191,11.384,11.384,0,0,1,8.849,7.62,1.376,1.376,0,0,1-.74,1.9,1.394,1.394,0,0,1-1.8-.845c-.1-.222-.168-.461-.264-.686a9.02,9.02,0,0,0-8.359-5.458,9.025,9.025,0,0,0-8.274,5.586,9.006,9.006,0,0,0,1.948,9.789,8.67,8.67,0,0,0,4.946,2.524v-3.1c-.354-.145-.7-.271-1.03-.424a5.908,5.908,0,0,1-2.966-7.681,5.932,5.932,0,0,1,7.6-3.184,5.951,5.951,0,0,1,3.766,5.509,6.015,6.015,0,0,1-3.766,5.521c-.3.127-.721.434-.75.7a24.327,24.327,0,0,0-.036,2.666c.357-.062.622-.088.877-.156a8.8,8.8,0,0,0,5.941-4.952c.183-.387.307-.8.493-1.187a1.284,1.284,0,0,1,1.682-.729,1.282,1.282,0,0,1,.891,1.6,3.761,3.761,0,0,1-.259.784,11.733,11.733,0,0,1-8.876,7.373c-.277.06-.713.363-.716.559C1830.921-125.442,1830.938-122.931,1830.938-120.286Zm18.027-19.919c1.134-.092,2.172-.246,3.211-.249q14.594-.039,29.188-.028a1.8,1.8,0,0,1,1.957,1.867c.027.345.035.691.059,1.184l7.129-4.751L1883.4-146.9c-.034.31-.065.485-.071.661-.067,1.848-.621,2.387-2.479,2.392-1.412,0-2.824,0-4.236,0q-12.43.023-24.86.06c-1.025,0-2.05.173-3.1.268C1848.766-142.335,1848.862-141.306,1848.964-140.205Zm-19.453,32.714c2.116,0,4.233.009,6.35,0,1.3-.007,2.073-.7,2.066-1.823a1.8,1.8,0,0,0-2-1.81q-6.35-.029-12.7,0a1.856,1.856,0,0,0-2.044,1.883,1.862,1.862,0,0,0,2.072,1.751C1825.339-107.482,1827.426-107.491,1829.512-107.491Zm.064-6.418v.008c2.086,0,4.172.013,6.257,0,1.322-.011,2.09-.691,2.1-1.8s-.762-1.8-2.071-1.817c-.674-.011-1.349,0-2.024,0-3.5,0-6.993.008-10.49-.005a1.939,1.939,0,0,0-1.939.962,1.782,1.782,0,0,0,1.637,2.645C1825.22-113.873,1827.4-113.909,1829.576-113.909Zm-.018-23.076a3.171,3.171,0,0,0,3.168-3.157,3.15,3.15,0,0,0-3.1-3.125,3.093,3.093,0,0,0-3.19,3.1A3.112,3.112,0,0,0,1829.557-136.985Zm-3.7,32.3a26.873,26.873,0,0,0,.8,3.325,1.72,1.72,0,0,0,1.245.831,32.3,32.3,0,0,0,3.394.039,1.231,1.231,0,0,0,1.31-.94c.272-1.055.468-2.131.709-3.254Z" transform="translate(-1810.245 159.446)" fill="#fff"/>
        <path id="Trazado_193795" data-name="Trazado 193795" d="M2190.935,13.16c-1.381,0-2.762-.016-4.144,0a2.549,2.549,0,0,1-2.423-1.368q-2.107-3.669-4.231-7.329a2.505,2.505,0,0,1-.015-2.7q2.145-3.7,4.281-7.407a2.433,2.433,0,0,1,2.266-1.3q4.282.015,8.564,0a2.494,2.494,0,0,1,2.331,1.357q2.114,3.667,4.234,7.329a2.584,2.584,0,0,1-.029,2.787q-2.106,3.617-4.189,7.248a2.552,2.552,0,0,1-2.411,1.39C2193.759,13.147,2192.348,13.16,2190.935,13.16Zm.012-2.763c1.2,0,2.4.036,3.59-.024a1.308,1.308,0,0,0,.927-.508q1.872-3.114,3.63-6.295a1.171,1.171,0,0,0-.016-.966q-1.744-3.135-3.586-6.214a1.278,1.278,0,0,0-.908-.543q-3.636-.067-7.273,0a1.177,1.177,0,0,0-.835.5q-1.844,3.076-3.59,6.211a1.278,1.278,0,0,0-.016,1.06q1.735,3.139,3.59,6.211a1.4,1.4,0,0,0,.99.543C2188.612,10.439,2189.781,10.4,2190.947,10.4Z" transform="translate(-2111.533 35.094)" fill="#fff"/>
        <path id="Trazado_193796" data-name="Trazado 193796" d="M1990.417,63.507a12.378,12.378,0,0,1,12.016,8.957c.294,1.036-.012,1.785-.825,2.017-.848.242-1.463-.177-1.807-1.229-2.131-6.526-9.516-9.068-14.919-5.138a9.629,9.629,0,0,0-3.623,10.445A9.636,9.636,0,0,0,1999.3,79.91c.128-.279.225-.572.367-.843a1.387,1.387,0,0,1,1.785-.7,1.292,1.292,0,0,1,.718,1.762,20.521,20.521,0,0,1-2.46,4.06,12.226,12.226,0,0,1-13.775,3.233,12.4,12.4,0,0,1,4.486-23.915Z" transform="translate(-1947.131 -22.353)" fill="#fff"/>
        <path id="Trazado_193797" data-name="Trazado 193797" d="M2021.6,99.944a6.954,6.954,0,1,1-6.922-7A6.981,6.981,0,0,1,2021.6,99.944Zm-2.763-.007a4.192,4.192,0,1,0-4.217,4.2A4.184,4.184,0,0,0,2018.837,99.937Z" transform="translate(-1971.246 -46.355)" fill="#fff"/>
        <path id="Trazado_193798" data-name="Trazado 193798" d="M2212.306,24.374a5.232,5.232,0,1,1,5.2,5.226A5.225,5.225,0,0,1,2212.306,24.374Zm5.2,2.458a2.476,2.476,0,0,0,.083-4.951,2.476,2.476,0,1,0-.083,4.951Z" transform="translate(-2138.093 13.846)" fill="#fff"/>
      </g>
    </g>
  </g>
</svg>
