<svg id="Grupo_155352" data-name="Grupo 155352" xmlns="http://www.w3.org/2000/svg" width="83.459" height="77.982" viewBox="0 0 83.459 77.982">
  <path id="Trazado_122984" data-name="Trazado 122984" d="M-510.606,276.8l4.3,4.024c5.847-3.034,11.164-2.068,14.417,2.586a10.225,10.225,0,0,1-1.575,13.431,10.25,10.25,0,0,1-13.455.253,10.348,10.348,0,0,1-1.388-14.376l-4.289-4.028c-7.343,4.96-14.6,4.96-21.951.025l-4.5,4.206a36.534,36.534,0,0,1,1.6,4.712,10.066,10.066,0,0,1-5.126,10.588,10.274,10.274,0,0,1-11.583-1.169,10.217,10.217,0,0,1-2.834-11.79,10.278,10.278,0,0,1,10.322-6.258,10.282,10.282,0,0,1,4.936,1.753c.216.145.7.22.845.091,1.467-1.305,2.884-2.66,4.339-4.02a18.011,18.011,0,0,1-3.932-17.931c-1.869-.609-3.693-1.227-5.541-1.769-.182-.054-.56.278-.742.51a10.118,10.118,0,0,1-8.458,4.21,10.254,10.254,0,0,1-9.842-7.99,10.207,10.207,0,0,1,5.23-11.317,9.737,9.737,0,0,1,11.069,1,9.827,9.827,0,0,1,3.684,10.422c-.025.108-.041.22-.058.336a1.405,1.405,0,0,0,.017.186l5.735,1.873A18.081,18.081,0,0,1-525,246.839v-4.853c-6.676-1.293-9.428-6.958-8.769-11.508a10.2,10.2,0,0,1,10.468-8.968,10.237,10.237,0,0,1,9.908,9.117,10.346,10.346,0,0,1-8.789,11.346v4.865a18.464,18.464,0,0,1,8.466,2.984,18.172,18.172,0,0,1,6,6.767l5.669-1.836c-.116-1.065-.3-2.068-.315-3.075a10.268,10.268,0,0,1,9.249-10.306,10.3,10.3,0,0,1,11.077,8.429,10.242,10.242,0,0,1-6.038,11.222,10.16,10.16,0,0,1-12.175-3.2.924.924,0,0,0-1.255-.39c-1.686.593-3.394,1.127-5.122,1.695A18,18,0,0,1-510.606,276.8Zm2.072-12.25a15.116,15.116,0,0,0-15.212-15.01,15.121,15.121,0,0,0-14.9,15.238,15.125,15.125,0,0,0,15.254,14.881A15.134,15.134,0,0,0-508.534,264.554Zm-15.022-40.317a7.563,7.563,0,0,0-7.558,7.534,7.585,7.585,0,0,0,7.488,7.526,7.6,7.6,0,0,0,7.567-7.542A7.582,7.582,0,0,0-523.556,224.237Zm23.907,27.334a7.587,7.587,0,0,0,7.472,7.567,7.6,7.6,0,0,0,7.584-7.459,7.582,7.582,0,0,0-7.434-7.6A7.565,7.565,0,0,0-499.649,251.571Zm-47.884.062a7.575,7.575,0,0,0-7.475-7.559,7.588,7.588,0,0,0-7.58,7.459,7.593,7.593,0,0,0,7.439,7.6A7.571,7.571,0,0,0-547.533,251.633Zm.008,30.073a7.6,7.6,0,0,0-7.538,7.418,7.583,7.583,0,0,0,7.48,7.641A7.6,7.6,0,0,0-540,289.306,7.58,7.58,0,0,0-547.525,281.706Zm47.179,15.059a7.574,7.574,0,0,0,7.538-7.579,7.587,7.587,0,0,0-7.555-7.484,7.591,7.591,0,0,0-7.5,7.542A7.59,7.59,0,0,0-500.346,296.766Z" transform="translate(565.333 -221.51)" fill="#12263f"/>
  <path id="Trazado_122985" data-name="Trazado 122985" d="M-541.055,230.382l1.881,1.927-11.471,11.475-6.634-6.663,1.848-1.707,4.629,4.728Z" transform="translate(590.657 -193.616)" fill="#12263f"/>
  <path id="Trazado_122986" data-name="Trazado 122986" d="M-546.857,227.63a4.763,4.763,0,0,1-4.782,4.757,4.761,4.761,0,0,1-4.774-4.757,4.754,4.754,0,0,1,4.82-4.8A4.76,4.76,0,0,1-546.857,227.63Zm-4.824,2.035a2.123,2.123,0,0,0,2.1-2.035,2.12,2.12,0,0,0-2.055-2.076,2.119,2.119,0,0,0-2.051,1.989A2.127,2.127,0,0,0-551.68,229.664Z" transform="translate(593.379 -217.356)" fill="#12263f"/>
  <path id="Trazado_122987" data-name="Trazado 122987" d="M-544.046,227.619a4.759,4.759,0,0,1,4.782,4.753,4.762,4.762,0,0,1-4.733,4.8,4.765,4.765,0,0,1-4.824-4.712A4.759,4.759,0,0,1-544.046,227.619Zm2.056,4.766a2.117,2.117,0,0,0-2.084-2.043,2.117,2.117,0,0,0-2.022,2.022,2.12,2.12,0,0,0,2.039,2.089A2.127,2.127,0,0,0-541.991,232.385Z" transform="translate(617.251 -202.302)" fill="#12263f"/>
  <path id="Trazado_122988" data-name="Trazado 122988" d="M-559.166,227.619a4.757,4.757,0,0,1,4.712,4.824,4.758,4.758,0,0,1-4.886,4.733,4.766,4.766,0,0,1-4.666-4.865A4.757,4.757,0,0,1-559.166,227.619Zm-.062,2.723a2.126,2.126,0,0,0-2.055,2.076,2.117,2.117,0,0,0,2.093,2.035,2.117,2.117,0,0,0,2.014-2.031A2.117,2.117,0,0,0-559.228,230.342Z" transform="translate(569.507 -202.303)" fill="#12263f"/>
  <path id="Trazado_122989" data-name="Trazado 122989" d="M-552.635,241.524a4.754,4.754,0,0,1-4.8,4.732,4.761,4.761,0,0,1-4.757-4.865,4.752,4.752,0,0,1,4.844-4.691A4.763,4.763,0,0,1-552.635,241.524Zm-2.727-.058a2.117,2.117,0,0,0-2.084-2.043,2.113,2.113,0,0,0-2.018,2.022,2.12,2.12,0,0,0,2.039,2.089A2.112,2.112,0,0,0-555.362,241.466Z" transform="translate(575.213 -173.752)" fill="#12263f"/>
  <path id="Trazado_122990" data-name="Trazado 122990" d="M-546.044,246.256a4.762,4.762,0,0,1-4.757-4.778,4.758,4.758,0,0,1,4.753-4.778,4.757,4.757,0,0,1,4.8,4.732A4.763,4.763,0,0,1-546.044,246.256Zm2.072-4.741a2.114,2.114,0,0,0-2.035-2.093,2.123,2.123,0,0,0-2.068,2.064,2.117,2.117,0,0,0,2,2.047A2.113,2.113,0,0,0-543.972,241.515Z" transform="translate(611.023 -173.752)" fill="#12263f"/>
</svg>
