<svg id="Grupo_64168" data-name="Grupo 64168" xmlns="http://www.w3.org/2000/svg" width="71.633" height="66.053" viewBox="0 0 71.633 66.053">
  <g id="Grupo_39107" data-name="Grupo 39107">
    <path id="Trazado_91710" data-name="Trazado 91710" d="M469.785,332.453H421.852a4.911,4.911,0,0,1-4.907-4.906l0-2.775a1.139,1.139,0,0,1,1.138-1.14h0a1.139,1.139,0,0,1,1.139,1.138l0,2.776a2.631,2.631,0,0,0,2.627,2.627h47.933a2.63,2.63,0,0,0,2.627-2.626v-7.533a2.63,2.63,0,0,0-2.627-2.626H421.852a2.63,2.63,0,0,0-2.627,2.626v1.375a1.14,1.14,0,1,1-2.279,0v-1.375a4.912,4.912,0,0,1,4.907-4.906h47.933a4.911,4.911,0,0,1,4.906,4.906v7.533A4.911,4.911,0,0,1,469.785,332.453Z" transform="translate(-416.942 -315.108)" fill="#00223d"/>
  </g>
  <g id="Grupo_39109" data-name="Grupo 39109" transform="translate(44.137 5.138)">
    <path id="Trazado_91711" data-name="Trazado 91711" d="M464.643,327.321a3.536,3.536,0,1,1,3.538-3.537A3.54,3.54,0,0,1,464.643,327.321Zm0-4.793a1.257,1.257,0,0,0-1.256,1.256,1.243,1.243,0,0,0,1.256,1.257,1.259,1.259,0,0,0,1.258-1.257A1.274,1.274,0,0,0,464.643,322.529Z" transform="translate(-461.107 -320.249)"/>
  </g>
  <g id="Grupo_39112" data-name="Grupo 39112" transform="translate(7.143 5.142)">
    <path id="Trazado_91714" data-name="Trazado 91714" d="M425.229,327.326a1.139,1.139,0,0,1-1.139-1.139v-4.793a1.14,1.14,0,1,1,2.279,0v4.793A1.14,1.14,0,0,1,425.229,327.326Z" transform="translate(-424.09 -320.253)" fill="#00223d"/>
  </g>
  <g id="Grupo_39113" data-name="Grupo 39113" transform="translate(13.991 5.142)">
    <path id="Trazado_91715" data-name="Trazado 91715" d="M432.082,327.326a1.139,1.139,0,0,1-1.14-1.139v-4.793a1.14,1.14,0,1,1,2.279,0v4.793A1.139,1.139,0,0,1,432.082,327.326Z" transform="translate(-430.942 -320.253)" fill="#00223d"/>
  </g>
  <g id="Grupo_39114" data-name="Grupo 39114" transform="translate(20.84 5.142)">
    <path id="Trazado_91716" data-name="Trazado 91716" d="M439,327.326a1.14,1.14,0,0,1-1.14-1.123l-.065-4.794a1.139,1.139,0,0,1,1.123-1.155h.016a1.14,1.14,0,0,1,1.139,1.124l.066,4.793a1.139,1.139,0,0,1-1.124,1.155Z" transform="translate(-437.795 -320.253)" fill="#00223d"/>
  </g>
  <g id="Grupo_39115" data-name="Grupo 39115" transform="translate(0 21.277)">
    <path id="Trazado_91717" data-name="Trazado 91717" d="M454.566,353.742H421.848a4.911,4.911,0,0,1-4.906-4.906V341.3a4.911,4.911,0,0,1,4.906-4.906h47.934a4.805,4.805,0,0,1,1.257.163,1.14,1.14,0,0,1-.193,2.235c-.017.008-.06.029-.1.047l-13.639,5.9a2.3,2.3,0,0,0-1.4,2.1V352.6A1.139,1.139,0,0,1,454.566,353.742Zm-32.718-15.064a2.63,2.63,0,0,0-2.626,2.626v7.532a2.63,2.63,0,0,0,2.626,2.627h31.579v-4.612a4.58,4.58,0,0,1,2.766-4.2l9.19-3.979Z" transform="translate(-416.942 -336.398)" fill="#00223d"/>
  </g>
  <g id="Grupo_39116" data-name="Grupo 39116" transform="translate(7.143 26.426)">
    <path id="Trazado_91718" data-name="Trazado 91718" d="M425.229,348.625a1.14,1.14,0,0,1-1.139-1.14v-4.793a1.14,1.14,0,1,1,2.279,0v4.793A1.14,1.14,0,0,1,425.229,348.625Z" transform="translate(-424.09 -341.551)" fill="#00223d"/>
  </g>
  <g id="Grupo_39117" data-name="Grupo 39117" transform="translate(13.991 26.426)">
    <path id="Trazado_91719" data-name="Trazado 91719" d="M432.082,348.625a1.14,1.14,0,0,1-1.14-1.14v-4.793a1.14,1.14,0,1,1,2.279,0v4.793A1.14,1.14,0,0,1,432.082,348.625Z" transform="translate(-430.942 -341.551)" fill="#00223d"/>
  </g>
  <g id="Grupo_39118" data-name="Grupo 39118" transform="translate(20.84 26.427)">
    <path id="Trazado_91720" data-name="Trazado 91720" d="M439,348.624a1.14,1.14,0,0,1-1.14-1.124l-.065-4.793a1.139,1.139,0,0,1,1.123-1.155h.016a1.14,1.14,0,0,1,1.139,1.124l.066,4.793a1.139,1.139,0,0,1-1.124,1.155Z" transform="translate(-437.795 -341.552)" fill="#00223d"/>
  </g>
  <g id="Grupo_39119" data-name="Grupo 39119" transform="translate(0.015 42.586)">
    <path id="Trazado_91721" data-name="Trazado 91721" d="M460.552,375.066H421.863a4.911,4.911,0,0,1-4.906-4.906v-2.414a1.139,1.139,0,0,1,2.279,0v2.414a2.63,2.63,0,0,0,2.627,2.626H458.02a25.515,25.515,0,0,1-3.559-5.92,12.714,12.714,0,0,1-1.034-5.088V360H421.863a2.63,2.63,0,0,0-2.627,2.627v2.2a1.139,1.139,0,1,1-2.279,0v-2.2a4.911,4.911,0,0,1,4.906-4.907h32.7a1.14,1.14,0,0,1,1.139,1.14v2.917a10.47,10.47,0,0,0,.851,4.189,23.437,23.437,0,0,0,4.809,7.162,1.139,1.139,0,0,1-.814,1.937Z" transform="translate(-416.957 -357.721)" fill="#00223d"/>
  </g>
  <g id="Grupo_39120" data-name="Grupo 39120" transform="translate(7.143 47.712)">
    <path id="Trazado_91722" data-name="Trazado 91722" d="M425.229,369.923a1.139,1.139,0,0,1-1.139-1.139v-4.794a1.14,1.14,0,0,1,2.279,0v4.794A1.14,1.14,0,0,1,425.229,369.923Z" transform="translate(-424.09 -362.85)" fill="#00223d"/>
  </g>
  <g id="Grupo_39121" data-name="Grupo 39121" transform="translate(13.991 47.712)">
    <path id="Trazado_91723" data-name="Trazado 91723" d="M432.082,369.923a1.139,1.139,0,0,1-1.14-1.139v-4.794a1.14,1.14,0,0,1,2.279,0v4.794A1.139,1.139,0,0,1,432.082,369.923Z" transform="translate(-430.942 -362.85)" fill="#00223d"/>
  </g>
  <g id="Grupo_39122" data-name="Grupo 39122" transform="translate(20.84 47.712)">
    <path id="Trazado_91724" data-name="Trazado 91724" d="M439,369.923a1.14,1.14,0,0,1-1.14-1.124l-.065-4.793a1.139,1.139,0,0,1,1.123-1.155h.016a1.14,1.14,0,0,1,1.139,1.124l.066,4.793a1.139,1.139,0,0,1-1.124,1.155Z" transform="translate(-437.795 -362.85)" fill="#00223d"/>
  </g>
  <g id="Grupo_39125" data-name="Grupo 39125" transform="translate(5.667 15.066)">
    <path id="Trazado_91725" data-name="Trazado 91725" d="M467.905,338.681H423.752a1.139,1.139,0,0,1-1.139-1.139v-6.217a1.14,1.14,0,0,1,1.139-1.14h44.153a1.14,1.14,0,0,1,1.139,1.14v6.217A1.139,1.139,0,0,1,467.905,338.681ZM424.893,336.4h41.874v-3.939H424.893Z" transform="translate(-422.613 -330.184)" fill="#00223d"/>
  </g>
  <g id="Grupo_39126" data-name="Grupo 39126" transform="translate(5.67 36.356)">
    <path id="Trazado_91726" data-name="Trazado 91726" d="M454.57,360H423.756a1.139,1.139,0,0,1-1.14-1.139v-6.231a1.139,1.139,0,0,1,1.14-1.139H454.57a1.139,1.139,0,0,1,1.139,1.139v6.231A1.139,1.139,0,0,1,454.57,360ZM424.9,357.717h28.535v-3.952H424.9Z" transform="translate(-422.616 -351.487)" fill="#00223d"/>
  </g>
  <g id="Grupo_39129" data-name="Grupo 39129" transform="translate(36.485 21.372)">
    <path id="Trazado_91729" data-name="Trazado 91729" d="M471.023,381.175a2.869,2.869,0,0,1-.893-.141,25.226,25.226,0,0,1-15.645-14.181,12.715,12.715,0,0,1-1.034-5.088V346.851a4.58,4.58,0,0,1,2.766-4.2l13.669-5.917a2.592,2.592,0,0,1,.773-.212,2.688,2.688,0,0,1,1.534.22l13.65,5.907a4.594,4.594,0,0,1,2.754,4.2V352.6a1.139,1.139,0,1,1-2.279,0v-5.752a2.309,2.309,0,0,0-1.388-2.108l-13.661-5.913a.52.52,0,0,0-.311-.046.794.794,0,0,0-.195.058l-13.639,5.9a2.3,2.3,0,0,0-1.4,2.1v14.914a10.473,10.473,0,0,0,.851,4.189,22.935,22.935,0,0,0,14.266,12.915.726.726,0,0,0,.406-.015,23.254,23.254,0,0,0,14.231-12.9,10.653,10.653,0,0,0,.838-4.188v-6.032a1.139,1.139,0,1,1,2.279,0v6.032a12.928,12.928,0,0,1-1.023,5.088,25.418,25.418,0,0,1-15.508,14.126A2.635,2.635,0,0,1,471.023,381.175Z" transform="translate(-453.45 -336.493)" fill="#00223d"/>
  </g>
  <g id="Grupo_39132" data-name="Grupo 39132" transform="translate(41.377 26.979)">
    <path id="Trazado_91732" data-name="Trazado 91732" d="M471.019,375.641a1.133,1.133,0,0,1-.382-.066,19.6,19.6,0,0,1-11.579-10.766,8.5,8.5,0,0,1-.679-3.363l-.035-13.2a1.141,1.141,0,0,1,.687-1.048l11.546-5a1.136,1.136,0,0,1,.905,0l11.5,4.981a1.14,1.14,0,0,1,.687,1.045v13.222A8.487,8.487,0,0,1,483,364.8a19.6,19.6,0,0,1-11.6,10.776A1.118,1.118,0,0,1,471.019,375.641Zm-10.392-26.653.033,12.455a6.229,6.229,0,0,0,.493,2.466,17.325,17.325,0,0,0,9.868,9.378A17.324,17.324,0,0,0,480.9,363.9a6.23,6.23,0,0,0,.488-2.454V348.973l-10.361-4.486Z" transform="translate(-458.345 -342.104)" fill="#00223d"/>
  </g>
</svg>
