<svg xmlns="http://www.w3.org/2000/svg" width="756.994" height="307.52" viewBox="0 0 756.994 307.52">
  <g id="Grupo_155454" data-name="Grupo 155454" transform="translate(-1645.212 8850.191)">
    <g id="Grupo_155305" data-name="Grupo 155305" transform="translate(-5881.914 -13249.762)">
      <path id="Trazado_197181" data-name="Trazado 197181" d="M7504.457,4655.061q-26.75,0-53.5,0c-8.8-.006-12.426-3.6-12.453-12.37-.028-9.034-.046-18.068,0-27.1.046-8.331,3.762-12.033,12.082-12.038q54.029-.026,108.057,0c8.344,0,11.989,3.678,12.012,12.021q.039,14.079-.009,28.159c-.036,7.405-3.889,11.3-11.286,11.313C7541.063,4655.086,7522.76,4655.058,7504.457,4655.061Zm-.153-4.245q27.279,0,54.559-.008c5.663-.008,7.584-1.968,7.593-7.626q.022-13.728,0-27.456c-.008-6.094-1.817-7.93-8.014-7.933q-54.031-.027-108.062,0c-5.634,0-7.6,1.982-7.628,7.645q-.056,13.729,0,27.456c.019,6.089,1.9,7.92,8.049,7.923Q7477.552,4650.832,7504.3,4650.816Z" transform="translate(203.905 -71.216)" fill="#12263f"/>
      <path id="Trazado_197182" data-name="Trazado 197182" d="M7594.187,4636.069a8.585,8.585,0,1,1,8.639-8.619A8.383,8.383,0,0,1,7594.187,4636.069Zm4.442-8.418a4.276,4.276,0,0,0-4.289-4.516,4.072,4.072,0,0,0-4.417,4.007,4.259,4.259,0,0,0,4.073,4.713A4.359,4.359,0,0,0,7598.629,4627.651Z" transform="translate(160.374 -75.76)" fill="#12263f"/>
      <path id="Trazado_197183" data-name="Trazado 197183" d="M7513.091,4634c0,3.857.15,7.724-.1,11.565-.069,1.06-1.321,2.042-2.03,3.061-.681-1.02-1.93-2.028-1.952-3.062q-.251-11.566,0-23.139c.022-1.032,1.279-2.037,1.965-3.054.7,1.019,1.949,2,2.017,3.064C7513.24,4626.271,7513.09,4630.138,7513.091,4634Z" transform="translate(183.079 -75.897)" fill="#12263f"/>
      <path id="Trazado_197184" data-name="Trazado 197184" d="M7458.7,4633.972c0-3.859-.141-7.728.1-11.573.064-1.05,1.275-2.029,1.96-3.041.713,1.021,2.021,2.027,2.045,3.064q.264,11.573,0,23.153c-.023,1.026-1.349,2.024-2.07,3.035-.678-1.02-1.876-2.008-1.94-3.065C7458.554,4641.7,7458.7,4637.831,7458.7,4633.972Z" transform="translate(197.937 -75.895)" fill="#12263f"/>
      <path id="Trazado_197185" data-name="Trazado 197185" d="M7479.485,4634.016c0,3.857.144,7.724-.1,11.566-.065,1.046-1.291,2.02-1.984,3.026-.715-1.023-2.029-2.034-2.052-3.073q-.256-11.566.019-23.14c.024-1.028,1.357-2.026,2.084-3.038.677,1.029,1.872,2.026,1.938,3.093C7479.63,4626.292,7479.486,4630.158,7479.485,4634.016Z" transform="translate(193.034 -75.895)" fill="#12263f"/>
      <path id="Trazado_197186" data-name="Trazado 197186" d="M7496.25,4634.291c0,3.744.147,7.5-.091,11.226-.069,1.068-1.25,2.066-1.921,3.1-.722-1-2.045-1.988-2.068-3.005q-.263-11.576,0-23.16c.023-1.047,1.292-2.068,1.985-3.1.7,1,1.94,1.975,2,3.017C7496.392,4626.326,7496.249,4630.313,7496.25,4634.291Z" transform="translate(188.064 -75.891)" fill="#12263f"/>
      <path id="Trazado_197187" data-name="Trazado 197187" d="M7975.72,4655.061q-26.751,0-53.5,0c-8.8-.006-12.425-3.6-12.452-12.37-.027-9.034-.046-18.068,0-27.1.047-8.331,3.762-12.033,12.082-12.038q54.028-.026,108.058,0c8.344,0,11.987,3.678,12.011,12.021q.04,14.079-.009,28.159c-.036,7.405-3.889,11.3-11.285,11.313C8012.325,4655.086,7994.022,4655.058,7975.72,4655.061Zm-.153-4.245q27.28,0,54.559-.008c5.663-.008,7.584-1.968,7.593-7.626q.022-13.728,0-27.456c-.007-6.094-1.816-7.93-8.013-7.933q-54.032-.027-108.062,0c-5.634,0-7.605,1.982-7.629,7.645q-.056,13.729,0,27.456c.019,6.089,1.895,7.92,8.048,7.923Q7948.815,4650.832,7975.566,4650.816Z" transform="translate(64.522 -71.216)" fill="#12263f"/>
      <path id="Trazado_197188" data-name="Trazado 197188" d="M8065.448,4636.069a8.585,8.585,0,1,1,8.639-8.619A8.383,8.383,0,0,1,8065.448,4636.069Zm4.442-8.418a4.274,4.274,0,0,0-4.289-4.516,4.072,4.072,0,0,0-4.416,4.007,4.258,4.258,0,0,0,4.072,4.713A4.359,4.359,0,0,0,8069.891,4627.651Z" transform="translate(20.993 -75.76)" fill="#12263f"/>
      <path id="Trazado_197189" data-name="Trazado 197189" d="M7984.354,4634c0,3.857.15,7.724-.1,11.565-.068,1.06-1.32,2.042-2.029,3.061-.681-1.02-1.93-2.028-1.952-3.062q-.252-11.566,0-23.139c.022-1.032,1.28-2.037,1.966-3.054.7,1.019,1.949,2,2.017,3.064C7984.5,4626.271,7984.353,4630.138,7984.354,4634Z" transform="translate(43.699 -75.897)" fill="#12263f"/>
      <path id="Trazado_197190" data-name="Trazado 197190" d="M7929.961,4633.972c0-3.859-.143-7.728.1-11.573.064-1.05,1.274-2.029,1.96-3.041.713,1.021,2.021,2.027,2.045,3.064q.264,11.573,0,23.153c-.023,1.026-1.349,2.024-2.07,3.035-.679-1.02-1.877-2.008-1.941-3.065C7929.816,4641.7,7929.959,4637.831,7929.961,4633.972Z" transform="translate(58.555 -75.895)" fill="#12263f"/>
      <path id="Trazado_197191" data-name="Trazado 197191" d="M7950.748,4634.016c0,3.857.144,7.724-.1,11.566-.065,1.046-1.291,2.02-1.983,3.026-.716-1.023-2.029-2.034-2.053-3.073q-.255-11.566.019-23.14c.024-1.028,1.356-2.026,2.084-3.038.677,1.029,1.872,2.026,1.938,3.093C7950.893,4626.292,7950.748,4630.158,7950.748,4634.016Z" transform="translate(53.653 -75.895)" fill="#12263f"/>
      <path id="Trazado_197192" data-name="Trazado 197192" d="M7967.512,4634.291c0,3.744.147,7.5-.092,11.226-.068,1.068-1.249,2.066-1.92,3.1-.721-1-2.045-1.988-2.068-3.005q-.263-11.576,0-23.16c.023-1.047,1.293-2.068,1.985-3.1.7,1,1.94,1.975,2,3.017C7967.653,4626.326,7967.511,4630.313,7967.512,4634.291Z" transform="translate(48.682 -75.891)" fill="#12263f"/>
      <path id="Trazado_197193" data-name="Trazado 197193" d="M7721.706,4651.23h-4.161q-30.81,0-61.619-.007c-9.456-.006-14.247-4.819-14.26-14.32q-.028-19.189,0-38.38c.014-9.142,5.02-14.172,14.123-14.173q72.887-.013,145.772,0c9.141,0,14.166,5.006,14.18,14.112q.029,19.367,0,38.732c-.012,9.143-4.955,14.022-14.205,14.027q-30.809.017-61.619.006h-4m-7.264-4.177q36.264,0,72.527,0c7.375,0,10.383-3.054,10.387-10.513q.009-19.012,0-38.024c-.011-6.663-3.29-9.974-9.928-9.976q-72.878-.023-145.758-.007c-6.7,0-10,3.263-10.014,9.878q-.04,19.189,0,38.377c.007,7.184,3.072,10.255,10.264,10.258Q7692.385,4647.06,7728.649,4647.053Zm2.536,4.4h-4.779" transform="translate(143.814 -65.539)" fill="#12263f"/>
      <path id="Trazado_197194" data-name="Trazado 197194" d="M7751.9,4692.264h6.784" fill="#12263f"/>
      <path id="Trazado_197195" data-name="Trazado 197195" d="M7771.181,4642.728c-9.148,0-18.3-.082-27.444.051-2.946.042-3.877-1.052-3.842-3.921.122-9.969.1-19.939.007-29.908-.025-2.685.866-3.78,3.656-3.769q27.8.115,55.594.006c2.638-.01,3.453,1.049,3.431,3.575-.091,10.086-.134,20.175.018,30.259.046,3.06-1.2,3.783-3.974,3.748C7789.479,4642.653,7780.33,4642.725,7771.181,4642.728Zm-26.854-4.489H7798.1V4609.61h-53.773Z" transform="translate(114.757 -71.702)" fill="#12263f"/>
      <path id="Trazado_197196" data-name="Trazado 197196" d="M7719.952,4624.23c0-5.28-.105-10.563.1-15.834.041-1.044,1.286-2.042,1.976-3.062.7,1,1.989,1.983,2,2.99q.226,15.657.011,31.319c-.014,1.026-1.271,2.035-1.95,3.051-.714-.993-2-1.962-2.044-2.983C7719.835,4634.559,7719.949,4629.392,7719.952,4624.23Z" transform="translate(120.665 -71.747)" fill="#12263f"/>
      <path id="Trazado_197197" data-name="Trazado 197197" d="M7702.794,4623.655c0-5.044-.11-10.093.086-15.13.042-1.083,1.188-2.125,1.824-3.186.756,1.071,2.15,2.133,2.168,3.215q.248,15.481,0,30.967c-.017,1.071-1.428,2.12-2.191,3.179-.628-1.069-1.758-2.121-1.8-3.211C7702.691,4634.216,7702.795,4628.934,7702.794,4623.655Z" transform="translate(125.738 -71.749)" fill="#12263f"/>
      <path id="Trazado_197198" data-name="Trazado 197198" d="M7672.363,4623.915c0,5.154.124,10.312-.1,15.456-.048,1.128-1.32,2.2-2.029,3.3-.7-1.149-1.979-2.289-2-3.448q-.235-15.28.014-30.564c.019-1.12,1.393-2.216,2.139-3.324.656,1.156,1.83,2.292,1.879,3.474C7672.485,4613.838,7672.363,4618.879,7672.363,4623.915Z" transform="translate(135.983 -71.748)" fill="#12263f"/>
      <path id="Trazado_197199" data-name="Trazado 197199" d="M7689.789,4624.091c0,4.921.142,9.849-.091,14.76-.062,1.3-1.111,3.5-1.976,3.642-2.441.4-2.125-1.855-2.129-3.433-.028-10.077-.08-20.155.069-30.23.018-1.176,1.224-2.334,1.88-3.5.748,1.215,2.08,2.4,2.142,3.65C7689.933,4614.006,7689.787,4619.052,7689.789,4624.091Z" transform="translate(130.826 -71.746)" fill="#12263f"/>
      <path id="Trazado_197200" data-name="Trazado 197200" d="M7775.729,4636.986c-5.854,0-11.708-.051-17.56.027-2.349.032-3.439-.793-3.359-3.271.121-3.742.091-7.492.011-11.237-.046-2.193.776-3.225,3.064-3.217q17.735.06,35.471-.009c2.214-.009,3.206.826,3.153,3.106q-.132,5.791,0,11.588c.056,2.341-1.076,3.054-3.226,3.033C7787.436,4636.947,7781.582,4636.984,7775.729,4636.986Zm16.33-4.338V4623.7h-32.8v8.943Z" transform="translate(110.346 -75.871)" fill="#12263f"/>
      <path id="Trazado_197201" data-name="Trazado 197201" d="M7852.832,4619.9a8.585,8.585,0,1,1,8.639-8.62A8.383,8.383,0,0,1,7852.832,4619.9Zm4.443-8.419a4.274,4.274,0,0,0-4.29-4.515,4.071,4.071,0,0,0-4.416,4.006,4.258,4.258,0,0,0,4.073,4.713A4.36,4.36,0,0,0,7857.275,4611.478Z" transform="translate(83.876 -70.977)" fill="#12263f"/>
      <path id="Trazado_197202" data-name="Trazado 197202" d="M7852.832,4652.108a8.585,8.585,0,1,1,8.639-8.62A8.383,8.383,0,0,1,7852.832,4652.108Zm4.443-8.419a4.275,4.275,0,0,0-4.29-4.515,4.071,4.071,0,0,0-4.416,4.006,4.258,4.258,0,0,0,4.073,4.713A4.36,4.36,0,0,0,7857.275,4643.688Z" transform="translate(83.876 -80.504)" fill="#12263f"/>
      <path id="Trazado_197203" data-name="Trazado 197203" d="M8211.8,4457.889q-26.848,0-53.693-.006c-11.2-.008-18.512-7.252-18.518-18.405q-.026-40.564.006-81.13c.009-11.306,7.335-18.575,18.686-18.578q53.692-.013,107.385,0c11.205,0,18.434,7.237,18.439,18.461q.021,40.565-.006,81.13c-.01,11.468-7.13,18.528-18.605,18.529Q8238.65,4457.9,8211.8,4457.889Zm.117-3.511q26.559,0,53.117,0c10.059,0,15.549-5.433,15.553-15.421.007-26.657-.213-53.316.115-79.969.122-9.951-7.227-15.889-15.721-15.829-35.409.251-70.821.1-106.232.106-9.933,0-15.6,5.568-15.608,15.485q-.046,40.28,0,80.561c.011,9.422,5.687,15.054,15.066,15.059Q8185.07,4454.385,8211.922,4454.378Z" transform="translate(0 89.167)" fill="#12263f"/>
      <path id="Trazado_197204" data-name="Trazado 197204" d="M8215.944,4353.9q25.226,0,50.455,0c7.408.006,10.826,3.427,10.829,10.8q0,37.916,0,75.833c0,7.287-3.553,10.841-10.871,10.844q-50.455.012-100.911,0c-7.526,0-10.919-3.445-10.921-11.045q-.006-37.915,0-75.832c0-7.214,3.4-10.6,10.667-10.6Q8190.569,4353.892,8215.944,4353.9Zm-.054,3.54q-25.38,0-50.759,0c-5.2,0-7.1,1.9-7.1,7.114q-.012,38.07,0,76.14c0,5.085,2.061,7.171,7.157,7.173q50.61.02,101.224,0c5.22,0,7.308-2.129,7.309-7.383q.012-37.774,0-75.549c0-5.607-1.847-7.492-7.364-7.5Q8241.123,4357.434,8215.891,4357.443Z" transform="translate(-3.946 85.432)" fill="#12263f"/>
      <path id="Trazado_197205" data-name="Trazado 197205" d="M8298.178,4405.537q0,16.066,0,32.134c-.009,6-2.152,8.117-8.184,8.137-5.405.018-10.81.036-16.214,0-4.986-.035-7.517-2.484-7.521-7.375q-.038-32.725,0-65.448c.006-5.052,2.576-7.558,7.645-7.577,5.7-.022,11.4-.033,17.1.007,4.611.033,7.127,2.473,7.151,7.105.057,11.006.018,22.013.018,33.019Zm-3.542.169h.014c0-10.806.019-21.613-.01-32.419-.009-3.542-.854-4.367-4.348-4.381q-8.1-.035-16.209,0c-3.218.019-4.309,1.017-4.313,4.193q-.044,32.567.008,65.135c0,3.059,1.038,4.016,4.118,4.04,5.4.042,10.807.02,16.209,0,3.811-.01,4.521-.691,4.525-4.451Q8294.656,4421.769,8294.636,4405.707Z" transform="translate(-33.454 82.398)" fill="#12263f"/>
      <path id="Trazado_197206" data-name="Trazado 197206" d="M8197.859,4405.738q.006,15.918,0,31.836c0,6.066-2.109,8.22-8.067,8.234-5.5.013-11,.039-16.507-.007-4.766-.04-7.3-2.524-7.306-7.283q-.047-32.868,0-65.736c.007-4.739,2.6-7.335,7.249-7.366q8.7-.057,17.392,0c4.831.029,7.2,2.4,7.222,7.307C8197.883,4383.728,8197.855,4394.733,8197.859,4405.738Zm-3.524.114q0-16.356-.008-32.713c0-3.315-.891-4.207-4.18-4.225q-8.1-.045-16.21,0c-3.428.014-4.437.959-4.439,4.335q-.028,32.418.007,64.838c0,3.234,1,4.174,4.257,4.191q8.1.045,16.209,0c3.622-.015,4.349-.722,4.355-4.3Q8194.354,4421.915,8194.335,4405.853Z" transform="translate(-6.967 82.398)" fill="#12263f"/>
      <path id="Trazado_197207" data-name="Trazado 197207" d="M8216.247,4405.437c0-10.81-.018-21.621,0-32.43.012-5.25,2.334-7.577,7.531-7.6,5.7-.021,11.4-.036,17.1,0,4.56.034,7.218,2.567,7.226,7.071q.059,33.168,0,66.335c-.008,4.424-2.544,6.91-7,6.964q-8.991.11-17.983.006c-4.45-.054-6.852-2.527-6.867-7.039C8216.223,4427.647,8216.248,4416.542,8216.247,4405.437Zm3.506.119q0,16.209.007,32.419c.007,3.541.791,4.3,4.371,4.31,5.5.015,11-.052,16.5.01,2.734.031,3.99-1.245,3.99-3.906q0-32.714-.016-65.43c0-2.984-1.119-4.025-4.144-4.044-5.4-.035-10.807-.022-16.21,0-3.641.013-4.5.865-4.5,4.518Q8219.732,4389.493,8219.753,4405.556Z" transform="translate(-20.248 82.398)" fill="#12263f"/>
      <path id="Trazado_197208" data-name="Trazado 197208" d="M8284.749,4448.792c2.352,0,4.72-.147,7.049.085.759.076,1.419,1.142,2.125,1.755-.682.546-1.349,1.545-2.045,1.566q-7.2.209-14.4,0c-.673-.02-1.316-1.066-1.974-1.638.73-.59,1.419-1.614,2.2-1.689C8280.03,4448.646,8282.4,4448.792,8284.749,4448.792Z" transform="translate(-35.901 60.38)" fill="#12263f"/>
      <path id="Trazado_197209" data-name="Trazado 197209" d="M8285.052,4439.167a64.5,64.5,0,0,1,6.757.085c.758.081,1.41,1.144,2.111,1.759-.68.546-1.348,1.544-2.044,1.564-4.7.141-9.414.154-14.116,0-.771-.026-1.512-1.078-2.266-1.655.734-.584,1.43-1.6,2.211-1.673C8280.136,4439.028,8282.6,4439.167,8285.052,4439.167Z" transform="translate(-35.899 62.923)" fill="#12263f"/>
      <path id="Trazado_197210" data-name="Trazado 197210" d="M8284.5,4429.548c2.451,0,4.91-.121,7.345.072.727.057,1.385.986,2.075,1.516-.7.631-1.379,1.784-2.1,1.808-4.8.162-9.6.151-14.4,0-.661-.02-1.288-1.1-1.932-1.692.651-.568,1.266-1.565,1.961-1.627C8279.789,4429.422,8282.152,4429.55,8284.5,4429.548Z" transform="translate(-35.899 65.461)" fill="#12263f"/>
      <path id="Trazado_197211" data-name="Trazado 197211" d="M8284.732,4461.91a60.714,60.714,0,0,1-6.756-.082c-.878-.1-1.651-1.124-2.473-1.726.762-.562,1.506-1.583,2.284-1.609q6.9-.229,13.818,0c.788.026,1.545,1.023,2.316,1.572-.81.614-1.568,1.66-2.436,1.759A60.694,60.694,0,0,1,8284.732,4461.91Z" transform="translate(-35.902 57.836)" fill="#12263f"/>
      <path id="Trazado_197212" data-name="Trazado 197212" d="M8184.807,4458.427c2.254,0,4.519-.128,6.754.072.732.065,1.388.985,2.077,1.515-.7.63-1.373,1.781-2.089,1.8-4.8.163-9.6.153-14.4.009-.663-.02-1.294-1.089-1.939-1.672.651-.576,1.267-1.594,1.958-1.649C8179.7,4458.308,8182.259,4458.429,8184.807,4458.427Z" transform="translate(-9.411 57.834)" fill="#12263f"/>
      <path id="Trazado_197213" data-name="Trazado 197213" d="M8184.23,4448.8c2.451,0,4.911-.12,7.347.073.722.057,1.377.99,2.064,1.522-.7.629-1.383,1.776-2.1,1.8-4.8.162-9.605.151-14.4.005-.657-.02-1.282-1.1-1.922-1.692.654-.569,1.269-1.568,1.967-1.63C8179.513,4448.672,8181.877,4448.8,8184.23,4448.8Z" transform="translate(-9.411 60.377)" fill="#12263f"/>
      <path id="Trazado_197214" data-name="Trazado 197214" d="M8184.3,4433.034c-2.254,0-4.523.145-6.755-.079-.82-.082-1.55-1.043-2.322-1.6.714-.6,1.413-1.7,2.146-1.726q7.05-.234,14.11,0c.738.025,1.44,1.105,2.159,1.7-.761.57-1.48,1.554-2.289,1.63C8189.019,4433.18,8186.653,4433.036,8184.3,4433.034Z" transform="translate(-9.414 65.461)" fill="#12263f"/>
      <path id="Trazado_197215" data-name="Trazado 197215" d="M8184.659,4439.164a66.355,66.355,0,0,1,6.753.078c.79.081,1.486,1.076,2.226,1.654-.743.585-1.471,1.651-2.232,1.677q-7.049.235-14.105-.007c-.716-.025-1.391-1.188-2.085-1.824.7-.526,1.365-1.446,2.1-1.5C8179.749,4439.045,8182.209,4439.165,8184.659,4439.164Z" transform="translate(-9.412 62.924)" fill="#12263f"/>
      <path id="Trazado_197216" data-name="Trazado 197216" d="M8234.573,4442.655c-2.358,0-4.731.146-7.067-.085-.795-.078-1.5-1.112-2.238-1.71.759-.565,1.5-1.594,2.28-1.619q6.92-.23,13.853,0c.824.026,1.619,1,2.428,1.532-.824.629-1.6,1.7-2.484,1.8A57.931,57.931,0,0,1,8234.573,4442.655Z" transform="translate(-22.633 62.921)" fill="#12263f"/>
      <path id="Trazado_197217" data-name="Trazado 197217" d="M8234.85,4448.788a63.2,63.2,0,0,1,6.771.083c.785.084,1.466,1.137,2.193,1.749-.694.553-1.378,1.566-2.088,1.586q-7.216.208-14.439-.013c-.685-.021-1.34-1.062-2.009-1.631.734-.591,1.429-1.62,2.211-1.692C8229.924,4448.649,8232.394,4448.79,8234.85,4448.788Z" transform="translate(-22.635 60.382)" fill="#12263f"/>
      <path id="Trazado_197218" data-name="Trazado 197218" d="M8234.348,4461.906a66.53,66.53,0,0,1-6.77-.082c-.816-.084-1.537-1.078-2.3-1.656.739-.583,1.462-1.645,2.222-1.67,4.611-.158,9.234-.172,13.846,0,.846.031,1.652,1.148,2.477,1.763-.8.549-1.564,1.491-2.408,1.57C8239.076,4462.051,8236.7,4461.908,8234.348,4461.906Z" transform="translate(-22.635 57.837)" fill="#12263f"/>
      <path id="Trazado_197219" data-name="Trazado 197219" d="M8234.666,4433.029a64.12,64.12,0,0,1-6.771-.081c-.92-.1-1.746-1.067-2.615-1.641.83-.591,1.642-1.66,2.493-1.692,4.513-.171,9.04-.176,13.553,0,.853.032,1.664,1.132,2.494,1.74-.89.56-1.736,1.5-2.677,1.6A56.8,56.8,0,0,1,8234.666,4433.029Z" transform="translate(-22.636 65.468)" fill="#12263f"/>
      <path id="Trazado_197220" data-name="Trazado 197220" d="M8179.384,4382.764a3.363,3.363,0,1,1,3.386-3.377A3.284,3.284,0,0,1,8179.384,4382.764Zm1.74-3.3a1.674,1.674,0,0,0-1.68-1.769,1.6,1.6,0,0,0-1.73,1.569,1.668,1.668,0,0,0,1.6,1.847A1.706,1.706,0,0,0,8181.124,4379.466Z" transform="translate(-9.631 79.585)" fill="#12263f"/>
      <path id="Trazado_197221" data-name="Trazado 197221" d="M8227.343,4382.764a3.363,3.363,0,1,1,3.384-3.377A3.285,3.285,0,0,1,8227.343,4382.764Zm1.74-3.3a1.676,1.676,0,0,0-1.681-1.769,1.594,1.594,0,0,0-1.729,1.569,1.667,1.667,0,0,0,1.595,1.847A1.708,1.708,0,0,0,8229.083,4379.466Z" transform="translate(-22.299 79.585)" fill="#12263f"/>
      <path id="Trazado_197222" data-name="Trazado 197222" d="M8277.327,4382.764a3.363,3.363,0,1,1,3.385-3.377A3.284,3.284,0,0,1,8277.327,4382.764Zm1.739-3.3a1.673,1.673,0,0,0-1.679-1.769,1.6,1.6,0,0,0-1.73,1.569,1.669,1.669,0,0,0,1.595,1.847A1.706,1.706,0,0,0,8279.066,4379.466Z" transform="translate(-35.501 79.585)" fill="#12263f"/>
      <path id="Trazado_197223" data-name="Trazado 197223" d="M8211.8,4634.941q-26.848,0-53.693-.006c-11.2-.008-18.512-7.252-18.518-18.4q-.026-40.566.006-81.131c.009-11.306,7.335-18.575,18.686-18.578q53.692-.013,107.385,0c11.205,0,18.434,7.237,18.439,18.462q.021,40.564-.006,81.13c-.01,11.468-7.13,18.527-18.605,18.529Q8238.65,4634.947,8211.8,4634.941Zm.117-3.511q26.559,0,53.117,0c10.059,0,15.549-5.433,15.553-15.42.007-26.657-.213-53.316.115-79.97.122-9.951-7.227-15.889-15.721-15.828-35.409.251-70.821.1-106.232.107-9.933,0-15.6,5.567-15.608,15.484q-.046,40.28,0,80.561c.011,9.422,5.687,15.053,15.066,15.059Q8185.07,4631.438,8211.922,4631.43Z" transform="translate(0 42.402)" fill="#12263f"/>
      <path id="Trazado_197224" data-name="Trazado 197224" d="M8215.944,4530.956q25.226,0,50.455,0c7.408.006,10.826,3.427,10.829,10.8q0,37.916,0,75.832c0,7.287-3.553,10.843-10.871,10.844q-50.455.013-100.911,0c-7.526,0-10.919-3.445-10.921-11.045q-.006-37.916,0-75.832c0-7.214,3.4-10.6,10.667-10.6Q8190.569,4530.943,8215.944,4530.956Zm-.054,3.539q-25.38,0-50.759,0c-5.2,0-7.1,1.9-7.1,7.114q-.012,38.071,0,76.14c0,5.084,2.061,7.171,7.157,7.173q50.61.02,101.224,0c5.22,0,7.308-2.129,7.309-7.384q.012-37.775,0-75.549c0-5.607-1.847-7.492-7.364-7.5Q8241.123,4534.485,8215.891,4534.5Z" transform="translate(-3.946 38.667)" fill="#12263f"/>
      <path id="Trazado_197225" data-name="Trazado 197225" d="M8298.178,4582.589q0,16.067,0,32.134c-.009,6-2.152,8.118-8.184,8.137-5.405.018-10.81.037-16.214,0-4.986-.036-7.517-2.485-7.521-7.376q-.038-32.724,0-65.448c.006-5.052,2.576-7.557,7.645-7.577,5.7-.021,11.4-.033,17.1.007,4.611.033,7.127,2.473,7.151,7.105.057,11.006.018,22.012.018,33.019Zm-3.542.169h.014c0-10.806.019-21.613-.01-32.419-.009-3.542-.854-4.366-4.348-4.381q-8.1-.034-16.209,0c-3.218.018-4.309,1.016-4.313,4.193q-.044,32.568.008,65.134c0,3.059,1.038,4.017,4.118,4.04,5.4.041,10.807.02,16.209.005,3.811-.011,4.521-.691,4.525-4.451Q8294.656,4598.821,8294.636,4582.758Z" transform="translate(-33.454 35.633)" fill="#12263f"/>
      <path id="Trazado_197226" data-name="Trazado 197226" d="M8197.859,4582.791q.006,15.917,0,31.836c0,6.065-2.109,8.219-8.067,8.233-5.5.013-11,.039-16.507-.008-4.766-.039-7.3-2.523-7.306-7.283q-.047-32.867,0-65.736c.007-4.739,2.6-7.334,7.249-7.366q8.7-.058,17.392,0c4.831.03,7.2,2.4,7.222,7.307C8197.883,4560.78,8197.855,4571.785,8197.859,4582.791Zm-3.524.115q0-16.357-.008-32.714c0-3.315-.891-4.207-4.18-4.226q-8.1-.044-16.21,0c-3.428.013-4.437.958-4.439,4.335q-.028,32.42.007,64.838c0,3.234,1,4.174,4.257,4.192q8.1.044,16.209,0c3.622-.016,4.349-.723,4.355-4.3Q8194.354,4598.967,8194.335,4582.906Z" transform="translate(-6.967 35.633)" fill="#12263f"/>
      <path id="Trazado_197227" data-name="Trazado 197227" d="M8216.247,4582.489c0-10.81-.018-21.62,0-32.43.012-5.25,2.334-7.577,7.531-7.6,5.7-.021,11.4-.036,17.1,0,4.56.033,7.218,2.567,7.226,7.071q.059,33.168,0,66.335c-.008,4.424-2.544,6.911-7,6.965q-8.991.11-17.983.005c-4.45-.054-6.852-2.527-6.867-7.039C8216.223,4604.7,8216.248,4593.594,8216.247,4582.489Zm3.506.119q0,16.209.007,32.42c.007,3.54.791,4.3,4.371,4.309,5.5.015,11-.051,16.5.011,2.734.03,3.99-1.246,3.99-3.905q0-32.716-.016-65.431c0-2.985-1.119-4.025-4.144-4.044-5.4-.035-10.807-.022-16.21,0-3.641.013-4.5.865-4.5,4.519Q8219.732,4566.545,8219.753,4582.607Z" transform="translate(-20.248 35.633)" fill="#12263f"/>
      <path id="Trazado_197228" data-name="Trazado 197228" d="M8284.749,4625.844c2.352,0,4.72-.146,7.049.086.759.075,1.419,1.141,2.125,1.754-.682.547-1.349,1.545-2.045,1.566q-7.2.211-14.4,0c-.673-.02-1.316-1.067-1.974-1.639.73-.59,1.419-1.614,2.2-1.689C8280.03,4625.7,8282.4,4625.844,8284.749,4625.844Z" transform="translate(-35.901 13.615)" fill="#12263f"/>
      <path id="Trazado_197229" data-name="Trazado 197229" d="M8285.052,4616.22a64.238,64.238,0,0,1,6.757.084c.758.081,1.41,1.145,2.111,1.759-.68.546-1.348,1.544-2.044,1.564-4.7.142-9.414.154-14.116,0-.771-.026-1.512-1.078-2.266-1.655.734-.584,1.43-1.6,2.211-1.673C8280.136,4616.08,8282.6,4616.219,8285.052,4616.22Z" transform="translate(-35.899 16.158)" fill="#12263f"/>
      <path id="Trazado_197230" data-name="Trazado 197230" d="M8284.5,4606.6c2.451,0,4.91-.12,7.345.072.727.057,1.385.985,2.075,1.515-.7.631-1.379,1.784-2.1,1.809-4.8.162-9.6.15-14.4,0-.661-.02-1.288-1.1-1.932-1.692.651-.568,1.266-1.565,1.961-1.627C8279.789,4606.474,8282.152,4606.6,8284.5,4606.6Z" transform="translate(-35.899 18.696)" fill="#12263f"/>
      <path id="Trazado_197231" data-name="Trazado 197231" d="M8284.732,4638.962a60.6,60.6,0,0,1-6.756-.082c-.878-.1-1.651-1.124-2.473-1.727.762-.562,1.506-1.583,2.284-1.609q6.9-.229,13.818,0c.788.026,1.545,1.023,2.316,1.572-.81.614-1.568,1.66-2.436,1.758A60.576,60.576,0,0,1,8284.732,4638.962Z" transform="translate(-35.902 11.071)" fill="#12263f"/>
      <path id="Trazado_197232" data-name="Trazado 197232" d="M8184.807,4635.479c2.254,0,4.519-.129,6.754.072.732.066,1.388.986,2.077,1.515-.7.63-1.373,1.782-2.089,1.806-4.8.163-9.6.152-14.4.008-.663-.02-1.294-1.088-1.939-1.672.651-.577,1.267-1.594,1.958-1.648C8179.7,4635.36,8182.259,4635.481,8184.807,4635.479Z" transform="translate(-9.411 11.069)" fill="#12263f"/>
      <path id="Trazado_197233" data-name="Trazado 197233" d="M8184.23,4625.853c2.451,0,4.911-.121,7.347.072.722.058,1.377.991,2.064,1.523-.7.628-1.383,1.776-2.1,1.8-4.8.162-9.605.151-14.4,0-.657-.02-1.282-1.1-1.922-1.691.654-.57,1.269-1.567,1.967-1.629C8179.513,4625.725,8181.877,4625.853,8184.23,4625.853Z" transform="translate(-9.411 13.611)" fill="#12263f"/>
      <path id="Trazado_197234" data-name="Trazado 197234" d="M8184.3,4610.086c-2.254,0-4.523.145-6.755-.079-.82-.083-1.55-1.043-2.322-1.6.714-.6,1.413-1.7,2.146-1.725q7.05-.236,14.11,0c.738.024,1.44,1.105,2.159,1.7-.761.569-1.48,1.553-2.289,1.63C8189.019,4610.231,8186.653,4610.088,8184.3,4610.086Z" transform="translate(-9.414 18.696)" fill="#12263f"/>
      <path id="Trazado_197235" data-name="Trazado 197235" d="M8184.659,4616.216a66.355,66.355,0,0,1,6.753.078c.79.082,1.486,1.076,2.226,1.654-.743.585-1.471,1.652-2.232,1.677q-7.049.236-14.105-.007c-.716-.025-1.391-1.188-2.085-1.824.7-.525,1.365-1.445,2.1-1.5C8179.749,4616.1,8182.209,4616.217,8184.659,4616.216Z" transform="translate(-9.412 16.159)" fill="#12263f"/>
      <path id="Trazado_197236" data-name="Trazado 197236" d="M8234.573,4619.708c-2.358,0-4.731.146-7.067-.085-.795-.078-1.5-1.112-2.238-1.709.759-.565,1.5-1.593,2.28-1.619q6.92-.231,13.853,0c.824.027,1.619,1,2.428,1.533-.824.628-1.6,1.7-2.484,1.8A58.038,58.038,0,0,1,8234.573,4619.708Z" transform="translate(-22.633 16.156)" fill="#12263f"/>
      <path id="Trazado_197237" data-name="Trazado 197237" d="M8234.85,4625.84a63.452,63.452,0,0,1,6.771.083c.785.083,1.466,1.138,2.193,1.749-.694.553-1.378,1.567-2.088,1.586q-7.216.207-14.439-.013c-.685-.021-1.34-1.062-2.009-1.631.734-.592,1.429-1.62,2.211-1.691C8229.924,4625.7,8232.394,4625.841,8234.85,4625.84Z" transform="translate(-22.635 13.617)" fill="#12263f"/>
      <path id="Trazado_197238" data-name="Trazado 197238" d="M8234.348,4638.958a66.814,66.814,0,0,1-6.77-.082c-.816-.084-1.537-1.079-2.3-1.657.739-.583,1.462-1.644,2.222-1.67,4.611-.158,9.234-.172,13.846,0,.846.032,1.652,1.148,2.477,1.764-.8.548-1.564,1.491-2.408,1.569C8239.076,4639.1,8236.7,4638.96,8234.348,4638.958Z" transform="translate(-22.635 11.072)" fill="#12263f"/>
      <path id="Trazado_197239" data-name="Trazado 197239" d="M8234.666,4610.083a64.516,64.516,0,0,1-6.771-.082c-.92-.1-1.746-1.068-2.615-1.64.83-.591,1.642-1.661,2.493-1.693,4.513-.171,9.04-.175,13.553,0,.853.033,1.664,1.132,2.494,1.74-.89.56-1.736,1.5-2.677,1.6A56.8,56.8,0,0,1,8234.666,4610.083Z" transform="translate(-22.636 18.703)" fill="#12263f"/>
      <path id="Trazado_197240" data-name="Trazado 197240" d="M8179.384,4559.816a3.363,3.363,0,1,1,3.386-3.377A3.284,3.284,0,0,1,8179.384,4559.816Zm1.74-3.3a1.673,1.673,0,0,0-1.68-1.769,1.6,1.6,0,0,0-1.73,1.569,1.668,1.668,0,0,0,1.6,1.847A1.707,1.707,0,0,0,8181.124,4556.518Z" transform="translate(-9.631 32.819)" fill="#12263f"/>
      <path id="Trazado_197241" data-name="Trazado 197241" d="M8227.343,4559.816a3.363,3.363,0,1,1,3.384-3.377A3.285,3.285,0,0,1,8227.343,4559.816Zm1.74-3.3a1.675,1.675,0,0,0-1.681-1.769,1.594,1.594,0,0,0-1.729,1.569,1.667,1.667,0,0,0,1.595,1.847A1.708,1.708,0,0,0,8229.083,4556.518Z" transform="translate(-22.299 32.819)" fill="#12263f"/>
      <path id="Trazado_197242" data-name="Trazado 197242" d="M8277.327,4559.816a3.363,3.363,0,1,1,3.385-3.377A3.284,3.284,0,0,1,8277.327,4559.816Zm1.739-3.3a1.672,1.672,0,0,0-1.679-1.769,1.6,1.6,0,0,0-1.73,1.569,1.669,1.669,0,0,0,1.595,1.847A1.706,1.706,0,0,0,8279.066,4556.518Z" transform="translate(-35.501 32.819)" fill="#12263f"/>
    </g>
    <g id="Grupo_155306" data-name="Grupo 155306" transform="translate(842.536 -11509.242)">
      <path id="Trazado_197171" data-name="Trazado 197171" d="M7474.738,4854.9v-6.811c-5.2,0-10.148-.1-15.092.034-3.436.093-4.7-1.338-4.677-4.767q.163-23.747.01-47.494c-.021-3.407,1.283-4.845,4.686-4.837q32.246.073,64.492,0c3.436-.006,4.727,1.673,4.718,4.948q-.066,23.747,0,47.5c.012,3.442-1.543,4.753-4.891,4.66-4.8-.133-9.611-.034-14.789-.034v6.8c4.9,0,9.856.093,14.8-.033,3.366-.086,4.942,1.285,4.867,4.7-.088,4,0,8-.026,12-.015,2.851-1.394,4.211-4.335,4.206q-32.747-.06-65.493-.006c-3.071,0-4.081-1.519-4.016-4.362.091-4,.138-8-.014-12-.136-3.583,1.609-4.64,4.9-4.54C7464.682,4855.01,7469.488,4854.9,7474.738,4854.9Zm-13.5-13.181h61.629c0-14.176-.025-27.968.017-41.759.01-3.481-2.442-2.937-4.537-2.939q-24.485-.03-48.97-.012h-8.139Zm61.263,19.431h-61.107v8.274H7522.5Zm-41.352-6.622h22.915c-1.548-2.767-2.441-6.048-3.59-6.14-6.362-.51-12.785-.244-19.325-.244Z" transform="translate(-6652.293 -2131.975)" fill="#12263f"/>
      <path id="Trazado_197172" data-name="Trazado 197172" d="M7494.778,4808.5a33.262,33.262,0,0,1-2.54,3.35c-5.6,5.664-11.136,11.4-16.988,16.8-1.159,1.069-3.6.752-5.441,1.075.394-1.724.233-3.968,1.277-5.085,5.55-5.936,11.337-11.658,17.213-17.274a7.034,7.034,0,0,1,4.324-1.442C7493.252,4805.9,7493.943,4807.449,7494.778,4808.5Z" transform="translate(-6652.293 -2131.975)" fill="#12263f"/>
      <path id="Trazado_197173" data-name="Trazado 197173" d="M7480.434,4801.705c.64.443,1.918.863,2.077,1.543.261,1.121.244,2.825-.437,3.56-3.715,4.01-7.576,7.9-11.623,11.575-.774.7-2.829.685-3.867.158-.677-.343-1.209-2.784-.736-3.3,4.148-4.5,8.527-8.778,12.879-13.082C7479.027,4801.865,7479.656,4801.9,7480.434,4801.705Z" transform="translate(-6652.293 -2131.975)" fill="#12263f"/>
    </g>
    <g id="Grupo_155307" data-name="Grupo 155307" transform="translate(842.536 -11410.493)">
      <path id="Trazado_197171-2" data-name="Trazado 197171" d="M7474.738,4854.9v-6.811c-5.2,0-10.148-.1-15.092.034-3.436.093-4.7-1.338-4.677-4.767q.163-23.747.01-47.494c-.021-3.407,1.283-4.845,4.686-4.837q32.246.073,64.492,0c3.436-.006,4.727,1.673,4.718,4.948q-.066,23.747,0,47.5c.012,3.442-1.543,4.753-4.891,4.66-4.8-.133-9.611-.034-14.789-.034v6.8c4.9,0,9.856.093,14.8-.033,3.366-.086,4.942,1.285,4.867,4.7-.088,4,0,8-.026,12-.015,2.851-1.394,4.211-4.335,4.206q-32.747-.06-65.493-.006c-3.071,0-4.081-1.519-4.016-4.362.091-4,.138-8-.014-12-.136-3.583,1.609-4.64,4.9-4.54C7464.682,4855.01,7469.488,4854.9,7474.738,4854.9Zm-13.5-13.181h61.629c0-14.176-.025-27.968.017-41.759.01-3.481-2.442-2.937-4.537-2.939q-24.485-.03-48.97-.012h-8.139Zm61.263,19.431h-61.107v8.274H7522.5Zm-41.352-6.622h22.915c-1.548-2.767-2.441-6.048-3.59-6.14-6.362-.51-12.785-.244-19.325-.244Z" transform="translate(-6652.293 -2131.975)" fill="#12263f"/>
      <path id="Trazado_197172-2" data-name="Trazado 197172" d="M7494.778,4808.5a33.262,33.262,0,0,1-2.54,3.35c-5.6,5.664-11.136,11.4-16.988,16.8-1.159,1.069-3.6.752-5.441,1.075.394-1.724.233-3.968,1.277-5.085,5.55-5.936,11.337-11.658,17.213-17.274a7.034,7.034,0,0,1,4.324-1.442C7493.252,4805.9,7493.943,4807.449,7494.778,4808.5Z" transform="translate(-6652.293 -2131.975)" fill="#12263f"/>
      <path id="Trazado_197173-2" data-name="Trazado 197173" d="M7480.434,4801.705c.64.443,1.918.863,2.077,1.543.261,1.121.244,2.825-.437,3.56-3.715,4.01-7.576,7.9-11.623,11.575-.774.7-2.829.685-3.867.158-.677-.343-1.209-2.784-.736-3.3,4.148-4.5,8.527-8.778,12.879-13.082C7479.027,4801.865,7479.656,4801.9,7480.434,4801.705Z" transform="translate(-6652.293 -2131.975)" fill="#12263f"/>
    </g>
    <g id="Grupo_155308" data-name="Grupo 155308" transform="translate(842.536 -11311.743)">
      <path id="Trazado_197171-3" data-name="Trazado 197171" d="M7474.738,4854.9v-6.811c-5.2,0-10.148-.1-15.092.034-3.436.093-4.7-1.338-4.677-4.767q.163-23.747.01-47.494c-.021-3.407,1.283-4.845,4.686-4.837q32.246.073,64.492,0c3.436-.006,4.727,1.673,4.718,4.948q-.066,23.747,0,47.5c.012,3.442-1.543,4.753-4.891,4.66-4.8-.133-9.611-.034-14.789-.034v6.8c4.9,0,9.856.093,14.8-.033,3.366-.086,4.942,1.285,4.867,4.7-.088,4,0,8-.026,12-.015,2.851-1.394,4.211-4.335,4.206q-32.747-.06-65.493-.006c-3.071,0-4.081-1.519-4.016-4.362.091-4,.138-8-.014-12-.136-3.583,1.609-4.64,4.9-4.54C7464.682,4855.01,7469.488,4854.9,7474.738,4854.9Zm-13.5-13.181h61.629c0-14.176-.025-27.968.017-41.759.01-3.481-2.442-2.937-4.537-2.939q-24.485-.03-48.97-.012h-8.139Zm61.263,19.431h-61.107v8.274H7522.5Zm-41.352-6.622h22.915c-1.548-2.767-2.441-6.048-3.59-6.14-6.362-.51-12.785-.244-19.325-.244Z" transform="translate(-6652.293 -2131.975)" fill="#12263f"/>
      <path id="Trazado_197172-3" data-name="Trazado 197172" d="M7494.778,4808.5a33.262,33.262,0,0,1-2.54,3.35c-5.6,5.664-11.136,11.4-16.988,16.8-1.159,1.069-3.6.752-5.441,1.075.394-1.724.233-3.968,1.277-5.085,5.55-5.936,11.337-11.658,17.213-17.274a7.034,7.034,0,0,1,4.324-1.442C7493.252,4805.9,7493.943,4807.449,7494.778,4808.5Z" transform="translate(-6652.293 -2131.975)" fill="#12263f"/>
      <path id="Trazado_197173-3" data-name="Trazado 197173" d="M7480.434,4801.705c.64.443,1.918.863,2.077,1.543.261,1.121.244,2.825-.437,3.56-3.715,4.01-7.576,7.9-11.623,11.575-.774.7-2.829.685-3.867.158-.677-.343-1.209-2.784-.736-3.3,4.148-4.5,8.527-8.778,12.879-13.082C7479.027,4801.865,7479.656,4801.9,7480.434,4801.705Z" transform="translate(-6652.293 -2131.975)" fill="#12263f"/>
    </g>
    <path id="Trazado_197370" data-name="Trazado 197370" d="M9.945-3.789A4.025,4.025,0,0,1,8.59-.9,4.76,4.76,0,0,1,5.367.156,4.28,4.28,0,0,1,1.926-1.316,6.038,6.038,0,0,1,.672-5.359v-.7A6.819,6.819,0,0,1,1.25-8.945,4.332,4.332,0,0,1,2.9-10.863a4.629,4.629,0,0,1,2.5-.668A4.637,4.637,0,0,1,8.57-10.477,4.326,4.326,0,0,1,9.961-7.516H7.617A2.376,2.376,0,0,0,7-9.113a2.271,2.271,0,0,0-1.605-.5,1.991,1.991,0,0,0-1.754.84,4.707,4.707,0,0,0-.6,2.605V-5.3a5.038,5.038,0,0,0,.559,2.7,1.954,1.954,0,0,0,1.762.852,2.314,2.314,0,0,0,1.621-.5A2.241,2.241,0,0,0,7.6-3.789ZM13.719,0H11.453V-12h2.266Zm4.242,0H15.7V-8.453h2.266Zm-2.4-10.641a1.112,1.112,0,0,1,.34-.836,1.277,1.277,0,0,1,.926-.328,1.28,1.28,0,0,1,.922.328,1.105,1.105,0,0,1,.344.836,1.108,1.108,0,0,1-.348.844,1.283,1.283,0,0,1-.918.328A1.283,1.283,0,0,1,15.91-9.8,1.108,1.108,0,0,1,15.563-10.641ZM23.711.156A4.15,4.15,0,0,1,20.684-.984a4.054,4.054,0,0,1-1.168-3.039v-.219a5.106,5.106,0,0,1,.492-2.277A3.612,3.612,0,0,1,21.4-8.066a3.914,3.914,0,0,1,2.059-.543,3.508,3.508,0,0,1,2.73,1.094,4.444,4.444,0,0,1,1,3.1v.922H21.8a2.1,2.1,0,0,0,.66,1.328,2,2,0,0,0,1.395.5A2.437,2.437,0,0,0,25.9-2.609l1.109,1.242A3.389,3.389,0,0,1,25.633-.246,4.511,4.511,0,0,1,23.711.156Zm-.258-6.945a1.411,1.411,0,0,0-1.09.455,2.357,2.357,0,0,0-.535,1.3h3.141v-.181a1.681,1.681,0,0,0-.406-1.165A1.456,1.456,0,0,0,23.453-6.789Zm7.094-1.664.07.977a2.951,2.951,0,0,1,2.43-1.133,2.453,2.453,0,0,1,2,.789,3.682,3.682,0,0,1,.672,2.359V0H33.461V-5.406a1.465,1.465,0,0,0-.312-1.043,1.4,1.4,0,0,0-1.039-.324,1.553,1.553,0,0,0-1.43.813V0H28.422V-8.453Zm9.586-2.078v2.078h1.445V-6.8H40.133v4.219a1.007,1.007,0,0,0,.18.672A.9.9,0,0,0,41-1.7a3.6,3.6,0,0,0,.664-.055V-.047a4.648,4.648,0,0,1-1.367.2,2.156,2.156,0,0,1-2.422-2.4V-6.8H36.641V-8.453h1.234v-2.078Zm7.281,8.2A.727.727,0,0,0,47-2.988a4.659,4.659,0,0,0-1.316-.426q-3.016-.633-3.016-2.562a2.323,2.323,0,0,1,.934-1.879,3.766,3.766,0,0,1,2.441-.754,4.053,4.053,0,0,1,2.574.758,2.388,2.388,0,0,1,.965,1.969H47.328a1.092,1.092,0,0,0-.312-.8A1.322,1.322,0,0,0,46.039-7a1.351,1.351,0,0,0-.883.258.814.814,0,0,0-.312.656.7.7,0,0,0,.355.605,3.657,3.657,0,0,0,1.2.4A9.8,9.8,0,0,1,47.82-4.7,2.336,2.336,0,0,1,49.609-2.43a2.2,2.2,0,0,1-.992,1.871,4.28,4.28,0,0,1-2.562.715,4.47,4.47,0,0,1-1.887-.379,3.166,3.166,0,0,1-1.293-1.039,2.414,2.414,0,0,1-.469-1.426h2.141a1.179,1.179,0,0,0,.445.922,1.766,1.766,0,0,0,1.109.32,1.635,1.635,0,0,0,.98-.246A.766.766,0,0,0,47.414-2.336Z" transform="translate(1655 -8546)" fill="#12263f"/>
    <path id="Trazado_197374" data-name="Trazado 197374" d="M6.914-2.984A1.2,1.2,0,0,0,6.445-4a6.148,6.148,0,0,0-1.687-.75,11.963,11.963,0,0,1-1.93-.777A3.153,3.153,0,0,1,.891-8.352,2.747,2.747,0,0,1,1.41-10,3.389,3.389,0,0,1,2.9-11.125a5.616,5.616,0,0,1,2.184-.406,5.112,5.112,0,0,1,2.172.441,3.458,3.458,0,0,1,1.48,1.246,3.261,3.261,0,0,1,.527,1.828H6.922A1.534,1.534,0,0,0,6.43-9.23a2.023,2.023,0,0,0-1.383-.434A2.162,2.162,0,0,0,3.711-9.3a1.146,1.146,0,0,0-.477.957,1.1,1.1,0,0,0,.559.93,6.311,6.311,0,0,0,1.645.7A7.106,7.106,0,0,1,8.352-5.219,2.972,2.972,0,0,1,9.266-3,2.737,2.737,0,0,1,8.148-.684a4.891,4.891,0,0,1-3.008.84A5.808,5.808,0,0,1,2.75-.324,3.783,3.783,0,0,1,1.105-1.641,3.371,3.371,0,0,1,.539-3.578H2.891q0,1.883,2.25,1.883a2.189,2.189,0,0,0,1.3-.34A1.106,1.106,0,0,0,6.914-2.984Zm6.492-7.547v2.078h1.445V-6.8H13.406v4.219a1.007,1.007,0,0,0,.18.672.9.9,0,0,0,.688.2,3.6,3.6,0,0,0,.664-.055V-.047a4.648,4.648,0,0,1-1.367.2,2.156,2.156,0,0,1-2.422-2.4V-6.8H9.914V-8.453h1.234v-2.078ZM15.523-4.3a5.013,5.013,0,0,1,.484-2.242A3.546,3.546,0,0,1,17.4-8.07a4.069,4.069,0,0,1,2.113-.539,3.849,3.849,0,0,1,2.793,1.047,4.2,4.2,0,0,1,1.207,2.844l.016.578A4.418,4.418,0,0,1,22.445-1.02,3.775,3.775,0,0,1,19.531.156a3.793,3.793,0,0,1-2.918-1.172A4.5,4.5,0,0,1,15.523-4.2Zm2.258.16A3.16,3.16,0,0,0,18.234-2.3a1.5,1.5,0,0,0,1.3.638,1.5,1.5,0,0,0,1.281-.63,3.457,3.457,0,0,0,.461-2.015,3.128,3.128,0,0,0-.461-1.831,1.5,1.5,0,0,0-1.3-.649,1.474,1.474,0,0,0-1.281.646A3.516,3.516,0,0,0,17.781-4.144ZM29.672-6.336a6.134,6.134,0,0,0-.812-.062,1.654,1.654,0,0,0-1.68.867V0H24.922V-8.453h2.133l.063,1.008A2.092,2.092,0,0,1,29-8.609a2.366,2.366,0,0,1,.7.1ZM35.422,0A2.507,2.507,0,0,1,35.2-.758a2.732,2.732,0,0,1-2.133.914A3,3,0,0,1,31-.562a2.312,2.312,0,0,1-.816-1.812,2.389,2.389,0,0,1,1-2.062,4.915,4.915,0,0,1,2.879-.727H35.1v-.484a1.393,1.393,0,0,0-.3-.937,1.183,1.183,0,0,0-.949-.352,1.345,1.345,0,0,0-.895.273.929.929,0,0,0-.324.75H30.375a2.268,2.268,0,0,1,.453-1.359,3,3,0,0,1,1.281-.98,4.669,4.669,0,0,1,1.859-.355,3.689,3.689,0,0,1,2.48.785,2.747,2.747,0,0,1,.918,2.207v3.664A4.041,4.041,0,0,0,37.7-.133V0ZM33.555-1.57a1.945,1.945,0,0,0,.922-.223,1.462,1.462,0,0,0,.625-.6V-3.844h-.844q-1.7,0-1.8,1.172l-.008.133a.9.9,0,0,0,.3.7A1.153,1.153,0,0,0,33.555-1.57Zm5.219-2.719A4.954,4.954,0,0,1,39.7-7.422a3,3,0,0,1,2.5-1.187,2.631,2.631,0,0,1,2.164.953l.094-.8H46.5V-.281a3.613,3.613,0,0,1-.5,1.93A3.236,3.236,0,0,1,44.578,2.9a4.985,4.985,0,0,1-2.141.43,4.635,4.635,0,0,1-1.812-.371A3.217,3.217,0,0,1,39.289,2l1-1.375a2.645,2.645,0,0,0,2.047.945,1.936,1.936,0,0,0,1.4-.48,1.8,1.8,0,0,0,.5-1.363V-.727A2.612,2.612,0,0,1,42.18.156a2.992,2.992,0,0,1-2.465-1.191,4.953,4.953,0,0,1-.941-3.16Zm2.258.168a3.085,3.085,0,0,0,.461,1.8,1.466,1.466,0,0,0,1.266.653,1.568,1.568,0,0,0,1.477-.775V-6a1.564,1.564,0,0,0-1.461-.775,1.476,1.476,0,0,0-1.277.665A3.477,3.477,0,0,0,41.031-4.121ZM52.125.156A4.15,4.15,0,0,1,49.1-.984,4.054,4.054,0,0,1,47.93-4.023v-.219a5.106,5.106,0,0,1,.492-2.277,3.612,3.612,0,0,1,1.395-1.547,3.914,3.914,0,0,1,2.059-.543,3.508,3.508,0,0,1,2.73,1.094,4.444,4.444,0,0,1,1,3.1v.922H50.219a2.1,2.1,0,0,0,.66,1.328,2,2,0,0,0,1.395.5,2.437,2.437,0,0,0,2.039-.945l1.109,1.242A3.389,3.389,0,0,1,54.047-.246,4.511,4.511,0,0,1,52.125.156Zm-.258-6.945a1.411,1.411,0,0,0-1.09.455,2.357,2.357,0,0,0-.535,1.3h3.141v-.181a1.681,1.681,0,0,0-.406-1.165A1.456,1.456,0,0,0,51.867-6.789ZM61.016,0V-11.375h3.5A5.315,5.315,0,0,1,67.2-10.7a4.712,4.712,0,0,1,1.848,1.922,5.928,5.928,0,0,1,.664,2.832v.523a5.945,5.945,0,0,1-.652,2.82,4.672,4.672,0,0,1-1.84,1.914A5.355,5.355,0,0,1,64.539,0Zm2.344-9.477v7.594h1.133a2.545,2.545,0,0,0,2.1-.9,4.06,4.06,0,0,0,.742-2.57v-.6a4.124,4.124,0,0,0-.719-2.629,2.537,2.537,0,0,0-2.1-.895ZM75.156.156A4.15,4.15,0,0,1,72.129-.984a4.054,4.054,0,0,1-1.168-3.039v-.219a5.106,5.106,0,0,1,.492-2.277,3.612,3.612,0,0,1,1.395-1.547,3.914,3.914,0,0,1,2.059-.543,3.508,3.508,0,0,1,2.73,1.094,4.444,4.444,0,0,1,1,3.1v.922H73.25a2.1,2.1,0,0,0,.66,1.328,2,2,0,0,0,1.395.5,2.437,2.437,0,0,0,2.039-.945l1.109,1.242A3.389,3.389,0,0,1,77.078-.246,4.511,4.511,0,0,1,75.156.156ZM74.9-6.789a1.411,1.411,0,0,0-1.09.455,2.357,2.357,0,0,0-.535,1.3h3.141v-.181a1.681,1.681,0,0,0-.406-1.165A1.456,1.456,0,0,0,74.9-6.789Zm8.078,4.031,1.57-5.7h2.359L84.055,0H81.9L79.047-8.453h2.359ZM90.281,0H88.016V-8.453h2.266Zm-2.4-10.641a1.112,1.112,0,0,1,.34-.836,1.277,1.277,0,0,1,.926-.328,1.28,1.28,0,0,1,.922.328,1.105,1.105,0,0,1,.344.836,1.108,1.108,0,0,1-.348.844,1.283,1.283,0,0,1-.918.328A1.283,1.283,0,0,1,88.23-9.8,1.108,1.108,0,0,1,87.883-10.641Zm7.773,8.977a1.481,1.481,0,0,0,1.016-.344,1.2,1.2,0,0,0,.406-.914H99.2a2.9,2.9,0,0,1-.469,1.574A3.093,3.093,0,0,1,97.465-.238,3.949,3.949,0,0,1,95.7.156,3.67,3.67,0,0,1,92.836-1,4.56,4.56,0,0,1,91.789-4.18v-.148a4.508,4.508,0,0,1,1.039-3.117A3.627,3.627,0,0,1,95.68-8.609a3.555,3.555,0,0,1,2.543.9A3.2,3.2,0,0,1,99.2-5.3H97.078a1.551,1.551,0,0,0-.406-1.072,1.354,1.354,0,0,0-1.031-.412,1.36,1.36,0,0,0-1.191.575,3.333,3.333,0,0,0-.4,1.866v.235a3.375,3.375,0,0,0,.4,1.878A1.377,1.377,0,0,0,95.656-1.664Zm8.719,1.82a4.15,4.15,0,0,1-3.027-1.141,4.054,4.054,0,0,1-1.168-3.039v-.219a5.106,5.106,0,0,1,.492-2.277,3.612,3.612,0,0,1,1.395-1.547,3.914,3.914,0,0,1,2.059-.543,3.508,3.508,0,0,1,2.73,1.094,4.444,4.444,0,0,1,1,3.1v.922h-5.383a2.1,2.1,0,0,0,.66,1.328,2,2,0,0,0,1.395.5,2.437,2.437,0,0,0,2.039-.945l1.109,1.242A3.389,3.389,0,0,1,106.3-.246,4.511,4.511,0,0,1,104.375.156Zm-.258-6.945a1.411,1.411,0,0,0-1.09.455,2.357,2.357,0,0,0-.535,1.3h3.141v-.181a1.681,1.681,0,0,0-.406-1.165A1.456,1.456,0,0,0,104.117-6.789Zm9.594,4.453a.727.727,0,0,0-.41-.652,4.659,4.659,0,0,0-1.316-.426q-3.016-.633-3.016-2.562a2.323,2.323,0,0,1,.934-1.879,3.766,3.766,0,0,1,2.441-.754,4.053,4.053,0,0,1,2.574.758,2.388,2.388,0,0,1,.965,1.969h-2.258a1.092,1.092,0,0,0-.312-.8A1.322,1.322,0,0,0,112.336-7a1.351,1.351,0,0,0-.883.258.814.814,0,0,0-.312.656.7.7,0,0,0,.355.605,3.657,3.657,0,0,0,1.2.4,9.8,9.8,0,0,1,1.422.379,2.336,2.336,0,0,1,1.789,2.273,2.2,2.2,0,0,1-.992,1.871,4.28,4.28,0,0,1-2.562.715,4.47,4.47,0,0,1-1.887-.379,3.166,3.166,0,0,1-1.293-1.039,2.414,2.414,0,0,1-.469-1.426h2.141a1.179,1.179,0,0,0,.445.922,1.766,1.766,0,0,0,1.109.32,1.635,1.635,0,0,0,.98-.246A.766.766,0,0,0,113.711-2.336Z" transform="translate(2269 -8546)" fill="#12263f"/>
    <path id="Trazado_197372" data-name="Trazado 197372" d="M6.914-2.984A1.2,1.2,0,0,0,6.445-4a6.148,6.148,0,0,0-1.687-.75,11.963,11.963,0,0,1-1.93-.777A3.153,3.153,0,0,1,.891-8.352,2.747,2.747,0,0,1,1.41-10,3.389,3.389,0,0,1,2.9-11.125a5.616,5.616,0,0,1,2.184-.406,5.112,5.112,0,0,1,2.172.441,3.458,3.458,0,0,1,1.48,1.246,3.261,3.261,0,0,1,.527,1.828H6.922A1.534,1.534,0,0,0,6.43-9.23a2.023,2.023,0,0,0-1.383-.434A2.162,2.162,0,0,0,3.711-9.3a1.146,1.146,0,0,0-.477.957,1.1,1.1,0,0,0,.559.93,6.311,6.311,0,0,0,1.645.7A7.106,7.106,0,0,1,8.352-5.219,2.972,2.972,0,0,1,9.266-3,2.737,2.737,0,0,1,8.148-.684a4.891,4.891,0,0,1-3.008.84A5.808,5.808,0,0,1,2.75-.324,3.783,3.783,0,0,1,1.105-1.641,3.371,3.371,0,0,1,.539-3.578H2.891q0,1.883,2.25,1.883a2.189,2.189,0,0,0,1.3-.34A1.106,1.106,0,0,0,6.914-2.984ZM14.594.156A4.15,4.15,0,0,1,11.566-.984,4.054,4.054,0,0,1,10.4-4.023v-.219a5.106,5.106,0,0,1,.492-2.277,3.612,3.612,0,0,1,1.395-1.547,3.914,3.914,0,0,1,2.059-.543,3.508,3.508,0,0,1,2.73,1.094,4.444,4.444,0,0,1,1,3.1v.922H12.688a2.1,2.1,0,0,0,.66,1.328,2,2,0,0,0,1.395.5,2.437,2.437,0,0,0,2.039-.945l1.109,1.242A3.389,3.389,0,0,1,16.516-.246,4.511,4.511,0,0,1,14.594.156Zm-.258-6.945a1.411,1.411,0,0,0-1.09.455,2.357,2.357,0,0,0-.535,1.3h3.141v-.181a1.681,1.681,0,0,0-.406-1.165A1.456,1.456,0,0,0,14.336-6.789Zm9.766.453a6.134,6.134,0,0,0-.812-.062,1.654,1.654,0,0,0-1.68.867V0H19.352V-8.453h2.133l.063,1.008A2.092,2.092,0,0,1,23.43-8.609a2.366,2.366,0,0,1,.7.1Zm4.391,3.578,1.57-5.7h2.359L29.57,0H27.414L24.563-8.453h2.359ZM37.3.156A4.15,4.15,0,0,1,34.277-.984a4.054,4.054,0,0,1-1.168-3.039v-.219A5.106,5.106,0,0,1,33.6-6.52,3.612,3.612,0,0,1,35-8.066a3.914,3.914,0,0,1,2.059-.543,3.508,3.508,0,0,1,2.73,1.094,4.444,4.444,0,0,1,1,3.1v.922H35.4a2.1,2.1,0,0,0,.66,1.328,2,2,0,0,0,1.395.5,2.437,2.437,0,0,0,2.039-.945L40.6-1.367A3.389,3.389,0,0,1,39.227-.246,4.511,4.511,0,0,1,37.3.156Zm-.258-6.945a1.411,1.411,0,0,0-1.09.455,2.357,2.357,0,0,0-.535,1.3h3.141v-.181a1.681,1.681,0,0,0-.406-1.165A1.456,1.456,0,0,0,37.047-6.789Zm9.766.453A6.134,6.134,0,0,0,46-6.4a1.654,1.654,0,0,0-1.68.867V0H42.063V-8.453H44.2l.063,1.008a2.092,2.092,0,0,1,1.883-1.164,2.366,2.366,0,0,1,.7.1Zm5.664,4a.727.727,0,0,0-.41-.652,4.659,4.659,0,0,0-1.316-.426q-3.016-.633-3.016-2.562a2.323,2.323,0,0,1,.934-1.879,3.766,3.766,0,0,1,2.441-.754,4.053,4.053,0,0,1,2.574.758,2.388,2.388,0,0,1,.965,1.969H52.391a1.092,1.092,0,0,0-.312-.8A1.322,1.322,0,0,0,51.1-7a1.351,1.351,0,0,0-.883.258.814.814,0,0,0-.312.656.7.7,0,0,0,.355.605,3.657,3.657,0,0,0,1.2.4,9.8,9.8,0,0,1,1.422.379A2.336,2.336,0,0,1,54.672-2.43,2.2,2.2,0,0,1,53.68-.559a4.28,4.28,0,0,1-2.562.715A4.47,4.47,0,0,1,49.23-.223a3.166,3.166,0,0,1-1.293-1.039,2.414,2.414,0,0,1-.469-1.426h2.141a1.179,1.179,0,0,0,.445.922,1.766,1.766,0,0,0,1.109.32,1.635,1.635,0,0,0,.98-.246A.766.766,0,0,0,52.477-2.336Z" transform="translate(1965 -8745)" fill="#12263f"/>
    <path id="Trazado_197371" data-name="Trazado 197371" d="M10.266,0H7.922L3.359-7.484V0H1.016V-11.375H3.359l4.57,7.5v-7.5h2.336Zm5.789.156A4.15,4.15,0,0,1,13.027-.984a4.054,4.054,0,0,1-1.168-3.039v-.219a5.106,5.106,0,0,1,.492-2.277,3.612,3.612,0,0,1,1.395-1.547A3.914,3.914,0,0,1,15.8-8.609a3.508,3.508,0,0,1,2.73,1.094,4.444,4.444,0,0,1,1,3.1v.922H14.148a2.1,2.1,0,0,0,.66,1.328,2,2,0,0,0,1.395.5,2.437,2.437,0,0,0,2.039-.945l1.109,1.242A3.389,3.389,0,0,1,17.977-.246,4.511,4.511,0,0,1,16.055.156ZM15.8-6.789a1.411,1.411,0,0,0-1.09.455,2.357,2.357,0,0,0-.535,1.3h3.141v-.181a1.681,1.681,0,0,0-.406-1.165A1.456,1.456,0,0,0,15.8-6.789Zm7.719-3.742v2.078h1.445V-6.8H23.516v4.219a1.007,1.007,0,0,0,.18.672.9.9,0,0,0,.688.2,3.6,3.6,0,0,0,.664-.055V-.047a4.648,4.648,0,0,1-1.367.2,2.156,2.156,0,0,1-2.422-2.4V-6.8H20.023V-8.453h1.234v-2.078ZM33.57-3.07,34.68-8.453h2.18L34.7,0H32.813l-1.6-5.32L29.609,0H27.727L25.57-8.453h2.18l1.1,5.375L30.4-8.453h1.633ZM37.625-4.3a5.013,5.013,0,0,1,.484-2.242A3.546,3.546,0,0,1,39.5-8.07a4.069,4.069,0,0,1,2.113-.539A3.849,3.849,0,0,1,44.41-7.562a4.2,4.2,0,0,1,1.207,2.844l.016.578A4.418,4.418,0,0,1,44.547-1.02,3.775,3.775,0,0,1,41.633.156a3.793,3.793,0,0,1-2.918-1.172A4.5,4.5,0,0,1,37.625-4.2Zm2.258.16A3.16,3.16,0,0,0,40.336-2.3a1.5,1.5,0,0,0,1.3.638,1.5,1.5,0,0,0,1.281-.63,3.457,3.457,0,0,0,.461-2.015,3.128,3.128,0,0,0-.461-1.831,1.5,1.5,0,0,0-1.3-.649,1.474,1.474,0,0,0-1.281.646A3.516,3.516,0,0,0,39.883-4.144ZM51.773-6.336a6.134,6.134,0,0,0-.812-.062,1.654,1.654,0,0,0-1.68.867V0H47.023V-8.453h2.133l.063,1.008A2.092,2.092,0,0,1,51.1-8.609a2.366,2.366,0,0,1,.7.1ZM55.93-3.391l-.812.813V0H52.859V-12h2.258v6.648l.438-.562,2.164-2.539H60.43L57.375-4.93,60.7,0H58.1ZM69.969-2.336a.727.727,0,0,0-.41-.652,4.659,4.659,0,0,0-1.316-.426q-3.016-.633-3.016-2.562a2.323,2.323,0,0,1,.934-1.879A3.766,3.766,0,0,1,68.6-8.609a4.053,4.053,0,0,1,2.574.758,2.388,2.388,0,0,1,.965,1.969H69.883a1.092,1.092,0,0,0-.312-.8A1.322,1.322,0,0,0,68.594-7a1.351,1.351,0,0,0-.883.258.814.814,0,0,0-.312.656.7.7,0,0,0,.355.605,3.657,3.657,0,0,0,1.2.4,9.8,9.8,0,0,1,1.422.379A2.336,2.336,0,0,1,72.164-2.43a2.2,2.2,0,0,1-.992,1.871,4.28,4.28,0,0,1-2.562.715,4.47,4.47,0,0,1-1.887-.379A3.166,3.166,0,0,1,65.43-1.262a2.414,2.414,0,0,1-.469-1.426H67.1a1.179,1.179,0,0,0,.445.922,1.766,1.766,0,0,0,1.109.32,1.635,1.635,0,0,0,.98-.246A.766.766,0,0,0,69.969-2.336Zm11-.734,1.109-5.383h2.18L82.1,0H80.211l-1.6-5.32L77.008,0H75.125L72.969-8.453h2.18l1.1,5.375L77.8-8.453H79.43ZM87.758,0H85.492V-8.453h2.266Zm-2.4-10.641a1.112,1.112,0,0,1,.34-.836,1.277,1.277,0,0,1,.926-.328,1.28,1.28,0,0,1,.922.328,1.105,1.105,0,0,1,.344.836,1.108,1.108,0,0,1-.348.844,1.283,1.283,0,0,1-.918.328,1.283,1.283,0,0,1-.918-.328A1.108,1.108,0,0,1,85.359-10.641Zm6.961.109v2.078h1.445V-6.8H92.32v4.219a1.007,1.007,0,0,0,.18.672.9.9,0,0,0,.688.2,3.6,3.6,0,0,0,.664-.055V-.047a4.648,4.648,0,0,1-1.367.2,2.156,2.156,0,0,1-2.422-2.4V-6.8H88.828V-8.453h1.234v-2.078Zm6.219,8.867a1.481,1.481,0,0,0,1.016-.344,1.2,1.2,0,0,0,.406-.914h2.117a2.9,2.9,0,0,1-.469,1.574,3.093,3.093,0,0,1-1.262,1.109,3.949,3.949,0,0,1-1.77.395A3.67,3.67,0,0,1,95.719-1,4.56,4.56,0,0,1,94.672-4.18v-.148a4.508,4.508,0,0,1,1.039-3.117,3.627,3.627,0,0,1,2.852-1.164,3.555,3.555,0,0,1,2.543.9,3.2,3.2,0,0,1,.973,2.4H99.961a1.551,1.551,0,0,0-.406-1.072,1.354,1.354,0,0,0-1.031-.412,1.36,1.36,0,0,0-1.191.575,3.333,3.333,0,0,0-.4,1.866v.235a3.375,3.375,0,0,0,.4,1.878A1.377,1.377,0,0,0,98.539-1.664Zm7.031-5.867a2.818,2.818,0,0,1,2.258-1.078q2.75,0,2.789,3.2V0h-2.258V-5.352a1.57,1.57,0,0,0-.312-1.074,1.34,1.34,0,0,0-1.039-.348,1.537,1.537,0,0,0-1.437.766V0h-2.258V-12h2.258Z" transform="translate(1771 -8732)" fill="#12263f"/>
    <path id="Trazado_197373" data-name="Trazado 197373" d="M7.859-4.648h-4.5V0H1.016V-11.375H8.422v1.9H3.359v2.938h4.5ZM12.016,0H9.75V-8.453h2.266Zm-2.4-10.641a1.112,1.112,0,0,1,.34-.836,1.277,1.277,0,0,1,.926-.328,1.28,1.28,0,0,1,.922.328,1.105,1.105,0,0,1,.344.836A1.108,1.108,0,0,1,11.8-9.8a1.283,1.283,0,0,1-.918.328A1.283,1.283,0,0,1,9.965-9.8,1.108,1.108,0,0,1,9.617-10.641ZM21.492-4.148A5.119,5.119,0,0,1,20.625-.98,2.872,2.872,0,0,1,18.2.156,2.639,2.639,0,0,1,16.008-.9l-.1.9H13.875V-12h2.258v4.3a2.571,2.571,0,0,1,2.055-.914,2.9,2.9,0,0,1,2.426,1.137,5.126,5.126,0,0,1,.879,3.2Zm-2.258-.164a3.363,3.363,0,0,0-.406-1.871,1.374,1.374,0,0,0-1.211-.59,1.489,1.489,0,0,0-1.484.883v3.336a1.509,1.509,0,0,0,1.5.891A1.394,1.394,0,0,0,19.07-2.742,5.562,5.562,0,0,0,19.234-4.312ZM26.773.156A4.15,4.15,0,0,1,23.746-.984a4.054,4.054,0,0,1-1.168-3.039v-.219A5.106,5.106,0,0,1,23.07-6.52a3.612,3.612,0,0,1,1.395-1.547,3.914,3.914,0,0,1,2.059-.543,3.508,3.508,0,0,1,2.73,1.094,4.444,4.444,0,0,1,1,3.1v.922H24.867a2.1,2.1,0,0,0,.66,1.328,2,2,0,0,0,1.395.5,2.437,2.437,0,0,0,2.039-.945L30.07-1.367A3.389,3.389,0,0,1,28.7-.246,4.511,4.511,0,0,1,26.773.156Zm-.258-6.945a1.411,1.411,0,0,0-1.09.455,2.357,2.357,0,0,0-.535,1.3h3.141v-.181a1.681,1.681,0,0,0-.406-1.165A1.456,1.456,0,0,0,26.516-6.789Zm9.766.453a6.134,6.134,0,0,0-.812-.062,1.654,1.654,0,0,0-1.68.867V0H31.531V-8.453h2.133l.063,1.008a2.092,2.092,0,0,1,1.883-1.164,2.366,2.366,0,0,1,.7.1Zm8.586,4.672a1.481,1.481,0,0,0,1.016-.344,1.2,1.2,0,0,0,.406-.914h2.117a2.9,2.9,0,0,1-.469,1.574A3.093,3.093,0,0,1,46.676-.238a3.949,3.949,0,0,1-1.77.395A3.67,3.67,0,0,1,42.047-1,4.56,4.56,0,0,1,41-4.18v-.148a4.508,4.508,0,0,1,1.039-3.117,3.627,3.627,0,0,1,2.852-1.164,3.555,3.555,0,0,1,2.543.9,3.2,3.2,0,0,1,.973,2.4H46.289a1.551,1.551,0,0,0-.406-1.072,1.354,1.354,0,0,0-1.031-.412,1.36,1.36,0,0,0-1.191.575,3.333,3.333,0,0,0-.4,1.866v.235a3.375,3.375,0,0,0,.4,1.878A1.377,1.377,0,0,0,44.867-1.664ZM51.9-7.531a2.818,2.818,0,0,1,2.258-1.078q2.75,0,2.789,3.2V0H54.688V-5.352a1.57,1.57,0,0,0-.312-1.074,1.34,1.34,0,0,0-1.039-.348,1.537,1.537,0,0,0-1.437.766V0H49.641V-12H51.9ZM63.547,0a2.507,2.507,0,0,1-.227-.758,2.732,2.732,0,0,1-2.133.914,3,3,0,0,1-2.059-.719,2.312,2.312,0,0,1-.816-1.812,2.389,2.389,0,0,1,1-2.062,4.915,4.915,0,0,1,2.879-.727h1.039v-.484a1.393,1.393,0,0,0-.3-.937,1.183,1.183,0,0,0-.949-.352,1.345,1.345,0,0,0-.895.273.929.929,0,0,0-.324.75H58.5a2.268,2.268,0,0,1,.453-1.359,3,3,0,0,1,1.281-.98,4.669,4.669,0,0,1,1.859-.355,3.689,3.689,0,0,1,2.48.785,2.747,2.747,0,0,1,.918,2.207v3.664a4.041,4.041,0,0,0,.336,1.82V0ZM61.68-1.57a1.945,1.945,0,0,0,.922-.223,1.462,1.462,0,0,0,.625-.6V-3.844h-.844q-1.7,0-1.8,1.172l-.008.133a.9.9,0,0,0,.3.7A1.153,1.153,0,0,0,61.68-1.57ZM69.3-8.453l.07.977A2.951,2.951,0,0,1,71.8-8.609a2.453,2.453,0,0,1,2,.789,3.682,3.682,0,0,1,.672,2.359V0H72.219V-5.406a1.465,1.465,0,0,0-.312-1.043,1.4,1.4,0,0,0-1.039-.324,1.553,1.553,0,0,0-1.43.813V0H67.18V-8.453Zm8.961,0,.07.977a2.951,2.951,0,0,1,2.43-1.133,2.453,2.453,0,0,1,2,.789,3.682,3.682,0,0,1,.672,2.359V0H81.18V-5.406a1.465,1.465,0,0,0-.312-1.043,1.4,1.4,0,0,0-1.039-.324,1.553,1.553,0,0,0-1.43.813V0H76.141V-8.453ZM89.039.156A4.15,4.15,0,0,1,86.012-.984a4.054,4.054,0,0,1-1.168-3.039v-.219a5.106,5.106,0,0,1,.492-2.277A3.612,3.612,0,0,1,86.73-8.066a3.914,3.914,0,0,1,2.059-.543,3.508,3.508,0,0,1,2.73,1.094,4.444,4.444,0,0,1,1,3.1v.922H87.133a2.1,2.1,0,0,0,.66,1.328,2,2,0,0,0,1.395.5,2.437,2.437,0,0,0,2.039-.945l1.109,1.242A3.389,3.389,0,0,1,90.961-.246,4.511,4.511,0,0,1,89.039.156Zm-.258-6.945a1.411,1.411,0,0,0-1.09.455,2.357,2.357,0,0,0-.535,1.3H90.3v-.181a1.681,1.681,0,0,0-.406-1.165A1.456,1.456,0,0,0,88.781-6.789ZM96.18,0H93.914V-12H96.18Z" transform="translate(2112 -8732)" fill="#12263f"/>
    <path id="Trazado_197243" data-name="Trazado 197243" d="M3109.867-8516.166h-33.492" transform="translate(-1354.075 -177)" fill="none" stroke="#12263f" stroke-width="4"/>
    <path id="Trazado_197249" data-name="Trazado 197249" d="M3092.451-8516.166h-16.076" transform="translate(-849.187 -177)" fill="none" stroke="#12263f" stroke-width="4"/>
    <path id="Trazado_197251" data-name="Trazado 197251" d="M3089.172-8516.166h-12.8" transform="translate(-835.187 -273.336)" fill="none" stroke="#12263f" stroke-width="4"/>
    <path id="Trazado_197252" data-name="Trazado 197252" d="M3089.172-8516.166h-12.8" transform="translate(-835.187 -80.664)" fill="none" stroke="#12263f" stroke-width="4"/>
    <path id="Trazado_197247" data-name="Trazado 197247" d="M3093.121-8516.166h-16.746" transform="translate(-1186.34 -177)" fill="none" stroke="#12263f" stroke-width="4"/>
    <path id="Trazado_197248" data-name="Trazado 197248" d="M3098.022-8516.166h-21.648" transform="translate(-1002.21 -177)" fill="none" stroke="#12263f" stroke-width="4"/>
    <path id="Trazado_197245" data-name="Trazado 197245" d="M3093.121-8516.166h-16.746" transform="translate(-1354.075 -273.336)" fill="none" stroke="#12263f" stroke-width="4"/>
    <path id="Trazado_197246" data-name="Trazado 197246" d="M3093.121-8516.166h-16.746" transform="translate(-1354.075 -80.664)" fill="none" stroke="#12263f" stroke-width="4"/>
    <path id="Trazado_197244" data-name="Trazado 197244" d="M3271.645-8516.166h-195.27" transform="translate(10254.541 -5519.156) rotate(-90)" fill="none" stroke="#12263f" stroke-width="4"/>
    <path id="Trazado_197250" data-name="Trazado 197250" d="M3271.645-8516.166h-195.27" transform="translate(10759.43 -5519.156) rotate(-90)" fill="none" stroke="#12263f" stroke-width="4"/>
  </g>
</svg>
