<svg xmlns="http://www.w3.org/2000/svg" xmlns:xlink="http://www.w3.org/1999/xlink" width="67.321" height="67.321" viewBox="0 0 67.321 67.321">
  <defs>
    <radialGradient id="radial-gradient" cx="0.076" cy="0.019" r="1.465" gradientTransform="translate(0.001)" gradientUnits="objectBoundingBox">
      <stop offset="0" stop-color="#f6f6f7"/>
      <stop offset="0.477" stop-color="#f9f9fa"/>
      <stop offset="0.715" stop-color="#fff"/>
    </radialGradient>
  </defs>
  <g id="Grupo_155314" data-name="Grupo 155314" transform="translate(0)">
    <g id="Grupo_18423" data-name="Grupo 18423" transform="translate(0 0)">
      <g id="Grupo_18421" data-name="Grupo 18421">
        <g id="Grupo_18420" data-name="Grupo 18420">
          <g id="Grupo_18419" data-name="Grupo 18419">
            <path id="Trazado_40936" data-name="Trazado 40936" d="M261.944,2179.381a33.661,33.661,0,1,1-33.66-33.659A33.66,33.66,0,0,1,261.944,2179.381Z" transform="translate(-194.623 -2145.721)" fill="#fff"/>
          </g>
        </g>
      </g>
      <path id="Trazado_40937" data-name="Trazado 40937" d="M261.938,2179.375a33.66,33.66,0,1,0-33.66,33.661A33.528,33.528,0,0,0,261.938,2179.375Z" transform="translate(-194.617 -2145.715)" fill="url(#radial-gradient)"/>
      <path id="Trazado_40938" data-name="Trazado 40938" d="M254.018,2179.432a25.693,25.693,0,1,0-25.693,25.693A25.6,25.6,0,0,0,254.018,2179.432Z" transform="translate(-194.563 -2145.66)" fill="none" stroke="#2ec49f" stroke-miterlimit="10" stroke-width="4"/>
      <g id="Grupo_18422" data-name="Grupo 18422" transform="translate(5.963 18.898)">
        <path id="Trazado_40939" data-name="Trazado 40939" d="M258.5,2164.488a33.665,33.665,0,0,1-57.954,33.521,33.558,33.558,0,0,0,57.954-33.521Z" transform="translate(-200.545 -2164.488)" fill="#eceef0"/>
      </g>
    </g>
    <g id="Grupo_42276" data-name="Grupo 42276" transform="translate(17.59 21.846)">
      <path id="Trazado_40970" data-name="Trazado 40970" d="M348.1,31.531a2.437,2.437,0,1,1,2.436-2.437A2.439,2.439,0,0,1,348.1,31.531Zm0-3.923a1.486,1.486,0,1,0,1.485,1.486A1.488,1.488,0,0,0,348.1,27.608Z" transform="translate(-343.143 -25.147)" fill="#00223d"/>
      <path id="Trazado_40971" data-name="Trazado 40971" d="M344.983,46.642a.475.475,0,0,1-.475-.475V41.14a.475.475,0,0,1,.951,0v5.027A.475.475,0,0,1,344.983,46.642Z" transform="translate(-342.663 -30.956)" fill="#00223d"/>
      <path id="Trazado_40972" data-name="Trazado 40972" d="M348.952,55.743h-1.984a.475.475,0,0,1-.475-.475V47.131a.177.177,0,0,0-.063-.136.18.18,0,0,0-.149-.04.208.208,0,0,0-.145.211v8.1a.476.476,0,0,1-.475.475h-1.985a.475.475,0,0,1-.475-.475V45.49a1.4,1.4,0,0,1-1.845-1.358V39.079a3.188,3.188,0,0,1,2.825-3.168,18.4,18.4,0,0,1,2.138-.071.476.476,0,0,1,0,.951,17.26,17.26,0,0,0-2.025.064,2.236,2.236,0,0,0-1.982,2.223v5.053a.47.47,0,0,0,.354.472.448.448,0,0,0,.54-.438.475.475,0,1,1,.95,0V54.792h1.034V47.165a1.157,1.157,0,0,1,.943-1.149,1.13,1.13,0,0,1,1.315,1.114v7.661h1.034V44.165a.475.475,0,0,1,.951,0v11.1A.475.475,0,0,1,348.952,55.743Z" transform="translate(-341.356 -28.955)" fill="#00223d"/>
      <path id="Trazado_40973" data-name="Trazado 40973" d="M348.859,45.447a.476.476,0,0,1-.424-.259l-.891-1.747a.476.476,0,0,1-.049-.267l.281-2.611a.475.475,0,1,1,.945.1l-.266,2.47.4.791.4-.791L349,40.683a.475.475,0,0,1,.945-.1l.279,2.592a.476.476,0,0,1-.049.267l-.891,1.747A.474.474,0,0,1,348.859,45.447Z" transform="translate(-343.901 -30.738)" fill="#00223d"/>
      <path id="Trazado_40974" data-name="Trazado 40974" d="M350.259,51.187h-5.276a.475.475,0,1,1,0-.95h5.276a.475.475,0,1,1,0,.95Z" transform="translate(-342.663 -34.926)" fill="#00223d"/>
      <path id="Trazado_40975" data-name="Trazado 40975" d="M352.129,44.642a.475.475,0,0,1-.475-.475V38.322a.476.476,0,0,1,.475-.475H357.5a.527.527,0,1,0,0-1.054h-8.011a.476.476,0,0,1,0-.951H357.5a1.478,1.478,0,1,1,0,2.956h-4.9v5.369A.475.475,0,0,1,352.129,44.642Z" transform="translate(-344.533 -28.956)" fill="#00223d"/>
      <path id="Trazado_40976" data-name="Trazado 40976" d="M381.7,40.516H361.942a.475.475,0,0,1-.475-.475v-6.6a.475.475,0,0,1,.475-.475h.723a.527.527,0,1,0,0-1.054h-.723a.475.475,0,0,1-.475-.476V24.553a.475.475,0,0,1,.475-.476H381.7a.476.476,0,0,1,.475.476V40.04A.476.476,0,0,1,381.7,40.516Zm-19.282-.95h18.807V25.028H362.418v5.935h.248a1.478,1.478,0,0,1,0,2.956h-.248Z" transform="translate(-349.696 -24.077)" fill="#00223d"/>
      <path id="Trazado_40977" data-name="Trazado 40977" d="M382.857,32.784a.469.469,0,0,1-.181-.036.475.475,0,0,1-.294-.439v-5.1a.476.476,0,0,1,.476-.475,5.535,5.535,0,0,1,3.941,1.632.476.476,0,0,1,0,.672l-3.6,3.6A.473.473,0,0,1,382.857,32.784Zm.476-5.074v3.451l2.44-2.441A4.582,4.582,0,0,0,383.333,27.709Z" transform="translate(-358.37 -25.179)" fill="#00223d"/>
      <path id="Trazado_40978" data-name="Trazado 40978" d="M376.842,39.744a5.574,5.574,0,1,1,0-11.147.476.476,0,0,1,.475.475v4.9l3.465,3.466a.475.475,0,0,1,0,.672A5.535,5.535,0,0,1,376.842,39.744Zm-.475-10.172a4.623,4.623,0,1,0,3.391,8.187l-3.252-3.252a.474.474,0,0,1-.139-.336Z" transform="translate(-353.761 -25.952)" fill="#00223d"/>
      <path id="Trazado_40979" data-name="Trazado 40979" d="M387.936,39.31a.475.475,0,0,1-.337-.139l-3.6-3.6a.476.476,0,0,1,0-.672l3.6-3.6a.476.476,0,0,1,.625-.042,5.063,5.063,0,0,1,1.68,3.983,5.538,5.538,0,0,1-1.632,3.941A.474.474,0,0,1,387.936,39.31ZM385,35.23l2.916,2.916a4.592,4.592,0,0,0,1.035-2.916,4.4,4.4,0,0,0-1.014-2.938Z" transform="translate(-358.981 -27.01)" fill="#00223d"/>
      <path id="Trazado_40980" data-name="Trazado 40980" d="M381.231,53.152H360.648a1.306,1.306,0,1,1,0-2.612h20.582a1.306,1.306,0,0,1,0,2.612ZM360.648,51.49a.356.356,0,0,0,0,.711h20.582a.356.356,0,0,0,0-.711Z" transform="translate(-348.815 -35.052)" fill="#00223d"/>
    </g>
  </g>
</svg>
